G04*
G04 #@! TF.GenerationSoftware,Altium Limited,Altium Designer,23.10.1 (27)*
G04*
G04 Layer_Color=65535*
%FSLAX25Y25*%
%MOIN*%
G70*
G04*
G04 #@! TF.SameCoordinates,D58E8A5F-C196-4DC0-9E6E-83BCDBF650AB*
G04*
G04*
G04 #@! TF.FilePolarity,Positive*
G04*
G01*
G75*
%ADD10C,0.01000*%
%ADD11C,0.00787*%
%ADD12C,0.00600*%
%ADD13C,0.00591*%
G36*
X27608Y333159D02*
X26359D01*
X26600Y334288D01*
X27839D01*
X27608Y333159D01*
D02*
G37*
G36*
X37015Y332623D02*
X37126Y332614D01*
X37256Y332595D01*
X37404Y332549D01*
X37552Y332493D01*
X37700Y332410D01*
X37839Y332299D01*
X37857Y332281D01*
X37894Y332244D01*
X37940Y332170D01*
X38005Y332068D01*
X38070Y331939D01*
X38116Y331790D01*
X38153Y331624D01*
X38171Y331430D01*
Y331420D01*
Y331383D01*
X38162Y331319D01*
X38144Y331217D01*
X38125Y331097D01*
X38098Y330930D01*
X38079Y330838D01*
X38061Y330736D01*
X38033Y330625D01*
X38005Y330505D01*
X37441Y327887D01*
X36201D01*
X36766Y330514D01*
Y330523D01*
X36775Y330542D01*
Y330570D01*
X36784Y330607D01*
X36803Y330708D01*
X36830Y330819D01*
X36849Y330940D01*
X36867Y331060D01*
X36886Y331152D01*
X36895Y331189D01*
Y331217D01*
Y331226D01*
Y331254D01*
X36886Y331300D01*
X36876Y331356D01*
X36858Y331411D01*
X36830Y331476D01*
X36793Y331541D01*
X36747Y331596D01*
X36738Y331606D01*
X36719Y331615D01*
X36691Y331643D01*
X36645Y331670D01*
X36590Y331689D01*
X36525Y331716D01*
X36442Y331726D01*
X36349Y331735D01*
X36303D01*
X36248Y331726D01*
X36164Y331707D01*
X36072Y331680D01*
X35970Y331633D01*
X35859Y331578D01*
X35730Y331504D01*
X35711Y331494D01*
X35674Y331457D01*
X35609Y331411D01*
X35535Y331337D01*
X35452Y331254D01*
X35359Y331152D01*
X35276Y331032D01*
X35193Y330893D01*
X35184Y330884D01*
X35165Y330838D01*
X35138Y330764D01*
X35119Y330708D01*
X35100Y330653D01*
X35082Y330579D01*
X35054Y330505D01*
X35026Y330412D01*
X34999Y330311D01*
X34971Y330200D01*
X34934Y330070D01*
X34906Y329931D01*
X34869Y329783D01*
X34471Y327887D01*
X33232D01*
X34203Y332530D01*
X35387D01*
X35267Y331920D01*
X35276D01*
X35285Y331939D01*
X35341Y331985D01*
X35434Y332049D01*
X35544Y332133D01*
X35674Y332216D01*
X35813Y332309D01*
X35961Y332392D01*
X36109Y332466D01*
X36127Y332475D01*
X36173Y332493D01*
X36257Y332521D01*
X36358Y332549D01*
X36479Y332577D01*
X36617Y332605D01*
X36766Y332623D01*
X36923Y332632D01*
X36978D01*
X37015Y332623D01*
D02*
G37*
G36*
X47930Y327887D02*
X46755D01*
X46857Y328377D01*
X46839Y328359D01*
X46802Y328322D01*
X46728Y328266D01*
X46644Y328192D01*
X46543Y328118D01*
X46432Y328035D01*
X46312Y327970D01*
X46182Y327906D01*
X46163Y327896D01*
X46126Y327887D01*
X46053Y327859D01*
X45960Y327841D01*
X45849Y327813D01*
X45729Y327785D01*
X45581Y327776D01*
X45433Y327767D01*
X45368D01*
X45312Y327776D01*
X45248Y327785D01*
X45183Y327795D01*
X45017Y327832D01*
X44831Y327887D01*
X44637Y327970D01*
X44535Y328026D01*
X44443Y328100D01*
X44350Y328174D01*
X44267Y328257D01*
X44258Y328266D01*
X44249Y328285D01*
X44230Y328312D01*
X44203Y328349D01*
X44166Y328396D01*
X44129Y328461D01*
X44091Y328535D01*
X44045Y328627D01*
X44008Y328719D01*
X43962Y328831D01*
X43925Y328951D01*
X43897Y329080D01*
X43860Y329219D01*
X43842Y329367D01*
X43832Y329534D01*
X43823Y329709D01*
Y329718D01*
Y329755D01*
Y329820D01*
X43832Y329894D01*
X43842Y329996D01*
X43860Y330107D01*
X43879Y330237D01*
X43907Y330384D01*
X43934Y330533D01*
X43981Y330690D01*
X44027Y330856D01*
X44091Y331032D01*
X44166Y331208D01*
X44249Y331383D01*
X44350Y331559D01*
X44462Y331726D01*
X44471Y331735D01*
X44489Y331763D01*
X44526Y331809D01*
X44582Y331865D01*
X44637Y331939D01*
X44721Y332013D01*
X44813Y332096D01*
X44915Y332179D01*
X45026Y332262D01*
X45155Y332346D01*
X45294Y332419D01*
X45442Y332493D01*
X45599Y332549D01*
X45775Y332595D01*
X45951Y332623D01*
X46145Y332632D01*
X46191D01*
X46237Y332623D01*
X46302D01*
X46376Y332614D01*
X46469Y332595D01*
X46571Y332568D01*
X46681Y332540D01*
X46793Y332503D01*
X46913Y332447D01*
X47033Y332392D01*
X47144Y332318D01*
X47264Y332235D01*
X47375Y332133D01*
X47477Y332013D01*
X47570Y331883D01*
X48097Y334288D01*
X49336D01*
X47930Y327887D01*
D02*
G37*
G36*
X83922Y332614D02*
X84042Y332595D01*
X84181Y332558D01*
X84329Y332503D01*
X84468Y332429D01*
X84588Y332327D01*
X84597Y332318D01*
X84634Y332272D01*
X84690Y332207D01*
X84745Y332114D01*
X84801Y332003D01*
X84856Y331874D01*
X84893Y331716D01*
X84903Y331541D01*
Y331532D01*
Y331494D01*
X84893Y331430D01*
X84884Y331347D01*
X84875Y331236D01*
X84847Y331087D01*
X84819Y330912D01*
X84773Y330708D01*
X84162Y327887D01*
X82923D01*
X83524Y330708D01*
Y330717D01*
X83534Y330736D01*
Y330754D01*
X83543Y330791D01*
X83561Y330884D01*
X83580Y330986D01*
X83598Y331087D01*
X83617Y331189D01*
X83635Y331263D01*
Y331291D01*
Y331310D01*
Y331319D01*
Y331347D01*
X83626Y331374D01*
X83617Y331420D01*
X83589Y331522D01*
X83552Y331569D01*
X83515Y331615D01*
X83506Y331624D01*
X83496Y331633D01*
X83469Y331652D01*
X83432Y331680D01*
X83385Y331698D01*
X83321Y331716D01*
X83256Y331726D01*
X83173Y331735D01*
X83126D01*
X83090Y331726D01*
X82997Y331707D01*
X82886Y331670D01*
X82757Y331615D01*
X82608Y331522D01*
X82534Y331467D01*
X82460Y331402D01*
X82396Y331328D01*
X82322Y331236D01*
X82313Y331217D01*
X82294Y331199D01*
X82275Y331171D01*
X82257Y331124D01*
X82229Y331078D01*
X82192Y331013D01*
X82165Y330949D01*
X82127Y330866D01*
X82091Y330773D01*
X82054Y330671D01*
X82016Y330560D01*
X81970Y330440D01*
X81933Y330301D01*
X81896Y330153D01*
X81859Y329987D01*
X81415Y327887D01*
X80176D01*
X80759Y330680D01*
Y330690D01*
X80768Y330699D01*
X80777Y330764D01*
X80796Y330847D01*
X80814Y330940D01*
X80832Y331050D01*
X80842Y331152D01*
X80860Y331245D01*
Y331310D01*
Y331319D01*
Y331337D01*
X80851Y331374D01*
X80842Y331420D01*
X80805Y331513D01*
X80777Y331569D01*
X80731Y331615D01*
X80721Y331624D01*
X80712Y331633D01*
X80685Y331652D01*
X80647Y331680D01*
X80592Y331698D01*
X80537Y331716D01*
X80472Y331726D01*
X80388Y331735D01*
X80352D01*
X80314Y331726D01*
X80259Y331716D01*
X80194Y331707D01*
X80120Y331680D01*
X80046Y331652D01*
X79963Y331606D01*
X79954Y331596D01*
X79926Y331587D01*
X79880Y331559D01*
X79834Y331522D01*
X79769Y331476D01*
X79704Y331411D01*
X79639Y331347D01*
X79575Y331273D01*
X79565Y331263D01*
X79547Y331236D01*
X79519Y331189D01*
X79482Y331124D01*
X79436Y331050D01*
X79390Y330949D01*
X79343Y330847D01*
X79297Y330727D01*
Y330717D01*
X79288Y330690D01*
X79269Y330644D01*
X79251Y330579D01*
X79232Y330486D01*
X79195Y330357D01*
X79158Y330209D01*
X79140Y330116D01*
X79112Y330014D01*
X78668Y327887D01*
X77429D01*
X78400Y332530D01*
X79575D01*
X79463Y331966D01*
X79473Y331976D01*
X79491Y331994D01*
X79528Y332031D01*
X79584Y332068D01*
X79649Y332123D01*
X79722Y332179D01*
X79806Y332235D01*
X79908Y332299D01*
X80129Y332419D01*
X80370Y332530D01*
X80509Y332568D01*
X80638Y332605D01*
X80786Y332623D01*
X80925Y332632D01*
X81008D01*
X81110Y332623D01*
X81221Y332605D01*
X81350Y332577D01*
X81489Y332540D01*
X81619Y332484D01*
X81730Y332410D01*
X81739Y332401D01*
X81776Y332373D01*
X81822Y332318D01*
X81887Y332253D01*
X81942Y332170D01*
X82007Y332059D01*
X82063Y331948D01*
X82100Y331809D01*
X82109Y331827D01*
X82146Y331865D01*
X82201Y331929D01*
X82275Y332013D01*
X82377Y332105D01*
X82488Y332197D01*
X82627Y332299D01*
X82784Y332392D01*
X82793D01*
X82803Y332401D01*
X82831Y332410D01*
X82867Y332429D01*
X82951Y332466D01*
X83071Y332512D01*
X83210Y332558D01*
X83376Y332595D01*
X83543Y332623D01*
X83728Y332632D01*
X83820D01*
X83922Y332614D01*
D02*
G37*
G36*
X23066Y332623D02*
X23140D01*
X23223Y332614D01*
X23427Y332595D01*
X23640Y332549D01*
X23871Y332493D01*
X24084Y332410D01*
X24176Y332355D01*
X24269Y332299D01*
X24278D01*
X24287Y332281D01*
X24343Y332244D01*
X24426Y332170D01*
X24519Y332068D01*
X24620Y331939D01*
X24713Y331790D01*
X24796Y331615D01*
X24861Y331411D01*
X23705Y331217D01*
Y331226D01*
X23686Y331254D01*
X23667Y331300D01*
X23630Y331356D01*
X23594Y331420D01*
X23538Y331476D01*
X23473Y331541D01*
X23399Y331587D01*
X23390Y331596D01*
X23353Y331615D01*
X23288Y331643D01*
X23214Y331680D01*
X23112Y331707D01*
X23001Y331735D01*
X22872Y331753D01*
X22724Y331763D01*
X22659D01*
X22585Y331753D01*
X22502Y331744D01*
X22410Y331726D01*
X22317Y331707D01*
X22224Y331670D01*
X22151Y331624D01*
X22141Y331615D01*
X22123Y331606D01*
X22095Y331578D01*
X22067Y331541D01*
X22012Y331448D01*
X21993Y331393D01*
X21984Y331328D01*
Y331319D01*
Y331300D01*
X21993Y331263D01*
X22003Y331226D01*
X22021Y331180D01*
X22058Y331134D01*
X22095Y331087D01*
X22151Y331041D01*
X22160D01*
X22178Y331023D01*
X22215Y331004D01*
X22280Y330986D01*
X22373Y330949D01*
X22428Y330930D01*
X22502Y330903D01*
X22576Y330884D01*
X22659Y330856D01*
X22752Y330819D01*
X22863Y330791D01*
X22872D01*
X22900Y330782D01*
X22946Y330764D01*
X23011Y330745D01*
X23085Y330717D01*
X23168Y330690D01*
X23362Y330625D01*
X23566Y330551D01*
X23769Y330458D01*
X23862Y330412D01*
X23954Y330366D01*
X24028Y330320D01*
X24093Y330274D01*
X24102D01*
X24112Y330255D01*
X24167Y330209D01*
X24232Y330125D01*
X24315Y330024D01*
X24398Y329894D01*
X24472Y329746D01*
X24519Y329580D01*
X24528Y329487D01*
X24537Y329395D01*
Y329385D01*
Y329367D01*
Y329330D01*
X24528Y329284D01*
X24519Y329228D01*
X24509Y329164D01*
X24463Y329006D01*
X24398Y328831D01*
X24352Y328729D01*
X24296Y328636D01*
X24232Y328535D01*
X24158Y328442D01*
X24074Y328340D01*
X23973Y328248D01*
X23964Y328239D01*
X23945Y328229D01*
X23917Y328202D01*
X23871Y328174D01*
X23816Y328137D01*
X23742Y328100D01*
X23658Y328053D01*
X23566Y328007D01*
X23464Y327961D01*
X23344Y327915D01*
X23223Y327878D01*
X23076Y327841D01*
X22928Y327813D01*
X22770Y327785D01*
X22594Y327776D01*
X22410Y327767D01*
X22317D01*
X22243Y327776D01*
X22160D01*
X22058Y327785D01*
X21956Y327795D01*
X21836Y327813D01*
X21586Y327859D01*
X21327Y327915D01*
X21078Y328007D01*
X20967Y328063D01*
X20855Y328128D01*
X20846D01*
X20828Y328146D01*
X20800Y328165D01*
X20763Y328192D01*
X20671Y328285D01*
X20560Y328396D01*
X20439Y328544D01*
X20310Y328729D01*
X20199Y328932D01*
X20116Y329173D01*
X21327Y329367D01*
X21337Y329348D01*
X21355Y329302D01*
X21392Y329238D01*
X21438Y329154D01*
X21494Y329062D01*
X21558Y328969D01*
X21642Y328886D01*
X21725Y328821D01*
X21734Y328812D01*
X21771Y328794D01*
X21827Y328775D01*
X21901Y328747D01*
X21993Y328710D01*
X22104Y328692D01*
X22234Y328673D01*
X22382Y328664D01*
X22456D01*
X22530Y328673D01*
X22632Y328692D01*
X22742Y328710D01*
X22863Y328738D01*
X22974Y328784D01*
X23076Y328849D01*
X23085Y328858D01*
X23103Y328877D01*
X23131Y328905D01*
X23168Y328941D01*
X23233Y329043D01*
X23251Y329099D01*
X23260Y329173D01*
Y329182D01*
Y329191D01*
X23251Y329247D01*
X23223Y329321D01*
X23168Y329395D01*
X23159Y329404D01*
X23149Y329413D01*
X23112Y329432D01*
X23066Y329460D01*
X22992Y329497D01*
X22900Y329543D01*
X22789Y329589D01*
X22641Y329635D01*
X22632D01*
X22594Y329654D01*
X22530Y329672D01*
X22456Y329700D01*
X22373Y329728D01*
X22271Y329765D01*
X22039Y329848D01*
X21799Y329950D01*
X21568Y330042D01*
X21457Y330098D01*
X21364Y330144D01*
X21290Y330190D01*
X21226Y330227D01*
X21207Y330246D01*
X21161Y330292D01*
X21096Y330366D01*
X21022Y330468D01*
X20939Y330597D01*
X20874Y330754D01*
X20828Y330930D01*
X20819Y331023D01*
X20809Y331124D01*
Y331134D01*
Y331152D01*
Y331180D01*
X20819Y331217D01*
X20828Y331319D01*
X20865Y331448D01*
X20911Y331596D01*
X20985Y331753D01*
X21087Y331911D01*
X21142Y331994D01*
X21216Y332068D01*
X21226Y332077D01*
X21244Y332096D01*
X21281Y332123D01*
X21327Y332160D01*
X21383Y332197D01*
X21457Y332244D01*
X21540Y332299D01*
X21642Y332355D01*
X21762Y332401D01*
X21882Y332456D01*
X22021Y332503D01*
X22178Y332549D01*
X22345Y332577D01*
X22521Y332605D01*
X22715Y332623D01*
X22918Y332632D01*
X23001D01*
X23066Y332623D01*
D02*
G37*
G36*
X70685Y327887D02*
X69492D01*
X70602Y333196D01*
X68225Y327887D01*
X66976D01*
X66736Y333233D01*
X65727Y327887D01*
X64534D01*
X65866Y334288D01*
X67744D01*
X67947Y329885D01*
X69955Y334288D01*
X71851D01*
X70685Y327887D01*
D02*
G37*
G36*
X59400Y327434D02*
Y327425D01*
X59382Y327406D01*
X59363Y327378D01*
X59345Y327332D01*
X59280Y327221D01*
X59197Y327092D01*
X59104Y326943D01*
X59012Y326796D01*
X58919Y326666D01*
X58836Y326555D01*
X58827Y326546D01*
X58799Y326509D01*
X58762Y326463D01*
X58706Y326407D01*
X58632Y326342D01*
X58549Y326277D01*
X58457Y326213D01*
X58355Y326148D01*
X58346Y326139D01*
X58309Y326130D01*
X58244Y326102D01*
X58161Y326074D01*
X58059Y326046D01*
X57948Y326028D01*
X57819Y326009D01*
X57670Y326000D01*
X57596D01*
X57522Y326009D01*
X57411Y326019D01*
X57282Y326037D01*
X57125Y326065D01*
X56958Y326102D01*
X56783Y326148D01*
X56884Y327082D01*
X56893D01*
X56921Y327073D01*
X56968Y327064D01*
X57023Y327045D01*
X57088Y327036D01*
X57162Y327017D01*
X57319Y327008D01*
X57347D01*
X57375Y327017D01*
X57411Y327027D01*
X57522Y327055D01*
X57587Y327082D01*
X57652Y327119D01*
X57726Y327166D01*
X57800Y327221D01*
X57883Y327295D01*
X57967Y327378D01*
X58040Y327480D01*
X58124Y327600D01*
X58198Y327730D01*
X58272Y327887D01*
X57467Y332530D01*
X58716D01*
X59021Y330209D01*
Y330200D01*
X59030Y330172D01*
Y330125D01*
X59039Y330061D01*
X59049Y329996D01*
X59058Y329913D01*
X59086Y329718D01*
X59104Y329515D01*
X59132Y329311D01*
X59150Y329127D01*
X59160Y329043D01*
Y328978D01*
X59169Y328997D01*
X59188Y329043D01*
X59206Y329089D01*
X59234Y329154D01*
X59262Y329238D01*
X59298Y329321D01*
X59336Y329422D01*
X59437Y329644D01*
X59548Y329894D01*
X59687Y330172D01*
X59835Y330458D01*
X60945Y332530D01*
X62268D01*
X59400Y327434D01*
D02*
G37*
G36*
X26498Y327887D02*
X25258D01*
X26230Y332530D01*
X27479D01*
X26498Y327887D01*
D02*
G37*
G36*
X12475Y334279D02*
X12632D01*
X12762Y334269D01*
X12808D01*
X12854Y334260D01*
X12873D01*
X12919Y334251D01*
X12993Y334242D01*
X13095Y334223D01*
X13206Y334205D01*
X13326Y334177D01*
X13566Y334094D01*
X13585Y334085D01*
X13622Y334075D01*
X13678Y334048D01*
X13761Y334011D01*
X13844Y333955D01*
X13946Y333899D01*
X14038Y333835D01*
X14140Y333752D01*
X14149Y333742D01*
X14186Y333715D01*
X14232Y333668D01*
X14297Y333604D01*
X14362Y333529D01*
X14436Y333437D01*
X14510Y333335D01*
X14584Y333224D01*
X14593Y333215D01*
X14612Y333169D01*
X14649Y333104D01*
X14686Y333021D01*
X14732Y332919D01*
X14787Y332799D01*
X14834Y332660D01*
X14871Y332512D01*
X14880Y332493D01*
X14889Y332438D01*
X14908Y332355D01*
X14926Y332253D01*
X14945Y332123D01*
X14954Y331966D01*
X14973Y331809D01*
Y331633D01*
Y331624D01*
Y331587D01*
Y331532D01*
X14963Y331457D01*
Y331365D01*
X14954Y331263D01*
X14935Y331143D01*
X14926Y331013D01*
X14898Y330875D01*
X14880Y330727D01*
X14806Y330421D01*
X14704Y330107D01*
X14649Y329950D01*
X14575Y329792D01*
Y329783D01*
X14556Y329755D01*
X14538Y329718D01*
X14501Y329663D01*
X14464Y329589D01*
X14417Y329515D01*
X14297Y329330D01*
X14159Y329127D01*
X13983Y328914D01*
X13789Y328710D01*
X13576Y328516D01*
X13566D01*
X13557Y328498D01*
X13530Y328479D01*
X13492Y328461D01*
X13446Y328424D01*
X13391Y328396D01*
X13252Y328312D01*
X13085Y328229D01*
X12882Y328137D01*
X12651Y328053D01*
X12392Y327979D01*
X12373D01*
X12346Y327970D01*
X12318Y327961D01*
X12271D01*
X12216Y327952D01*
X12151Y327942D01*
X12077Y327933D01*
X11994Y327924D01*
X11902Y327915D01*
X11800Y327906D01*
X11680D01*
X11559Y327896D01*
X11421Y327887D01*
X8867D01*
X10209Y334288D01*
X12318D01*
X12475Y334279D01*
D02*
G37*
G36*
X53702Y332142D02*
X53721Y332151D01*
X53758Y332188D01*
X53822Y332235D01*
X53915Y332290D01*
X54008Y332346D01*
X54119Y332410D01*
X54229Y332466D01*
X54340Y332512D01*
X54359Y332521D01*
X54396Y332530D01*
X54461Y332549D01*
X54535Y332577D01*
X54637Y332595D01*
X54747Y332614D01*
X54877Y332623D01*
X55006Y332632D01*
X55080D01*
X55127Y332623D01*
X55191Y332614D01*
X55265Y332605D01*
X55432Y332568D01*
X55617Y332512D01*
X55821Y332419D01*
X55913Y332364D01*
X56015Y332299D01*
X56107Y332225D01*
X56191Y332133D01*
X56200Y332123D01*
X56209Y332114D01*
X56227Y332077D01*
X56265Y332040D01*
X56292Y331994D01*
X56329Y331929D01*
X56375Y331855D01*
X56413Y331772D01*
X56459Y331670D01*
X56496Y331569D01*
X56533Y331448D01*
X56570Y331319D01*
X56598Y331180D01*
X56616Y331032D01*
X56625Y330875D01*
X56634Y330699D01*
Y330690D01*
Y330671D01*
Y330634D01*
Y330588D01*
X56625Y330533D01*
Y330468D01*
X56607Y330311D01*
X56579Y330125D01*
X56542Y329913D01*
X56496Y329691D01*
X56422Y329469D01*
Y329460D01*
X56413Y329441D01*
X56403Y329413D01*
X56385Y329367D01*
X56339Y329265D01*
X56274Y329127D01*
X56200Y328969D01*
X56098Y328812D01*
X55996Y328645D01*
X55867Y328498D01*
X55848Y328479D01*
X55802Y328433D01*
X55737Y328368D01*
X55645Y328294D01*
X55534Y328202D01*
X55404Y328109D01*
X55275Y328016D01*
X55127Y327942D01*
X55108Y327933D01*
X55062Y327915D01*
X54988Y327887D01*
X54886Y327859D01*
X54766Y327822D01*
X54627Y327795D01*
X54488Y327776D01*
X54331Y327767D01*
X54285D01*
X54239Y327776D01*
X54165Y327785D01*
X54081Y327795D01*
X53989Y327813D01*
X53887Y327841D01*
X53776Y327878D01*
X53656Y327924D01*
X53536Y327979D01*
X53416Y328053D01*
X53286Y328137D01*
X53175Y328229D01*
X53064Y328349D01*
X52953Y328479D01*
X52860Y328636D01*
X52703Y327887D01*
X51575D01*
X52916Y334288D01*
X54155D01*
X53702Y332142D01*
D02*
G37*
G36*
X41557Y332623D02*
X41631Y332614D01*
X41714Y332605D01*
X41807Y332586D01*
X41908Y332568D01*
X42131Y332503D01*
X42241Y332466D01*
X42353Y332410D01*
X42463Y332346D01*
X42575Y332281D01*
X42676Y332197D01*
X42778Y332105D01*
X42787Y332096D01*
X42796Y332077D01*
X42824Y332049D01*
X42861Y332013D01*
X42898Y331957D01*
X42935Y331892D01*
X42981Y331809D01*
X43037Y331726D01*
X43083Y331624D01*
X43130Y331513D01*
X43167Y331393D01*
X43203Y331254D01*
X43240Y331115D01*
X43268Y330958D01*
X43277Y330801D01*
X43287Y330625D01*
Y330616D01*
Y330607D01*
Y330551D01*
Y330458D01*
X43277Y330357D01*
X43268Y330227D01*
X43250Y330088D01*
X43194Y329811D01*
X40049D01*
Y329802D01*
Y329765D01*
X40040Y329728D01*
Y329691D01*
Y329681D01*
Y329672D01*
Y329617D01*
X40058Y329534D01*
X40077Y329422D01*
X40105Y329302D01*
X40151Y329182D01*
X40216Y329052D01*
X40299Y328941D01*
X40308Y328932D01*
X40345Y328895D01*
X40401Y328858D01*
X40484Y328803D01*
X40576Y328756D01*
X40688Y328710D01*
X40817Y328673D01*
X40956Y328664D01*
X41021D01*
X41058Y328673D01*
X41113Y328682D01*
X41178Y328701D01*
X41317Y328747D01*
X41390Y328775D01*
X41474Y328821D01*
X41557Y328877D01*
X41631Y328941D01*
X41714Y329015D01*
X41798Y329099D01*
X41872Y329201D01*
X41936Y329311D01*
X43055Y329127D01*
Y329117D01*
X43037Y329099D01*
X43018Y329062D01*
X42991Y329015D01*
X42963Y328960D01*
X42917Y328895D01*
X42824Y328738D01*
X42695Y328572D01*
X42538Y328405D01*
X42362Y328239D01*
X42167Y328100D01*
X42158D01*
X42140Y328081D01*
X42112Y328072D01*
X42075Y328044D01*
X42020Y328026D01*
X41964Y327998D01*
X41807Y327933D01*
X41631Y327869D01*
X41418Y327822D01*
X41196Y327785D01*
X40946Y327767D01*
X40854D01*
X40789Y327776D01*
X40706Y327785D01*
X40613Y327795D01*
X40512Y327813D01*
X40401Y327841D01*
X40160Y327915D01*
X40031Y327961D01*
X39901Y328016D01*
X39781Y328081D01*
X39652Y328165D01*
X39531Y328257D01*
X39420Y328359D01*
X39411Y328368D01*
X39393Y328386D01*
X39365Y328424D01*
X39328Y328470D01*
X39281Y328525D01*
X39235Y328599D01*
X39180Y328682D01*
X39134Y328775D01*
X39078Y328886D01*
X39022Y328997D01*
X38976Y329127D01*
X38930Y329265D01*
X38893Y329413D01*
X38865Y329580D01*
X38847Y329746D01*
X38838Y329922D01*
Y329931D01*
Y329968D01*
Y330014D01*
X38847Y330079D01*
X38856Y330163D01*
X38865Y330264D01*
X38884Y330375D01*
X38902Y330496D01*
X38967Y330754D01*
X39013Y330893D01*
X39059Y331041D01*
X39124Y331189D01*
X39189Y331337D01*
X39272Y331485D01*
X39365Y331624D01*
X39374Y331633D01*
X39402Y331670D01*
X39439Y331716D01*
X39494Y331781D01*
X39577Y331855D01*
X39661Y331948D01*
X39772Y332031D01*
X39892Y332133D01*
X40031Y332225D01*
X40188Y332318D01*
X40354Y332401D01*
X40540Y332475D01*
X40734Y332540D01*
X40946Y332586D01*
X41178Y332623D01*
X41418Y332632D01*
X41502D01*
X41557Y332623D01*
D02*
G37*
G36*
X18182D02*
X18256Y332614D01*
X18339Y332605D01*
X18432Y332586D01*
X18534Y332568D01*
X18756Y332503D01*
X18867Y332466D01*
X18978Y332410D01*
X19089Y332346D01*
X19200Y332281D01*
X19301Y332197D01*
X19403Y332105D01*
X19412Y332096D01*
X19422Y332077D01*
X19450Y332049D01*
X19487Y332013D01*
X19523Y331957D01*
X19560Y331892D01*
X19607Y331809D01*
X19662Y331726D01*
X19708Y331624D01*
X19755Y331513D01*
X19792Y331393D01*
X19829Y331254D01*
X19866Y331115D01*
X19894Y330958D01*
X19903Y330801D01*
X19912Y330625D01*
Y330616D01*
Y330607D01*
Y330551D01*
Y330458D01*
X19903Y330357D01*
X19894Y330227D01*
X19875Y330088D01*
X19819Y329811D01*
X16675D01*
Y329802D01*
Y329765D01*
X16665Y329728D01*
Y329691D01*
Y329681D01*
Y329672D01*
Y329617D01*
X16684Y329534D01*
X16702Y329422D01*
X16730Y329302D01*
X16776Y329182D01*
X16841Y329052D01*
X16924Y328941D01*
X16933Y328932D01*
X16971Y328895D01*
X17026Y328858D01*
X17109Y328803D01*
X17202Y328756D01*
X17313Y328710D01*
X17442Y328673D01*
X17581Y328664D01*
X17646D01*
X17683Y328673D01*
X17738Y328682D01*
X17803Y328701D01*
X17942Y328747D01*
X18016Y328775D01*
X18099Y328821D01*
X18182Y328877D01*
X18256Y328941D01*
X18339Y329015D01*
X18423Y329099D01*
X18497Y329201D01*
X18562Y329311D01*
X19681Y329127D01*
Y329117D01*
X19662Y329099D01*
X19644Y329062D01*
X19616Y329015D01*
X19588Y328960D01*
X19542Y328895D01*
X19450Y328738D01*
X19320Y328572D01*
X19163Y328405D01*
X18987Y328239D01*
X18793Y328100D01*
X18783D01*
X18765Y328081D01*
X18737Y328072D01*
X18700Y328044D01*
X18645Y328026D01*
X18589Y327998D01*
X18432Y327933D01*
X18256Y327869D01*
X18044Y327822D01*
X17821Y327785D01*
X17572Y327767D01*
X17479D01*
X17414Y327776D01*
X17331Y327785D01*
X17239Y327795D01*
X17137Y327813D01*
X17026Y327841D01*
X16785Y327915D01*
X16656Y327961D01*
X16526Y328016D01*
X16406Y328081D01*
X16277Y328165D01*
X16157Y328257D01*
X16046Y328359D01*
X16036Y328368D01*
X16018Y328386D01*
X15990Y328424D01*
X15953Y328470D01*
X15907Y328525D01*
X15860Y328599D01*
X15805Y328682D01*
X15759Y328775D01*
X15703Y328886D01*
X15648Y328997D01*
X15601Y329127D01*
X15555Y329265D01*
X15518Y329413D01*
X15491Y329580D01*
X15472Y329746D01*
X15463Y329922D01*
Y329931D01*
Y329968D01*
Y330014D01*
X15472Y330079D01*
X15481Y330163D01*
X15491Y330264D01*
X15509Y330375D01*
X15528Y330496D01*
X15592Y330754D01*
X15639Y330893D01*
X15685Y331041D01*
X15750Y331189D01*
X15814Y331337D01*
X15898Y331485D01*
X15990Y331624D01*
X15999Y331633D01*
X16027Y331670D01*
X16064Y331716D01*
X16119Y331781D01*
X16203Y331855D01*
X16286Y331948D01*
X16397Y332031D01*
X16517Y332133D01*
X16656Y332225D01*
X16813Y332318D01*
X16980Y332401D01*
X17165Y332475D01*
X17359Y332540D01*
X17572Y332586D01*
X17803Y332623D01*
X18044Y332632D01*
X18127D01*
X18182Y332623D01*
D02*
G37*
G36*
X74570D02*
X74681Y332605D01*
X74811Y332568D01*
X74959Y332530D01*
X75098Y332466D01*
X75245Y332382D01*
X75264Y332373D01*
X75310Y332336D01*
X75384Y332281D01*
X75467Y332207D01*
X75560Y332114D01*
X75662Y331994D01*
X75763Y331865D01*
X75847Y331707D01*
X76013Y332530D01*
X77179D01*
X76448Y328645D01*
Y328636D01*
X76439Y328608D01*
X76429Y328562D01*
X76411Y328498D01*
X76393Y328424D01*
X76374Y328331D01*
X76328Y328137D01*
X76272Y327924D01*
X76217Y327702D01*
X76161Y327499D01*
X76134Y327415D01*
X76106Y327332D01*
X76096Y327313D01*
X76078Y327267D01*
X76050Y327193D01*
X76013Y327101D01*
X75967Y327008D01*
X75911Y326897D01*
X75856Y326796D01*
X75791Y326703D01*
X75782Y326694D01*
X75763Y326666D01*
X75717Y326620D01*
X75671Y326564D01*
X75606Y326500D01*
X75523Y326435D01*
X75440Y326370D01*
X75338Y326305D01*
X75329Y326296D01*
X75292Y326277D01*
X75236Y326250D01*
X75162Y326222D01*
X75060Y326176D01*
X74959Y326139D01*
X74829Y326102D01*
X74700Y326074D01*
X74681D01*
X74635Y326065D01*
X74561Y326056D01*
X74459Y326037D01*
X74339Y326028D01*
X74200Y326009D01*
X74052Y326000D01*
X73803D01*
X73738Y326009D01*
X73655D01*
X73562Y326019D01*
X73451Y326028D01*
X73340Y326046D01*
X73099Y326083D01*
X72859Y326148D01*
X72619Y326231D01*
X72517Y326287D01*
X72415Y326342D01*
X72406D01*
X72396Y326361D01*
X72341Y326407D01*
X72258Y326490D01*
X72165Y326610D01*
X72119Y326684D01*
X72073Y326759D01*
X72036Y326851D01*
X71990Y326953D01*
X71962Y327064D01*
X71934Y327184D01*
X71925Y327323D01*
X71916Y327462D01*
Y327480D01*
Y327517D01*
Y327572D01*
X71925Y327637D01*
X73257Y327452D01*
Y327443D01*
Y327415D01*
Y327378D01*
X73266Y327341D01*
X73285Y327239D01*
X73303Y327193D01*
X73321Y327147D01*
X73331Y327129D01*
X73368Y327092D01*
X73432Y327027D01*
X73525Y326971D01*
X73534D01*
X73553Y326962D01*
X73590Y326953D01*
X73627Y326934D01*
X73691Y326925D01*
X73756Y326906D01*
X73830Y326897D01*
X73997D01*
X74071Y326906D01*
X74163Y326916D01*
X74274Y326934D01*
X74385Y326971D01*
X74496Y327008D01*
X74598Y327064D01*
X74607Y327073D01*
X74635Y327092D01*
X74663Y327119D01*
X74709Y327156D01*
X74765Y327212D01*
X74811Y327276D01*
X74866Y327360D01*
X74913Y327452D01*
Y327462D01*
X74922Y327489D01*
X74940Y327536D01*
X74968Y327609D01*
X74986Y327711D01*
X75024Y327841D01*
X75060Y327998D01*
X75098Y328192D01*
X75144Y328405D01*
X75134Y328396D01*
X75116Y328386D01*
X75079Y328359D01*
X75024Y328322D01*
X74959Y328285D01*
X74894Y328239D01*
X74801Y328183D01*
X74709Y328137D01*
X74496Y328035D01*
X74265Y327952D01*
X74136Y327915D01*
X74006Y327896D01*
X73877Y327878D01*
X73738Y327869D01*
X73673D01*
X73627Y327878D01*
X73562Y327887D01*
X73497Y327896D01*
X73340Y327924D01*
X73164Y327979D01*
X72979Y328072D01*
X72887Y328118D01*
X72794Y328183D01*
X72702Y328257D01*
X72619Y328340D01*
Y328349D01*
X72600Y328359D01*
X72581Y328386D01*
X72554Y328433D01*
X72517Y328479D01*
X72480Y328544D01*
X72443Y328618D01*
X72406Y328701D01*
X72360Y328794D01*
X72322Y328895D01*
X72285Y329006D01*
X72249Y329136D01*
X72221Y329275D01*
X72202Y329422D01*
X72193Y329580D01*
X72184Y329746D01*
Y329755D01*
Y329783D01*
Y329830D01*
X72193Y329885D01*
Y329959D01*
X72202Y330042D01*
X72211Y330135D01*
X72221Y330246D01*
X72258Y330477D01*
X72313Y330727D01*
X72378Y330986D01*
X72480Y331245D01*
Y331254D01*
X72498Y331273D01*
X72508Y331310D01*
X72535Y331356D01*
X72563Y331411D01*
X72600Y331476D01*
X72693Y331633D01*
X72813Y331800D01*
X72961Y331976D01*
X73127Y332133D01*
X73312Y332281D01*
X73321D01*
X73340Y332299D01*
X73368Y332318D01*
X73405Y332336D01*
X73451Y332364D01*
X73516Y332392D01*
X73655Y332456D01*
X73812Y332521D01*
X73997Y332577D01*
X74200Y332614D01*
X74404Y332632D01*
X74478D01*
X74570Y332623D01*
D02*
G37*
G36*
X30318D02*
X30429Y332605D01*
X30559Y332568D01*
X30707Y332530D01*
X30845Y332466D01*
X30994Y332382D01*
X31012Y332373D01*
X31058Y332336D01*
X31132Y332281D01*
X31216Y332207D01*
X31308Y332114D01*
X31410Y331994D01*
X31512Y331865D01*
X31595Y331707D01*
X31761Y332530D01*
X32927D01*
X32196Y328645D01*
Y328636D01*
X32187Y328608D01*
X32177Y328562D01*
X32159Y328498D01*
X32140Y328424D01*
X32122Y328331D01*
X32076Y328137D01*
X32020Y327924D01*
X31965Y327702D01*
X31909Y327499D01*
X31881Y327415D01*
X31854Y327332D01*
X31844Y327313D01*
X31826Y327267D01*
X31798Y327193D01*
X31761Y327101D01*
X31715Y327008D01*
X31659Y326897D01*
X31604Y326796D01*
X31539Y326703D01*
X31530Y326694D01*
X31512Y326666D01*
X31465Y326620D01*
X31419Y326564D01*
X31354Y326500D01*
X31271Y326435D01*
X31188Y326370D01*
X31086Y326305D01*
X31077Y326296D01*
X31040Y326277D01*
X30984Y326250D01*
X30910Y326222D01*
X30808Y326176D01*
X30707Y326139D01*
X30577Y326102D01*
X30448Y326074D01*
X30429D01*
X30383Y326065D01*
X30309Y326056D01*
X30207Y326037D01*
X30087Y326028D01*
X29948Y326009D01*
X29800Y326000D01*
X29550D01*
X29486Y326009D01*
X29403D01*
X29310Y326019D01*
X29199Y326028D01*
X29088Y326046D01*
X28848Y326083D01*
X28607Y326148D01*
X28367Y326231D01*
X28265Y326287D01*
X28163Y326342D01*
X28154D01*
X28144Y326361D01*
X28089Y326407D01*
X28006Y326490D01*
X27913Y326610D01*
X27867Y326684D01*
X27821Y326759D01*
X27784Y326851D01*
X27738Y326953D01*
X27710Y327064D01*
X27682Y327184D01*
X27673Y327323D01*
X27663Y327462D01*
Y327480D01*
Y327517D01*
Y327572D01*
X27673Y327637D01*
X29005Y327452D01*
Y327443D01*
Y327415D01*
Y327378D01*
X29014Y327341D01*
X29032Y327239D01*
X29051Y327193D01*
X29070Y327147D01*
X29079Y327129D01*
X29116Y327092D01*
X29180Y327027D01*
X29273Y326971D01*
X29282D01*
X29301Y326962D01*
X29338Y326953D01*
X29375Y326934D01*
X29439Y326925D01*
X29504Y326906D01*
X29578Y326897D01*
X29745D01*
X29819Y326906D01*
X29911Y326916D01*
X30022Y326934D01*
X30133Y326971D01*
X30244Y327008D01*
X30346Y327064D01*
X30355Y327073D01*
X30383Y327092D01*
X30411Y327119D01*
X30457Y327156D01*
X30512Y327212D01*
X30559Y327276D01*
X30614Y327360D01*
X30661Y327452D01*
Y327462D01*
X30670Y327489D01*
X30688Y327536D01*
X30716Y327609D01*
X30735Y327711D01*
X30771Y327841D01*
X30808Y327998D01*
X30845Y328192D01*
X30892Y328405D01*
X30882Y328396D01*
X30864Y328386D01*
X30827Y328359D01*
X30771Y328322D01*
X30707Y328285D01*
X30642Y328239D01*
X30549Y328183D01*
X30457Y328137D01*
X30244Y328035D01*
X30013Y327952D01*
X29884Y327915D01*
X29754Y327896D01*
X29625Y327878D01*
X29486Y327869D01*
X29421D01*
X29375Y327878D01*
X29310Y327887D01*
X29245Y327896D01*
X29088Y327924D01*
X28912Y327979D01*
X28727Y328072D01*
X28635Y328118D01*
X28542Y328183D01*
X28450Y328257D01*
X28367Y328340D01*
Y328349D01*
X28348Y328359D01*
X28330Y328386D01*
X28302Y328433D01*
X28265Y328479D01*
X28228Y328544D01*
X28191Y328618D01*
X28154Y328701D01*
X28108Y328794D01*
X28071Y328895D01*
X28034Y329006D01*
X27997Y329136D01*
X27969Y329275D01*
X27950Y329422D01*
X27941Y329580D01*
X27932Y329746D01*
Y329755D01*
Y329783D01*
Y329830D01*
X27941Y329885D01*
Y329959D01*
X27950Y330042D01*
X27959Y330135D01*
X27969Y330246D01*
X28006Y330477D01*
X28061Y330727D01*
X28126Y330986D01*
X28228Y331245D01*
Y331254D01*
X28246Y331273D01*
X28256Y331310D01*
X28283Y331356D01*
X28311Y331411D01*
X28348Y331476D01*
X28440Y331633D01*
X28561Y331800D01*
X28709Y331976D01*
X28875Y332133D01*
X29060Y332281D01*
X29070D01*
X29088Y332299D01*
X29116Y332318D01*
X29153Y332336D01*
X29199Y332364D01*
X29264Y332392D01*
X29403Y332456D01*
X29560Y332521D01*
X29745Y332577D01*
X29948Y332614D01*
X30152Y332632D01*
X30226D01*
X30318Y332623D01*
D02*
G37*
G36*
X109896Y338500D02*
X56385D01*
X56607Y338509D01*
X56810Y338519D01*
X56986Y338546D01*
X57143Y338574D01*
X57263Y338593D01*
X57347Y338620D01*
X57402Y338630D01*
X57421Y338639D01*
X57569Y338694D01*
X57698Y338750D01*
X57809Y338814D01*
X57902Y338870D01*
X57967Y338916D01*
X58022Y338963D01*
X58059Y338990D01*
X58068Y339000D01*
X58161Y339092D01*
X58235Y339194D01*
X58299Y339305D01*
X58355Y339406D01*
X58401Y339499D01*
X58429Y339573D01*
X58447Y339619D01*
X58457Y339638D01*
X58485Y339721D01*
X58503Y339804D01*
X58540Y339999D01*
X58558Y340202D01*
X58577Y340406D01*
X58586Y340581D01*
X58596Y340655D01*
Y345030D01*
X57449D01*
Y344365D01*
X57337Y344503D01*
X57227Y344614D01*
X57106Y344725D01*
X56986Y344809D01*
X56866Y344882D01*
X56745Y344947D01*
X56634Y344993D01*
X56524Y345040D01*
X56422Y345068D01*
X56329Y345095D01*
X56237Y345105D01*
X56172Y345123D01*
X56107D01*
X56061Y345132D01*
X56024D01*
X55876Y345123D01*
X55728Y345105D01*
X55589Y345077D01*
X55450Y345040D01*
X55219Y344938D01*
X55108Y344882D01*
X55016Y344827D01*
X54923Y344762D01*
X54849Y344707D01*
X54785Y344660D01*
X54729Y344614D01*
X54683Y344568D01*
X54655Y344540D01*
X54637Y344522D01*
X54627Y344513D01*
X54526Y344392D01*
X54442Y344263D01*
X54368Y344115D01*
X54303Y343976D01*
X54257Y343828D01*
X54211Y343680D01*
X54146Y343384D01*
X54119Y343254D01*
X54100Y343125D01*
X54091Y343014D01*
X54081Y342921D01*
X54072Y342838D01*
Y342727D01*
X54081Y342561D01*
X54091Y342394D01*
X54137Y342098D01*
X54174Y341960D01*
X54211Y341830D01*
X54248Y341710D01*
X54285Y341608D01*
X54322Y341506D01*
X54359Y341423D01*
X54396Y341349D01*
X54433Y341284D01*
X54461Y341238D01*
X54479Y341201D01*
X54498Y341182D01*
Y341173D01*
X54609Y341035D01*
X54720Y340914D01*
X54840Y340812D01*
X54960Y340720D01*
X55080Y340646D01*
X55210Y340581D01*
X55330Y340526D01*
X55441Y340489D01*
X55552Y340452D01*
X55654Y340433D01*
X55747Y340415D01*
X55821Y340396D01*
X55885D01*
X55941Y340387D01*
X55978D01*
X56135Y340396D01*
X56283Y340424D01*
X56422Y340461D01*
X56551Y340507D01*
X56783Y340628D01*
X56893Y340692D01*
X56986Y340766D01*
X57069Y340831D01*
X57152Y340896D01*
X57217Y340961D01*
X57263Y341016D01*
X57310Y341072D01*
X57337Y341108D01*
X57356Y341127D01*
X57365Y341136D01*
Y340461D01*
Y340322D01*
X57356Y340202D01*
X57347Y340109D01*
X57337Y340036D01*
X57319Y339971D01*
X57310Y339934D01*
X57301Y339915D01*
Y339906D01*
X57263Y339832D01*
X57227Y339767D01*
X57190Y339712D01*
X57152Y339666D01*
X57116Y339629D01*
X57088Y339610D01*
X57069Y339601D01*
X57060Y339592D01*
X56958Y339545D01*
X56847Y339508D01*
X56727Y339480D01*
X56607Y339462D01*
X56505Y339453D01*
X56422Y339443D01*
X56339D01*
X56209Y339453D01*
X56098Y339462D01*
X56006Y339490D01*
X55932Y339517D01*
X55867Y339536D01*
X55830Y339564D01*
X55802Y339573D01*
X55793Y339582D01*
X55747Y339619D01*
X55709Y339675D01*
X55663Y339786D01*
X55654Y339832D01*
X55645Y339878D01*
X55635Y339906D01*
Y339915D01*
X54229Y340082D01*
X54220Y340026D01*
Y339980D01*
Y339943D01*
Y339934D01*
X54229Y339823D01*
X54239Y339712D01*
X54294Y339508D01*
X54378Y339333D01*
X54470Y339184D01*
X54553Y339064D01*
X54637Y338981D01*
X54692Y338926D01*
X54701Y338916D01*
X54711Y338907D01*
X54812Y338833D01*
X54923Y338777D01*
X55053Y338722D01*
X55182Y338676D01*
X55460Y338602D01*
X55737Y338556D01*
X55867Y338537D01*
X55987Y338519D01*
X56098Y338509D01*
X56191D01*
X56274Y338500D01*
X6000D01*
Y346908D01*
X30281D01*
X30041Y346899D01*
X29800Y346871D01*
X29588Y346825D01*
X29375Y346769D01*
X29190Y346705D01*
X29005Y346631D01*
X28848Y346548D01*
X28699Y346464D01*
X28561Y346381D01*
X28450Y346298D01*
X28348Y346224D01*
X28265Y346159D01*
X28200Y346104D01*
X28154Y346057D01*
X28126Y346029D01*
X28117Y346020D01*
X27969Y345845D01*
X27849Y345659D01*
X27738Y345465D01*
X27645Y345262D01*
X27562Y345049D01*
X27497Y344846D01*
X27441Y344642D01*
X27395Y344448D01*
X27358Y344253D01*
X27340Y344087D01*
X27321Y343930D01*
X27303Y343800D01*
Y343689D01*
X27294Y343606D01*
Y343532D01*
X27303Y343254D01*
X27330Y342996D01*
X27367Y342746D01*
X27423Y342524D01*
X27479Y342311D01*
X27553Y342108D01*
X27626Y341932D01*
X27700Y341775D01*
X27775Y341627D01*
X27849Y341497D01*
X27922Y341395D01*
X27978Y341303D01*
X28034Y341238D01*
X28071Y341182D01*
X28098Y341155D01*
X28108Y341145D01*
X28265Y340988D01*
X28431Y340859D01*
X28607Y340739D01*
X28783Y340646D01*
X28958Y340563D01*
X29134Y340489D01*
X29301Y340433D01*
X29458Y340387D01*
X29615Y340350D01*
X29754Y340322D01*
X29884Y340304D01*
X29985Y340295D01*
X30078Y340285D01*
X30143Y340276D01*
X30198D01*
X30392Y340285D01*
X30568Y340295D01*
X30744Y340322D01*
X30901Y340359D01*
X31049Y340396D01*
X31188Y340433D01*
X31317Y340479D01*
X31438Y340535D01*
X31539Y340581D01*
X31632Y340628D01*
X31715Y340665D01*
X31780Y340702D01*
X31835Y340739D01*
X31872Y340766D01*
X31891Y340775D01*
X31900Y340785D01*
X32020Y340886D01*
X32131Y340998D01*
X32335Y341247D01*
X32501Y341506D01*
X32631Y341756D01*
X32686Y341876D01*
X32732Y341987D01*
X32770Y342089D01*
X32807Y342172D01*
X32834Y342246D01*
X32853Y342302D01*
X32862Y342339D01*
Y342348D01*
X31604Y342737D01*
X31530Y342487D01*
X31447Y342274D01*
X31363Y342098D01*
X31271Y341950D01*
X31197Y341839D01*
X31132Y341765D01*
X31086Y341719D01*
X31067Y341701D01*
X30920Y341589D01*
X30771Y341515D01*
X30623Y341460D01*
X30494Y341414D01*
X30374Y341395D01*
X30272Y341386D01*
X30235Y341377D01*
X30189D01*
X30059Y341386D01*
X29939Y341395D01*
X29717Y341460D01*
X29523Y341534D01*
X29366Y341636D01*
X29236Y341728D01*
X29144Y341802D01*
X29107Y341839D01*
X29079Y341867D01*
X29070Y341876D01*
X29060Y341885D01*
X28986Y341987D01*
X28921Y342108D01*
X28857Y342237D01*
X28811Y342376D01*
X28736Y342663D01*
X28681Y342949D01*
X28662Y343088D01*
X28653Y343208D01*
X28635Y343328D01*
Y343430D01*
X28626Y343504D01*
Y343569D01*
Y343615D01*
Y343624D01*
X28635Y343837D01*
X28644Y344032D01*
X28662Y344207D01*
X28690Y344374D01*
X28727Y344522D01*
X28764Y344660D01*
X28801Y344781D01*
X28848Y344892D01*
X28885Y344984D01*
X28921Y345068D01*
X28958Y345132D01*
X28995Y345188D01*
X29023Y345234D01*
X29042Y345262D01*
X29060Y345280D01*
Y345289D01*
X29144Y345382D01*
X29236Y345465D01*
X29329Y345530D01*
X29430Y345585D01*
X29625Y345678D01*
X29809Y345743D01*
X29967Y345780D01*
X30041Y345789D01*
X30096Y345798D01*
X30152Y345808D01*
X30217D01*
X30402Y345798D01*
X30568Y345761D01*
X30716Y345715D01*
X30845Y345659D01*
X30947Y345604D01*
X31021Y345558D01*
X31067Y345521D01*
X31086Y345512D01*
X31206Y345401D01*
X31317Y345271D01*
X31400Y345142D01*
X31465Y345012D01*
X31512Y344901D01*
X31539Y344818D01*
X31558Y344781D01*
Y344753D01*
X31567Y344744D01*
Y344735D01*
X32844Y345040D01*
X32751Y345308D01*
X32649Y345539D01*
X32538Y345743D01*
X32436Y345909D01*
X32335Y346039D01*
X32298Y346094D01*
X32261Y346141D01*
X32233Y346168D01*
X32205Y346196D01*
X32196Y346215D01*
X32187D01*
X32048Y346335D01*
X31891Y346446D01*
X31743Y346538D01*
X31585Y346612D01*
X31419Y346686D01*
X31262Y346742D01*
X31104Y346788D01*
X30957Y346825D01*
X30818Y346853D01*
X30688Y346871D01*
X30577Y346890D01*
X30476Y346899D01*
X30392Y346908D01*
X109896D01*
Y338500D01*
D02*
G37*
G36*
X56505Y344170D02*
X56644Y344133D01*
X56773Y344078D01*
X56884Y344013D01*
X56968Y343948D01*
X57032Y343893D01*
X57078Y343856D01*
X57088Y343837D01*
X57190Y343689D01*
X57263Y343523D01*
X57310Y343347D01*
X57347Y343171D01*
X57365Y343014D01*
X57375Y342940D01*
X57384Y342884D01*
Y342829D01*
Y342792D01*
Y342774D01*
Y342764D01*
X57375Y342524D01*
X57337Y342311D01*
X57282Y342135D01*
X57227Y341987D01*
X57171Y341876D01*
X57116Y341793D01*
X57078Y341747D01*
X57069Y341728D01*
X56949Y341608D01*
X56819Y341525D01*
X56699Y341460D01*
X56579Y341423D01*
X56468Y341395D01*
X56385Y341386D01*
X56329Y341377D01*
X56311D01*
X56163Y341395D01*
X56024Y341432D01*
X55904Y341488D01*
X55802Y341552D01*
X55719Y341608D01*
X55663Y341664D01*
X55617Y341701D01*
X55608Y341719D01*
X55515Y341867D01*
X55450Y342034D01*
X55395Y342209D01*
X55367Y342385D01*
X55349Y342542D01*
X55339Y342616D01*
Y342672D01*
X55330Y342718D01*
Y342764D01*
Y342783D01*
Y342792D01*
X55339Y343042D01*
X55376Y343254D01*
X55423Y343430D01*
X55469Y343578D01*
X55524Y343689D01*
X55562Y343773D01*
X55598Y343819D01*
X55608Y343837D01*
X55719Y343957D01*
X55839Y344041D01*
X55968Y344106D01*
X56080Y344143D01*
X56181Y344170D01*
X56265Y344180D01*
X56320Y344189D01*
X56339D01*
X56505Y344170D01*
D02*
G37*
%LPC*%
G36*
X46312Y331707D02*
X46256D01*
X46219Y331698D01*
X46117Y331670D01*
X45988Y331633D01*
X45840Y331559D01*
X45766Y331504D01*
X45692Y331448D01*
X45618Y331374D01*
X45535Y331291D01*
X45470Y331199D01*
X45396Y331087D01*
Y331078D01*
X45377Y331060D01*
X45368Y331023D01*
X45340Y330986D01*
X45312Y330921D01*
X45285Y330856D01*
X45257Y330782D01*
X45220Y330690D01*
X45155Y330496D01*
X45100Y330274D01*
X45063Y330024D01*
X45044Y329765D01*
Y329755D01*
Y329746D01*
Y329718D01*
Y329681D01*
X45053Y329589D01*
X45072Y329478D01*
X45109Y329358D01*
X45146Y329228D01*
X45211Y329099D01*
X45294Y328988D01*
X45303Y328978D01*
X45340Y328941D01*
X45396Y328905D01*
X45470Y328849D01*
X45562Y328803D01*
X45673Y328756D01*
X45794Y328719D01*
X45923Y328710D01*
X45979D01*
X46043Y328719D01*
X46136Y328738D01*
X46228Y328766D01*
X46339Y328812D01*
X46450Y328868D01*
X46561Y328941D01*
X46571Y328951D01*
X46608Y328988D01*
X46663Y329043D01*
X46737Y329117D01*
X46811Y329219D01*
X46894Y329339D01*
X46968Y329487D01*
X47042Y329654D01*
Y329663D01*
X47052Y329672D01*
X47061Y329700D01*
X47070Y329737D01*
X47098Y329830D01*
X47135Y329950D01*
X47163Y330088D01*
X47190Y330246D01*
X47209Y330412D01*
X47218Y330579D01*
Y330588D01*
Y330597D01*
Y330625D01*
Y330662D01*
X47199Y330754D01*
X47181Y330866D01*
X47153Y330995D01*
X47098Y331134D01*
X47033Y331263D01*
X46940Y331393D01*
X46931Y331402D01*
X46894Y331439D01*
X46839Y331494D01*
X46765Y331550D01*
X46672Y331606D01*
X46561Y331661D01*
X46441Y331698D01*
X46312Y331707D01*
D02*
G37*
G36*
X12271Y333233D02*
X11300D01*
X10394Y328914D01*
X11236D01*
X11310Y328923D01*
X11467D01*
X11643Y328932D01*
X11809Y328951D01*
X11975Y328969D01*
X12049Y328978D01*
X12114Y328997D01*
X12133Y329006D01*
X12170Y329015D01*
X12235Y329043D01*
X12318Y329071D01*
X12410Y329117D01*
X12512Y329173D01*
X12614Y329247D01*
X12716Y329330D01*
X12725D01*
X12734Y329348D01*
X12780Y329395D01*
X12854Y329478D01*
X12947Y329580D01*
X13058Y329718D01*
X13169Y329885D01*
X13280Y330070D01*
X13382Y330274D01*
Y330283D01*
X13391Y330301D01*
X13409Y330338D01*
X13428Y330375D01*
X13446Y330440D01*
X13465Y330505D01*
X13492Y330579D01*
X13520Y330671D01*
X13539Y330764D01*
X13566Y330875D01*
X13613Y331115D01*
X13641Y331383D01*
X13650Y331670D01*
Y331680D01*
Y331698D01*
Y331735D01*
Y331781D01*
X13641Y331837D01*
Y331902D01*
X13622Y332059D01*
X13594Y332225D01*
X13557Y332392D01*
X13502Y332558D01*
X13428Y332697D01*
X13419Y332716D01*
X13391Y332752D01*
X13344Y332808D01*
X13280Y332882D01*
X13196Y332956D01*
X13104Y333030D01*
X12993Y333095D01*
X12873Y333150D01*
X12864D01*
X12826Y333159D01*
X12771Y333178D01*
X12688Y333196D01*
X12577Y333206D01*
X12438Y333224D01*
X12271Y333233D01*
D02*
G37*
G36*
X54544Y331735D02*
X54498D01*
X54461Y331726D01*
X54378Y331716D01*
X54257Y331680D01*
X54128Y331624D01*
X53998Y331550D01*
X53850Y331439D01*
X53786Y331365D01*
X53721Y331291D01*
X53711Y331282D01*
X53702Y331263D01*
X53675Y331226D01*
X53647Y331180D01*
X53610Y331124D01*
X53573Y331050D01*
X53536Y330967D01*
X53490Y330875D01*
X53443Y330773D01*
X53406Y330653D01*
X53369Y330533D01*
X53332Y330394D01*
X53277Y330098D01*
X53268Y329931D01*
X53258Y329765D01*
Y329755D01*
Y329746D01*
Y329691D01*
X53277Y329598D01*
X53295Y329497D01*
X53323Y329367D01*
X53369Y329247D01*
X53434Y329117D01*
X53517Y328997D01*
X53527Y328988D01*
X53563Y328951D01*
X53619Y328905D01*
X53693Y328858D01*
X53786Y328803D01*
X53896Y328756D01*
X54017Y328719D01*
X54146Y328710D01*
X54202D01*
X54257Y328719D01*
X54340Y328738D01*
X54433Y328766D01*
X54535Y328803D01*
X54637Y328858D01*
X54747Y328932D01*
X54757Y328941D01*
X54794Y328978D01*
X54849Y329034D01*
X54914Y329108D01*
X54988Y329210D01*
X55071Y329339D01*
X55155Y329487D01*
X55229Y329663D01*
Y329672D01*
X55238Y329681D01*
X55247Y329709D01*
X55256Y329746D01*
X55293Y329848D01*
X55330Y329977D01*
X55358Y330125D01*
X55395Y330301D01*
X55414Y330486D01*
X55423Y330671D01*
Y330680D01*
Y330690D01*
Y330717D01*
Y330754D01*
X55414Y330838D01*
X55395Y330949D01*
X55358Y331078D01*
X55312Y331208D01*
X55247Y331337D01*
X55164Y331448D01*
X55155Y331457D01*
X55117Y331494D01*
X55062Y331541D01*
X54988Y331596D01*
X54896Y331643D01*
X54794Y331689D01*
X54673Y331726D01*
X54544Y331735D01*
D02*
G37*
G36*
X41289D02*
X41224D01*
X41150Y331716D01*
X41058Y331698D01*
X40946Y331661D01*
X40826Y331615D01*
X40706Y331541D01*
X40586Y331439D01*
X40576Y331430D01*
X40540Y331383D01*
X40484Y331319D01*
X40419Y331217D01*
X40354Y331097D01*
X40281Y330949D01*
X40216Y330782D01*
X40170Y330579D01*
X42140D01*
Y330588D01*
Y330625D01*
Y330662D01*
Y330699D01*
Y330708D01*
Y330717D01*
Y330745D01*
Y330782D01*
X42131Y330875D01*
X42112Y330995D01*
X42084Y331115D01*
X42038Y331245D01*
X41982Y331365D01*
X41908Y331476D01*
X41899Y331485D01*
X41862Y331513D01*
X41816Y331559D01*
X41742Y331606D01*
X41659Y331652D01*
X41548Y331698D01*
X41427Y331726D01*
X41289Y331735D01*
D02*
G37*
G36*
X17914D02*
X17849D01*
X17775Y331716D01*
X17683Y331698D01*
X17572Y331661D01*
X17451Y331615D01*
X17331Y331541D01*
X17211Y331439D01*
X17202Y331430D01*
X17165Y331383D01*
X17109Y331319D01*
X17044Y331217D01*
X16980Y331097D01*
X16906Y330949D01*
X16841Y330782D01*
X16795Y330579D01*
X18765D01*
Y330588D01*
Y330625D01*
Y330662D01*
Y330699D01*
Y330708D01*
Y330717D01*
Y330745D01*
Y330782D01*
X18756Y330875D01*
X18737Y330995D01*
X18710Y331115D01*
X18663Y331245D01*
X18608Y331365D01*
X18534Y331476D01*
X18525Y331485D01*
X18487Y331513D01*
X18441Y331559D01*
X18367Y331606D01*
X18284Y331652D01*
X18173Y331698D01*
X18053Y331726D01*
X17914Y331735D01*
D02*
G37*
G36*
X74626D02*
X74570D01*
X74506Y331726D01*
X74422Y331698D01*
X74321Y331670D01*
X74219Y331624D01*
X74108Y331559D01*
X73997Y331467D01*
X73988Y331457D01*
X73950Y331420D01*
X73904Y331356D01*
X73839Y331263D01*
X73765Y331152D01*
X73691Y331004D01*
X73618Y330838D01*
X73544Y330644D01*
X73534Y330625D01*
X73525Y330570D01*
X73497Y330496D01*
X73479Y330384D01*
X73451Y330274D01*
X73423Y330144D01*
X73414Y330005D01*
X73405Y329876D01*
Y329867D01*
Y329857D01*
Y329830D01*
Y329792D01*
X73414Y329691D01*
X73432Y329580D01*
X73460Y329450D01*
X73506Y329311D01*
X73562Y329182D01*
X73636Y329071D01*
X73645Y329062D01*
X73682Y329034D01*
X73729Y328988D01*
X73803Y328941D01*
X73886Y328886D01*
X73988Y328849D01*
X74108Y328812D01*
X74237Y328803D01*
X74293D01*
X74357Y328812D01*
X74441Y328831D01*
X74542Y328858D01*
X74654Y328905D01*
X74765Y328960D01*
X74885Y329043D01*
X74903Y329052D01*
X74940Y329089D01*
X74996Y329145D01*
X75060Y329228D01*
X75144Y329321D01*
X75218Y329441D01*
X75301Y329589D01*
X75366Y329746D01*
Y329755D01*
X75375Y329765D01*
X75384Y329792D01*
X75393Y329830D01*
X75421Y329913D01*
X75449Y330033D01*
X75477Y330163D01*
X75504Y330320D01*
X75523Y330477D01*
X75532Y330634D01*
Y330644D01*
Y330653D01*
Y330680D01*
Y330717D01*
X75514Y330810D01*
X75495Y330921D01*
X75467Y331050D01*
X75412Y331180D01*
X75347Y331310D01*
X75255Y331430D01*
X75245Y331439D01*
X75208Y331476D01*
X75153Y331522D01*
X75079Y331587D01*
X74986Y331643D01*
X74875Y331689D01*
X74755Y331726D01*
X74626Y331735D01*
D02*
G37*
G36*
X30374D02*
X30318D01*
X30253Y331726D01*
X30170Y331698D01*
X30068Y331670D01*
X29967Y331624D01*
X29856Y331559D01*
X29745Y331467D01*
X29735Y331457D01*
X29699Y331420D01*
X29652Y331356D01*
X29588Y331263D01*
X29513Y331152D01*
X29439Y331004D01*
X29366Y330838D01*
X29291Y330644D01*
X29282Y330625D01*
X29273Y330570D01*
X29245Y330496D01*
X29227Y330384D01*
X29199Y330274D01*
X29171Y330144D01*
X29162Y330005D01*
X29153Y329876D01*
Y329867D01*
Y329857D01*
Y329830D01*
Y329792D01*
X29162Y329691D01*
X29180Y329580D01*
X29208Y329450D01*
X29254Y329311D01*
X29310Y329182D01*
X29384Y329071D01*
X29393Y329062D01*
X29430Y329034D01*
X29476Y328988D01*
X29550Y328941D01*
X29634Y328886D01*
X29735Y328849D01*
X29856Y328812D01*
X29985Y328803D01*
X30041D01*
X30106Y328812D01*
X30189Y328831D01*
X30290Y328858D01*
X30402Y328905D01*
X30512Y328960D01*
X30633Y329043D01*
X30651Y329052D01*
X30688Y329089D01*
X30744Y329145D01*
X30808Y329228D01*
X30892Y329321D01*
X30966Y329441D01*
X31049Y329589D01*
X31114Y329746D01*
Y329755D01*
X31123Y329765D01*
X31132Y329792D01*
X31141Y329830D01*
X31169Y329913D01*
X31197Y330033D01*
X31225Y330163D01*
X31253Y330320D01*
X31271Y330477D01*
X31280Y330634D01*
Y330644D01*
Y330653D01*
Y330680D01*
Y330717D01*
X31262Y330810D01*
X31243Y330921D01*
X31216Y331050D01*
X31160Y331180D01*
X31095Y331310D01*
X31003Y331430D01*
X30994Y331439D01*
X30957Y331476D01*
X30901Y331522D01*
X30827Y331587D01*
X30735Y331643D01*
X30623Y331689D01*
X30503Y331726D01*
X30374Y331735D01*
D02*
G37*
G36*
X47616Y346788D02*
X46385D01*
Y345650D01*
X47616D01*
Y346788D01*
D02*
G37*
G36*
X91914D02*
X90684D01*
Y344485D01*
X90573Y344596D01*
X90462Y344697D01*
X90351Y344781D01*
X90231Y344864D01*
X90119Y344919D01*
X90008Y344975D01*
X89898Y345021D01*
X89796Y345049D01*
X89694Y345077D01*
X89611Y345095D01*
X89527Y345114D01*
X89463Y345123D01*
X89407Y345132D01*
X89333D01*
X89176Y345123D01*
X89028Y345105D01*
X88889Y345077D01*
X88750Y345040D01*
X88519Y344938D01*
X88408Y344882D01*
X88316Y344827D01*
X88223Y344762D01*
X88149Y344707D01*
X88085Y344660D01*
X88029Y344614D01*
X87983Y344568D01*
X87955Y344540D01*
X87937Y344522D01*
X87927Y344513D01*
X87835Y344392D01*
X87752Y344263D01*
X87678Y344124D01*
X87613Y343976D01*
X87557Y343828D01*
X87511Y343680D01*
X87446Y343384D01*
X87428Y343254D01*
X87409Y343125D01*
X87400Y343014D01*
X87391Y342912D01*
X87382Y342829D01*
Y342718D01*
X87391Y342505D01*
X87409Y342311D01*
X87437Y342126D01*
X87474Y341950D01*
X87511Y341793D01*
X87557Y341645D01*
X87613Y341515D01*
X87668Y341395D01*
X87714Y341284D01*
X87770Y341192D01*
X87816Y341108D01*
X87862Y341044D01*
X87890Y340988D01*
X87918Y340951D01*
X87937Y340933D01*
X87946Y340924D01*
X88057Y340812D01*
X88168Y340711D01*
X88288Y340628D01*
X88399Y340553D01*
X88519Y340489D01*
X88630Y340442D01*
X88741Y340396D01*
X88843Y340369D01*
X88945Y340341D01*
X89037Y340322D01*
X89111Y340304D01*
X89185Y340295D01*
X89241Y340285D01*
X89315D01*
X89463Y340295D01*
X89601Y340313D01*
X89740Y340341D01*
X89860Y340378D01*
X89953Y340415D01*
X90036Y340442D01*
X90083Y340461D01*
X90101Y340470D01*
X90240Y340553D01*
X90369Y340646D01*
X90490Y340748D01*
X90582Y340840D01*
X90665Y340924D01*
X90730Y340998D01*
X90767Y341044D01*
X90776Y341062D01*
Y340387D01*
X91914D01*
Y346788D01*
D02*
G37*
G36*
X53138D02*
X51908D01*
Y344485D01*
X51797Y344596D01*
X51686Y344697D01*
X51575Y344781D01*
X51455Y344864D01*
X51344Y344919D01*
X51232Y344975D01*
X51121Y345021D01*
X51020Y345049D01*
X50918Y345077D01*
X50835Y345095D01*
X50752Y345114D01*
X50687Y345123D01*
X50631Y345132D01*
X50557D01*
X50400Y345123D01*
X50252Y345105D01*
X50113Y345077D01*
X49975Y345040D01*
X49743Y344938D01*
X49632Y344882D01*
X49540Y344827D01*
X49447Y344762D01*
X49373Y344707D01*
X49308Y344660D01*
X49253Y344614D01*
X49207Y344568D01*
X49179Y344540D01*
X49161Y344522D01*
X49151Y344513D01*
X49059Y344392D01*
X48976Y344263D01*
X48902Y344124D01*
X48837Y343976D01*
X48781Y343828D01*
X48735Y343680D01*
X48670Y343384D01*
X48652Y343254D01*
X48633Y343125D01*
X48624Y343014D01*
X48615Y342912D01*
X48605Y342829D01*
Y342718D01*
X48615Y342505D01*
X48633Y342311D01*
X48661Y342126D01*
X48698Y341950D01*
X48735Y341793D01*
X48781Y341645D01*
X48837Y341515D01*
X48892Y341395D01*
X48939Y341284D01*
X48994Y341192D01*
X49040Y341108D01*
X49086Y341044D01*
X49114Y340988D01*
X49142Y340951D01*
X49161Y340933D01*
X49170Y340924D01*
X49281Y340812D01*
X49392Y340711D01*
X49512Y340628D01*
X49623Y340553D01*
X49743Y340489D01*
X49854Y340442D01*
X49965Y340396D01*
X50067Y340369D01*
X50169Y340341D01*
X50261Y340322D01*
X50335Y340304D01*
X50409Y340295D01*
X50465Y340285D01*
X50539D01*
X50687Y340295D01*
X50826Y340313D01*
X50964Y340341D01*
X51085Y340378D01*
X51177Y340415D01*
X51260Y340442D01*
X51306Y340461D01*
X51325Y340470D01*
X51464Y340553D01*
X51593Y340646D01*
X51714Y340748D01*
X51806Y340840D01*
X51889Y340924D01*
X51954Y340998D01*
X51991Y341044D01*
X52000Y341062D01*
Y340387D01*
X53138D01*
Y346788D01*
D02*
G37*
G36*
X86383Y345132D02*
X86308D01*
X86198Y345123D01*
X86105Y345114D01*
X86013Y345086D01*
X85939Y345058D01*
X85874Y345030D01*
X85818Y345012D01*
X85790Y344993D01*
X85781Y344984D01*
X85689Y344919D01*
X85606Y344827D01*
X85513Y344725D01*
X85439Y344623D01*
X85365Y344522D01*
X85309Y344439D01*
X85273Y344383D01*
X85263Y344374D01*
Y345030D01*
X84126D01*
Y340387D01*
X85356D01*
Y341811D01*
Y342024D01*
Y342218D01*
X85365Y342394D01*
X85374Y342551D01*
Y342700D01*
X85383Y342820D01*
X85393Y342940D01*
X85402Y343033D01*
X85411Y343116D01*
X85421Y343190D01*
X85430Y343245D01*
Y343291D01*
X85439Y343319D01*
X85448Y343347D01*
Y343366D01*
X85485Y343495D01*
X85532Y343606D01*
X85578Y343699D01*
X85624Y343763D01*
X85661Y343819D01*
X85698Y343856D01*
X85716Y343874D01*
X85726Y343883D01*
X85800Y343930D01*
X85874Y343967D01*
X85948Y343994D01*
X86013Y344013D01*
X86068Y344022D01*
X86124Y344032D01*
X86160D01*
X86262Y344022D01*
X86364Y344004D01*
X86457Y343967D01*
X86549Y343930D01*
X86623Y343893D01*
X86678Y343856D01*
X86725Y343837D01*
X86734Y343828D01*
X87122Y344892D01*
X86975Y344975D01*
X86836Y345030D01*
X86697Y345077D01*
X86567Y345105D01*
X86466Y345123D01*
X86383Y345132D01*
D02*
G37*
G36*
X45118D02*
X45044D01*
X44933Y345123D01*
X44841Y345114D01*
X44748Y345086D01*
X44674Y345058D01*
X44609Y345030D01*
X44554Y345012D01*
X44526Y344993D01*
X44517Y344984D01*
X44425Y344919D01*
X44341Y344827D01*
X44249Y344725D01*
X44175Y344623D01*
X44101Y344522D01*
X44045Y344439D01*
X44008Y344383D01*
X43999Y344374D01*
Y345030D01*
X42861D01*
Y340387D01*
X44091D01*
Y341811D01*
Y342024D01*
Y342218D01*
X44101Y342394D01*
X44110Y342551D01*
Y342700D01*
X44119Y342820D01*
X44129Y342940D01*
X44138Y343033D01*
X44147Y343116D01*
X44156Y343190D01*
X44166Y343245D01*
Y343291D01*
X44175Y343319D01*
X44184Y343347D01*
Y343366D01*
X44221Y343495D01*
X44267Y343606D01*
X44313Y343699D01*
X44360Y343763D01*
X44397Y343819D01*
X44434Y343856D01*
X44452Y343874D01*
X44462Y343883D01*
X44535Y343930D01*
X44609Y343967D01*
X44684Y343994D01*
X44748Y344013D01*
X44804Y344022D01*
X44859Y344032D01*
X44896D01*
X44998Y344022D01*
X45100Y344004D01*
X45192Y343967D01*
X45285Y343930D01*
X45359Y343893D01*
X45414Y343856D01*
X45461Y343837D01*
X45470Y343828D01*
X45858Y344892D01*
X45710Y344975D01*
X45572Y345030D01*
X45433Y345077D01*
X45303Y345105D01*
X45202Y345123D01*
X45118Y345132D01*
D02*
G37*
G36*
X101812Y341617D02*
X100581D01*
Y340387D01*
X101812D01*
Y341617D01*
D02*
G37*
G36*
X98482Y346825D02*
X97483D01*
X97390Y346612D01*
X97270Y346418D01*
X97140Y346233D01*
X97011Y346085D01*
X96900Y345965D01*
X96798Y345872D01*
X96761Y345835D01*
X96733Y345808D01*
X96715Y345798D01*
X96706Y345789D01*
X96502Y345641D01*
X96308Y345512D01*
X96132Y345410D01*
X95975Y345336D01*
X95845Y345280D01*
X95753Y345234D01*
X95716Y345225D01*
X95688Y345216D01*
X95679Y345206D01*
X95670D01*
Y344096D01*
X96003Y344226D01*
X96298Y344365D01*
X96437Y344439D01*
X96567Y344522D01*
X96687Y344596D01*
X96798Y344670D01*
X96900Y344744D01*
X96992Y344809D01*
X97066Y344864D01*
X97131Y344919D01*
X97186Y344966D01*
X97224Y344993D01*
X97242Y345012D01*
X97251Y345021D01*
Y340387D01*
X98482D01*
Y346825D01*
D02*
G37*
G36*
X81147Y345132D02*
X80842D01*
X80694Y345114D01*
X80546Y345105D01*
X80416Y345077D01*
X80287Y345058D01*
X80176Y345030D01*
X80074Y344993D01*
X79981Y344966D01*
X79908Y344938D01*
X79834Y344901D01*
X79778Y344873D01*
X79722Y344855D01*
X79685Y344827D01*
X79658Y344818D01*
X79649Y344799D01*
X79639D01*
X79482Y344660D01*
X79352Y344503D01*
X79242Y344337D01*
X79149Y344180D01*
X79084Y344032D01*
X79057Y343967D01*
X79038Y343911D01*
X79019Y343865D01*
X79010Y343828D01*
X79001Y343810D01*
Y343800D01*
X80102Y343597D01*
X80148Y343708D01*
X80194Y343800D01*
X80240Y343883D01*
X80296Y343948D01*
X80333Y343994D01*
X80370Y344022D01*
X80388Y344041D01*
X80398Y344050D01*
X80472Y344096D01*
X80555Y344133D01*
X80647Y344152D01*
X80731Y344170D01*
X80805Y344180D01*
X80860Y344189D01*
X80916D01*
X81082Y344180D01*
X81221Y344161D01*
X81332Y344143D01*
X81424Y344115D01*
X81489Y344078D01*
X81536Y344059D01*
X81563Y344041D01*
X81573Y344032D01*
X81637Y343967D01*
X81683Y343893D01*
X81711Y343810D01*
X81739Y343726D01*
X81748Y343643D01*
X81757Y343578D01*
Y343541D01*
Y343523D01*
Y343403D01*
X81693Y343375D01*
X81609Y343347D01*
X81434Y343291D01*
X81230Y343245D01*
X81036Y343199D01*
X80851Y343153D01*
X80768Y343134D01*
X80694Y343125D01*
X80638Y343116D01*
X80592Y343107D01*
X80564Y343097D01*
X80555D01*
X80333Y343051D01*
X80129Y343005D01*
X79963Y342958D01*
X79824Y342912D01*
X79713Y342866D01*
X79639Y342838D01*
X79593Y342820D01*
X79575Y342811D01*
X79454Y342746D01*
X79352Y342672D01*
X79260Y342588D01*
X79195Y342514D01*
X79131Y342450D01*
X79093Y342394D01*
X79066Y342357D01*
X79057Y342339D01*
X78992Y342218D01*
X78945Y342098D01*
X78918Y341987D01*
X78899Y341876D01*
X78881Y341784D01*
X78872Y341710D01*
Y341645D01*
X78881Y341534D01*
X78890Y341432D01*
X78936Y341238D01*
X79001Y341072D01*
X79075Y340933D01*
X79149Y340822D01*
X79214Y340739D01*
X79260Y340683D01*
X79278Y340674D01*
Y340665D01*
X79445Y340535D01*
X79630Y340442D01*
X79815Y340378D01*
X80000Y340332D01*
X80157Y340304D01*
X80231Y340295D01*
X80287D01*
X80342Y340285D01*
X80407D01*
X80555Y340295D01*
X80703Y340313D01*
X80832Y340332D01*
X80944Y340359D01*
X81036Y340387D01*
X81110Y340415D01*
X81156Y340424D01*
X81175Y340433D01*
X81304Y340498D01*
X81434Y340563D01*
X81545Y340646D01*
X81647Y340720D01*
X81730Y340785D01*
X81795Y340840D01*
X81832Y340877D01*
X81850Y340886D01*
X81859Y340849D01*
X81878Y340803D01*
X81887Y340766D01*
X81896Y340757D01*
Y340748D01*
X81924Y340665D01*
X81942Y340591D01*
X81961Y340526D01*
X81980Y340479D01*
X81998Y340442D01*
X82007Y340406D01*
X82016Y340396D01*
Y340387D01*
X83228D01*
X83173Y340507D01*
X83126Y340618D01*
X83090Y340720D01*
X83052Y340812D01*
X83034Y340886D01*
X83016Y340951D01*
X83006Y340988D01*
Y340998D01*
X82988Y341118D01*
X82978Y341266D01*
X82960Y341414D01*
Y341562D01*
X82951Y341691D01*
Y341802D01*
Y341848D01*
Y341876D01*
Y341895D01*
Y341904D01*
X82969Y343338D01*
Y343486D01*
X82960Y343615D01*
X82951Y343736D01*
X82942Y343847D01*
X82932Y343948D01*
X82914Y344041D01*
X82904Y344124D01*
X82886Y344189D01*
X82867Y344253D01*
X82858Y344300D01*
X82831Y344383D01*
X82812Y344420D01*
X82803Y344439D01*
X82729Y344540D01*
X82645Y344642D01*
X82553Y344725D01*
X82451Y344799D01*
X82368Y344855D01*
X82294Y344892D01*
X82248Y344919D01*
X82239Y344929D01*
X82229D01*
X82146Y344966D01*
X82063Y344993D01*
X81868Y345049D01*
X81665Y345086D01*
X81471Y345105D01*
X81286Y345123D01*
X81212D01*
X81147Y345132D01*
D02*
G37*
G36*
X70103Y346788D02*
X67291D01*
Y340387D01*
X70065D01*
X70223Y340396D01*
X70500D01*
X70611Y340406D01*
X70787D01*
X70852Y340415D01*
X70944D01*
X70981Y340424D01*
X71018D01*
X71203Y340452D01*
X71370Y340498D01*
X71518Y340544D01*
X71647Y340600D01*
X71749Y340646D01*
X71823Y340692D01*
X71869Y340720D01*
X71888Y340729D01*
X72017Y340831D01*
X72119Y340942D01*
X72221Y341044D01*
X72295Y341155D01*
X72360Y341247D01*
X72406Y341321D01*
X72434Y341368D01*
X72443Y341386D01*
X72508Y341543D01*
X72563Y341691D01*
X72600Y341839D01*
X72619Y341969D01*
X72637Y342080D01*
X72646Y342163D01*
Y342237D01*
X72637Y342441D01*
X72600Y342625D01*
X72544Y342783D01*
X72489Y342931D01*
X72434Y343042D01*
X72378Y343125D01*
X72341Y343180D01*
X72332Y343199D01*
X72202Y343347D01*
X72063Y343467D01*
X71906Y343569D01*
X71767Y343643D01*
X71638Y343708D01*
X71527Y343754D01*
X71490Y343763D01*
X71462Y343773D01*
X71444Y343782D01*
X71434D01*
X71583Y343865D01*
X71712Y343948D01*
X71823Y344050D01*
X71916Y344133D01*
X71980Y344216D01*
X72036Y344281D01*
X72073Y344327D01*
X72082Y344346D01*
X72165Y344494D01*
X72230Y344633D01*
X72267Y344772D01*
X72304Y344901D01*
X72322Y345012D01*
X72332Y345095D01*
Y345151D01*
Y345160D01*
Y345169D01*
X72322Y345317D01*
X72304Y345465D01*
X72267Y345585D01*
X72230Y345696D01*
X72193Y345789D01*
X72156Y345863D01*
X72137Y345900D01*
X72128Y345918D01*
X72054Y346039D01*
X71971Y346141D01*
X71888Y346233D01*
X71814Y346316D01*
X71740Y346372D01*
X71684Y346418D01*
X71647Y346446D01*
X71638Y346455D01*
X71527Y346529D01*
X71407Y346585D01*
X71296Y346631D01*
X71194Y346668D01*
X71101Y346695D01*
X71037Y346714D01*
X70991Y346723D01*
X70972D01*
X70815Y346742D01*
X70639Y346760D01*
X70454Y346769D01*
X70269Y346779D01*
X70103Y346788D01*
D02*
G37*
G36*
X47616Y345030D02*
X46385D01*
Y340387D01*
X47616D01*
Y345030D01*
D02*
G37*
G36*
X39281Y346788D02*
X36470D01*
Y340387D01*
X39244D01*
X39402Y340396D01*
X39679D01*
X39790Y340406D01*
X39966D01*
X40031Y340415D01*
X40123D01*
X40160Y340424D01*
X40197D01*
X40382Y340452D01*
X40549Y340498D01*
X40697Y340544D01*
X40826Y340600D01*
X40928Y340646D01*
X41002Y340692D01*
X41048Y340720D01*
X41067Y340729D01*
X41196Y340831D01*
X41298Y340942D01*
X41400Y341044D01*
X41474Y341155D01*
X41539Y341247D01*
X41585Y341321D01*
X41612Y341368D01*
X41622Y341386D01*
X41686Y341543D01*
X41742Y341691D01*
X41779Y341839D01*
X41798Y341969D01*
X41816Y342080D01*
X41825Y342163D01*
Y342237D01*
X41816Y342441D01*
X41779Y342625D01*
X41723Y342783D01*
X41668Y342931D01*
X41612Y343042D01*
X41557Y343125D01*
X41520Y343180D01*
X41511Y343199D01*
X41381Y343347D01*
X41243Y343467D01*
X41085Y343569D01*
X40946Y343643D01*
X40817Y343708D01*
X40706Y343754D01*
X40669Y343763D01*
X40641Y343773D01*
X40623Y343782D01*
X40613D01*
X40762Y343865D01*
X40891Y343948D01*
X41002Y344050D01*
X41094Y344133D01*
X41159Y344216D01*
X41215Y344281D01*
X41252Y344327D01*
X41261Y344346D01*
X41344Y344494D01*
X41409Y344633D01*
X41446Y344772D01*
X41483Y344901D01*
X41502Y345012D01*
X41511Y345095D01*
Y345151D01*
Y345160D01*
Y345169D01*
X41502Y345317D01*
X41483Y345465D01*
X41446Y345585D01*
X41409Y345696D01*
X41372Y345789D01*
X41335Y345863D01*
X41317Y345900D01*
X41307Y345918D01*
X41233Y346039D01*
X41150Y346141D01*
X41067Y346233D01*
X40993Y346316D01*
X40919Y346372D01*
X40863Y346418D01*
X40826Y346446D01*
X40817Y346455D01*
X40706Y346529D01*
X40586Y346585D01*
X40475Y346631D01*
X40373Y346668D01*
X40281Y346695D01*
X40216Y346714D01*
X40170Y346723D01*
X40151D01*
X39994Y346742D01*
X39818Y346760D01*
X39633Y346769D01*
X39448Y346779D01*
X39281Y346788D01*
D02*
G37*
G36*
X23621D02*
X21068D01*
Y340387D01*
X23492D01*
X23742Y340396D01*
X23973Y340406D01*
X24167Y340424D01*
X24324Y340452D01*
X24454Y340479D01*
X24555Y340498D01*
X24583Y340507D01*
X24611D01*
X24620Y340516D01*
X24630D01*
X24833Y340591D01*
X25018Y340674D01*
X25166Y340757D01*
X25295Y340840D01*
X25397Y340914D01*
X25471Y340970D01*
X25517Y341007D01*
X25536Y341025D01*
X25693Y341201D01*
X25832Y341386D01*
X25952Y341580D01*
X26045Y341756D01*
X26119Y341922D01*
X26156Y341987D01*
X26174Y342043D01*
X26193Y342098D01*
X26211Y342135D01*
X26221Y342154D01*
Y342163D01*
X26285Y342385D01*
X26341Y342616D01*
X26378Y342838D01*
X26396Y343051D01*
X26406Y343153D01*
X26415Y343245D01*
Y343319D01*
X26424Y343393D01*
Y343523D01*
X26415Y343847D01*
X26387Y344133D01*
X26378Y344272D01*
X26359Y344392D01*
X26341Y344513D01*
X26322Y344614D01*
X26294Y344707D01*
X26276Y344790D01*
X26258Y344864D01*
X26248Y344919D01*
X26230Y344966D01*
X26221Y345003D01*
X26211Y345021D01*
Y345030D01*
X26128Y345252D01*
X26026Y345456D01*
X25925Y345632D01*
X25823Y345780D01*
X25739Y345900D01*
X25666Y345992D01*
X25619Y346048D01*
X25610Y346066D01*
X25601D01*
X25444Y346215D01*
X25286Y346335D01*
X25120Y346437D01*
X24972Y346520D01*
X24842Y346585D01*
X24731Y346631D01*
X24694Y346640D01*
X24667Y346649D01*
X24648Y346658D01*
X24639D01*
X24463Y346705D01*
X24269Y346732D01*
X24065Y346760D01*
X23871Y346769D01*
X23695Y346779D01*
X23621Y346788D01*
D02*
G37*
G36*
X16924Y346742D02*
X15629D01*
Y340387D01*
X20143D01*
Y341469D01*
X16924D01*
Y346742D01*
D02*
G37*
G36*
X11957Y346788D02*
X9145D01*
Y340387D01*
X11920D01*
X12077Y340396D01*
X12355D01*
X12466Y340406D01*
X12641D01*
X12706Y340415D01*
X12799D01*
X12836Y340424D01*
X12873D01*
X13058Y340452D01*
X13224Y340498D01*
X13372Y340544D01*
X13502Y340600D01*
X13603Y340646D01*
X13678Y340692D01*
X13724Y340720D01*
X13742Y340729D01*
X13872Y340831D01*
X13973Y340942D01*
X14075Y341044D01*
X14149Y341155D01*
X14214Y341247D01*
X14260Y341321D01*
X14288Y341368D01*
X14297Y341386D01*
X14362Y341543D01*
X14417Y341691D01*
X14455Y341839D01*
X14473Y341969D01*
X14491Y342080D01*
X14501Y342163D01*
Y342237D01*
X14491Y342441D01*
X14455Y342625D01*
X14399Y342783D01*
X14344Y342931D01*
X14288Y343042D01*
X14232Y343125D01*
X14196Y343180D01*
X14186Y343199D01*
X14057Y343347D01*
X13918Y343467D01*
X13761Y343569D01*
X13622Y343643D01*
X13492Y343708D01*
X13382Y343754D01*
X13344Y343763D01*
X13317Y343773D01*
X13298Y343782D01*
X13289D01*
X13437Y343865D01*
X13566Y343948D01*
X13678Y344050D01*
X13770Y344133D01*
X13835Y344216D01*
X13890Y344281D01*
X13927Y344327D01*
X13937Y344346D01*
X14020Y344494D01*
X14085Y344633D01*
X14121Y344772D01*
X14159Y344901D01*
X14177Y345012D01*
X14186Y345095D01*
Y345151D01*
Y345160D01*
Y345169D01*
X14177Y345317D01*
X14159Y345465D01*
X14121Y345585D01*
X14085Y345696D01*
X14048Y345789D01*
X14010Y345863D01*
X13992Y345900D01*
X13983Y345918D01*
X13909Y346039D01*
X13826Y346141D01*
X13742Y346233D01*
X13668Y346316D01*
X13594Y346372D01*
X13539Y346418D01*
X13502Y346446D01*
X13492Y346455D01*
X13382Y346529D01*
X13261Y346585D01*
X13150Y346631D01*
X13048Y346668D01*
X12956Y346695D01*
X12891Y346714D01*
X12845Y346723D01*
X12826D01*
X12669Y346742D01*
X12494Y346760D01*
X12308Y346769D01*
X12123Y346779D01*
X11957Y346788D01*
D02*
G37*
G36*
X75939Y345132D02*
X75837D01*
X75588Y345123D01*
X75357Y345086D01*
X75144Y345040D01*
X74959Y344984D01*
X74885Y344947D01*
X74811Y344919D01*
X74746Y344901D01*
X74700Y344873D01*
X74654Y344855D01*
X74626Y344836D01*
X74607Y344827D01*
X74598D01*
X74404Y344697D01*
X74237Y344559D01*
X74089Y344411D01*
X73969Y344272D01*
X73877Y344143D01*
X73803Y344041D01*
X73775Y344004D01*
X73765Y343976D01*
X73747Y343957D01*
Y343948D01*
X73645Y343736D01*
X73580Y343523D01*
X73525Y343328D01*
X73488Y343153D01*
X73470Y342996D01*
X73460Y342931D01*
Y342875D01*
X73451Y342838D01*
Y342774D01*
X73460Y342487D01*
X73497Y342218D01*
X73544Y341987D01*
X73571Y341885D01*
X73599Y341793D01*
X73627Y341710D01*
X73655Y341636D01*
X73682Y341571D01*
X73701Y341515D01*
X73719Y341469D01*
X73738Y341441D01*
X73747Y341423D01*
Y341414D01*
X73877Y341219D01*
X74015Y341053D01*
X74163Y340905D01*
X74302Y340785D01*
X74432Y340692D01*
X74533Y340628D01*
X74570Y340600D01*
X74598Y340581D01*
X74616Y340572D01*
X74626D01*
X74848Y340479D01*
X75060Y340406D01*
X75264Y340359D01*
X75458Y340322D01*
X75616Y340304D01*
X75680Y340295D01*
X75736D01*
X75782Y340285D01*
X75847D01*
X76041Y340295D01*
X76217Y340313D01*
X76393Y340350D01*
X76550Y340396D01*
X76707Y340442D01*
X76846Y340498D01*
X76975Y340563D01*
X77096Y340628D01*
X77197Y340692D01*
X77290Y340757D01*
X77373Y340812D01*
X77438Y340859D01*
X77493Y340905D01*
X77530Y340942D01*
X77549Y340961D01*
X77558Y340970D01*
X77678Y341108D01*
X77780Y341247D01*
X77873Y341386D01*
X77956Y341534D01*
X78021Y341682D01*
X78076Y341830D01*
X78122Y341969D01*
X78159Y342108D01*
X78187Y342228D01*
X78206Y342348D01*
X78224Y342450D01*
X78233Y342542D01*
X78242Y342616D01*
Y342718D01*
X78233Y342912D01*
X78215Y343097D01*
X78178Y343264D01*
X78141Y343430D01*
X78085Y343578D01*
X78030Y343726D01*
X77965Y343856D01*
X77909Y343976D01*
X77845Y344078D01*
X77780Y344180D01*
X77724Y344253D01*
X77669Y344327D01*
X77632Y344374D01*
X77595Y344420D01*
X77577Y344439D01*
X77567Y344448D01*
X77438Y344568D01*
X77299Y344670D01*
X77160Y344762D01*
X77012Y344846D01*
X76864Y344910D01*
X76726Y344966D01*
X76587Y345012D01*
X76448Y345049D01*
X76328Y345077D01*
X76208Y345095D01*
X76106Y345114D01*
X76013Y345123D01*
X75939Y345132D01*
D02*
G37*
G36*
X61676D02*
X61574D01*
X61408Y345123D01*
X61250Y345105D01*
X61093Y345068D01*
X60954Y345030D01*
X60816Y344984D01*
X60695Y344929D01*
X60575Y344864D01*
X60473Y344809D01*
X60381Y344744D01*
X60298Y344679D01*
X60224Y344623D01*
X60168Y344577D01*
X60122Y344540D01*
X60085Y344503D01*
X60066Y344485D01*
X60057Y344476D01*
X59955Y344346D01*
X59863Y344207D01*
X59780Y344069D01*
X59706Y343920D01*
X59650Y343763D01*
X59604Y343615D01*
X59530Y343328D01*
X59502Y343190D01*
X59483Y343070D01*
X59474Y342958D01*
X59465Y342866D01*
X59456Y342783D01*
Y342672D01*
X59465Y342496D01*
X59474Y342320D01*
X59502Y342163D01*
X59530Y342015D01*
X59557Y341867D01*
X59604Y341738D01*
X59641Y341617D01*
X59687Y341506D01*
X59724Y341405D01*
X59770Y341321D01*
X59807Y341247D01*
X59835Y341182D01*
X59872Y341136D01*
X59891Y341099D01*
X59900Y341081D01*
X59909Y341072D01*
X60029Y340933D01*
X60150Y340812D01*
X60288Y340711D01*
X60436Y340618D01*
X60584Y340544D01*
X60732Y340479D01*
X60880Y340424D01*
X61028Y340387D01*
X61158Y340350D01*
X61287Y340332D01*
X61408Y340313D01*
X61509Y340295D01*
X61593D01*
X61648Y340285D01*
X61703D01*
X61972Y340304D01*
X62221Y340341D01*
X62434Y340396D01*
X62619Y340461D01*
X62703Y340498D01*
X62767Y340526D01*
X62832Y340553D01*
X62878Y340581D01*
X62915Y340609D01*
X62952Y340618D01*
X62962Y340637D01*
X62971D01*
X63147Y340785D01*
X63304Y340942D01*
X63433Y341118D01*
X63535Y341284D01*
X63618Y341432D01*
X63646Y341497D01*
X63674Y341552D01*
X63692Y341599D01*
X63711Y341636D01*
X63720Y341654D01*
Y341664D01*
X62499Y341867D01*
X62453Y341747D01*
X62406Y341636D01*
X62360Y341552D01*
X62305Y341478D01*
X62268Y341423D01*
X62231Y341386D01*
X62203Y341368D01*
X62194Y341358D01*
X62120Y341303D01*
X62037Y341266D01*
X61953Y341238D01*
X61879Y341219D01*
X61814Y341210D01*
X61759Y341201D01*
X61713D01*
X61565Y341210D01*
X61426Y341247D01*
X61296Y341294D01*
X61195Y341349D01*
X61111Y341405D01*
X61056Y341451D01*
X61010Y341488D01*
X61001Y341497D01*
X60908Y341617D01*
X60843Y341756D01*
X60788Y341904D01*
X60751Y342034D01*
X60732Y342163D01*
X60723Y342255D01*
X60714Y342292D01*
Y342320D01*
Y342339D01*
Y342348D01*
X63785D01*
Y342607D01*
X63766Y342838D01*
X63739Y343060D01*
X63701Y343264D01*
X63655Y343458D01*
X63609Y343624D01*
X63554Y343782D01*
X63498Y343920D01*
X63442Y344041D01*
X63387Y344152D01*
X63341Y344235D01*
X63295Y344309D01*
X63257Y344365D01*
X63230Y344411D01*
X63211Y344429D01*
X63202Y344439D01*
X63091Y344559D01*
X62962Y344670D01*
X62832Y344762D01*
X62703Y344836D01*
X62564Y344910D01*
X62425Y344966D01*
X62296Y345012D01*
X62166Y345049D01*
X62046Y345077D01*
X61935Y345095D01*
X61833Y345114D01*
X61750Y345123D01*
X61676Y345132D01*
D02*
G37*
G36*
X104975Y346825D02*
X104883D01*
X104716Y346816D01*
X104559Y346797D01*
X104402Y346760D01*
X104263Y346723D01*
X104133Y346668D01*
X104013Y346612D01*
X103911Y346557D01*
X103809Y346492D01*
X103726Y346427D01*
X103643Y346372D01*
X103578Y346316D01*
X103532Y346261D01*
X103486Y346224D01*
X103458Y346187D01*
X103439Y346168D01*
X103430Y346159D01*
X103319Y346002D01*
X103227Y345817D01*
X103144Y345622D01*
X103069Y345419D01*
X103014Y345206D01*
X102959Y344984D01*
X102921Y344772D01*
X102884Y344559D01*
X102866Y344355D01*
X102848Y344170D01*
X102829Y343994D01*
X102820Y343847D01*
X102811Y343726D01*
Y343550D01*
X102820Y343217D01*
X102838Y342912D01*
X102866Y342625D01*
X102903Y342367D01*
X102940Y342135D01*
X102986Y341922D01*
X103042Y341738D01*
X103097Y341571D01*
X103144Y341432D01*
X103199Y341303D01*
X103245Y341201D01*
X103291Y341118D01*
X103319Y341062D01*
X103347Y341016D01*
X103366Y340988D01*
X103375Y340979D01*
X103486Y340849D01*
X103606Y340748D01*
X103726Y340646D01*
X103856Y340572D01*
X103976Y340498D01*
X104105Y340442D01*
X104226Y340396D01*
X104346Y340359D01*
X104457Y340322D01*
X104559Y340304D01*
X104651Y340285D01*
X104725Y340276D01*
X104790D01*
X104845Y340267D01*
X104883D01*
X105049Y340276D01*
X105206Y340295D01*
X105364Y340332D01*
X105502Y340369D01*
X105632Y340415D01*
X105752Y340470D01*
X105854Y340535D01*
X105956Y340600D01*
X106039Y340655D01*
X106122Y340720D01*
X106187Y340775D01*
X106242Y340822D01*
X106279Y340859D01*
X106307Y340896D01*
X106325Y340914D01*
X106335Y340924D01*
X106446Y341081D01*
X106538Y341266D01*
X106631Y341460D01*
X106695Y341673D01*
X106760Y341885D01*
X106807Y342098D01*
X106853Y342320D01*
X106890Y342533D01*
X106908Y342737D01*
X106927Y342921D01*
X106945Y343097D01*
X106955Y343245D01*
X106964Y343366D01*
Y343541D01*
X106955Y343874D01*
X106936Y344180D01*
X106908Y344457D01*
X106862Y344716D01*
X106816Y344956D01*
X106770Y345169D01*
X106705Y345363D01*
X106649Y345530D01*
X106594Y345687D01*
X106538Y345808D01*
X106483Y345918D01*
X106437Y346011D01*
X106390Y346076D01*
X106362Y346122D01*
X106344Y346150D01*
X106335Y346159D01*
X106233Y346279D01*
X106122Y346381D01*
X106002Y346464D01*
X105882Y346548D01*
X105761Y346612D01*
X105641Y346658D01*
X105530Y346705D01*
X105410Y346742D01*
X105299Y346769D01*
X105206Y346788D01*
X105114Y346807D01*
X105040Y346816D01*
X104975Y346825D01*
D02*
G37*
%LPD*%
G36*
X89814Y344170D02*
X89962Y344133D01*
X90083Y344078D01*
X90193Y344013D01*
X90277Y343948D01*
X90332Y343893D01*
X90378Y343856D01*
X90388Y343837D01*
X90443Y343763D01*
X90490Y343689D01*
X90563Y343504D01*
X90610Y343319D01*
X90647Y343125D01*
X90665Y342958D01*
X90675Y342875D01*
X90684Y342811D01*
Y342755D01*
Y342718D01*
Y342690D01*
Y342681D01*
X90675Y342431D01*
X90637Y342209D01*
X90591Y342024D01*
X90536Y341876D01*
X90480Y341756D01*
X90434Y341673D01*
X90397Y341627D01*
X90388Y341608D01*
X90267Y341488D01*
X90147Y341405D01*
X90027Y341340D01*
X89916Y341303D01*
X89814Y341275D01*
X89740Y341266D01*
X89685Y341256D01*
X89666D01*
X89574Y341266D01*
X89481Y341275D01*
X89315Y341331D01*
X89176Y341405D01*
X89056Y341497D01*
X88963Y341580D01*
X88898Y341654D01*
X88862Y341710D01*
X88843Y341719D01*
Y341728D01*
X88806Y341793D01*
X88778Y341867D01*
X88723Y342034D01*
X88686Y342218D01*
X88667Y342394D01*
X88649Y342551D01*
Y342616D01*
X88639Y342681D01*
Y342727D01*
Y342774D01*
Y342792D01*
Y342801D01*
X88649Y343042D01*
X88686Y343254D01*
X88732Y343430D01*
X88788Y343578D01*
X88834Y343689D01*
X88880Y343773D01*
X88917Y343819D01*
X88926Y343837D01*
X89047Y343957D01*
X89167Y344041D01*
X89287Y344106D01*
X89407Y344143D01*
X89500Y344170D01*
X89583Y344180D01*
X89639Y344189D01*
X89657D01*
X89814Y344170D01*
D02*
G37*
G36*
X51038D02*
X51186Y344133D01*
X51306Y344078D01*
X51417Y344013D01*
X51501Y343948D01*
X51556Y343893D01*
X51603Y343856D01*
X51612Y343837D01*
X51667Y343763D01*
X51714Y343689D01*
X51788Y343504D01*
X51834Y343319D01*
X51871Y343125D01*
X51889Y342958D01*
X51898Y342875D01*
X51908Y342811D01*
Y342755D01*
Y342718D01*
Y342690D01*
Y342681D01*
X51898Y342431D01*
X51862Y342209D01*
X51815Y342024D01*
X51760Y341876D01*
X51704Y341756D01*
X51658Y341673D01*
X51621Y341627D01*
X51612Y341608D01*
X51491Y341488D01*
X51371Y341405D01*
X51251Y341340D01*
X51140Y341303D01*
X51038Y341275D01*
X50964Y341266D01*
X50909Y341256D01*
X50890D01*
X50798Y341266D01*
X50705Y341275D01*
X50539Y341331D01*
X50400Y341405D01*
X50280Y341497D01*
X50187Y341580D01*
X50122Y341654D01*
X50086Y341710D01*
X50067Y341719D01*
Y341728D01*
X50030Y341793D01*
X50002Y341867D01*
X49947Y342034D01*
X49910Y342218D01*
X49891Y342394D01*
X49873Y342551D01*
Y342616D01*
X49863Y342681D01*
Y342727D01*
Y342774D01*
Y342792D01*
Y342801D01*
X49873Y343042D01*
X49910Y343254D01*
X49956Y343430D01*
X50011Y343578D01*
X50058Y343689D01*
X50104Y343773D01*
X50141Y343819D01*
X50150Y343837D01*
X50270Y343957D01*
X50391Y344041D01*
X50511Y344106D01*
X50631Y344143D01*
X50724Y344170D01*
X50807Y344180D01*
X50862Y344189D01*
X50881D01*
X51038Y344170D01*
D02*
G37*
G36*
X81757Y342357D02*
Y342209D01*
X81748Y342080D01*
X81739Y341978D01*
X81730Y341895D01*
X81721Y341839D01*
X81711Y341793D01*
X81702Y341775D01*
Y341765D01*
X81674Y341682D01*
X81628Y341599D01*
X81582Y341534D01*
X81536Y341469D01*
X81489Y341423D01*
X81452Y341386D01*
X81424Y341368D01*
X81415Y341358D01*
X81304Y341284D01*
X81184Y341238D01*
X81082Y341201D01*
X80980Y341173D01*
X80897Y341155D01*
X80832Y341145D01*
X80777D01*
X80675Y341155D01*
X80573Y341173D01*
X80490Y341201D01*
X80426Y341238D01*
X80361Y341275D01*
X80324Y341303D01*
X80296Y341321D01*
X80287Y341331D01*
X80222Y341405D01*
X80176Y341478D01*
X80148Y341552D01*
X80129Y341627D01*
X80111Y341682D01*
X80102Y341728D01*
Y341765D01*
Y341775D01*
X80111Y341867D01*
X80139Y341950D01*
X80176Y342024D01*
X80222Y342089D01*
X80259Y342135D01*
X80296Y342172D01*
X80324Y342191D01*
X80333Y342200D01*
X80407Y342237D01*
X80500Y342283D01*
X80611Y342320D01*
X80721Y342348D01*
X80832Y342376D01*
X80916Y342394D01*
X80953Y342404D01*
X80980Y342413D01*
X80999D01*
X81184Y342450D01*
X81332Y342487D01*
X81471Y342524D01*
X81573Y342551D01*
X81656Y342579D01*
X81711Y342588D01*
X81748Y342607D01*
X81757D01*
Y342357D01*
D02*
G37*
G36*
X69973Y345715D02*
X70214D01*
X70269Y345706D01*
X70371D01*
X70408Y345696D01*
X70417D01*
X70528Y345678D01*
X70630Y345650D01*
X70713Y345613D01*
X70787Y345576D01*
X70833Y345539D01*
X70880Y345502D01*
X70898Y345484D01*
X70907Y345475D01*
X70963Y345401D01*
X71000Y345317D01*
X71037Y345243D01*
X71055Y345169D01*
X71065Y345095D01*
X71074Y345040D01*
Y345003D01*
Y344993D01*
X71065Y344882D01*
X71046Y344781D01*
X71009Y344697D01*
X70981Y344623D01*
X70944Y344559D01*
X70907Y344522D01*
X70889Y344494D01*
X70880Y344485D01*
X70806Y344420D01*
X70722Y344374D01*
X70639Y344337D01*
X70556Y344309D01*
X70473Y344281D01*
X70417Y344272D01*
X70380Y344263D01*
X70324D01*
X70269Y344253D01*
X69982D01*
X69825Y344244D01*
X68585D01*
Y345724D01*
X69871D01*
X69973Y345715D01*
D02*
G37*
G36*
X70056Y343171D02*
X70167Y343162D01*
X70278D01*
X70371Y343153D01*
X70454Y343144D01*
X70519Y343134D01*
X70583Y343125D01*
X70630Y343116D01*
X70704Y343107D01*
X70750Y343088D01*
X70759D01*
X70852Y343051D01*
X70935Y343005D01*
X71009Y342958D01*
X71065Y342903D01*
X71111Y342866D01*
X71139Y342829D01*
X71157Y342801D01*
X71166Y342792D01*
X71213Y342709D01*
X71250Y342625D01*
X71277Y342551D01*
X71296Y342468D01*
X71305Y342404D01*
X71314Y342348D01*
Y342311D01*
Y342302D01*
X71305Y342181D01*
X71286Y342071D01*
X71259Y341978D01*
X71222Y341904D01*
X71185Y341839D01*
X71157Y341793D01*
X71139Y341765D01*
X71129Y341756D01*
X71055Y341691D01*
X70981Y341636D01*
X70898Y341589D01*
X70824Y341552D01*
X70759Y341534D01*
X70704Y341515D01*
X70667Y341506D01*
X70657D01*
X70621Y341497D01*
X70565D01*
X70445Y341488D01*
X70297Y341478D01*
X70149D01*
X70010Y341469D01*
X68585D01*
Y343180D01*
X69927D01*
X70056Y343171D01*
D02*
G37*
G36*
X39152Y345715D02*
X39393D01*
X39448Y345706D01*
X39550D01*
X39587Y345696D01*
X39596D01*
X39707Y345678D01*
X39809Y345650D01*
X39892Y345613D01*
X39966Y345576D01*
X40012Y345539D01*
X40058Y345502D01*
X40077Y345484D01*
X40086Y345475D01*
X40142Y345401D01*
X40179Y345317D01*
X40216Y345243D01*
X40234Y345169D01*
X40244Y345095D01*
X40253Y345040D01*
Y345003D01*
Y344993D01*
X40244Y344882D01*
X40225Y344781D01*
X40188Y344697D01*
X40160Y344623D01*
X40123Y344559D01*
X40086Y344522D01*
X40068Y344494D01*
X40058Y344485D01*
X39985Y344420D01*
X39901Y344374D01*
X39818Y344337D01*
X39735Y344309D01*
X39652Y344281D01*
X39596Y344272D01*
X39559Y344263D01*
X39503D01*
X39448Y344253D01*
X39161D01*
X39004Y344244D01*
X37764D01*
Y345724D01*
X39050D01*
X39152Y345715D01*
D02*
G37*
G36*
X39235Y343171D02*
X39346Y343162D01*
X39457D01*
X39550Y343153D01*
X39633Y343144D01*
X39698Y343134D01*
X39762Y343125D01*
X39809Y343116D01*
X39883Y343107D01*
X39929Y343088D01*
X39938D01*
X40031Y343051D01*
X40114Y343005D01*
X40188Y342958D01*
X40244Y342903D01*
X40290Y342866D01*
X40317Y342829D01*
X40336Y342801D01*
X40345Y342792D01*
X40391Y342709D01*
X40429Y342625D01*
X40456Y342551D01*
X40475Y342468D01*
X40484Y342404D01*
X40493Y342348D01*
Y342311D01*
Y342302D01*
X40484Y342181D01*
X40466Y342071D01*
X40438Y341978D01*
X40401Y341904D01*
X40364Y341839D01*
X40336Y341793D01*
X40317Y341765D01*
X40308Y341756D01*
X40234Y341691D01*
X40160Y341636D01*
X40077Y341589D01*
X40003Y341552D01*
X39938Y341534D01*
X39883Y341515D01*
X39846Y341506D01*
X39836D01*
X39799Y341497D01*
X39744D01*
X39624Y341488D01*
X39476Y341478D01*
X39328D01*
X39189Y341469D01*
X37764D01*
Y343180D01*
X39106D01*
X39235Y343171D01*
D02*
G37*
G36*
X23325Y345696D02*
X23436D01*
X23529Y345687D01*
X23612D01*
X23695Y345678D01*
X23760D01*
X23862Y345659D01*
X23936Y345650D01*
X23982Y345641D01*
X23991D01*
X24121Y345604D01*
X24232Y345558D01*
X24333Y345512D01*
X24426Y345456D01*
X24491Y345410D01*
X24546Y345373D01*
X24574Y345345D01*
X24583Y345336D01*
X24667Y345243D01*
X24740Y345142D01*
X24805Y345040D01*
X24861Y344947D01*
X24898Y344855D01*
X24926Y344781D01*
X24944Y344735D01*
X24953Y344725D01*
Y344716D01*
X24999Y344549D01*
X25036Y344374D01*
X25055Y344180D01*
X25074Y343994D01*
X25083Y343837D01*
X25092Y343763D01*
Y343699D01*
Y343652D01*
Y343615D01*
Y343587D01*
Y343578D01*
X25083Y343319D01*
X25074Y343079D01*
X25046Y342884D01*
X25027Y342718D01*
X24999Y342579D01*
X24990Y342524D01*
X24972Y342487D01*
X24962Y342450D01*
Y342422D01*
X24953Y342413D01*
Y342404D01*
X24898Y342255D01*
X24851Y342126D01*
X24787Y342024D01*
X24740Y341941D01*
X24694Y341876D01*
X24657Y341830D01*
X24630Y341802D01*
X24620Y341793D01*
X24537Y341728D01*
X24454Y341673D01*
X24371Y341627D01*
X24287Y341589D01*
X24213Y341562D01*
X24158Y341543D01*
X24121Y341525D01*
X24102D01*
X24001Y341506D01*
X23880Y341497D01*
X23751Y341478D01*
X23621D01*
X23501Y341469D01*
X22363D01*
Y345706D01*
X23205D01*
X23325Y345696D01*
D02*
G37*
G36*
X11828Y345715D02*
X12068D01*
X12123Y345706D01*
X12225D01*
X12262Y345696D01*
X12271D01*
X12382Y345678D01*
X12484Y345650D01*
X12567Y345613D01*
X12641Y345576D01*
X12688Y345539D01*
X12734Y345502D01*
X12753Y345484D01*
X12762Y345475D01*
X12817Y345401D01*
X12854Y345317D01*
X12891Y345243D01*
X12910Y345169D01*
X12919Y345095D01*
X12928Y345040D01*
Y345003D01*
Y344993D01*
X12919Y344882D01*
X12900Y344781D01*
X12864Y344697D01*
X12836Y344623D01*
X12799Y344559D01*
X12762Y344522D01*
X12743Y344494D01*
X12734Y344485D01*
X12660Y344420D01*
X12577Y344374D01*
X12494Y344337D01*
X12410Y344309D01*
X12327Y344281D01*
X12271Y344272D01*
X12235Y344263D01*
X12179D01*
X12123Y344253D01*
X11837D01*
X11680Y344244D01*
X10440D01*
Y345724D01*
X11726D01*
X11828Y345715D01*
D02*
G37*
G36*
X11911Y343171D02*
X12022Y343162D01*
X12133D01*
X12225Y343153D01*
X12308Y343144D01*
X12373Y343134D01*
X12438Y343125D01*
X12484Y343116D01*
X12558Y343107D01*
X12605Y343088D01*
X12614D01*
X12706Y343051D01*
X12789Y343005D01*
X12864Y342958D01*
X12919Y342903D01*
X12965Y342866D01*
X12993Y342829D01*
X13012Y342801D01*
X13021Y342792D01*
X13067Y342709D01*
X13104Y342625D01*
X13132Y342551D01*
X13150Y342468D01*
X13160Y342404D01*
X13169Y342348D01*
Y342311D01*
Y342302D01*
X13160Y342181D01*
X13141Y342071D01*
X13113Y341978D01*
X13076Y341904D01*
X13039Y341839D01*
X13012Y341793D01*
X12993Y341765D01*
X12984Y341756D01*
X12910Y341691D01*
X12836Y341636D01*
X12753Y341589D01*
X12678Y341552D01*
X12614Y341534D01*
X12558Y341515D01*
X12521Y341506D01*
X12512D01*
X12475Y341497D01*
X12420D01*
X12299Y341488D01*
X12151Y341478D01*
X12003D01*
X11864Y341469D01*
X10440D01*
Y343180D01*
X11781D01*
X11911Y343171D01*
D02*
G37*
G36*
X76022Y344115D02*
X76180Y344078D01*
X76309Y344013D01*
X76429Y343948D01*
X76522Y343883D01*
X76596Y343819D01*
X76633Y343782D01*
X76652Y343763D01*
X76762Y343615D01*
X76846Y343440D01*
X76901Y343264D01*
X76947Y343097D01*
X76966Y342949D01*
X76975Y342875D01*
Y342820D01*
X76985Y342774D01*
Y342737D01*
Y342718D01*
Y342709D01*
X76966Y342468D01*
X76929Y342246D01*
X76883Y342071D01*
X76818Y341913D01*
X76753Y341802D01*
X76707Y341710D01*
X76670Y341664D01*
X76652Y341645D01*
X76522Y341525D01*
X76393Y341432D01*
X76254Y341377D01*
X76124Y341331D01*
X76013Y341303D01*
X75930Y341294D01*
X75893Y341284D01*
X75847D01*
X75671Y341303D01*
X75514Y341340D01*
X75375Y341395D01*
X75264Y341469D01*
X75162Y341534D01*
X75088Y341589D01*
X75051Y341627D01*
X75033Y341645D01*
X74922Y341793D01*
X74848Y341969D01*
X74792Y342144D01*
X74746Y342320D01*
X74727Y342468D01*
X74718Y342533D01*
Y342598D01*
X74709Y342644D01*
Y342681D01*
Y342700D01*
Y342709D01*
X74727Y342949D01*
X74765Y343162D01*
X74811Y343347D01*
X74875Y343495D01*
X74931Y343606D01*
X74986Y343699D01*
X75024Y343745D01*
X75033Y343763D01*
X75162Y343883D01*
X75301Y343976D01*
X75440Y344041D01*
X75569Y344087D01*
X75680Y344115D01*
X75763Y344124D01*
X75801Y344133D01*
X75847D01*
X76022Y344115D01*
D02*
G37*
G36*
X61787Y344180D02*
X61907Y344143D01*
X62018Y344096D01*
X62111Y344050D01*
X62185Y343994D01*
X62240Y343948D01*
X62277Y343911D01*
X62286Y343902D01*
X62370Y343791D01*
X62444Y343661D01*
X62490Y343523D01*
X62527Y343393D01*
X62545Y343282D01*
X62555Y343180D01*
X62564Y343144D01*
Y343125D01*
Y343107D01*
Y343097D01*
X60732D01*
X60742Y343273D01*
X60769Y343430D01*
X60806Y343569D01*
X60862Y343680D01*
X60908Y343773D01*
X60954Y343837D01*
X60982Y343883D01*
X60991Y343893D01*
X61093Y343994D01*
X61204Y344069D01*
X61315Y344115D01*
X61417Y344152D01*
X61509Y344170D01*
X61583Y344189D01*
X61648D01*
X61787Y344180D01*
D02*
G37*
G36*
X104966Y345798D02*
X105040Y345789D01*
X105104Y345761D01*
X105160Y345733D01*
X105206Y345706D01*
X105243Y345687D01*
X105262Y345669D01*
X105271Y345659D01*
X105326Y345595D01*
X105382Y345512D01*
X105428Y345419D01*
X105474Y345326D01*
X105502Y345234D01*
X105530Y345160D01*
X105539Y345114D01*
X105549Y345105D01*
Y345095D01*
X105567Y345012D01*
X105586Y344910D01*
X105604Y344790D01*
X105622Y344670D01*
X105641Y344420D01*
X105650Y344161D01*
X105659Y344041D01*
Y343920D01*
X105669Y343819D01*
Y343726D01*
Y343652D01*
Y343587D01*
Y343550D01*
Y343541D01*
Y343338D01*
X105659Y343144D01*
Y342968D01*
X105650Y342811D01*
X105641Y342663D01*
X105632Y342533D01*
X105613Y342413D01*
X105604Y342311D01*
X105595Y342218D01*
X105576Y342144D01*
X105567Y342080D01*
X105558Y342024D01*
X105549Y341987D01*
Y341950D01*
X105539Y341941D01*
Y341932D01*
X105502Y341802D01*
X105456Y341701D01*
X105410Y341608D01*
X105373Y341543D01*
X105336Y341488D01*
X105299Y341451D01*
X105280Y341432D01*
X105271Y341423D01*
X105206Y341377D01*
X105141Y341340D01*
X105077Y341321D01*
X105012Y341303D01*
X104966Y341294D01*
X104920Y341284D01*
X104883D01*
X104799Y341294D01*
X104725Y341303D01*
X104660Y341331D01*
X104605Y341358D01*
X104559Y341377D01*
X104522Y341405D01*
X104503Y341414D01*
X104494Y341423D01*
X104438Y341488D01*
X104383Y341571D01*
X104337Y341664D01*
X104290Y341756D01*
X104263Y341839D01*
X104235Y341913D01*
X104226Y341960D01*
X104217Y341978D01*
X104198Y342071D01*
X104180Y342172D01*
X104161Y342283D01*
X104152Y342404D01*
X104133Y342663D01*
X104124Y342921D01*
X104115Y343042D01*
Y343162D01*
X104105Y343264D01*
Y343356D01*
Y343430D01*
Y343495D01*
Y343532D01*
Y343541D01*
Y343745D01*
X104115Y343939D01*
Y344106D01*
X104124Y344272D01*
X104133Y344411D01*
X104142Y344549D01*
X104152Y344660D01*
X104170Y344772D01*
X104180Y344864D01*
X104189Y344938D01*
X104198Y345003D01*
X104207Y345058D01*
X104217Y345095D01*
Y345132D01*
X104226Y345142D01*
Y345151D01*
X104263Y345280D01*
X104309Y345391D01*
X104346Y345475D01*
X104392Y345549D01*
X104429Y345595D01*
X104457Y345632D01*
X104475Y345650D01*
X104485Y345659D01*
X104550Y345706D01*
X104623Y345743D01*
X104688Y345771D01*
X104753Y345789D01*
X104799Y345798D01*
X104845Y345808D01*
X104883D01*
X104966Y345798D01*
D02*
G37*
D10*
X154661Y82205D02*
X154602Y83210D01*
X154424Y84201D01*
X154130Y85164D01*
X153724Y86086D01*
X153211Y86953D01*
X152600Y87754D01*
X151899Y88476D01*
X151117Y89111D01*
X150265Y89648D01*
X149356Y90082D01*
X148402Y90404D01*
X147416Y90612D01*
X146413Y90701D01*
X145407Y90671D01*
X144411Y90522D01*
X143439Y90257D01*
X142506Y89878D01*
X141624Y89392D01*
X140806Y88805D01*
X140063Y88125D01*
X139405Y87362D01*
X138843Y86527D01*
X138383Y85631D01*
X138032Y84687D01*
X137795Y83708D01*
X137676Y82708D01*
Y81701D01*
X137795Y80701D01*
X138032Y79722D01*
X138383Y78778D01*
X138842Y77882D01*
X139405Y77047D01*
X140063Y76284D01*
X140806Y75604D01*
X141624Y75017D01*
X142506Y74531D01*
X143439Y74152D01*
X144411Y73887D01*
X145407Y73738D01*
X146413Y73708D01*
X147416Y73798D01*
X148402Y74005D01*
X149356Y74328D01*
X150265Y74761D01*
X151117Y75299D01*
X151899Y75933D01*
X152600Y76656D01*
X153211Y77456D01*
X153724Y78323D01*
X154130Y79245D01*
X154424Y80208D01*
X154602Y81199D01*
X154661Y82205D01*
X154563Y55236D02*
X154503Y56242D01*
X154325Y57233D01*
X154031Y58196D01*
X153625Y59118D01*
X153113Y59985D01*
X152502Y60785D01*
X151800Y61508D01*
X151018Y62142D01*
X150167Y62680D01*
X149258Y63113D01*
X148303Y63436D01*
X147318Y63643D01*
X146315Y63732D01*
X145308Y63703D01*
X144312Y63554D01*
X143341Y63288D01*
X142407Y62910D01*
X141525Y62424D01*
X140707Y61837D01*
X139964Y61157D01*
X139307Y60394D01*
X138744Y59559D01*
X138284Y58663D01*
X137934Y57719D01*
X137697Y56740D01*
X137578Y55740D01*
Y54733D01*
X137697Y53733D01*
X137934Y52754D01*
X138284Y51810D01*
X138744Y50914D01*
X139307Y50078D01*
X139964Y49316D01*
X140707Y48636D01*
X141525Y48049D01*
X142407Y47562D01*
X143341Y47184D01*
X144312Y46918D01*
X145308Y46770D01*
X146315Y46740D01*
X147318Y46829D01*
X148303Y47037D01*
X149258Y47359D01*
X150167Y47793D01*
X151018Y48330D01*
X151800Y48965D01*
X152502Y49687D01*
X153113Y50488D01*
X153625Y51355D01*
X154031Y52276D01*
X154325Y53240D01*
X154503Y54231D01*
X154563Y55236D01*
X156500Y307630D02*
X156440Y308635D01*
X156262Y309627D01*
X155968Y310590D01*
X155562Y311511D01*
X155050Y312378D01*
X154439Y313179D01*
X153737Y313901D01*
X152955Y314536D01*
X152104Y315074D01*
X151195Y315507D01*
X150241Y315829D01*
X149255Y316037D01*
X148252Y316126D01*
X147245Y316096D01*
X146249Y315948D01*
X145278Y315682D01*
X144344Y315304D01*
X143463Y314818D01*
X142644Y314230D01*
X141901Y313551D01*
X141244Y312788D01*
X140681Y311952D01*
X140221Y311056D01*
X139871Y310112D01*
X139634Y309134D01*
X139515Y308134D01*
Y307126D01*
X139634Y306126D01*
X139871Y305147D01*
X140221Y304203D01*
X140681Y303307D01*
X141244Y302472D01*
X141901Y301709D01*
X142644Y301029D01*
X143463Y300442D01*
X144344Y299956D01*
X145278Y299578D01*
X146249Y299312D01*
X147245Y299164D01*
X148252Y299134D01*
X149255Y299223D01*
X150241Y299430D01*
X151195Y299753D01*
X152104Y300186D01*
X152955Y300724D01*
X153737Y301358D01*
X154439Y302081D01*
X155050Y302881D01*
X155562Y303749D01*
X155968Y304670D01*
X156262Y305633D01*
X156440Y306625D01*
X156500Y307630D01*
Y280500D02*
X156440Y281505D01*
X156262Y282497D01*
X155968Y283460D01*
X155562Y284381D01*
X155050Y285248D01*
X154439Y286049D01*
X153737Y286772D01*
X152955Y287406D01*
X152104Y287944D01*
X151195Y288377D01*
X150241Y288699D01*
X149255Y288907D01*
X148252Y288996D01*
X147245Y288966D01*
X146249Y288818D01*
X145278Y288552D01*
X144344Y288174D01*
X143463Y287688D01*
X142644Y287101D01*
X141901Y286421D01*
X141244Y285658D01*
X140681Y284823D01*
X140221Y283927D01*
X139871Y282982D01*
X139634Y282004D01*
X139515Y281003D01*
Y279996D01*
X139634Y278996D01*
X139871Y278017D01*
X140221Y277074D01*
X140681Y276178D01*
X141244Y275342D01*
X141901Y274579D01*
X142644Y273900D01*
X143463Y273312D01*
X144344Y272826D01*
X145278Y272448D01*
X146249Y272182D01*
X147245Y272034D01*
X148252Y272004D01*
X149255Y272093D01*
X150241Y272301D01*
X151195Y272623D01*
X152104Y273056D01*
X152955Y273594D01*
X153737Y274228D01*
X154439Y274951D01*
X155050Y275751D01*
X155562Y276619D01*
X155968Y277540D01*
X156262Y278503D01*
X156440Y279495D01*
X156500Y280500D01*
X60500Y285000D02*
X60440Y286005D01*
X60262Y286997D01*
X59968Y287960D01*
X59562Y288881D01*
X59050Y289749D01*
X58439Y290549D01*
X57737Y291272D01*
X56955Y291906D01*
X56104Y292444D01*
X55194Y292877D01*
X54241Y293199D01*
X53255Y293407D01*
X52252Y293496D01*
X51245Y293466D01*
X50249Y293318D01*
X49278Y293052D01*
X48344Y292674D01*
X47462Y292188D01*
X46644Y291600D01*
X45901Y290921D01*
X45244Y290158D01*
X44681Y289322D01*
X44221Y288426D01*
X43871Y287483D01*
X43634Y286504D01*
X43515Y285504D01*
Y284496D01*
X43634Y283496D01*
X43871Y282518D01*
X44221Y281574D01*
X44681Y280678D01*
X45244Y279842D01*
X45901Y279079D01*
X46644Y278399D01*
X47462Y277812D01*
X48344Y277326D01*
X49278Y276948D01*
X50249Y276682D01*
X51245Y276534D01*
X52252Y276504D01*
X53255Y276593D01*
X54241Y276801D01*
X55194Y277123D01*
X56104Y277556D01*
X56955Y278094D01*
X57737Y278728D01*
X58439Y279451D01*
X59050Y280252D01*
X59562Y281119D01*
X59968Y282040D01*
X60262Y283003D01*
X60440Y283995D01*
X60500Y285000D01*
X156532Y252284D02*
X156472Y253289D01*
X156294Y254280D01*
X156000Y255243D01*
X155594Y256165D01*
X155081Y257032D01*
X154470Y257833D01*
X153769Y258555D01*
X152987Y259190D01*
X152135Y259727D01*
X151226Y260160D01*
X150272Y260483D01*
X149286Y260690D01*
X148283Y260780D01*
X147277Y260750D01*
X146281Y260601D01*
X145309Y260336D01*
X144376Y259957D01*
X143494Y259471D01*
X142676Y258884D01*
X141933Y258204D01*
X141275Y257441D01*
X140713Y256606D01*
X140253Y255710D01*
X139902Y254766D01*
X139665Y253787D01*
X139546Y252787D01*
Y251780D01*
X139665Y250780D01*
X139902Y249801D01*
X140253Y248857D01*
X140713Y247961D01*
X141275Y247126D01*
X141933Y246363D01*
X142676Y245683D01*
X143494Y245096D01*
X144376Y244610D01*
X145309Y244231D01*
X146281Y243966D01*
X147277Y243817D01*
X148283Y243787D01*
X149286Y243877D01*
X150272Y244084D01*
X151226Y244407D01*
X152135Y244840D01*
X152987Y245377D01*
X153769Y246012D01*
X154470Y246734D01*
X155081Y247535D01*
X155594Y248402D01*
X156000Y249324D01*
X156294Y250287D01*
X156472Y251278D01*
X156532Y252283D01*
X152500Y191630D02*
X152440Y192635D01*
X152262Y193626D01*
X151968Y194590D01*
X151562Y195511D01*
X151050Y196378D01*
X150439Y197179D01*
X149737Y197901D01*
X148955Y198536D01*
X148104Y199074D01*
X147195Y199507D01*
X146240Y199829D01*
X145255Y200037D01*
X144252Y200126D01*
X143245Y200096D01*
X142249Y199948D01*
X141278Y199682D01*
X140345Y199304D01*
X139462Y198818D01*
X138644Y198230D01*
X137901Y197551D01*
X137244Y196788D01*
X136681Y195952D01*
X136221Y195056D01*
X135871Y194112D01*
X135634Y193133D01*
X135515Y192133D01*
Y191126D01*
X135634Y190126D01*
X135871Y189147D01*
X136221Y188203D01*
X136681Y187307D01*
X137244Y186472D01*
X137901Y185709D01*
X138644Y185029D01*
X139462Y184442D01*
X140344Y183956D01*
X141278Y183578D01*
X142249Y183312D01*
X143245Y183163D01*
X144252Y183134D01*
X145255Y183223D01*
X146240Y183431D01*
X147195Y183753D01*
X148104Y184186D01*
X148955Y184724D01*
X149737Y185358D01*
X150439Y186081D01*
X151050Y186881D01*
X151562Y187749D01*
X151968Y188670D01*
X152262Y189633D01*
X152440Y190625D01*
X152500Y191630D01*
Y165630D02*
X152440Y166635D01*
X152262Y167626D01*
X151968Y168590D01*
X151562Y169511D01*
X151050Y170378D01*
X150439Y171179D01*
X149737Y171902D01*
X148955Y172536D01*
X148104Y173074D01*
X147195Y173507D01*
X146240Y173829D01*
X145255Y174037D01*
X144252Y174126D01*
X143245Y174096D01*
X142249Y173948D01*
X141278Y173682D01*
X140345Y173304D01*
X139462Y172818D01*
X138644Y172230D01*
X137901Y171551D01*
X137244Y170788D01*
X136681Y169952D01*
X136221Y169056D01*
X135871Y168112D01*
X135634Y167133D01*
X135515Y166133D01*
Y165126D01*
X135634Y164126D01*
X135871Y163147D01*
X136221Y162203D01*
X136681Y161307D01*
X137244Y160472D01*
X137901Y159709D01*
X138644Y159029D01*
X139462Y158442D01*
X140344Y157956D01*
X141278Y157578D01*
X142249Y157312D01*
X143245Y157164D01*
X144252Y157134D01*
X145255Y157223D01*
X146240Y157431D01*
X147195Y157753D01*
X148104Y158186D01*
X148955Y158724D01*
X149737Y159358D01*
X150439Y160081D01*
X151050Y160881D01*
X151562Y161749D01*
X151968Y162670D01*
X152262Y163633D01*
X152440Y164625D01*
X152500Y165630D01*
X62240Y168917D02*
X62181Y169923D01*
X62002Y170914D01*
X61708Y171877D01*
X61302Y172799D01*
X60790Y173666D01*
X60179Y174466D01*
X59478Y175189D01*
X58696Y175823D01*
X57844Y176361D01*
X56935Y176794D01*
X55981Y177117D01*
X54995Y177324D01*
X53992Y177414D01*
X52985Y177384D01*
X51989Y177235D01*
X51018Y176970D01*
X50085Y176591D01*
X49203Y176105D01*
X48384Y175518D01*
X47641Y174838D01*
X46984Y174075D01*
X46421Y173240D01*
X45961Y172344D01*
X45611Y171400D01*
X45374Y170421D01*
X45255Y169421D01*
Y168414D01*
X45374Y167414D01*
X45611Y166435D01*
X45961Y165491D01*
X46421Y164595D01*
X46984Y163760D01*
X47641Y162997D01*
X48384Y162317D01*
X49203Y161730D01*
X50085Y161243D01*
X51018Y160865D01*
X51989Y160600D01*
X52985Y160451D01*
X53992Y160421D01*
X54995Y160511D01*
X55981Y160718D01*
X56935Y161040D01*
X57844Y161474D01*
X58696Y162011D01*
X59478Y162646D01*
X60179Y163368D01*
X60790Y164169D01*
X61302Y165036D01*
X61708Y165958D01*
X62002Y166921D01*
X62181Y167912D01*
X62240Y168917D01*
X152500Y139630D02*
X152440Y140635D01*
X152262Y141626D01*
X151968Y142590D01*
X151562Y143511D01*
X151050Y144378D01*
X150439Y145179D01*
X149737Y145902D01*
X148955Y146536D01*
X148104Y147074D01*
X147195Y147507D01*
X146240Y147829D01*
X145255Y148037D01*
X144252Y148126D01*
X143245Y148096D01*
X142249Y147948D01*
X141278Y147682D01*
X140345Y147304D01*
X139462Y146818D01*
X138644Y146230D01*
X137901Y145551D01*
X137244Y144788D01*
X136681Y143952D01*
X136221Y143056D01*
X135871Y142112D01*
X135634Y141133D01*
X135515Y140134D01*
Y139126D01*
X135634Y138126D01*
X135871Y137147D01*
X136221Y136203D01*
X136681Y135307D01*
X137244Y134472D01*
X137901Y133709D01*
X138644Y133029D01*
X139462Y132442D01*
X140344Y131956D01*
X141278Y131578D01*
X142249Y131312D01*
X143245Y131164D01*
X144252Y131134D01*
X145255Y131223D01*
X146240Y131430D01*
X147195Y131753D01*
X148104Y132186D01*
X148955Y132724D01*
X149737Y133358D01*
X150439Y134081D01*
X151050Y134881D01*
X151562Y135749D01*
X151968Y136670D01*
X152262Y137633D01*
X152440Y138625D01*
X152500Y139630D01*
X62271Y63500D02*
X62211Y64505D01*
X62033Y65496D01*
X61739Y66460D01*
X61333Y67381D01*
X60821Y68248D01*
X60210Y69049D01*
X59508Y69772D01*
X58726Y70406D01*
X57874Y70944D01*
X56965Y71377D01*
X56011Y71699D01*
X55026Y71907D01*
X54023Y71996D01*
X53016Y71966D01*
X52020Y71818D01*
X51048Y71552D01*
X50115Y71174D01*
X49233Y70688D01*
X48415Y70100D01*
X47672Y69421D01*
X47014Y68658D01*
X46452Y67822D01*
X45992Y66926D01*
X45641Y65983D01*
X45405Y65004D01*
X45285Y64003D01*
Y62997D01*
X45405Y61996D01*
X45641Y61018D01*
X45992Y60074D01*
X46452Y59178D01*
X47014Y58342D01*
X47672Y57579D01*
X48415Y56899D01*
X49233Y56312D01*
X50115Y55826D01*
X51048Y55448D01*
X52020Y55182D01*
X53016Y55034D01*
X54023Y55004D01*
X55026Y55093D01*
X56011Y55301D01*
X56965Y55623D01*
X57874Y56056D01*
X58726Y56594D01*
X59508Y57228D01*
X60209Y57951D01*
X60821Y58751D01*
X61333Y59619D01*
X61739Y60540D01*
X62033Y61503D01*
X62211Y62495D01*
X62271Y63500D01*
X154500Y29630D02*
X154440Y30635D01*
X154262Y31626D01*
X153968Y32590D01*
X153562Y33511D01*
X153050Y34378D01*
X152439Y35179D01*
X151737Y35901D01*
X150955Y36536D01*
X150104Y37074D01*
X149195Y37507D01*
X148240Y37829D01*
X147255Y38037D01*
X146252Y38126D01*
X145245Y38096D01*
X144249Y37948D01*
X143278Y37682D01*
X142344Y37304D01*
X141463Y36817D01*
X140644Y36230D01*
X139901Y35551D01*
X139244Y34788D01*
X138681Y33952D01*
X138221Y33057D01*
X137871Y32112D01*
X137634Y31133D01*
X137515Y30134D01*
Y29126D01*
X137634Y28126D01*
X137871Y27147D01*
X138221Y26203D01*
X138681Y25307D01*
X139244Y24472D01*
X139901Y23709D01*
X140644Y23030D01*
X141463Y22442D01*
X142344Y21956D01*
X143278Y21578D01*
X144249Y21312D01*
X145245Y21163D01*
X146252Y21134D01*
X147255Y21223D01*
X148240Y21430D01*
X149195Y21753D01*
X150104Y22186D01*
X150955Y22724D01*
X151737Y23358D01*
X152439Y24081D01*
X153050Y24881D01*
X153562Y25749D01*
X153968Y26670D01*
X154262Y27633D01*
X154440Y28625D01*
X154500Y29630D01*
X144161Y94705D02*
X148161D01*
X146161Y92705D02*
Y96705D01*
X144063Y67736D02*
X148063D01*
X146063Y65736D02*
Y69736D01*
X194980Y312795D02*
Y344291D01*
Y312795D02*
X236319D01*
Y344291D01*
X194980D02*
X236319D01*
X146000Y320130D02*
X150000D01*
X148000Y318130D02*
Y322130D01*
X146000Y293000D02*
X150000D01*
X148000Y291000D02*
Y295000D01*
X50000Y272500D02*
X54000D01*
X52000Y270500D02*
Y274500D01*
X146031Y264784D02*
X150031D01*
X148031Y262784D02*
Y266783D01*
X142000Y204130D02*
X146000D01*
X144000Y202130D02*
Y206130D01*
X142000Y178130D02*
X146000D01*
X144000Y176130D02*
Y180130D01*
X51740Y156417D02*
X55740D01*
X53740Y154417D02*
Y158417D01*
X142000Y152130D02*
X146000D01*
X144000Y150130D02*
Y154130D01*
X51771Y51000D02*
X55771D01*
X53771Y49000D02*
Y53000D01*
X144000Y42130D02*
X148000D01*
X146000Y40130D02*
Y44130D01*
X45575Y238429D02*
X57575D01*
Y260429D01*
X45575D02*
X57575D01*
X45575Y245804D02*
Y255054D01*
Y260429D01*
Y238429D02*
Y245804D01*
X47937Y122504D02*
Y129879D01*
Y139129D02*
Y144504D01*
Y129879D02*
Y139129D01*
Y144504D02*
X59937D01*
Y122504D02*
Y144504D01*
X47937Y122504D02*
X59937D01*
X48000Y15130D02*
X60000D01*
Y37130D01*
X48000D02*
X60000D01*
X48000Y22505D02*
Y31755D01*
Y37130D01*
Y15130D02*
Y22505D01*
D11*
X298618Y287913D02*
Y292189D01*
X283618Y292413D02*
X298618D01*
X283618Y287913D02*
Y292413D01*
X283842Y274413D02*
X298618D01*
X283618D02*
Y278913D01*
X298618Y274413D02*
Y278913D01*
X301736Y166441D02*
Y170941D01*
X286736Y166441D02*
Y170941D01*
X286961Y166441D02*
X301736D01*
X286736Y179941D02*
Y184441D01*
X301736D01*
Y179941D02*
Y184216D01*
X14000Y279630D02*
X24000D01*
X14000Y129630D02*
X24000D01*
X14000D02*
Y137130D01*
Y279630D01*
X24000Y129630D02*
Y279630D01*
X266700Y270500D02*
X302700D01*
X266700Y265437D02*
Y270500D01*
X302700Y265437D02*
Y270500D01*
X266700Y252500D02*
Y257563D01*
Y252500D02*
X302700D01*
Y257563D01*
X300055Y139126D02*
Y144189D01*
X264055Y139126D02*
X300055D01*
X264055D02*
Y144189D01*
X300055Y152063D02*
Y157126D01*
X264055Y152063D02*
Y157126D01*
X300055D01*
X261000Y44000D02*
X297000D01*
X261000Y38937D02*
Y44000D01*
X297000Y38937D02*
Y44000D01*
X261000Y26000D02*
Y31063D01*
Y26000D02*
X297000D01*
Y31063D01*
X116032Y305346D02*
X119968D01*
X118000D02*
X119575Y308102D01*
X116032D02*
X118000Y305346D01*
X116032Y308102D02*
X119575D01*
X118000Y304559D02*
Y305346D01*
Y308102D02*
Y309283D01*
X114000Y189811D02*
Y190992D01*
Y186268D02*
Y187055D01*
X112031Y189811D02*
X115575D01*
X112031D02*
X114000Y187055D01*
X115575Y189811D01*
X112031Y187055D02*
X115969D01*
X114032Y77055D02*
X117968D01*
X116000D02*
X117575Y79811D01*
X114032D02*
X116000Y77055D01*
X114032Y79811D02*
X117575D01*
X116000Y76268D02*
Y77055D01*
Y79811D02*
Y80992D01*
X252000Y292839D02*
Y294020D01*
Y296776D02*
Y297563D01*
X250425Y294020D02*
X253969D01*
X252000Y296776D02*
X253969Y294020D01*
X250425D02*
X252000Y296776D01*
X250031D02*
X253969D01*
X256299Y186811D02*
X260236D01*
X256693Y184055D02*
X258268Y186811D01*
X260236Y184055D01*
X256693D02*
X260236D01*
X258268Y186811D02*
Y187598D01*
Y182874D02*
Y184055D01*
X94500Y288118D02*
X105500D01*
Y249142D02*
Y288118D01*
X94500Y249142D02*
X105500D01*
X94500Y259685D02*
Y279173D01*
X86094Y290130D02*
X92000D01*
X94500Y249142D02*
Y259685D01*
Y279173D02*
Y288118D01*
Y163173D02*
Y172118D01*
Y133142D02*
Y143685D01*
X86094Y174130D02*
X92000D01*
X94500Y143685D02*
Y163173D01*
Y133142D02*
X105500D01*
Y172118D01*
X94500D02*
X105500D01*
X94500Y62118D02*
X105500D01*
Y23142D02*
Y62118D01*
X94500Y23142D02*
X105500D01*
X94500Y33685D02*
Y53173D01*
X86094Y64130D02*
X92000D01*
X94500Y23142D02*
Y33685D01*
Y53173D02*
Y62118D01*
D12*
X189738Y273583D02*
X191248Y275496D01*
X172248Y289496D02*
X176748D01*
X186748D02*
X191248D01*
X172248Y273496D02*
X176748D01*
X186748D02*
X191248D01*
Y289496D01*
X172248Y273496D02*
Y289496D01*
X173350Y163685D02*
Y179685D01*
X192350Y163685D02*
Y179685D01*
X187850Y163685D02*
X192350D01*
X173350D02*
X177850D01*
X187850Y179685D02*
X192350D01*
X173350D02*
X177850D01*
X190840Y163772D02*
X192350Y165685D01*
X190723Y57646D02*
X192233Y59559D01*
X173233Y73559D02*
X177733D01*
X187733D02*
X192233D01*
X173233Y57559D02*
X177733D01*
X187733D02*
X192233D01*
Y73559D01*
X173233Y57559D02*
Y73559D01*
D13*
X67472Y275000D02*
Y291000D01*
Y283000D02*
X76500D01*
Y275000D02*
Y291000D01*
X73968D02*
X76500D01*
X73968Y275000D02*
X76500D01*
X67472Y291000D02*
X70031D01*
X67472Y275000D02*
X70031D01*
X134468Y261350D02*
X137028D01*
X134468Y245350D02*
X137028D01*
X128000Y261350D02*
X130532D01*
X128000Y245350D02*
X130532D01*
X128000D02*
Y261350D01*
Y253350D02*
X137028D01*
Y245350D02*
Y261350D01*
X282268Y297472D02*
X298268D01*
X290268D02*
Y306500D01*
X282268D02*
X298268D01*
X282268Y303969D02*
Y306500D01*
X298268Y303969D02*
Y306500D01*
X282268Y297472D02*
Y300031D01*
X298268Y297472D02*
Y300031D01*
X279118Y297472D02*
Y300031D01*
X263118Y297472D02*
Y300031D01*
X279118Y303969D02*
Y306500D01*
X263118Y303969D02*
Y306500D01*
X279118D01*
X271118Y297472D02*
Y306500D01*
X263118Y297472D02*
X279118D01*
X68972Y159350D02*
Y175350D01*
Y167350D02*
X78000D01*
Y159350D02*
Y175350D01*
X75468D02*
X78000D01*
X75468Y159350D02*
X78000D01*
X68972Y175350D02*
X71531D01*
X68972Y159350D02*
X71531D01*
X129969Y147000D02*
X132528D01*
X129969Y131000D02*
X132528D01*
X123500Y147000D02*
X126031D01*
X123500Y131000D02*
X126031D01*
X123500D02*
Y147000D01*
Y139000D02*
X132528D01*
Y131000D02*
Y147000D01*
X285347Y187500D02*
X301346D01*
X293347D02*
Y196528D01*
X285347D02*
X301346D01*
X285347Y193996D02*
Y196528D01*
X301346Y193996D02*
Y196528D01*
X285347Y187500D02*
Y190059D01*
X301346Y187500D02*
Y190059D01*
X281441Y187374D02*
Y189933D01*
X265441Y187374D02*
Y189933D01*
X281441Y193870D02*
Y196402D01*
X265441Y193870D02*
Y196402D01*
X281441D01*
X273441Y187374D02*
Y196402D01*
X265441Y187374D02*
X281441D01*
X67472Y53000D02*
Y69000D01*
Y61000D02*
X76500D01*
Y53000D02*
Y69000D01*
X73968D02*
X76500D01*
X73968Y53000D02*
X76500D01*
X67472Y69000D02*
X70031D01*
X67472Y53000D02*
X70031D01*
X131468Y38000D02*
X134028D01*
X131468Y22000D02*
X134028D01*
X125000Y38000D02*
X127532D01*
X125000Y22000D02*
X127532D01*
X125000D02*
Y38000D01*
Y30000D02*
X134028D01*
Y22000D02*
Y38000D01*
X173500Y242472D02*
X189500D01*
X181500D02*
Y251500D01*
X173500D02*
X189500D01*
X173500Y248969D02*
Y251500D01*
X189500Y248969D02*
Y251500D01*
X173500Y242472D02*
Y245031D01*
X189500Y242472D02*
Y245031D01*
X204000Y188472D02*
Y191032D01*
X188000Y188472D02*
Y191032D01*
X204000Y194968D02*
Y197500D01*
X188000Y194968D02*
Y197500D01*
X204000D01*
X196000Y188472D02*
Y197500D01*
X188000Y188472D02*
X204000D01*
X174500Y131472D02*
X190500D01*
X182500D02*
Y140500D01*
X174500D02*
X190500D01*
X174500Y137969D02*
Y140500D01*
X190500Y137969D02*
Y140500D01*
X174500Y131472D02*
Y134031D01*
X190500Y131472D02*
Y134031D01*
X191500Y27472D02*
Y30031D01*
X175500Y27472D02*
Y30031D01*
X191500Y33968D02*
Y36500D01*
X175500Y33968D02*
Y36500D01*
X191500D01*
X183500Y27472D02*
Y36500D01*
X175500Y27472D02*
X191500D01*
X173748Y260968D02*
X189748D01*
X181748D02*
Y269996D01*
X173748D02*
X189748D01*
X173748Y267465D02*
Y269996D01*
X189748Y267465D02*
Y269996D01*
X173748Y260968D02*
Y263528D01*
X189748Y260968D02*
Y263528D01*
X190850Y149657D02*
Y152216D01*
X174850Y149657D02*
Y152216D01*
X190850Y156154D02*
Y158685D01*
X174850Y156154D02*
Y158685D01*
X190850D01*
X182850Y149657D02*
Y158685D01*
X174850Y149657D02*
X190850D01*
X175500Y43972D02*
X191500D01*
X183500D02*
Y53000D01*
X175500D02*
X191500D01*
X175500Y50468D02*
Y53000D01*
X191500Y50468D02*
Y53000D01*
X175500Y43972D02*
Y46532D01*
X191500Y43972D02*
Y46532D01*
X64567Y242421D02*
X66732D01*
X64567D02*
Y258169D01*
X66732D01*
X72244Y242421D02*
X74410D01*
Y258169D01*
X72244D02*
X74410D01*
X263244Y286756D02*
Y288921D01*
X278992D01*
Y286756D02*
Y288921D01*
X263244Y279079D02*
Y281244D01*
Y279079D02*
X278992D01*
Y281244D01*
X69079Y127256D02*
X71244D01*
X69079D02*
Y143004D01*
X71244D01*
X76756Y127256D02*
X78921D01*
Y143004D01*
X76756D02*
X78921D01*
X282370Y167106D02*
Y169272D01*
X266622Y167106D02*
X282370D01*
X266622D02*
Y169272D01*
X282370Y174784D02*
Y176949D01*
X266622D02*
X282370D01*
X266622Y174784D02*
Y176949D01*
X67079Y20181D02*
X69244D01*
X67079D02*
Y35929D01*
X69244D01*
X74756Y20181D02*
X76921D01*
Y35929D01*
X74756D02*
X76921D01*
X159055Y273917D02*
X161221D01*
X159055D02*
Y289665D01*
X161221D01*
X166732Y273917D02*
X168898D01*
Y289665D01*
X166732D02*
X168898D01*
X224492Y222866D02*
Y225031D01*
X208744Y222866D02*
X224492D01*
X208744D02*
Y225031D01*
X224492Y230543D02*
Y232709D01*
X208744D02*
X224492D01*
X208744Y230543D02*
Y232709D01*
X228744Y230543D02*
Y232709D01*
X244492D01*
Y230543D02*
Y232709D01*
X228744Y222866D02*
Y225031D01*
Y222866D02*
X244492D01*
Y225031D01*
X223492Y187866D02*
Y190032D01*
X207744Y187866D02*
X223492D01*
X207744D02*
Y190032D01*
X223492Y195543D02*
Y197709D01*
X207744D02*
X223492D01*
X207744Y195543D02*
Y197709D01*
X228744Y195543D02*
Y197709D01*
X244492D01*
Y195543D02*
Y197709D01*
X228744Y187866D02*
Y190032D01*
Y187866D02*
X244492D01*
Y190032D01*
X223492Y151173D02*
Y153339D01*
X207744Y151173D02*
X223492D01*
X207744D02*
Y153339D01*
X223492Y158850D02*
Y161016D01*
X207744D02*
X223492D01*
X207744Y158850D02*
Y161016D01*
X226689Y159043D02*
Y161209D01*
X242437D01*
Y159043D02*
Y161209D01*
X226689Y151366D02*
Y153532D01*
Y151366D02*
X242437D01*
Y153532D01*
X224492Y212866D02*
Y215032D01*
X208744Y212866D02*
X224492D01*
X208744D02*
Y215032D01*
X224492Y220543D02*
Y222709D01*
X208744D02*
X224492D01*
X208744Y220543D02*
Y222709D01*
X207677Y182776D02*
Y184941D01*
X223425D01*
Y182776D02*
Y184941D01*
X207677Y175098D02*
Y177264D01*
Y175098D02*
X223425D01*
Y177264D01*
X223492Y140866D02*
Y143032D01*
X207744Y140866D02*
X223492D01*
X207744D02*
Y143032D01*
X223492Y148543D02*
Y150709D01*
X207744D02*
X223492D01*
X207744Y148543D02*
Y150709D01*
X156595Y164173D02*
X158760D01*
X156595D02*
Y179921D01*
X158760D01*
X164272Y164173D02*
X166437D01*
Y179921D01*
X164272D02*
X166437D01*
X168256Y73929D02*
X170421D01*
Y58181D02*
Y73929D01*
X168256Y58181D02*
X170421D01*
X160579Y73929D02*
X162744D01*
X160579Y58181D02*
Y73929D01*
Y58181D02*
X162744D01*
X112882Y317551D02*
X115342D01*
X112882Y296685D02*
Y317551D01*
Y296685D02*
X117000D01*
X119000D02*
X122724D01*
Y317551D01*
X120658D02*
X122724D01*
X116657Y199260D02*
X118724D01*
Y178394D02*
Y199260D01*
X115000Y178394D02*
X118724D01*
X108882D02*
X113000D01*
X108882D02*
Y199260D01*
X111343D01*
X110882Y89260D02*
X113342D01*
X110882Y68394D02*
Y89260D01*
Y68394D02*
X115000D01*
X117000D02*
X120724D01*
Y89260D01*
X118658D02*
X120724D01*
X247276Y284571D02*
X249342D01*
X247276D02*
Y305437D01*
X251000D01*
X253000D02*
X257118D01*
Y284571D02*
Y305437D01*
X254658Y284571D02*
X257118D01*
X260925Y174606D02*
X263386D01*
Y195473D01*
X259268D02*
X263386D01*
X253543D02*
X257268D01*
X253543Y174606D02*
Y195473D01*
Y174606D02*
X255610D01*
M02*
