G04*
G04 #@! TF.GenerationSoftware,Altium Limited,Altium Designer,23.10.1 (27)*
G04*
G04 Layer_Physical_Order=3*
G04 Layer_Color=16440176*
%FSLAX25Y25*%
%MOIN*%
G70*
G04*
G04 #@! TF.SameCoordinates,92CF8CD3-C0A9-45A0-95EF-EEFF48AC6B84*
G04*
G04*
G04 #@! TF.FilePolarity,Positive*
G04*
G01*
G75*
%ADD48C,0.20000*%
%ADD50C,0.06500*%
%ADD51C,0.06000*%
%ADD52C,0.07000*%
%ADD53R,0.05906X0.05906*%
%ADD54C,0.05906*%
%ADD55C,0.05000*%
G36*
X79921Y0D02*
X153D01*
X-201Y354D01*
X202Y342520D01*
X79921D01*
Y0D01*
D02*
G37*
G36*
X393701D02*
X111024D01*
Y318497D01*
X111094Y318538D01*
X111746Y319190D01*
X112206Y319988D01*
X112445Y320878D01*
Y321799D01*
X112206Y322690D01*
X111746Y323488D01*
X111094Y324139D01*
X111024Y324180D01*
Y342520D01*
X393701D01*
Y0D01*
D02*
G37*
%LPC*%
G36*
X64634Y304287D02*
X63713D01*
X62822Y304049D01*
X62024Y303588D01*
X61373Y302937D01*
X60912Y302138D01*
X60673Y301248D01*
Y300327D01*
X60912Y299436D01*
X61373Y298638D01*
X62024Y297987D01*
X62822Y297526D01*
X63713Y297287D01*
X64634D01*
X65524Y297526D01*
X66322Y297987D01*
X66974Y298638D01*
X67435Y299436D01*
X67673Y300327D01*
Y301248D01*
X67435Y302138D01*
X66974Y302937D01*
X66322Y303588D01*
X65524Y304049D01*
X64634Y304287D01*
D02*
G37*
G36*
X48886Y303894D02*
X47964D01*
X47074Y303655D01*
X46276Y303194D01*
X45625Y302543D01*
X45164Y301745D01*
X44925Y300854D01*
Y299933D01*
X45164Y299043D01*
X45625Y298245D01*
X46276Y297593D01*
X47074Y297132D01*
X47964Y296894D01*
X48886D01*
X49776Y297132D01*
X50574Y297593D01*
X51226Y298245D01*
X51687Y299043D01*
X51925Y299933D01*
Y300854D01*
X51687Y301745D01*
X51226Y302543D01*
X50574Y303194D01*
X49776Y303655D01*
X48886Y303894D01*
D02*
G37*
G36*
X41012Y284602D02*
X40090D01*
X39200Y284364D01*
X38402Y283903D01*
X37751Y283251D01*
X37290Y282453D01*
X37051Y281563D01*
Y280642D01*
X37290Y279751D01*
X37751Y278953D01*
X38402Y278302D01*
X39200Y277841D01*
X40090Y277602D01*
X41012D01*
X41902Y277841D01*
X42700Y278302D01*
X43352Y278953D01*
X43813Y279751D01*
X44051Y280642D01*
Y281563D01*
X43813Y282453D01*
X43352Y283251D01*
X42700Y283903D01*
X41902Y284364D01*
X41012Y284602D01*
D02*
G37*
G36*
X41051Y274592D02*
Y271602D01*
X44041D01*
X43813Y272453D01*
X43352Y273251D01*
X42700Y273903D01*
X41902Y274364D01*
X41051Y274592D01*
D02*
G37*
G36*
X40051Y274592D02*
X39200Y274364D01*
X38402Y273903D01*
X37751Y273251D01*
X37290Y272453D01*
X37062Y271602D01*
X40051D01*
Y274592D01*
D02*
G37*
G36*
Y270602D02*
X37062D01*
X37290Y269751D01*
X37751Y268953D01*
X38402Y268302D01*
X39200Y267841D01*
X40051Y267613D01*
Y270602D01*
D02*
G37*
G36*
X44041D02*
X41051D01*
Y267613D01*
X41902Y267841D01*
X42700Y268302D01*
X43352Y268953D01*
X43813Y269751D01*
X44041Y270602D01*
D02*
G37*
G36*
X10465Y269921D02*
X9425D01*
X8419Y269652D01*
X7518Y269131D01*
X6782Y268396D01*
X6261Y267494D01*
X5992Y266489D01*
Y265448D01*
X6261Y264443D01*
X6782Y263541D01*
X7518Y262806D01*
X8419Y262285D01*
X9425Y262016D01*
X10465D01*
X11471Y262285D01*
X12372Y262806D01*
X13108Y263541D01*
X13628Y264443D01*
X13898Y265448D01*
Y266489D01*
X13628Y267494D01*
X13108Y268396D01*
X12372Y269131D01*
X11471Y269652D01*
X10465Y269921D01*
D02*
G37*
G36*
X27406Y264839D02*
X26484D01*
X25594Y264600D01*
X24796Y264139D01*
X24144Y263488D01*
X23683Y262689D01*
X23445Y261799D01*
Y260878D01*
X23683Y259988D01*
X24144Y259190D01*
X24796Y258538D01*
X25594Y258077D01*
X26484Y257839D01*
X27406D01*
X28296Y258077D01*
X29094Y258538D01*
X29746Y259190D01*
X30206Y259988D01*
X30445Y260878D01*
Y261799D01*
X30206Y262689D01*
X29746Y263488D01*
X29094Y264139D01*
X28296Y264600D01*
X27406Y264839D01*
D02*
G37*
G36*
X62665Y264032D02*
X61744D01*
X60854Y263793D01*
X60056Y263332D01*
X59404Y262681D01*
X58943Y261882D01*
X58705Y260992D01*
Y260071D01*
X58943Y259180D01*
X59404Y258382D01*
X60056Y257731D01*
X60854Y257270D01*
X61744Y257031D01*
X62665D01*
X63556Y257270D01*
X64354Y257731D01*
X65005Y258382D01*
X65466Y259180D01*
X65705Y260071D01*
Y260992D01*
X65466Y261882D01*
X65005Y262681D01*
X64354Y263332D01*
X63556Y263793D01*
X62665Y264032D01*
D02*
G37*
G36*
X10465Y259921D02*
X9425D01*
X8419Y259652D01*
X7518Y259132D01*
X6782Y258396D01*
X6261Y257494D01*
X5992Y256489D01*
Y255448D01*
X6261Y254443D01*
X6782Y253541D01*
X7518Y252805D01*
X8419Y252285D01*
X9425Y252016D01*
X10465D01*
X11471Y252285D01*
X12372Y252805D01*
X13108Y253541D01*
X13628Y254443D01*
X13898Y255448D01*
Y256489D01*
X13628Y257494D01*
X13108Y258396D01*
X12372Y259132D01*
X11471Y259652D01*
X10465Y259921D01*
D02*
G37*
G36*
X55087Y258224D02*
X54165D01*
X53275Y257986D01*
X52477Y257525D01*
X51825Y256873D01*
X51364Y256075D01*
X51126Y255185D01*
Y254264D01*
X51364Y253374D01*
X51825Y252575D01*
X52477Y251924D01*
X53275Y251463D01*
X54165Y251224D01*
X55087D01*
X55977Y251463D01*
X56775Y251924D01*
X57427Y252575D01*
X57888Y253374D01*
X58126Y254264D01*
Y255185D01*
X57888Y256075D01*
X57427Y256873D01*
X56775Y257525D01*
X55977Y257986D01*
X55087Y258224D01*
D02*
G37*
G36*
X10465Y249921D02*
X9425D01*
X8419Y249652D01*
X7518Y249131D01*
X6782Y248396D01*
X6261Y247494D01*
X5992Y246489D01*
Y245448D01*
X6261Y244443D01*
X6782Y243541D01*
X7518Y242806D01*
X8419Y242285D01*
X9425Y242016D01*
X10465D01*
X11471Y242285D01*
X12372Y242806D01*
X13108Y243541D01*
X13628Y244443D01*
X13898Y245448D01*
Y246489D01*
X13628Y247494D01*
X13108Y248396D01*
X12372Y249131D01*
X11471Y249652D01*
X10465Y249921D01*
D02*
G37*
G36*
X43079Y250018D02*
X41960D01*
X40879Y249728D01*
X39910Y249169D01*
X39119Y248377D01*
X38559Y247408D01*
X38270Y246327D01*
Y245208D01*
X38559Y244127D01*
X39119Y243158D01*
X39910Y242367D01*
X40879Y241807D01*
X41960Y241518D01*
X43079D01*
X44160Y241807D01*
X45129Y242367D01*
X45921Y243158D01*
X46480Y244127D01*
X46770Y245208D01*
Y246327D01*
X46480Y247408D01*
X45921Y248377D01*
X45129Y249169D01*
X44160Y249728D01*
X43079Y250018D01*
D02*
G37*
G36*
X28512Y247791D02*
X27590D01*
X26700Y247553D01*
X25902Y247092D01*
X25251Y246440D01*
X24790Y245642D01*
X24551Y244752D01*
Y243831D01*
X24790Y242940D01*
X25251Y242142D01*
X25902Y241491D01*
X26700Y241030D01*
X27590Y240791D01*
X28512D01*
X29402Y241030D01*
X30200Y241491D01*
X30852Y242142D01*
X31313Y242940D01*
X31551Y243831D01*
Y244752D01*
X31313Y245642D01*
X30852Y246440D01*
X30200Y247092D01*
X29402Y247553D01*
X28512Y247791D01*
D02*
G37*
G36*
X10465Y239921D02*
X9425D01*
X8419Y239652D01*
X7518Y239131D01*
X6782Y238396D01*
X6261Y237494D01*
X5992Y236489D01*
Y235448D01*
X6261Y234443D01*
X6782Y233541D01*
X7518Y232805D01*
X8419Y232285D01*
X9425Y232016D01*
X10465D01*
X11471Y232285D01*
X12372Y232805D01*
X13108Y233541D01*
X13628Y234443D01*
X13898Y235448D01*
Y236489D01*
X13628Y237494D01*
X13108Y238396D01*
X12372Y239131D01*
X11471Y239652D01*
X10465Y239921D01*
D02*
G37*
G36*
X43046Y239768D02*
X41993D01*
X40976Y239495D01*
X40064Y238968D01*
X39319Y238224D01*
X38792Y237312D01*
X38520Y236294D01*
Y235241D01*
X38792Y234224D01*
X39319Y233312D01*
X40064Y232567D01*
X40976Y232040D01*
X41993Y231768D01*
X43046D01*
X44064Y232040D01*
X44976Y232567D01*
X45720Y233312D01*
X46247Y234224D01*
X46520Y235241D01*
Y236294D01*
X46247Y237312D01*
X45720Y238224D01*
X44976Y238968D01*
X44064Y239495D01*
X43046Y239768D01*
D02*
G37*
G36*
X71366Y233804D02*
Y230815D01*
X74356D01*
X74128Y231666D01*
X73667Y232464D01*
X73015Y233116D01*
X72217Y233576D01*
X71366Y233804D01*
D02*
G37*
G36*
X70366D02*
X69515Y233576D01*
X68717Y233116D01*
X68065Y232464D01*
X67605Y231666D01*
X67377Y230815D01*
X70366D01*
Y233804D01*
D02*
G37*
G36*
X74356Y229815D02*
X71366D01*
Y226825D01*
X72217Y227053D01*
X73015Y227514D01*
X73667Y228166D01*
X74128Y228964D01*
X74356Y229815D01*
D02*
G37*
G36*
X70366D02*
X67377D01*
X67605Y228964D01*
X68065Y228166D01*
X68717Y227514D01*
X69515Y227053D01*
X70366Y226825D01*
Y229815D01*
D02*
G37*
G36*
X10465Y229921D02*
X10445D01*
Y226468D01*
X13898D01*
Y226489D01*
X13628Y227494D01*
X13108Y228396D01*
X12372Y229132D01*
X11471Y229652D01*
X10465Y229921D01*
D02*
G37*
G36*
X9445D02*
X9425D01*
X8419Y229652D01*
X7518Y229132D01*
X6782Y228396D01*
X6261Y227494D01*
X5992Y226489D01*
Y226468D01*
X9445D01*
Y229921D01*
D02*
G37*
G36*
X13898Y225468D02*
X10445D01*
Y222016D01*
X10465D01*
X11471Y222285D01*
X12372Y222806D01*
X13108Y223541D01*
X13628Y224443D01*
X13898Y225448D01*
Y225468D01*
D02*
G37*
G36*
X9445D02*
X5992D01*
Y225448D01*
X6261Y224443D01*
X6782Y223541D01*
X7518Y222806D01*
X8419Y222285D01*
X9425Y222016D01*
X9445D01*
Y225468D01*
D02*
G37*
G36*
X35500Y226039D02*
X34579D01*
X33688Y225801D01*
X32890Y225340D01*
X32239Y224688D01*
X31778Y223890D01*
X31539Y223000D01*
Y222079D01*
X31778Y221188D01*
X32239Y220390D01*
X32890Y219739D01*
X33688Y219278D01*
X34579Y219039D01*
X35500D01*
X36390Y219278D01*
X37188Y219739D01*
X37840Y220390D01*
X38301Y221188D01*
X38539Y222079D01*
Y223000D01*
X38301Y223890D01*
X37840Y224688D01*
X37188Y225340D01*
X36390Y225801D01*
X35500Y226039D01*
D02*
G37*
G36*
X10465Y219921D02*
X9425D01*
X8419Y219652D01*
X7518Y219131D01*
X6782Y218396D01*
X6261Y217494D01*
X5992Y216489D01*
Y215448D01*
X6261Y214443D01*
X6782Y213541D01*
X7518Y212806D01*
X8419Y212285D01*
X9425Y212016D01*
X10465D01*
X11471Y212285D01*
X12372Y212806D01*
X13108Y213541D01*
X13628Y214443D01*
X13898Y215448D01*
Y216489D01*
X13628Y217494D01*
X13108Y218396D01*
X12372Y219131D01*
X11471Y219652D01*
X10465Y219921D01*
D02*
G37*
G36*
Y209921D02*
X9425D01*
X8419Y209652D01*
X7518Y209132D01*
X6782Y208396D01*
X6261Y207494D01*
X5992Y206489D01*
Y205448D01*
X6261Y204443D01*
X6782Y203541D01*
X7518Y202805D01*
X8419Y202285D01*
X9425Y202016D01*
X10465D01*
X11471Y202285D01*
X12372Y202805D01*
X13108Y203541D01*
X13628Y204443D01*
X13898Y205448D01*
Y206489D01*
X13628Y207494D01*
X13108Y208396D01*
X12372Y209132D01*
X11471Y209652D01*
X10465Y209921D01*
D02*
G37*
G36*
X72114Y202319D02*
X71193D01*
X70303Y202080D01*
X69504Y201620D01*
X68853Y200968D01*
X68392Y200170D01*
X68154Y199280D01*
Y198358D01*
X68392Y197468D01*
X68853Y196670D01*
X69504Y196018D01*
X70303Y195557D01*
X71193Y195319D01*
X72114D01*
X73005Y195557D01*
X73803Y196018D01*
X74454Y196670D01*
X74915Y197468D01*
X75153Y198358D01*
Y199280D01*
X74915Y200170D01*
X74454Y200968D01*
X73803Y201620D01*
X73005Y202080D01*
X72114Y202319D01*
D02*
G37*
G36*
X10465Y199921D02*
X9425D01*
X8419Y199652D01*
X7518Y199132D01*
X6782Y198396D01*
X6261Y197494D01*
X5992Y196489D01*
Y195448D01*
X6261Y194443D01*
X6782Y193542D01*
X7518Y192806D01*
X8419Y192285D01*
X9425Y192016D01*
X10465D01*
X11471Y192285D01*
X12372Y192806D01*
X13108Y193542D01*
X13628Y194443D01*
X13898Y195448D01*
Y196489D01*
X13628Y197494D01*
X13108Y198396D01*
X12372Y199132D01*
X11471Y199652D01*
X10465Y199921D01*
D02*
G37*
G36*
Y189921D02*
X9425D01*
X8419Y189652D01*
X7518Y189131D01*
X6782Y188396D01*
X6261Y187494D01*
X5992Y186489D01*
Y185448D01*
X6261Y184443D01*
X6782Y183542D01*
X7518Y182806D01*
X8419Y182285D01*
X9425Y182016D01*
X10465D01*
X11471Y182285D01*
X12372Y182806D01*
X13108Y183542D01*
X13628Y184443D01*
X13898Y185448D01*
Y186489D01*
X13628Y187494D01*
X13108Y188396D01*
X12372Y189131D01*
X11471Y189652D01*
X10465Y189921D01*
D02*
G37*
G36*
X49280Y188933D02*
X48358D01*
X47468Y188695D01*
X46670Y188234D01*
X46018Y187582D01*
X45557Y186784D01*
X45319Y185894D01*
Y184972D01*
X45557Y184082D01*
X46018Y183284D01*
X46670Y182632D01*
X47468Y182172D01*
X48358Y181933D01*
X49280D01*
X50170Y182172D01*
X50968Y182632D01*
X51620Y183284D01*
X52080Y184082D01*
X52319Y184972D01*
Y185894D01*
X52080Y186784D01*
X51620Y187582D01*
X50968Y188234D01*
X50170Y188695D01*
X49280Y188933D01*
D02*
G37*
G36*
X40225D02*
X39303D01*
X38413Y188695D01*
X37615Y188234D01*
X36963Y187582D01*
X36502Y186784D01*
X36264Y185894D01*
Y184972D01*
X36502Y184082D01*
X36963Y183284D01*
X37615Y182632D01*
X38413Y182172D01*
X39303Y181933D01*
X40225D01*
X41115Y182172D01*
X41913Y182632D01*
X42564Y183284D01*
X43025Y184082D01*
X43264Y184972D01*
Y185894D01*
X43025Y186784D01*
X42564Y187582D01*
X41913Y188234D01*
X41115Y188695D01*
X40225Y188933D01*
D02*
G37*
G36*
X10465Y179921D02*
X9425D01*
X8419Y179652D01*
X7518Y179131D01*
X6782Y178396D01*
X6261Y177494D01*
X5992Y176489D01*
Y175448D01*
X6261Y174443D01*
X6782Y173541D01*
X7518Y172806D01*
X8419Y172285D01*
X9425Y172016D01*
X10465D01*
X11471Y172285D01*
X12372Y172806D01*
X13108Y173541D01*
X13628Y174443D01*
X13898Y175448D01*
Y176489D01*
X13628Y177494D01*
X13108Y178396D01*
X12372Y179131D01*
X11471Y179652D01*
X10465Y179921D01*
D02*
G37*
G36*
X20933Y170429D02*
X20012D01*
X19121Y170191D01*
X18323Y169730D01*
X17672Y169078D01*
X17211Y168280D01*
X16972Y167390D01*
Y166468D01*
X17211Y165578D01*
X17672Y164780D01*
X18323Y164128D01*
X19121Y163668D01*
X20012Y163429D01*
X20933D01*
X21823Y163668D01*
X22622Y164128D01*
X23273Y164780D01*
X23734Y165578D01*
X23972Y166468D01*
Y167390D01*
X23734Y168280D01*
X23273Y169078D01*
X22622Y169730D01*
X21823Y170191D01*
X20933Y170429D01*
D02*
G37*
G36*
X10465Y169921D02*
X9425D01*
X8419Y169652D01*
X7518Y169132D01*
X6782Y168396D01*
X6261Y167494D01*
X5992Y166489D01*
Y165448D01*
X6261Y164443D01*
X6782Y163541D01*
X7518Y162805D01*
X8419Y162285D01*
X9425Y162016D01*
X10465D01*
X11471Y162285D01*
X12372Y162805D01*
X13108Y163541D01*
X13628Y164443D01*
X13898Y165448D01*
Y166489D01*
X13628Y167494D01*
X13108Y168396D01*
X12372Y169132D01*
X11471Y169652D01*
X10465Y169921D01*
D02*
G37*
G36*
X45146Y168756D02*
X44224D01*
X43334Y168517D01*
X42536Y168057D01*
X41884Y167405D01*
X41424Y166607D01*
X41185Y165717D01*
Y164795D01*
X41424Y163905D01*
X41884Y163107D01*
X42536Y162455D01*
X43334Y161994D01*
X44224Y161756D01*
X45146D01*
X46036Y161994D01*
X46834Y162455D01*
X47486Y163107D01*
X47947Y163905D01*
X48185Y164795D01*
Y165717D01*
X47947Y166607D01*
X47486Y167405D01*
X46834Y168057D01*
X46036Y168517D01*
X45146Y168756D01*
D02*
G37*
G36*
X45185Y158745D02*
Y155756D01*
X48175D01*
X47947Y156607D01*
X47486Y157405D01*
X46834Y158057D01*
X46036Y158517D01*
X45185Y158745D01*
D02*
G37*
G36*
X44185D02*
X43334Y158517D01*
X42536Y158057D01*
X41884Y157405D01*
X41424Y156607D01*
X41195Y155756D01*
X44185D01*
Y158745D01*
D02*
G37*
G36*
X27232Y162161D02*
X26311D01*
X25421Y161923D01*
X24623Y161462D01*
X23971Y160810D01*
X23510Y160012D01*
X23272Y159122D01*
Y158201D01*
X23510Y157310D01*
X23971Y156512D01*
X24623Y155861D01*
X25421Y155400D01*
X26311Y155161D01*
X27232D01*
X28123Y155400D01*
X28921Y155861D01*
X29572Y156512D01*
X30033Y157310D01*
X30272Y158201D01*
Y159122D01*
X30033Y160012D01*
X29572Y160810D01*
X28921Y161462D01*
X28123Y161923D01*
X27232Y162161D01*
D02*
G37*
G36*
X10465Y159921D02*
X9425D01*
X8419Y159652D01*
X7518Y159132D01*
X6782Y158396D01*
X6261Y157494D01*
X5992Y156489D01*
Y155448D01*
X6261Y154443D01*
X6782Y153542D01*
X7518Y152805D01*
X8419Y152285D01*
X9425Y152016D01*
X10465D01*
X11471Y152285D01*
X12372Y152805D01*
X13108Y153542D01*
X13628Y154443D01*
X13898Y155448D01*
Y156489D01*
X13628Y157494D01*
X13108Y158396D01*
X12372Y159132D01*
X11471Y159652D01*
X10465Y159921D01*
D02*
G37*
G36*
X48175Y154756D02*
X45185D01*
Y151766D01*
X46036Y151994D01*
X46834Y152455D01*
X47486Y153107D01*
X47947Y153905D01*
X48175Y154756D01*
D02*
G37*
G36*
X44185D02*
X41195D01*
X41424Y153905D01*
X41884Y153107D01*
X42536Y152455D01*
X43334Y151994D01*
X44185Y151766D01*
Y154756D01*
D02*
G37*
G36*
X55185Y150350D02*
X54264D01*
X53373Y150112D01*
X52575Y149651D01*
X51924Y148999D01*
X51463Y148201D01*
X51224Y147311D01*
Y146390D01*
X51463Y145499D01*
X51924Y144701D01*
X52575Y144050D01*
X53373Y143589D01*
X54264Y143350D01*
X55185D01*
X56075Y143589D01*
X56874Y144050D01*
X57525Y144701D01*
X57986Y145499D01*
X58224Y146390D01*
Y147311D01*
X57986Y148201D01*
X57525Y148999D01*
X56874Y149651D01*
X56075Y150112D01*
X55185Y150350D01*
D02*
G37*
G36*
X10465Y149921D02*
X9425D01*
X8419Y149652D01*
X7518Y149132D01*
X6782Y148396D01*
X6261Y147494D01*
X5992Y146489D01*
Y145448D01*
X6261Y144443D01*
X6782Y143542D01*
X7518Y142806D01*
X8419Y142285D01*
X9425Y142016D01*
X10465D01*
X11471Y142285D01*
X12372Y142806D01*
X13108Y143542D01*
X13628Y144443D01*
X13898Y145448D01*
Y146489D01*
X13628Y147494D01*
X13108Y148396D01*
X12372Y149132D01*
X11471Y149652D01*
X10465Y149921D01*
D02*
G37*
G36*
X40618Y145232D02*
X39697D01*
X38807Y144994D01*
X38008Y144533D01*
X37357Y143881D01*
X36896Y143083D01*
X36658Y142193D01*
Y141271D01*
X36896Y140381D01*
X37357Y139583D01*
X38008Y138932D01*
X38807Y138471D01*
X39697Y138232D01*
X40618D01*
X41508Y138471D01*
X42307Y138932D01*
X42958Y139583D01*
X43419Y140381D01*
X43657Y141271D01*
Y142193D01*
X43419Y143083D01*
X42958Y143881D01*
X42307Y144533D01*
X41508Y144994D01*
X40618Y145232D01*
D02*
G37*
G36*
X10465Y139921D02*
X9425D01*
X8419Y139652D01*
X7518Y139131D01*
X6782Y138396D01*
X6261Y137494D01*
X5992Y136489D01*
Y135448D01*
X6261Y134443D01*
X6782Y133542D01*
X7518Y132806D01*
X8419Y132285D01*
X9425Y132016D01*
X10465D01*
X11471Y132285D01*
X12372Y132806D01*
X13108Y133542D01*
X13628Y134443D01*
X13898Y135448D01*
Y136489D01*
X13628Y137494D01*
X13108Y138396D01*
X12372Y139131D01*
X11471Y139652D01*
X10465Y139921D01*
D02*
G37*
G36*
X43867Y134447D02*
X42748D01*
X41667Y134157D01*
X40698Y133598D01*
X39906Y132806D01*
X39347Y131837D01*
X39057Y130756D01*
Y129637D01*
X39347Y128556D01*
X39906Y127587D01*
X40698Y126796D01*
X41667Y126236D01*
X42748Y125947D01*
X43867D01*
X44947Y126236D01*
X45917Y126796D01*
X46708Y127587D01*
X47267Y128556D01*
X47557Y129637D01*
Y130756D01*
X47267Y131837D01*
X46708Y132806D01*
X45917Y133598D01*
X44947Y134157D01*
X43867Y134447D01*
D02*
G37*
G36*
X13898Y129921D02*
X5992D01*
Y122016D01*
X13898D01*
Y129921D01*
D02*
G37*
G36*
X43834Y124197D02*
X42781D01*
X41763Y123924D01*
X40851Y123398D01*
X40106Y122653D01*
X39580Y121741D01*
X39307Y120723D01*
Y119670D01*
X39580Y118653D01*
X40106Y117741D01*
X40851Y116996D01*
X41763Y116469D01*
X42781Y116197D01*
X43834D01*
X44851Y116469D01*
X45763Y116996D01*
X46508Y117741D01*
X47034Y118653D01*
X47307Y119670D01*
Y120723D01*
X47034Y121741D01*
X46508Y122653D01*
X45763Y123398D01*
X44851Y123924D01*
X43834Y124197D01*
D02*
G37*
G36*
X70579Y117269D02*
Y114279D01*
X73568D01*
X73340Y115130D01*
X72879Y115929D01*
X72228Y116580D01*
X71430Y117041D01*
X70579Y117269D01*
D02*
G37*
G36*
X69579D02*
X68728Y117041D01*
X67930Y116580D01*
X67278Y115929D01*
X66817Y115130D01*
X66589Y114279D01*
X69579D01*
Y117269D01*
D02*
G37*
G36*
X73568Y113279D02*
X70579D01*
Y110290D01*
X71430Y110518D01*
X72228Y110979D01*
X72879Y111630D01*
X73340Y112429D01*
X73568Y113279D01*
D02*
G37*
G36*
X69579D02*
X66589D01*
X66817Y112429D01*
X67278Y111630D01*
X67930Y110979D01*
X68728Y110518D01*
X69579Y110290D01*
Y113279D01*
D02*
G37*
G36*
X33532Y90311D02*
X32610D01*
X31720Y90073D01*
X30922Y89612D01*
X30270Y88960D01*
X29809Y88162D01*
X29571Y87272D01*
Y86350D01*
X29809Y85460D01*
X30270Y84662D01*
X30922Y84010D01*
X31720Y83549D01*
X32610Y83311D01*
X33532D01*
X34422Y83549D01*
X35220Y84010D01*
X35872Y84662D01*
X36332Y85460D01*
X36571Y86350D01*
Y87272D01*
X36332Y88162D01*
X35872Y88960D01*
X35220Y89612D01*
X34422Y90073D01*
X33532Y90311D01*
D02*
G37*
G36*
X43768Y63342D02*
X42846D01*
X41956Y63104D01*
X41158Y62643D01*
X40506Y61992D01*
X40046Y61194D01*
X39807Y60303D01*
Y59382D01*
X40046Y58492D01*
X40506Y57693D01*
X41158Y57042D01*
X41956Y56581D01*
X42846Y56343D01*
X43768D01*
X44658Y56581D01*
X45456Y57042D01*
X46108Y57693D01*
X46569Y58492D01*
X46807Y59382D01*
Y60303D01*
X46569Y61194D01*
X46108Y61992D01*
X45456Y62643D01*
X44658Y63104D01*
X43768Y63342D01*
D02*
G37*
G36*
X43807Y53332D02*
Y50343D01*
X46797D01*
X46569Y51193D01*
X46108Y51992D01*
X45456Y52643D01*
X44658Y53104D01*
X43807Y53332D01*
D02*
G37*
G36*
X42807D02*
X41956Y53104D01*
X41158Y52643D01*
X40506Y51992D01*
X40046Y51193D01*
X39818Y50343D01*
X42807D01*
Y53332D01*
D02*
G37*
G36*
X46797Y49343D02*
X43807D01*
Y46353D01*
X44658Y46581D01*
X45456Y47042D01*
X46108Y47693D01*
X46569Y48492D01*
X46797Y49343D01*
D02*
G37*
G36*
X42807D02*
X39818D01*
X40046Y48492D01*
X40506Y47693D01*
X41158Y47042D01*
X41956Y46581D01*
X42807Y46353D01*
Y49343D01*
D02*
G37*
G36*
X57941Y42870D02*
X57020D01*
X56129Y42632D01*
X55331Y42171D01*
X54680Y41519D01*
X54219Y40721D01*
X53980Y39831D01*
Y38909D01*
X54219Y38019D01*
X54680Y37221D01*
X55331Y36569D01*
X56129Y36109D01*
X57020Y35870D01*
X57941D01*
X58831Y36109D01*
X59629Y36569D01*
X60281Y37221D01*
X60742Y38019D01*
X60980Y38909D01*
Y39831D01*
X60742Y40721D01*
X60281Y41519D01*
X59629Y42171D01*
X58831Y42632D01*
X57941Y42870D01*
D02*
G37*
G36*
X43768Y36177D02*
X42846D01*
X41956Y35939D01*
X41158Y35478D01*
X40506Y34826D01*
X40046Y34028D01*
X39807Y33138D01*
Y32216D01*
X40046Y31326D01*
X40506Y30528D01*
X41158Y29877D01*
X41956Y29416D01*
X42846Y29177D01*
X43768D01*
X44658Y29416D01*
X45456Y29877D01*
X46108Y30528D01*
X46569Y31326D01*
X46807Y32216D01*
Y33138D01*
X46569Y34028D01*
X46108Y34826D01*
X45456Y35478D01*
X44658Y35939D01*
X43768Y36177D01*
D02*
G37*
G36*
X43867Y24998D02*
X42748D01*
X41667Y24708D01*
X40698Y24149D01*
X39906Y23358D01*
X39347Y22388D01*
X39057Y21308D01*
Y20188D01*
X39347Y19108D01*
X39906Y18138D01*
X40698Y17347D01*
X41667Y16788D01*
X42748Y16498D01*
X43867D01*
X44947Y16788D01*
X45917Y17347D01*
X46708Y18138D01*
X47267Y19108D01*
X47557Y20188D01*
Y21308D01*
X47267Y22388D01*
X46708Y23358D01*
X45917Y24149D01*
X44947Y24708D01*
X43867Y24998D01*
D02*
G37*
G36*
X70972Y11757D02*
Y8768D01*
X73962D01*
X73734Y9619D01*
X73273Y10417D01*
X72622Y11068D01*
X71823Y11529D01*
X70972Y11757D01*
D02*
G37*
G36*
X69972D02*
X69121Y11529D01*
X68323Y11068D01*
X67672Y10417D01*
X67211Y9619D01*
X66983Y8768D01*
X69972D01*
Y11757D01*
D02*
G37*
G36*
X43834Y14748D02*
X42781D01*
X41763Y14475D01*
X40851Y13949D01*
X40106Y13204D01*
X39580Y12292D01*
X39307Y11275D01*
Y10221D01*
X39580Y9204D01*
X40106Y8292D01*
X40851Y7547D01*
X41763Y7021D01*
X42781Y6748D01*
X43834D01*
X44851Y7021D01*
X45763Y7547D01*
X46508Y8292D01*
X47034Y9204D01*
X47307Y10221D01*
Y11275D01*
X47034Y12292D01*
X46508Y13204D01*
X45763Y13949D01*
X44851Y14475D01*
X43834Y14748D01*
D02*
G37*
G36*
X73962Y7768D02*
X70972D01*
Y4778D01*
X71823Y5006D01*
X72622Y5467D01*
X73273Y6119D01*
X73734Y6917D01*
X73962Y7768D01*
D02*
G37*
G36*
X69972D02*
X66983D01*
X67211Y6917D01*
X67672Y6119D01*
X68323Y5467D01*
X69121Y5006D01*
X69972Y4778D01*
Y7768D01*
D02*
G37*
G36*
X270972Y329474D02*
Y326484D01*
X273962D01*
X273734Y327335D01*
X273273Y328133D01*
X272621Y328785D01*
X271823Y329246D01*
X270972Y329474D01*
D02*
G37*
G36*
X269972D02*
X269122Y329246D01*
X268323Y328785D01*
X267672Y328133D01*
X267211Y327335D01*
X266983Y326484D01*
X269972D01*
Y329474D01*
D02*
G37*
G36*
X273962Y325484D02*
X270972D01*
Y322495D01*
X271823Y322723D01*
X272621Y323184D01*
X273273Y323835D01*
X273734Y324633D01*
X273962Y325484D01*
D02*
G37*
G36*
X269972D02*
X266983D01*
X267211Y324633D01*
X267672Y323835D01*
X268323Y323184D01*
X269122Y322723D01*
X269972Y322495D01*
Y325484D01*
D02*
G37*
G36*
X176577Y324972D02*
X176484D01*
Y320972D01*
X180484D01*
Y321065D01*
X180178Y322209D01*
X179585Y323236D01*
X178747Y324073D01*
X177721Y324666D01*
X176577Y324972D01*
D02*
G37*
G36*
X175484D02*
X175392D01*
X174247Y324666D01*
X173221Y324073D01*
X172383Y323236D01*
X171791Y322209D01*
X171484Y321065D01*
Y320972D01*
X175484D01*
Y324972D01*
D02*
G37*
G36*
X180484Y319972D02*
X176484D01*
Y315972D01*
X176577D01*
X177721Y316279D01*
X178747Y316872D01*
X179585Y317709D01*
X180178Y318736D01*
X180484Y319880D01*
Y319972D01*
D02*
G37*
G36*
X175484D02*
X171484D01*
Y319880D01*
X171791Y318736D01*
X172383Y317709D01*
X173221Y316872D01*
X174247Y316279D01*
X175392Y315972D01*
X175484D01*
Y319972D01*
D02*
G37*
G36*
X156892Y324972D02*
X155707D01*
X154562Y324666D01*
X153536Y324073D01*
X152698Y323236D01*
X152106Y322209D01*
X151799Y321065D01*
Y319880D01*
X152106Y318736D01*
X152698Y317709D01*
X153536Y316872D01*
X154562Y316279D01*
X155707Y315972D01*
X156892D01*
X158036Y316279D01*
X159062Y316872D01*
X159900Y317709D01*
X160493Y318736D01*
X160799Y319880D01*
Y321065D01*
X160493Y322209D01*
X159900Y323236D01*
X159062Y324073D01*
X158036Y324666D01*
X156892Y324972D01*
D02*
G37*
G36*
X270972Y318056D02*
Y315067D01*
X273962D01*
X273734Y315918D01*
X273273Y316716D01*
X272621Y317368D01*
X271823Y317828D01*
X270972Y318056D01*
D02*
G37*
G36*
X269972D02*
X269122Y317828D01*
X268323Y317368D01*
X267672Y316716D01*
X267211Y315918D01*
X266983Y315067D01*
X269972D01*
Y318056D01*
D02*
G37*
G36*
X209910Y321217D02*
X208988D01*
X208098Y320978D01*
X207300Y320517D01*
X206648Y319866D01*
X206187Y319068D01*
X205949Y318177D01*
Y317256D01*
X206187Y316366D01*
X206648Y315567D01*
X207300Y314916D01*
X208098Y314455D01*
X208988Y314216D01*
X209910D01*
X210800Y314455D01*
X211598Y314916D01*
X212249Y315567D01*
X212710Y316366D01*
X212949Y317256D01*
Y318177D01*
X212710Y319068D01*
X212249Y319866D01*
X211598Y320517D01*
X210800Y320978D01*
X209910Y321217D01*
D02*
G37*
G36*
X273962Y314067D02*
X270972D01*
Y311077D01*
X271823Y311305D01*
X272621Y311766D01*
X273273Y312418D01*
X273734Y313216D01*
X273962Y314067D01*
D02*
G37*
G36*
X269972D02*
X266983D01*
X267211Y313216D01*
X267672Y312418D01*
X268323Y311766D01*
X269122Y311305D01*
X269972Y311077D01*
Y314067D01*
D02*
G37*
G36*
X221327Y314524D02*
X220405D01*
X219515Y314285D01*
X218717Y313824D01*
X218065Y313173D01*
X217605Y312375D01*
X217366Y311484D01*
Y310563D01*
X217605Y309673D01*
X218065Y308875D01*
X218717Y308223D01*
X219515Y307762D01*
X220405Y307524D01*
X221327D01*
X222217Y307762D01*
X223015Y308223D01*
X223667Y308875D01*
X224128Y309673D01*
X224366Y310563D01*
Y311484D01*
X224128Y312375D01*
X223667Y313173D01*
X223015Y313824D01*
X222217Y314285D01*
X221327Y314524D01*
D02*
G37*
G36*
X376063Y328716D02*
X374331D01*
X372621Y328446D01*
X370974Y327911D01*
X369432Y327125D01*
X368031Y326107D01*
X366807Y324883D01*
X365789Y323482D01*
X365003Y321939D01*
X364468Y320292D01*
X364197Y318582D01*
Y316851D01*
X364468Y315141D01*
X365003Y313494D01*
X365789Y311951D01*
X366807Y310550D01*
X368031Y309326D01*
X369432Y308309D01*
X370974Y307522D01*
X372621Y306987D01*
X374331Y306716D01*
X376063D01*
X377773Y306987D01*
X379419Y307522D01*
X380962Y308309D01*
X382363Y309326D01*
X383587Y310550D01*
X384605Y311951D01*
X385391Y313494D01*
X385926Y315141D01*
X386197Y316851D01*
Y318582D01*
X385926Y320292D01*
X385391Y321939D01*
X384605Y323482D01*
X383587Y324883D01*
X382363Y326107D01*
X380962Y327125D01*
X379419Y327911D01*
X377773Y328446D01*
X376063Y328716D01*
D02*
G37*
G36*
X121366Y307820D02*
Y304831D01*
X124356D01*
X124128Y305682D01*
X123667Y306480D01*
X123015Y307131D01*
X122217Y307592D01*
X121366Y307820D01*
D02*
G37*
G36*
X120366D02*
X119515Y307592D01*
X118717Y307131D01*
X118065Y306480D01*
X117605Y305682D01*
X117377Y304831D01*
X120366D01*
Y307820D01*
D02*
G37*
G36*
X270972Y307033D02*
Y304043D01*
X273962D01*
X273734Y304894D01*
X273273Y305692D01*
X272621Y306344D01*
X271823Y306805D01*
X270972Y307033D01*
D02*
G37*
G36*
X269972D02*
X269122Y306805D01*
X268323Y306344D01*
X267672Y305692D01*
X267211Y304894D01*
X266983Y304043D01*
X269972D01*
Y307033D01*
D02*
G37*
G36*
X124356Y303831D02*
X121366D01*
Y300841D01*
X122217Y301069D01*
X123015Y301530D01*
X123667Y302182D01*
X124128Y302980D01*
X124356Y303831D01*
D02*
G37*
G36*
X120366D02*
X117377D01*
X117605Y302980D01*
X118065Y302182D01*
X118717Y301530D01*
X119515Y301069D01*
X120366Y300841D01*
Y303831D01*
D02*
G37*
G36*
X273962Y303043D02*
X270972D01*
Y300054D01*
X271823Y300282D01*
X272621Y300743D01*
X273273Y301394D01*
X273734Y302192D01*
X273962Y303043D01*
D02*
G37*
G36*
X269972D02*
X266983D01*
X267211Y302192D01*
X267672Y301394D01*
X268323Y300743D01*
X269122Y300282D01*
X269972Y300054D01*
Y303043D01*
D02*
G37*
G36*
X251248Y305075D02*
X250327D01*
X249436Y304836D01*
X248638Y304376D01*
X247987Y303724D01*
X247526Y302926D01*
X247287Y302036D01*
Y301114D01*
X247526Y300224D01*
X247987Y299426D01*
X248638Y298774D01*
X249436Y298313D01*
X250327Y298075D01*
X251248D01*
X252138Y298313D01*
X252937Y298774D01*
X253588Y299426D01*
X254049Y300224D01*
X254287Y301114D01*
Y302036D01*
X254049Y302926D01*
X253588Y303724D01*
X252937Y304376D01*
X252138Y304836D01*
X251248Y305075D01*
D02*
G37*
G36*
X121327Y297831D02*
X120405D01*
X119515Y297592D01*
X118717Y297131D01*
X118065Y296480D01*
X117605Y295682D01*
X117366Y294792D01*
Y293870D01*
X117605Y292980D01*
X118065Y292182D01*
X118717Y291530D01*
X119515Y291069D01*
X120405Y290831D01*
X121327D01*
X122217Y291069D01*
X123015Y291530D01*
X123667Y292182D01*
X124128Y292980D01*
X124366Y293870D01*
Y294792D01*
X124128Y295682D01*
X123667Y296480D01*
X123015Y297131D01*
X122217Y297592D01*
X121327Y297831D01*
D02*
G37*
G36*
X344465Y292445D02*
X343543D01*
X342653Y292206D01*
X341855Y291746D01*
X341203Y291094D01*
X340742Y290296D01*
X340504Y289406D01*
Y288484D01*
X340742Y287594D01*
X341203Y286796D01*
X341855Y286144D01*
X342653Y285683D01*
X343543Y285445D01*
X344465D01*
X345355Y285683D01*
X346153Y286144D01*
X346805Y286796D01*
X347265Y287594D01*
X347504Y288484D01*
Y289406D01*
X347265Y290296D01*
X346805Y291094D01*
X346153Y291746D01*
X345355Y292206D01*
X344465Y292445D01*
D02*
G37*
G36*
X139831Y285390D02*
X138909D01*
X138019Y285151D01*
X137221Y284690D01*
X136569Y284039D01*
X136109Y283241D01*
X135870Y282351D01*
Y281429D01*
X136109Y280539D01*
X136569Y279741D01*
X137221Y279089D01*
X138019Y278628D01*
X138909Y278390D01*
X139831D01*
X140721Y278628D01*
X141519Y279089D01*
X142171Y279741D01*
X142631Y280539D01*
X142870Y281429D01*
Y282351D01*
X142631Y283241D01*
X142171Y284039D01*
X141519Y284690D01*
X140721Y285151D01*
X139831Y285390D01*
D02*
G37*
G36*
X121721Y280665D02*
X120799D01*
X119909Y280427D01*
X119111Y279966D01*
X118459Y279314D01*
X117998Y278516D01*
X117760Y277626D01*
Y276705D01*
X117998Y275814D01*
X118459Y275016D01*
X119111Y274365D01*
X119909Y273904D01*
X120799Y273665D01*
X121721D01*
X122611Y273904D01*
X123409Y274365D01*
X124060Y275016D01*
X124521Y275814D01*
X124760Y276705D01*
Y277626D01*
X124521Y278516D01*
X124060Y279314D01*
X123409Y279966D01*
X122611Y280427D01*
X121721Y280665D01*
D02*
G37*
G36*
X277828Y277073D02*
X276907D01*
X276017Y276834D01*
X275218Y276373D01*
X274567Y275722D01*
X274106Y274923D01*
X273868Y274033D01*
Y273112D01*
X274106Y272222D01*
X274567Y271424D01*
X275218Y270772D01*
X276017Y270311D01*
X276907Y270073D01*
X277828D01*
X278718Y270311D01*
X279517Y270772D01*
X280168Y271424D01*
X280629Y272222D01*
X280868Y273112D01*
Y274033D01*
X280629Y274923D01*
X280168Y275722D01*
X279517Y276373D01*
X278718Y276834D01*
X277828Y277073D01*
D02*
G37*
G36*
X214240Y275941D02*
X213319D01*
X212429Y275702D01*
X211631Y275242D01*
X210979Y274590D01*
X210518Y273792D01*
X210279Y272902D01*
Y271980D01*
X210518Y271090D01*
X210979Y270292D01*
X211631Y269640D01*
X212429Y269180D01*
X213319Y268941D01*
X214240D01*
X215130Y269180D01*
X215929Y269640D01*
X216580Y270292D01*
X217041Y271090D01*
X217280Y271980D01*
Y272902D01*
X217041Y273792D01*
X216580Y274590D01*
X215929Y275242D01*
X215130Y275702D01*
X214240Y275941D01*
D02*
G37*
G36*
X175067Y271413D02*
X174145D01*
X173255Y271175D01*
X172457Y270714D01*
X171806Y270062D01*
X171345Y269264D01*
X171106Y268374D01*
Y267453D01*
X171345Y266562D01*
X171806Y265764D01*
X172457Y265113D01*
X173255Y264652D01*
X174145Y264413D01*
X175067D01*
X175957Y264652D01*
X176755Y265113D01*
X177407Y265764D01*
X177868Y266562D01*
X178106Y267453D01*
Y268374D01*
X177868Y269264D01*
X177407Y270062D01*
X176755Y270714D01*
X175957Y271175D01*
X175067Y271413D01*
D02*
G37*
G36*
X121721Y270665D02*
X120799D01*
X119909Y270427D01*
X119111Y269966D01*
X118459Y269314D01*
X117998Y268516D01*
X117760Y267626D01*
Y266705D01*
X117998Y265814D01*
X118459Y265016D01*
X119111Y264365D01*
X119909Y263904D01*
X120799Y263665D01*
X121721D01*
X122611Y263904D01*
X123409Y264365D01*
X124060Y265016D01*
X124521Y265814D01*
X124760Y266705D01*
Y267626D01*
X124521Y268516D01*
X124060Y269314D01*
X123409Y269966D01*
X122611Y270427D01*
X121721Y270665D01*
D02*
G37*
G36*
X140028Y262134D02*
X139106D01*
X138216Y261895D01*
X137418Y261435D01*
X136766Y260783D01*
X136305Y259985D01*
X136067Y259095D01*
Y258173D01*
X136305Y257283D01*
X136766Y256485D01*
X137418Y255833D01*
X138216Y255372D01*
X139106Y255134D01*
X140028D01*
X140918Y255372D01*
X141716Y255833D01*
X142368Y256485D01*
X142828Y257283D01*
X143067Y258173D01*
Y259095D01*
X142828Y259985D01*
X142368Y260783D01*
X141716Y261435D01*
X140918Y261895D01*
X140028Y262134D01*
D02*
G37*
G36*
X224265Y261245D02*
X223343D01*
X222453Y261006D01*
X221655Y260546D01*
X221003Y259894D01*
X220543Y259096D01*
X220304Y258206D01*
Y257284D01*
X220543Y256394D01*
X221003Y255596D01*
X221655Y254944D01*
X222453Y254483D01*
X223343Y254245D01*
X224265D01*
X225155Y254483D01*
X225953Y254944D01*
X226605Y255596D01*
X227065Y256394D01*
X227304Y257284D01*
Y258206D01*
X227065Y259096D01*
X226605Y259894D01*
X225953Y260546D01*
X225155Y261006D01*
X224265Y261245D01*
D02*
G37*
G36*
X279965Y260445D02*
X279043D01*
X278153Y260206D01*
X277355Y259746D01*
X276703Y259094D01*
X276242Y258296D01*
X276004Y257406D01*
Y256484D01*
X276242Y255594D01*
X276703Y254796D01*
X277355Y254144D01*
X278153Y253683D01*
X279043Y253445D01*
X279965D01*
X280855Y253683D01*
X281653Y254144D01*
X282305Y254796D01*
X282765Y255594D01*
X283004Y256484D01*
Y257406D01*
X282765Y258296D01*
X282305Y259094D01*
X281653Y259746D01*
X280855Y260206D01*
X279965Y260445D01*
D02*
G37*
G36*
X173099Y258421D02*
X172177D01*
X171287Y258183D01*
X170489Y257722D01*
X169837Y257070D01*
X169376Y256272D01*
X169138Y255382D01*
Y254461D01*
X169376Y253570D01*
X169837Y252772D01*
X170489Y252121D01*
X171287Y251660D01*
X172177Y251421D01*
X173099D01*
X173989Y251660D01*
X174787Y252121D01*
X175438Y252772D01*
X175899Y253570D01*
X176138Y254461D01*
Y255382D01*
X175899Y256272D01*
X175438Y257070D01*
X174787Y257722D01*
X173989Y258183D01*
X173099Y258421D01*
D02*
G37*
G36*
X122114Y253106D02*
X121193D01*
X120303Y252868D01*
X119504Y252407D01*
X118853Y251755D01*
X118392Y250957D01*
X118154Y250067D01*
Y249146D01*
X118392Y248255D01*
X118853Y247457D01*
X119504Y246806D01*
X120303Y246345D01*
X121193Y246106D01*
X122114D01*
X123004Y246345D01*
X123803Y246806D01*
X124454Y247457D01*
X124915Y248255D01*
X125154Y249146D01*
Y250067D01*
X124915Y250957D01*
X124454Y251755D01*
X123803Y252407D01*
X123004Y252868D01*
X122114Y253106D01*
D02*
G37*
G36*
X224165Y252445D02*
X223243D01*
X222353Y252206D01*
X221555Y251746D01*
X220903Y251094D01*
X220443Y250296D01*
X220204Y249406D01*
Y248484D01*
X220443Y247594D01*
X220903Y246796D01*
X221555Y246144D01*
X222353Y245683D01*
X223243Y245445D01*
X224165D01*
X225055Y245683D01*
X225853Y246144D01*
X226505Y246796D01*
X226965Y247594D01*
X227204Y248484D01*
Y249406D01*
X226965Y250296D01*
X226505Y251094D01*
X225853Y251746D01*
X225055Y252206D01*
X224165Y252445D01*
D02*
G37*
G36*
X279965Y249445D02*
X279043D01*
X278153Y249206D01*
X277355Y248746D01*
X276703Y248094D01*
X276242Y247296D01*
X276004Y246406D01*
Y245484D01*
X276242Y244594D01*
X276703Y243796D01*
X277355Y243144D01*
X278153Y242683D01*
X279043Y242445D01*
X279965D01*
X280855Y242683D01*
X281653Y243144D01*
X282305Y243796D01*
X282765Y244594D01*
X283004Y245484D01*
Y246406D01*
X282765Y247296D01*
X282305Y248094D01*
X281653Y248746D01*
X280855Y249206D01*
X279965Y249445D01*
D02*
G37*
G36*
X158051Y249370D02*
X157130D01*
X156240Y249132D01*
X155441Y248671D01*
X154790Y248019D01*
X154329Y247221D01*
X154090Y246331D01*
Y245409D01*
X154329Y244519D01*
X154790Y243721D01*
X155441Y243069D01*
X156240Y242609D01*
X157130Y242370D01*
X158051D01*
X158941Y242609D01*
X159740Y243069D01*
X160391Y243721D01*
X160852Y244519D01*
X161091Y245409D01*
Y246331D01*
X160852Y247221D01*
X160391Y248019D01*
X159740Y248671D01*
X158941Y249132D01*
X158051Y249370D01*
D02*
G37*
G36*
X181957Y248776D02*
X181035D01*
X180145Y248537D01*
X179347Y248076D01*
X178695Y247425D01*
X178235Y246626D01*
X177996Y245736D01*
Y244815D01*
X178235Y243925D01*
X178695Y243127D01*
X179347Y242475D01*
X180145Y242014D01*
X181035Y241776D01*
X181957D01*
X182847Y242014D01*
X183645Y242475D01*
X184297Y243127D01*
X184757Y243925D01*
X184996Y244815D01*
Y245736D01*
X184757Y246626D01*
X184297Y247425D01*
X183645Y248076D01*
X182847Y248537D01*
X181957Y248776D01*
D02*
G37*
G36*
X224165Y243445D02*
X223243D01*
X222353Y243206D01*
X221555Y242746D01*
X220903Y242094D01*
X220443Y241296D01*
X220204Y240406D01*
Y239484D01*
X220443Y238594D01*
X220903Y237796D01*
X221555Y237144D01*
X222353Y236683D01*
X223243Y236445D01*
X224165D01*
X225055Y236683D01*
X225853Y237144D01*
X226505Y237796D01*
X226965Y238594D01*
X227204Y239484D01*
Y240406D01*
X226965Y241296D01*
X226505Y242094D01*
X225853Y242746D01*
X225055Y243206D01*
X224165Y243445D01*
D02*
G37*
G36*
X122114Y243106D02*
X121193D01*
X120303Y242868D01*
X119504Y242407D01*
X118853Y241755D01*
X118392Y240957D01*
X118154Y240067D01*
Y239145D01*
X118392Y238255D01*
X118853Y237457D01*
X119504Y236806D01*
X120303Y236345D01*
X121193Y236106D01*
X122114D01*
X123004Y236345D01*
X123803Y236806D01*
X124454Y237457D01*
X124915Y238255D01*
X125154Y239145D01*
Y240067D01*
X124915Y240957D01*
X124454Y241755D01*
X123803Y242407D01*
X123004Y242868D01*
X122114Y243106D01*
D02*
G37*
G36*
X154103Y230173D02*
X153181D01*
X152291Y229935D01*
X151493Y229474D01*
X150841Y228822D01*
X150380Y228024D01*
X150142Y227134D01*
Y226212D01*
X150380Y225322D01*
X150841Y224524D01*
X151493Y223872D01*
X152291Y223412D01*
X153181Y223173D01*
X154103D01*
X154993Y223412D01*
X155791Y223872D01*
X156442Y224524D01*
X156903Y225322D01*
X157142Y226212D01*
Y227134D01*
X156903Y228024D01*
X156442Y228822D01*
X155791Y229474D01*
X154993Y229935D01*
X154103Y230173D01*
D02*
G37*
G36*
X201642Y228079D02*
X200720D01*
X199830Y227840D01*
X199032Y227379D01*
X198380Y226728D01*
X197920Y225930D01*
X197681Y225040D01*
Y224118D01*
X197920Y223228D01*
X198380Y222430D01*
X199032Y221778D01*
X199830Y221317D01*
X200720Y221079D01*
X201642D01*
X202532Y221317D01*
X203330Y221778D01*
X203982Y222430D01*
X204443Y223228D01*
X204681Y224118D01*
Y225040D01*
X204443Y225930D01*
X203982Y226728D01*
X203330Y227379D01*
X202532Y227840D01*
X201642Y228079D01*
D02*
G37*
G36*
X270152Y220934D02*
Y217945D01*
X273142D01*
X272914Y218796D01*
X272453Y219594D01*
X271801Y220246D01*
X271003Y220706D01*
X270152Y220934D01*
D02*
G37*
G36*
X269152D02*
X268301Y220706D01*
X267503Y220246D01*
X266851Y219594D01*
X266391Y218796D01*
X266163Y217945D01*
X269152D01*
Y220934D01*
D02*
G37*
G36*
X273142Y216945D02*
X270152D01*
Y213955D01*
X271003Y214183D01*
X271801Y214644D01*
X272453Y215296D01*
X272914Y216094D01*
X273142Y216945D01*
D02*
G37*
G36*
X269152D02*
X266163D01*
X266391Y216094D01*
X266851Y215296D01*
X267503Y214644D01*
X268301Y214183D01*
X269152Y213955D01*
Y216945D01*
D02*
G37*
G36*
X174673Y220134D02*
X173752D01*
X172862Y219895D01*
X172064Y219435D01*
X171412Y218783D01*
X170951Y217985D01*
X170713Y217095D01*
Y216173D01*
X170951Y215283D01*
X171412Y214485D01*
X172064Y213833D01*
X172862Y213372D01*
X173752Y213134D01*
X174673D01*
X175564Y213372D01*
X176362Y213833D01*
X177013Y214485D01*
X177474Y215283D01*
X177713Y216173D01*
Y217095D01*
X177474Y217985D01*
X177013Y218783D01*
X176362Y219435D01*
X175564Y219895D01*
X174673Y220134D01*
D02*
G37*
G36*
X143571Y219839D02*
X142649D01*
X141759Y219600D01*
X140961Y219139D01*
X140310Y218488D01*
X139849Y217689D01*
X139610Y216799D01*
Y215878D01*
X139849Y214988D01*
X140310Y214190D01*
X140961Y213538D01*
X141759Y213077D01*
X142649Y212839D01*
X143571D01*
X144461Y213077D01*
X145259Y213538D01*
X145911Y214190D01*
X146372Y214988D01*
X146610Y215878D01*
Y216799D01*
X146372Y217689D01*
X145911Y218488D01*
X145259Y219139D01*
X144461Y219600D01*
X143571Y219839D01*
D02*
G37*
G36*
X270152Y209934D02*
Y206945D01*
X273142D01*
X272914Y207796D01*
X272453Y208594D01*
X271801Y209246D01*
X271003Y209706D01*
X270152Y209934D01*
D02*
G37*
G36*
X269152D02*
X268301Y209706D01*
X267503Y209246D01*
X266851Y208594D01*
X266391Y207796D01*
X266163Y206945D01*
X269152D01*
Y209934D01*
D02*
G37*
G36*
X192193Y212949D02*
X191271D01*
X190381Y212710D01*
X189583Y212249D01*
X188932Y211598D01*
X188471Y210800D01*
X188232Y209910D01*
Y208988D01*
X188471Y208098D01*
X188932Y207300D01*
X189583Y206648D01*
X190381Y206187D01*
X191271Y205949D01*
X192193D01*
X193083Y206187D01*
X193881Y206648D01*
X194533Y207300D01*
X194994Y208098D01*
X195232Y208988D01*
Y209910D01*
X194994Y210800D01*
X194533Y211598D01*
X193881Y212249D01*
X193083Y212710D01*
X192193Y212949D01*
D02*
G37*
G36*
X273142Y205945D02*
X270152D01*
Y202955D01*
X271003Y203183D01*
X271801Y203644D01*
X272453Y204296D01*
X272914Y205094D01*
X273142Y205945D01*
D02*
G37*
G36*
X269152D02*
X266163D01*
X266391Y205094D01*
X266851Y204296D01*
X267503Y203644D01*
X268301Y203183D01*
X269152Y202955D01*
Y205945D01*
D02*
G37*
G36*
X220539Y209012D02*
X219618D01*
X218728Y208773D01*
X217930Y208313D01*
X217278Y207661D01*
X216817Y206863D01*
X216579Y205973D01*
Y205051D01*
X216817Y204161D01*
X217278Y203363D01*
X217930Y202711D01*
X218728Y202250D01*
X219618Y202012D01*
X220539D01*
X221430Y202250D01*
X222228Y202711D01*
X222879Y203363D01*
X223340Y204161D01*
X223579Y205051D01*
Y205973D01*
X223340Y206863D01*
X222879Y207661D01*
X222228Y208313D01*
X221430Y208773D01*
X220539Y209012D01*
D02*
G37*
G36*
X147740Y203980D02*
X146819D01*
X145929Y203742D01*
X145131Y203281D01*
X144479Y202629D01*
X144018Y201831D01*
X143780Y200941D01*
Y200020D01*
X144018Y199129D01*
X144479Y198331D01*
X145131Y197680D01*
X145929Y197219D01*
X146819Y196980D01*
X147740D01*
X148630Y197219D01*
X149429Y197680D01*
X150080Y198331D01*
X150541Y199129D01*
X150779Y200020D01*
Y200941D01*
X150541Y201831D01*
X150080Y202629D01*
X149429Y203281D01*
X148630Y203742D01*
X147740Y203980D01*
D02*
G37*
G36*
X270652Y198434D02*
Y195445D01*
X273642D01*
X273414Y196296D01*
X272953Y197094D01*
X272301Y197746D01*
X271503Y198206D01*
X270652Y198434D01*
D02*
G37*
G36*
X269652D02*
X268801Y198206D01*
X268003Y197746D01*
X267352Y197094D01*
X266891Y196296D01*
X266663Y195445D01*
X269652D01*
Y198434D01*
D02*
G37*
G36*
X213059Y201532D02*
X212138D01*
X211247Y201293D01*
X210449Y200832D01*
X209798Y200181D01*
X209337Y199382D01*
X209098Y198492D01*
Y197571D01*
X209337Y196680D01*
X209798Y195882D01*
X210449Y195231D01*
X211247Y194770D01*
X212138Y194532D01*
X213059D01*
X213949Y194770D01*
X214748Y195231D01*
X215399Y195882D01*
X215860Y196680D01*
X216098Y197571D01*
Y198492D01*
X215860Y199382D01*
X215399Y200181D01*
X214748Y200832D01*
X213949Y201293D01*
X213059Y201532D01*
D02*
G37*
G36*
X375275Y214937D02*
X373544D01*
X371834Y214666D01*
X370187Y214131D01*
X368644Y213345D01*
X367243Y212327D01*
X366019Y211103D01*
X365001Y209702D01*
X364215Y208159D01*
X363680Y206513D01*
X363409Y204803D01*
Y203071D01*
X363680Y201361D01*
X364215Y199715D01*
X365001Y198172D01*
X366019Y196771D01*
X367243Y195547D01*
X368644Y194529D01*
X370187Y193743D01*
X371834Y193208D01*
X373544Y192937D01*
X375275D01*
X376985Y193208D01*
X378632Y193743D01*
X380175Y194529D01*
X381575Y195547D01*
X382800Y196771D01*
X383818Y198172D01*
X384604Y199715D01*
X385139Y201361D01*
X385409Y203071D01*
Y204803D01*
X385139Y206513D01*
X384604Y208159D01*
X383818Y209702D01*
X382800Y211103D01*
X381575Y212327D01*
X380175Y213345D01*
X378632Y214131D01*
X376985Y214666D01*
X375275Y214937D01*
D02*
G37*
G36*
X273642Y194445D02*
X270652D01*
Y191455D01*
X271503Y191683D01*
X272301Y192144D01*
X272953Y192796D01*
X273414Y193594D01*
X273642Y194445D01*
D02*
G37*
G36*
X269652D02*
X266663D01*
X266891Y193594D01*
X267352Y192796D01*
X268003Y192144D01*
X268801Y191683D01*
X269652Y191455D01*
Y194445D01*
D02*
G37*
G36*
X121366Y191285D02*
Y188295D01*
X124356D01*
X124128Y189146D01*
X123667Y189944D01*
X123015Y190596D01*
X122217Y191057D01*
X121366Y191285D01*
D02*
G37*
G36*
X120366Y191285D02*
X119515Y191057D01*
X118717Y190596D01*
X118065Y189944D01*
X117605Y189146D01*
X117377Y188295D01*
X120366D01*
Y191285D01*
D02*
G37*
G36*
Y187295D02*
X117377D01*
X117605Y186444D01*
X118065Y185646D01*
X118717Y184995D01*
X119515Y184534D01*
X120366Y184306D01*
Y187295D01*
D02*
G37*
G36*
X124356D02*
X121366D01*
Y184306D01*
X122217Y184534D01*
X123015Y184995D01*
X123667Y185646D01*
X124128Y186444D01*
X124356Y187295D01*
D02*
G37*
G36*
X339602Y181445D02*
X338681D01*
X337791Y181206D01*
X336993Y180746D01*
X336341Y180094D01*
X335880Y179296D01*
X335642Y178406D01*
Y177484D01*
X335880Y176594D01*
X336341Y175796D01*
X336993Y175144D01*
X337791Y174683D01*
X338681Y174445D01*
X339602D01*
X340493Y174683D01*
X341291Y175144D01*
X341942Y175796D01*
X342403Y176594D01*
X342642Y177484D01*
Y178406D01*
X342403Y179296D01*
X341942Y180094D01*
X341291Y180746D01*
X340493Y181206D01*
X339602Y181445D01*
D02*
G37*
G36*
X121327Y181295D02*
X120405D01*
X119515Y181057D01*
X118717Y180596D01*
X118065Y179944D01*
X117605Y179146D01*
X117366Y178256D01*
Y177334D01*
X117605Y176444D01*
X118065Y175646D01*
X118717Y174995D01*
X119515Y174534D01*
X120405Y174295D01*
X121327D01*
X122217Y174534D01*
X123015Y174995D01*
X123667Y175646D01*
X124128Y176444D01*
X124366Y177334D01*
Y178256D01*
X124128Y179146D01*
X123667Y179944D01*
X123015Y180596D01*
X122217Y181057D01*
X121327Y181295D01*
D02*
G37*
G36*
X172508Y180665D02*
X171587D01*
X170696Y180427D01*
X169898Y179966D01*
X169246Y179314D01*
X168786Y178516D01*
X168547Y177626D01*
Y176705D01*
X168786Y175814D01*
X169246Y175016D01*
X169898Y174365D01*
X170696Y173904D01*
X171587Y173665D01*
X172508D01*
X173398Y173904D01*
X174196Y174365D01*
X174848Y175016D01*
X175309Y175814D01*
X175547Y176705D01*
Y177626D01*
X175309Y178516D01*
X174848Y179314D01*
X174196Y179966D01*
X173398Y180427D01*
X172508Y180665D01*
D02*
G37*
G36*
X139831Y180272D02*
X138909D01*
X138019Y180033D01*
X137221Y179572D01*
X136569Y178921D01*
X136109Y178123D01*
X135870Y177232D01*
Y176311D01*
X136109Y175421D01*
X136569Y174623D01*
X137221Y173971D01*
X138019Y173510D01*
X138909Y173272D01*
X139831D01*
X140721Y173510D01*
X141519Y173971D01*
X142171Y174623D01*
X142632Y175421D01*
X142870Y176311D01*
Y177232D01*
X142632Y178123D01*
X142171Y178921D01*
X141519Y179572D01*
X140721Y180033D01*
X139831Y180272D01*
D02*
G37*
G36*
X156366Y180173D02*
X155445D01*
X154555Y179935D01*
X153756Y179474D01*
X153105Y178822D01*
X152644Y178024D01*
X152406Y177134D01*
Y176212D01*
X152644Y175322D01*
X153105Y174524D01*
X153756Y173872D01*
X154555Y173412D01*
X155445Y173173D01*
X156366D01*
X157256Y173412D01*
X158055Y173872D01*
X158706Y174524D01*
X159167Y175322D01*
X159406Y176212D01*
Y177134D01*
X159167Y178024D01*
X158706Y178822D01*
X158055Y179474D01*
X157256Y179935D01*
X156366Y180173D01*
D02*
G37*
G36*
X174083Y166492D02*
X173161D01*
X172271Y166254D01*
X171473Y165793D01*
X170821Y165141D01*
X170361Y164343D01*
X170122Y163453D01*
Y162531D01*
X170361Y161641D01*
X170821Y160843D01*
X171473Y160191D01*
X172271Y159731D01*
X173161Y159492D01*
X174083D01*
X174973Y159731D01*
X175771Y160191D01*
X176423Y160843D01*
X176883Y161641D01*
X177122Y162531D01*
Y163453D01*
X176883Y164343D01*
X176423Y165141D01*
X175771Y165793D01*
X174973Y166254D01*
X174083Y166492D01*
D02*
G37*
G36*
X121327Y166098D02*
X120405D01*
X119515Y165860D01*
X118717Y165399D01*
X118065Y164748D01*
X117605Y163949D01*
X117366Y163059D01*
Y162138D01*
X117605Y161248D01*
X118065Y160449D01*
X118717Y159798D01*
X119515Y159337D01*
X120405Y159098D01*
X121327D01*
X122217Y159337D01*
X123015Y159798D01*
X123667Y160449D01*
X124128Y161248D01*
X124366Y162138D01*
Y163059D01*
X124128Y163949D01*
X123667Y164748D01*
X123015Y165399D01*
X122217Y165860D01*
X121327Y166098D01*
D02*
G37*
G36*
X274870Y163736D02*
X273949D01*
X273059Y163498D01*
X272260Y163037D01*
X271609Y162385D01*
X271148Y161587D01*
X270910Y160697D01*
Y159775D01*
X271148Y158885D01*
X271609Y158087D01*
X272260Y157436D01*
X273059Y156975D01*
X273949Y156736D01*
X274870D01*
X275760Y156975D01*
X276558Y157436D01*
X277210Y158087D01*
X277671Y158885D01*
X277909Y159775D01*
Y160697D01*
X277671Y161587D01*
X277210Y162385D01*
X276558Y163037D01*
X275760Y163498D01*
X274870Y163736D01*
D02*
G37*
G36*
X121327Y156098D02*
X120405D01*
X119515Y155860D01*
X118717Y155399D01*
X118065Y154747D01*
X117605Y153949D01*
X117366Y153059D01*
Y152138D01*
X117605Y151248D01*
X118065Y150449D01*
X118717Y149798D01*
X119515Y149337D01*
X120405Y149098D01*
X121327D01*
X122217Y149337D01*
X123015Y149798D01*
X123667Y150449D01*
X124128Y151248D01*
X124366Y152138D01*
Y153059D01*
X124128Y153949D01*
X123667Y154747D01*
X123015Y155399D01*
X122217Y155860D01*
X121327Y156098D01*
D02*
G37*
G36*
X139831Y153106D02*
X138909D01*
X138019Y152868D01*
X137221Y152407D01*
X136569Y151755D01*
X136109Y150957D01*
X135870Y150067D01*
Y149145D01*
X136109Y148255D01*
X136569Y147457D01*
X137221Y146806D01*
X138019Y146345D01*
X138909Y146106D01*
X139831D01*
X140721Y146345D01*
X141519Y146806D01*
X142171Y147457D01*
X142632Y148255D01*
X142870Y149145D01*
Y150067D01*
X142632Y150957D01*
X142171Y151755D01*
X141519Y152407D01*
X140721Y152868D01*
X139831Y153106D01*
D02*
G37*
G36*
X224603Y152945D02*
X223681D01*
X222791Y152706D01*
X221993Y152246D01*
X221341Y151594D01*
X220880Y150796D01*
X220642Y149906D01*
Y148984D01*
X220880Y148094D01*
X221341Y147296D01*
X221993Y146644D01*
X222791Y146183D01*
X223681Y145945D01*
X224603D01*
X225493Y146183D01*
X226291Y146644D01*
X226942Y147296D01*
X227403Y148094D01*
X227642Y148984D01*
Y149906D01*
X227403Y150796D01*
X226942Y151594D01*
X226291Y152246D01*
X225493Y152706D01*
X224603Y152945D01*
D02*
G37*
G36*
X276603Y148445D02*
X275681D01*
X274791Y148206D01*
X273993Y147746D01*
X273341Y147094D01*
X272880Y146296D01*
X272642Y145406D01*
Y144484D01*
X272880Y143594D01*
X273341Y142796D01*
X273993Y142144D01*
X274791Y141683D01*
X275681Y141445D01*
X276603D01*
X277493Y141683D01*
X278291Y142144D01*
X278942Y142796D01*
X279403Y143594D01*
X279642Y144484D01*
Y145406D01*
X279403Y146296D01*
X278942Y147094D01*
X278291Y147746D01*
X277493Y148206D01*
X276603Y148445D01*
D02*
G37*
G36*
X188256Y143658D02*
X187335D01*
X186444Y143419D01*
X185646Y142958D01*
X184995Y142306D01*
X184534Y141508D01*
X184295Y140618D01*
Y139697D01*
X184534Y138806D01*
X184995Y138008D01*
X185646Y137357D01*
X186444Y136896D01*
X187335Y136658D01*
X188256D01*
X189146Y136896D01*
X189944Y137357D01*
X190596Y138008D01*
X191057Y138806D01*
X191295Y139697D01*
Y140618D01*
X191057Y141508D01*
X190596Y142306D01*
X189944Y142958D01*
X189146Y143419D01*
X188256Y143658D01*
D02*
G37*
G36*
X224603Y142445D02*
X223681D01*
X222791Y142206D01*
X221993Y141746D01*
X221341Y141094D01*
X220880Y140296D01*
X220642Y139406D01*
Y138484D01*
X220880Y137594D01*
X221341Y136796D01*
X221993Y136144D01*
X222791Y135683D01*
X223681Y135445D01*
X224603D01*
X225493Y135683D01*
X226291Y136144D01*
X226942Y136796D01*
X227403Y137594D01*
X227642Y138484D01*
Y139406D01*
X227403Y140296D01*
X226942Y141094D01*
X226291Y141746D01*
X225493Y142206D01*
X224603Y142445D01*
D02*
G37*
G36*
X158658Y141020D02*
X157736D01*
X156846Y140781D01*
X156048Y140320D01*
X155396Y139669D01*
X154935Y138871D01*
X154697Y137980D01*
Y137059D01*
X154935Y136169D01*
X155396Y135371D01*
X156048Y134719D01*
X156846Y134258D01*
X157736Y134020D01*
X158658D01*
X159548Y134258D01*
X160346Y134719D01*
X160998Y135371D01*
X161458Y136169D01*
X161697Y137059D01*
Y137980D01*
X161458Y138871D01*
X160998Y139669D01*
X160346Y140320D01*
X159548Y140781D01*
X158658Y141020D01*
D02*
G37*
G36*
X121721Y139327D02*
X120799D01*
X119909Y139088D01*
X119111Y138628D01*
X118459Y137976D01*
X117998Y137178D01*
X117760Y136288D01*
Y135366D01*
X117998Y134476D01*
X118459Y133678D01*
X119111Y133026D01*
X119909Y132565D01*
X120799Y132327D01*
X121721D01*
X122611Y132565D01*
X123409Y133026D01*
X124060Y133678D01*
X124521Y134476D01*
X124760Y135366D01*
Y136288D01*
X124521Y137178D01*
X124060Y137976D01*
X123409Y138628D01*
X122611Y139088D01*
X121721Y139327D01*
D02*
G37*
G36*
X276603Y137445D02*
X275681D01*
X274791Y137206D01*
X273993Y136746D01*
X273341Y136094D01*
X272880Y135296D01*
X272642Y134406D01*
Y133484D01*
X272880Y132594D01*
X273341Y131796D01*
X273993Y131144D01*
X274791Y130683D01*
X275681Y130445D01*
X276603D01*
X277493Y130683D01*
X278291Y131144D01*
X278942Y131796D01*
X279403Y132594D01*
X279642Y133484D01*
Y134406D01*
X279403Y135296D01*
X278942Y136094D01*
X278291Y136746D01*
X277493Y137206D01*
X276603Y137445D01*
D02*
G37*
G36*
X224603Y132445D02*
X223681D01*
X222791Y132206D01*
X221993Y131746D01*
X221341Y131094D01*
X220880Y130296D01*
X220642Y129406D01*
Y128484D01*
X220880Y127594D01*
X221341Y126796D01*
X221993Y126144D01*
X222791Y125683D01*
X223681Y125445D01*
X224603D01*
X225493Y125683D01*
X226291Y126144D01*
X226942Y126796D01*
X227403Y127594D01*
X227642Y128484D01*
Y129406D01*
X227403Y130296D01*
X226942Y131094D01*
X226291Y131746D01*
X225493Y132206D01*
X224603Y132445D01*
D02*
G37*
G36*
X121721Y129327D02*
X120799D01*
X119909Y129088D01*
X119111Y128628D01*
X118459Y127976D01*
X117998Y127178D01*
X117760Y126288D01*
Y125366D01*
X117998Y124476D01*
X118459Y123678D01*
X119111Y123026D01*
X119909Y122565D01*
X120799Y122327D01*
X121721D01*
X122611Y122565D01*
X123409Y123026D01*
X124060Y123678D01*
X124521Y124476D01*
X124760Y125366D01*
Y126288D01*
X124521Y127178D01*
X124060Y127976D01*
X123409Y128628D01*
X122611Y129088D01*
X121721Y129327D01*
D02*
G37*
G36*
X271760Y103883D02*
Y100894D01*
X274749D01*
X274521Y101745D01*
X274061Y102543D01*
X273409Y103194D01*
X272611Y103655D01*
X271760Y103883D01*
D02*
G37*
G36*
X270760D02*
X269909Y103655D01*
X269111Y103194D01*
X268459Y102543D01*
X267998Y101745D01*
X267770Y100894D01*
X270760D01*
Y103883D01*
D02*
G37*
G36*
X140225Y105075D02*
X139303D01*
X138413Y104836D01*
X137615Y104376D01*
X136963Y103724D01*
X136502Y102926D01*
X136264Y102036D01*
Y101114D01*
X136502Y100224D01*
X136963Y99426D01*
X137615Y98774D01*
X138413Y98313D01*
X139303Y98075D01*
X140225D01*
X141115Y98313D01*
X141913Y98774D01*
X142564Y99426D01*
X143025Y100224D01*
X143264Y101114D01*
Y102036D01*
X143025Y102926D01*
X142564Y103724D01*
X141913Y104376D01*
X141115Y104836D01*
X140225Y105075D01*
D02*
G37*
G36*
X274749Y99894D02*
X271760D01*
Y96904D01*
X272611Y97132D01*
X273409Y97593D01*
X274061Y98245D01*
X274521Y99043D01*
X274749Y99894D01*
D02*
G37*
G36*
X270760D02*
X267770D01*
X267998Y99043D01*
X268459Y98245D01*
X269111Y97593D01*
X269909Y97132D01*
X270760Y96904D01*
Y99894D01*
D02*
G37*
G36*
X271760Y92860D02*
Y89870D01*
X274749D01*
X274521Y90721D01*
X274061Y91519D01*
X273409Y92171D01*
X272611Y92632D01*
X271760Y92860D01*
D02*
G37*
G36*
X270760D02*
X269909Y92632D01*
X269111Y92171D01*
X268459Y91519D01*
X267998Y90721D01*
X267770Y89870D01*
X270760D01*
Y92860D01*
D02*
G37*
G36*
X274749Y88870D02*
X271760D01*
Y85881D01*
X272611Y86109D01*
X273409Y86569D01*
X274061Y87221D01*
X274521Y88019D01*
X274749Y88870D01*
D02*
G37*
G36*
X270760D02*
X267770D01*
X267998Y88019D01*
X268459Y87221D01*
X269111Y86569D01*
X269909Y86109D01*
X270760Y85881D01*
Y88870D01*
D02*
G37*
G36*
X140225Y92870D02*
X139303D01*
X138413Y92632D01*
X137615Y92171D01*
X136963Y91519D01*
X136502Y90721D01*
X136264Y89831D01*
Y88909D01*
X136502Y88019D01*
X136963Y87221D01*
X137615Y86569D01*
X138413Y86109D01*
X139303Y85870D01*
X140225D01*
X141115Y86109D01*
X141913Y86569D01*
X142564Y87221D01*
X143025Y88019D01*
X143264Y88909D01*
Y89831D01*
X143025Y90721D01*
X142564Y91519D01*
X141913Y92171D01*
X141115Y92632D01*
X140225Y92870D01*
D02*
G37*
G36*
X374307Y103307D02*
X372575D01*
X370865Y103036D01*
X369218Y102501D01*
X367676Y101715D01*
X366275Y100697D01*
X365051Y99473D01*
X364033Y98072D01*
X363247Y96530D01*
X362712Y94883D01*
X362441Y93173D01*
Y91441D01*
X362712Y89731D01*
X363247Y88085D01*
X364033Y86542D01*
X365051Y85141D01*
X366275Y83917D01*
X367676Y82899D01*
X369218Y82113D01*
X370865Y81578D01*
X372575Y81307D01*
X374307D01*
X376017Y81578D01*
X377663Y82113D01*
X379206Y82899D01*
X380607Y83917D01*
X381831Y85141D01*
X382849Y86542D01*
X383635Y88085D01*
X384170Y89731D01*
X384441Y91441D01*
Y93173D01*
X384170Y94883D01*
X383635Y96530D01*
X382849Y98072D01*
X381831Y99473D01*
X380607Y100697D01*
X379206Y101715D01*
X377663Y102501D01*
X376017Y103036D01*
X374307Y103307D01*
D02*
G37*
G36*
X271760Y81836D02*
Y78847D01*
X274749D01*
X274521Y79697D01*
X274061Y80496D01*
X273409Y81147D01*
X272611Y81608D01*
X271760Y81836D01*
D02*
G37*
G36*
X270760D02*
X269909Y81608D01*
X269111Y81147D01*
X268459Y80496D01*
X267998Y79697D01*
X267770Y78847D01*
X270760D01*
Y81836D01*
D02*
G37*
G36*
X123335Y80812D02*
Y77823D01*
X126324D01*
X126096Y78674D01*
X125635Y79472D01*
X124984Y80124D01*
X124186Y80584D01*
X123335Y80812D01*
D02*
G37*
G36*
X122335D02*
X121484Y80584D01*
X120686Y80124D01*
X120034Y79472D01*
X119573Y78674D01*
X119345Y77823D01*
X122335D01*
Y80812D01*
D02*
G37*
G36*
X250854Y82339D02*
X249933D01*
X249043Y82100D01*
X248245Y81639D01*
X247593Y80988D01*
X247132Y80190D01*
X246894Y79299D01*
Y78378D01*
X247132Y77488D01*
X247593Y76689D01*
X248245Y76038D01*
X249043Y75577D01*
X249933Y75339D01*
X250854D01*
X251745Y75577D01*
X252543Y76038D01*
X253194Y76689D01*
X253655Y77488D01*
X253894Y78378D01*
Y79299D01*
X253655Y80190D01*
X253194Y80988D01*
X252543Y81639D01*
X251745Y82100D01*
X250854Y82339D01*
D02*
G37*
G36*
X274749Y77846D02*
X271760D01*
Y74857D01*
X272611Y75085D01*
X273409Y75546D01*
X274061Y76197D01*
X274521Y76995D01*
X274749Y77846D01*
D02*
G37*
G36*
X270760D02*
X267770D01*
X267998Y76995D01*
X268459Y76197D01*
X269111Y75546D01*
X269909Y75085D01*
X270760Y74857D01*
Y77846D01*
D02*
G37*
G36*
X126324Y76823D02*
X123335D01*
Y73833D01*
X124186Y74061D01*
X124984Y74522D01*
X125635Y75174D01*
X126096Y75972D01*
X126324Y76823D01*
D02*
G37*
G36*
X122335D02*
X119345D01*
X119573Y75972D01*
X120034Y75174D01*
X120686Y74522D01*
X121484Y74061D01*
X122335Y73833D01*
Y76823D01*
D02*
G37*
G36*
X164240Y74760D02*
X163319D01*
X162429Y74521D01*
X161630Y74060D01*
X160979Y73409D01*
X160518Y72611D01*
X160280Y71721D01*
Y70799D01*
X160518Y69909D01*
X160979Y69111D01*
X161630Y68459D01*
X162429Y67998D01*
X163319Y67760D01*
X164240D01*
X165130Y67998D01*
X165929Y68459D01*
X166580Y69111D01*
X167041Y69909D01*
X167280Y70799D01*
Y71721D01*
X167041Y72611D01*
X166580Y73409D01*
X165929Y74060D01*
X165130Y74521D01*
X164240Y74760D01*
D02*
G37*
G36*
X140618Y72791D02*
X139697D01*
X138806Y72553D01*
X138008Y72092D01*
X137357Y71440D01*
X136896Y70642D01*
X136658Y69752D01*
Y68831D01*
X136896Y67940D01*
X137357Y67142D01*
X138008Y66491D01*
X138806Y66030D01*
X139697Y65791D01*
X140618D01*
X141508Y66030D01*
X142306Y66491D01*
X142958Y67142D01*
X143419Y67940D01*
X143658Y68831D01*
Y69752D01*
X143419Y70642D01*
X142958Y71440D01*
X142306Y72092D01*
X141508Y72553D01*
X140618Y72791D01*
D02*
G37*
G36*
X123295Y70823D02*
X122374D01*
X121484Y70584D01*
X120686Y70123D01*
X120034Y69472D01*
X119573Y68674D01*
X119335Y67784D01*
Y66862D01*
X119573Y65972D01*
X120034Y65174D01*
X120686Y64522D01*
X121484Y64061D01*
X122374Y63823D01*
X123295D01*
X124186Y64061D01*
X124984Y64522D01*
X125635Y65174D01*
X126096Y65972D01*
X126335Y66862D01*
Y67784D01*
X126096Y68674D01*
X125635Y69472D01*
X124984Y70123D01*
X124186Y70584D01*
X123295Y70823D01*
D02*
G37*
G36*
X339390Y68413D02*
X338468D01*
X337578Y68175D01*
X336780Y67714D01*
X336128Y67062D01*
X335668Y66264D01*
X335429Y65374D01*
Y64453D01*
X335668Y63562D01*
X336128Y62764D01*
X336780Y62113D01*
X337578Y61652D01*
X338468Y61413D01*
X339390D01*
X340280Y61652D01*
X341078Y62113D01*
X341730Y62764D01*
X342191Y63562D01*
X342429Y64453D01*
Y65374D01*
X342191Y66264D01*
X341730Y67062D01*
X341078Y67714D01*
X340280Y68175D01*
X339390Y68413D01*
D02*
G37*
G36*
X174870Y60024D02*
X173949D01*
X173058Y59785D01*
X172260Y59324D01*
X171609Y58673D01*
X171148Y57875D01*
X170909Y56984D01*
Y56063D01*
X171148Y55173D01*
X171609Y54375D01*
X172260Y53723D01*
X173058Y53262D01*
X173949Y53024D01*
X174870D01*
X175760Y53262D01*
X176558Y53723D01*
X177210Y54375D01*
X177671Y55173D01*
X177909Y56063D01*
Y56984D01*
X177671Y57875D01*
X177210Y58673D01*
X176558Y59324D01*
X175760Y59785D01*
X174870Y60024D01*
D02*
G37*
G36*
X123295Y55862D02*
X122374D01*
X121484Y55624D01*
X120686Y55163D01*
X120034Y54511D01*
X119573Y53713D01*
X119335Y52823D01*
Y51901D01*
X119573Y51011D01*
X120034Y50213D01*
X120686Y49562D01*
X121484Y49101D01*
X122374Y48862D01*
X123295D01*
X124186Y49101D01*
X124984Y49562D01*
X125635Y50213D01*
X126096Y51011D01*
X126335Y51901D01*
Y52823D01*
X126096Y53713D01*
X125635Y54511D01*
X124984Y55163D01*
X124186Y55624D01*
X123295Y55862D01*
D02*
G37*
G36*
X250461Y55468D02*
X249539D01*
X248649Y55230D01*
X247851Y54769D01*
X247199Y54118D01*
X246739Y53319D01*
X246500Y52429D01*
Y51508D01*
X246739Y50617D01*
X247199Y49819D01*
X247851Y49168D01*
X248649Y48707D01*
X249539Y48469D01*
X250461D01*
X251351Y48707D01*
X252149Y49168D01*
X252801Y49819D01*
X253261Y50617D01*
X253500Y51508D01*
Y52429D01*
X253261Y53319D01*
X252801Y54118D01*
X252149Y54769D01*
X251351Y55230D01*
X250461Y55468D01*
D02*
G37*
G36*
X273390Y51413D02*
X272468D01*
X271578Y51175D01*
X270780Y50714D01*
X270128Y50062D01*
X269668Y49264D01*
X269429Y48374D01*
Y47453D01*
X269668Y46562D01*
X270128Y45764D01*
X270780Y45113D01*
X271578Y44652D01*
X272468Y44413D01*
X273390D01*
X274280Y44652D01*
X275078Y45113D01*
X275730Y45764D01*
X276191Y46562D01*
X276429Y47453D01*
Y48374D01*
X276191Y49264D01*
X275730Y50062D01*
X275078Y50714D01*
X274280Y51175D01*
X273390Y51413D01*
D02*
G37*
G36*
X123295Y45862D02*
X122374D01*
X121484Y45624D01*
X120686Y45163D01*
X120034Y44511D01*
X119573Y43713D01*
X119335Y42823D01*
Y41901D01*
X119573Y41011D01*
X120034Y40213D01*
X120686Y39562D01*
X121484Y39101D01*
X122374Y38862D01*
X123295D01*
X124186Y39101D01*
X124984Y39562D01*
X125635Y40213D01*
X126096Y41011D01*
X126335Y41901D01*
Y42823D01*
X126096Y43713D01*
X125635Y44511D01*
X124984Y45163D01*
X124186Y45624D01*
X123295Y45862D01*
D02*
G37*
G36*
X140225Y39327D02*
X139303D01*
X138413Y39088D01*
X137615Y38627D01*
X136963Y37976D01*
X136502Y37178D01*
X136264Y36288D01*
Y35366D01*
X136502Y34476D01*
X136963Y33678D01*
X137615Y33026D01*
X138413Y32565D01*
X139303Y32327D01*
X140225D01*
X141115Y32565D01*
X141913Y33026D01*
X142564Y33678D01*
X143025Y34476D01*
X143264Y35366D01*
Y36288D01*
X143025Y37178D01*
X142564Y37976D01*
X141913Y38627D01*
X141115Y39088D01*
X140225Y39327D01*
D02*
G37*
G36*
X220890Y38913D02*
X219968D01*
X219078Y38675D01*
X218280Y38214D01*
X217628Y37562D01*
X217168Y36764D01*
X216929Y35874D01*
Y34953D01*
X217168Y34062D01*
X217628Y33264D01*
X218280Y32613D01*
X219078Y32152D01*
X219968Y31913D01*
X220890D01*
X221780Y32152D01*
X222578Y32613D01*
X223230Y33264D01*
X223691Y34062D01*
X223929Y34953D01*
Y35874D01*
X223691Y36764D01*
X223230Y37562D01*
X222578Y38214D01*
X221780Y38675D01*
X220890Y38913D01*
D02*
G37*
G36*
X273390Y36413D02*
X272468D01*
X271578Y36175D01*
X270780Y35714D01*
X270128Y35062D01*
X269668Y34264D01*
X269429Y33374D01*
Y32453D01*
X269668Y31562D01*
X270128Y30764D01*
X270780Y30113D01*
X271578Y29652D01*
X272468Y29413D01*
X273390D01*
X274280Y29652D01*
X275078Y30113D01*
X275730Y30764D01*
X276191Y31562D01*
X276429Y32453D01*
Y33374D01*
X276191Y34264D01*
X275730Y35062D01*
X275078Y35714D01*
X274280Y36175D01*
X273390Y36413D01*
D02*
G37*
G36*
X159910Y32634D02*
X158988D01*
X158098Y32395D01*
X157300Y31935D01*
X156648Y31283D01*
X156187Y30485D01*
X155949Y29595D01*
Y28673D01*
X156187Y27783D01*
X156648Y26985D01*
X157300Y26333D01*
X158098Y25872D01*
X158988Y25634D01*
X159910D01*
X160800Y25872D01*
X161598Y26333D01*
X162250Y26985D01*
X162710Y27783D01*
X162949Y28673D01*
Y29595D01*
X162710Y30485D01*
X162250Y31283D01*
X161598Y31935D01*
X160800Y32395D01*
X159910Y32634D01*
D02*
G37*
G36*
X122902Y28697D02*
X121980D01*
X121090Y28458D01*
X120292Y27998D01*
X119640Y27346D01*
X119179Y26548D01*
X118941Y25658D01*
Y24736D01*
X119179Y23846D01*
X119640Y23048D01*
X120292Y22396D01*
X121090Y21935D01*
X121980Y21697D01*
X122902D01*
X123792Y21935D01*
X124590Y22396D01*
X125242Y23048D01*
X125702Y23846D01*
X125941Y24736D01*
Y25658D01*
X125702Y26548D01*
X125242Y27346D01*
X124590Y27998D01*
X123792Y28458D01*
X122902Y28697D01*
D02*
G37*
G36*
X220792Y28185D02*
X219870D01*
X218980Y27946D01*
X218182Y27486D01*
X217530Y26834D01*
X217069Y26036D01*
X216831Y25146D01*
Y24224D01*
X217069Y23334D01*
X217530Y22536D01*
X218182Y21884D01*
X218980Y21424D01*
X219870Y21185D01*
X220792D01*
X221682Y21424D01*
X222480Y21884D01*
X223131Y22536D01*
X223592Y23334D01*
X223831Y24224D01*
Y25146D01*
X223592Y26036D01*
X223131Y26834D01*
X222480Y27486D01*
X221682Y27946D01*
X220792Y28185D01*
D02*
G37*
G36*
X140618Y26335D02*
X139697D01*
X138806Y26096D01*
X138008Y25635D01*
X137357Y24984D01*
X136896Y24186D01*
X136658Y23295D01*
Y22374D01*
X136896Y21484D01*
X137357Y20686D01*
X138008Y20034D01*
X138806Y19573D01*
X139697Y19335D01*
X140618D01*
X141508Y19573D01*
X142306Y20034D01*
X142958Y20686D01*
X143419Y21484D01*
X143658Y22374D01*
Y23295D01*
X143419Y24186D01*
X142958Y24984D01*
X142306Y25635D01*
X141508Y26096D01*
X140618Y26335D01*
D02*
G37*
G36*
X273390Y25413D02*
X272468D01*
X271578Y25175D01*
X270780Y24714D01*
X270128Y24062D01*
X269668Y23264D01*
X269429Y22374D01*
Y21453D01*
X269668Y20562D01*
X270128Y19764D01*
X270780Y19113D01*
X271578Y18652D01*
X272468Y18413D01*
X273390D01*
X274280Y18652D01*
X275078Y19113D01*
X275730Y19764D01*
X276191Y20562D01*
X276429Y21453D01*
Y22374D01*
X276191Y23264D01*
X275730Y24062D01*
X275078Y24714D01*
X274280Y25175D01*
X273390Y25413D01*
D02*
G37*
G36*
X122902Y18697D02*
X121980D01*
X121090Y18458D01*
X120292Y17998D01*
X119640Y17346D01*
X119179Y16548D01*
X118941Y15658D01*
Y14736D01*
X119179Y13846D01*
X119640Y13048D01*
X120292Y12396D01*
X121090Y11935D01*
X121980Y11697D01*
X122902D01*
X123792Y11935D01*
X124590Y12396D01*
X125242Y13048D01*
X125702Y13846D01*
X125941Y14736D01*
Y15658D01*
X125702Y16548D01*
X125242Y17346D01*
X124590Y17998D01*
X123792Y18458D01*
X122902Y18697D01*
D02*
G37*
G36*
X220693Y17752D02*
X219772D01*
X218881Y17513D01*
X218083Y17053D01*
X217432Y16401D01*
X216971Y15603D01*
X216732Y14713D01*
Y13791D01*
X216971Y12901D01*
X217432Y12103D01*
X218083Y11451D01*
X218881Y10990D01*
X219772Y10752D01*
X220693D01*
X221583Y10990D01*
X222381Y11451D01*
X223033Y12103D01*
X223494Y12901D01*
X223732Y13791D01*
Y14713D01*
X223494Y15603D01*
X223033Y16401D01*
X222381Y17053D01*
X221583Y17513D01*
X220693Y17752D01*
D02*
G37*
%LPD*%
D48*
X373441Y92307D02*
D03*
X375197Y317717D02*
D03*
X374410Y203937D02*
D03*
D50*
X43307Y20748D02*
D03*
X42520Y245768D02*
D03*
X43307Y130197D02*
D03*
D51*
Y10748D02*
D03*
X42520Y235768D02*
D03*
X43307Y120197D02*
D03*
D52*
X156299Y320472D02*
D03*
X175984D02*
D03*
D53*
X9945Y125969D02*
D03*
D54*
Y135968D02*
D03*
Y145968D02*
D03*
Y155968D02*
D03*
Y165969D02*
D03*
Y175969D02*
D03*
Y185968D02*
D03*
Y195968D02*
D03*
Y205968D02*
D03*
Y215968D02*
D03*
Y225969D02*
D03*
Y235968D02*
D03*
Y245969D02*
D03*
Y255968D02*
D03*
Y265968D02*
D03*
D55*
X122835Y42362D02*
D03*
Y52362D02*
D03*
Y67323D02*
D03*
Y77323D02*
D03*
X43307Y59842D02*
D03*
Y49843D02*
D03*
X122441Y15197D02*
D03*
Y25197D02*
D03*
X120866Y294331D02*
D03*
Y304331D02*
D03*
X121260Y267165D02*
D03*
Y277165D02*
D03*
X40551Y281102D02*
D03*
Y271102D02*
D03*
X121653Y239606D02*
D03*
Y249606D02*
D03*
X120866Y177795D02*
D03*
Y187795D02*
D03*
Y152598D02*
D03*
Y162598D02*
D03*
X44685Y165256D02*
D03*
Y155256D02*
D03*
X121260Y125827D02*
D03*
Y135827D02*
D03*
X95669Y232677D02*
D03*
X98425Y112205D02*
D03*
X159449Y29134D02*
D03*
X213779Y272441D02*
D03*
X220866Y311024D02*
D03*
X209449Y317717D02*
D03*
X250787Y301575D02*
D03*
X270472Y314567D02*
D03*
Y303543D02*
D03*
X250394Y78839D02*
D03*
X70866Y230315D02*
D03*
X70079Y113779D02*
D03*
X70472Y8268D02*
D03*
X139370Y281890D02*
D03*
X71653Y198819D02*
D03*
X155905Y176673D02*
D03*
X139370Y176772D02*
D03*
X172047Y177165D02*
D03*
X274410Y160236D02*
D03*
X250000Y51968D02*
D03*
X174409Y56524D02*
D03*
X139567Y258634D02*
D03*
X174606Y267913D02*
D03*
X220079Y205512D02*
D03*
X212598Y198031D02*
D03*
X201181Y224579D02*
D03*
X187795Y140157D02*
D03*
X139764Y101575D02*
D03*
Y89370D02*
D03*
X163779Y71260D02*
D03*
X173622Y162992D02*
D03*
X191732Y209449D02*
D03*
X181496Y245276D02*
D03*
X174213Y216634D02*
D03*
X147280Y200480D02*
D03*
X139764Y35827D02*
D03*
X140157Y22835D02*
D03*
Y69291D02*
D03*
X98032Y7087D02*
D03*
X105512Y46063D02*
D03*
X43307Y32677D02*
D03*
X54724Y146850D02*
D03*
X57480Y39370D02*
D03*
X139370Y149606D02*
D03*
X172638Y254921D02*
D03*
X143110Y216339D02*
D03*
X103937Y270866D02*
D03*
X48819Y185433D02*
D03*
X100787Y218898D02*
D03*
X64173Y300787D02*
D03*
X48425Y300394D02*
D03*
X103937Y155905D02*
D03*
X40157Y141732D02*
D03*
X26772Y158661D02*
D03*
X20472Y166929D02*
D03*
X39764Y185433D02*
D03*
X33071Y86811D02*
D03*
X62205Y260531D02*
D03*
X54626Y254724D02*
D03*
X224142Y128945D02*
D03*
X158197Y137520D02*
D03*
X224142Y138945D02*
D03*
X276142Y144945D02*
D03*
X224142Y149445D02*
D03*
X272929Y32913D02*
D03*
Y47913D02*
D03*
X223704Y248945D02*
D03*
X279504Y245945D02*
D03*
Y256945D02*
D03*
X276142Y133945D02*
D03*
X272929Y21913D02*
D03*
X338929Y64913D02*
D03*
X28051Y244291D02*
D03*
X35039Y222539D02*
D03*
X153642Y226673D02*
D03*
X220232Y14252D02*
D03*
X220331Y24685D02*
D03*
X220429Y35413D02*
D03*
X271260Y78347D02*
D03*
Y89370D02*
D03*
Y100394D02*
D03*
X223804Y257745D02*
D03*
X270152Y194945D02*
D03*
X269652Y206445D02*
D03*
Y217445D02*
D03*
X270472Y325984D02*
D03*
X339142Y177945D02*
D03*
X344004Y288945D02*
D03*
X108945Y321339D02*
D03*
X277367Y273573D02*
D03*
X223704Y239945D02*
D03*
X26945Y261339D02*
D03*
X157590Y245870D02*
D03*
M02*
