G04*
G04 #@! TF.GenerationSoftware,Altium Limited,Altium Designer,23.10.1 (27)*
G04*
G04 Layer_Physical_Order=4*
G04 Layer_Color=16711680*
%FSLAX25Y25*%
%MOIN*%
G70*
G04*
G04 #@! TF.SameCoordinates,92CF8CD3-C0A9-45A0-95EF-EEFF48AC6B84*
G04*
G04*
G04 #@! TF.FilePolarity,Positive*
G04*
G01*
G75*
%ADD47C,0.02000*%
%ADD48C,0.20000*%
%ADD49C,0.04000*%
%ADD50C,0.06500*%
%ADD51C,0.06000*%
%ADD52C,0.07000*%
%ADD53R,0.05906X0.05906*%
%ADD54C,0.05906*%
%ADD55C,0.05000*%
%ADD56R,0.09843X0.06693*%
G36*
X294504Y329945D02*
X321504D01*
X324504Y326945D01*
Y322291D01*
X320630D01*
Y317945D01*
Y313598D01*
X324504D01*
Y308945D01*
X320504Y304945D01*
X292504D01*
X282504Y294945D01*
X269504D01*
X265504Y298945D01*
Y329945D01*
X272504Y336945D01*
X287504D01*
X294504Y329945D01*
D02*
G37*
G36*
X389370Y323622D02*
Y263811D01*
X373504Y247945D01*
X333504D01*
X328504Y252945D01*
Y253598D01*
X332378D01*
Y257945D01*
Y262291D01*
X328504D01*
Y265945D01*
X333504Y270945D01*
X344504D01*
X353504Y279945D01*
Y300945D01*
X348504Y305945D01*
X333504D01*
X330504Y308945D01*
Y313598D01*
X334378D01*
Y317945D01*
Y322291D01*
X330504D01*
Y326945D01*
X336236Y332677D01*
X380315D01*
X389370Y323622D01*
D02*
G37*
G36*
X322504Y265945D02*
Y262291D01*
X318630D01*
Y257945D01*
Y253598D01*
X322504D01*
Y250945D01*
X319504Y247945D01*
X293504D01*
X285504Y239945D01*
X265504D01*
X262504Y242945D01*
Y258945D01*
X270504Y266945D01*
X321504D01*
X322504Y265945D01*
D02*
G37*
G36*
X293142Y217945D02*
X316142D01*
X321142Y212945D01*
Y209291D01*
X317268D01*
Y204945D01*
Y200598D01*
X321142D01*
Y197945D01*
X317142Y193945D01*
X291142D01*
X283142Y185945D01*
X265142D01*
X261142Y189945D01*
Y220945D01*
X269142Y228945D01*
X282142D01*
X293142Y217945D01*
D02*
G37*
G36*
X388583Y209449D02*
Y144386D01*
X374142Y129945D01*
X328142D01*
X324142Y133945D01*
Y138598D01*
X329016D01*
Y142945D01*
Y147291D01*
X324142D01*
Y150945D01*
X326142Y152945D01*
X348142D01*
X352142Y156945D01*
Y186945D01*
X345142Y193945D01*
X330142D01*
X327142Y196945D01*
Y200598D01*
X331016D01*
Y204945D01*
Y209291D01*
X327142D01*
Y211945D01*
X331077Y218504D01*
X379528D01*
X388583Y209449D01*
D02*
G37*
G36*
X295142Y151945D02*
X317142D01*
X319142Y150945D01*
Y147291D01*
X315268D01*
Y142945D01*
Y138598D01*
X319142D01*
Y132945D01*
X316142Y129945D01*
X293142D01*
X286142Y122945D01*
X274892Y122945D01*
X269142Y127545D01*
Y149945D01*
X273142Y153945D01*
X293142Y153945D01*
X295142Y151945D01*
D02*
G37*
G36*
X289929Y104913D02*
X318929D01*
X320929Y102913D01*
Y94960D01*
X316655D01*
Y90613D01*
Y86267D01*
X320929D01*
Y84913D01*
X315929Y79913D01*
X287929D01*
X277929Y69913D01*
X264929D01*
X261929Y72913D01*
Y107913D01*
X266929Y112913D01*
X281929D01*
X289929Y104913D01*
D02*
G37*
G36*
X375807Y110413D02*
X387795Y98425D01*
Y42380D01*
X373229Y27813D01*
X328529D01*
X325129Y31213D01*
Y32767D01*
X329203D01*
Y37113D01*
Y41460D01*
X325129D01*
Y46113D01*
X327729Y48713D01*
X346329D01*
X350129Y52513D01*
Y76113D01*
X346729Y79513D01*
X332929D01*
X326676Y85767D01*
X326741Y86267D01*
X330403D01*
Y90613D01*
Y94960D01*
X326629D01*
Y107013D01*
X329429Y110413D01*
X375807Y110413D01*
D02*
G37*
G36*
X319929Y46913D02*
Y41460D01*
X315455D01*
Y37113D01*
Y32767D01*
X319929D01*
Y30913D01*
X314929Y25913D01*
X297929D01*
X284929Y12913D01*
X256929D01*
X254929Y14913D01*
Y36913D01*
X257709Y39693D01*
X266748D01*
X267528Y39848D01*
X267626Y39913D01*
X281929D01*
X290929Y48913D01*
X317929D01*
X319929Y46913D01*
D02*
G37*
%LPC*%
G36*
X270972Y329474D02*
Y326484D01*
X273962D01*
X273734Y327335D01*
X273273Y328133D01*
X272621Y328785D01*
X271823Y329246D01*
X270972Y329474D01*
D02*
G37*
G36*
X269972D02*
X269122Y329246D01*
X268323Y328785D01*
X267672Y328133D01*
X267211Y327335D01*
X266983Y326484D01*
X269972D01*
Y329474D01*
D02*
G37*
G36*
X273962Y325484D02*
X270972D01*
Y322495D01*
X271823Y322723D01*
X272621Y323184D01*
X273273Y323835D01*
X273734Y324633D01*
X273962Y325484D01*
D02*
G37*
G36*
X269972D02*
X266983D01*
X267211Y324633D01*
X267672Y323835D01*
X268323Y323184D01*
X269122Y322723D01*
X269972Y322495D01*
Y325484D01*
D02*
G37*
G36*
X318630Y322291D02*
X313709D01*
Y318945D01*
X318630D01*
Y322291D01*
D02*
G37*
G36*
X270972Y318056D02*
Y315067D01*
X273962D01*
X273734Y315918D01*
X273273Y316716D01*
X272621Y317368D01*
X271823Y317828D01*
X270972Y318056D01*
D02*
G37*
G36*
X269972D02*
X269122Y317828D01*
X268323Y317368D01*
X267672Y316716D01*
X267211Y315918D01*
X266983Y315067D01*
X269972D01*
Y318056D01*
D02*
G37*
G36*
X318630Y316945D02*
X313709D01*
Y313598D01*
X318630D01*
Y316945D01*
D02*
G37*
G36*
X273962Y314067D02*
X270972D01*
Y311077D01*
X271823Y311305D01*
X272621Y311766D01*
X273273Y312418D01*
X273734Y313216D01*
X273962Y314067D01*
D02*
G37*
G36*
X269972D02*
X266983D01*
X267211Y313216D01*
X267672Y312418D01*
X268323Y311766D01*
X269122Y311305D01*
X269972Y311077D01*
Y314067D01*
D02*
G37*
G36*
X270972Y307033D02*
Y304043D01*
X273962D01*
X273734Y304894D01*
X273273Y305692D01*
X272621Y306344D01*
X271823Y306805D01*
X270972Y307033D01*
D02*
G37*
G36*
X269972D02*
X269122Y306805D01*
X268323Y306344D01*
X267672Y305692D01*
X267211Y304894D01*
X266983Y304043D01*
X269972D01*
Y307033D01*
D02*
G37*
G36*
X273962Y303043D02*
X270972D01*
Y300054D01*
X271823Y300282D01*
X272621Y300743D01*
X273273Y301394D01*
X273734Y302192D01*
X273962Y303043D01*
D02*
G37*
G36*
X269972D02*
X266983D01*
X267211Y302192D01*
X267672Y301394D01*
X268323Y300743D01*
X269122Y300282D01*
X269972Y300054D01*
Y303043D01*
D02*
G37*
G36*
X341299Y322291D02*
X336378D01*
Y318945D01*
X341299D01*
Y322291D01*
D02*
G37*
G36*
X376063Y328716D02*
X375697D01*
Y318216D01*
X386197D01*
Y318582D01*
X385926Y320292D01*
X385391Y321939D01*
X384605Y323482D01*
X383587Y324883D01*
X382363Y326107D01*
X380962Y327125D01*
X379419Y327911D01*
X377773Y328446D01*
X376063Y328716D01*
D02*
G37*
G36*
X374697D02*
X374331D01*
X372621Y328446D01*
X370974Y327911D01*
X369432Y327125D01*
X368031Y326107D01*
X366807Y324883D01*
X365789Y323482D01*
X365003Y321939D01*
X364468Y320292D01*
X364197Y318582D01*
Y318216D01*
X374697D01*
Y328716D01*
D02*
G37*
G36*
X341299Y316945D02*
X336378D01*
Y313598D01*
X341299D01*
Y316945D01*
D02*
G37*
G36*
X386197Y317216D02*
X375697D01*
Y306716D01*
X376063D01*
X377773Y306987D01*
X379419Y307522D01*
X380962Y308309D01*
X382363Y309326D01*
X383587Y310550D01*
X384605Y311951D01*
X385391Y313494D01*
X385926Y315141D01*
X386197Y316851D01*
Y317216D01*
D02*
G37*
G36*
X374697D02*
X364197D01*
Y316851D01*
X364468Y315141D01*
X365003Y313494D01*
X365789Y311951D01*
X366807Y310550D01*
X368031Y309326D01*
X369432Y308309D01*
X370974Y307522D01*
X372621Y306987D01*
X374331Y306716D01*
X374697D01*
Y317216D01*
D02*
G37*
G36*
X339299Y262291D02*
X334378D01*
Y258945D01*
X339299D01*
Y262291D01*
D02*
G37*
G36*
Y256945D02*
X334378D01*
Y253598D01*
X339299D01*
Y256945D01*
D02*
G37*
G36*
X316630Y262291D02*
X311709D01*
Y258945D01*
X316630D01*
Y262291D01*
D02*
G37*
G36*
X280004Y260434D02*
Y257445D01*
X282993D01*
X282765Y258296D01*
X282305Y259094D01*
X281653Y259746D01*
X280855Y260206D01*
X280004Y260434D01*
D02*
G37*
G36*
X279004D02*
X278153Y260206D01*
X277355Y259746D01*
X276703Y259094D01*
X276242Y258296D01*
X276014Y257445D01*
X279004D01*
Y260434D01*
D02*
G37*
G36*
X316630Y256945D02*
X311709D01*
Y253598D01*
X316630D01*
Y256945D01*
D02*
G37*
G36*
X282993Y256445D02*
X280004D01*
Y253455D01*
X280855Y253683D01*
X281653Y254144D01*
X282305Y254796D01*
X282765Y255594D01*
X282993Y256445D01*
D02*
G37*
G36*
X279004D02*
X276014D01*
X276242Y255594D01*
X276703Y254796D01*
X277355Y254144D01*
X278153Y253683D01*
X279004Y253455D01*
Y256445D01*
D02*
G37*
G36*
X280004Y249434D02*
Y246445D01*
X282993D01*
X282765Y247296D01*
X282305Y248094D01*
X281653Y248746D01*
X280855Y249206D01*
X280004Y249434D01*
D02*
G37*
G36*
X279004D02*
X278153Y249206D01*
X277355Y248746D01*
X276703Y248094D01*
X276242Y247296D01*
X276014Y246445D01*
X279004D01*
Y249434D01*
D02*
G37*
G36*
X282993Y245445D02*
X280004D01*
Y242455D01*
X280855Y242683D01*
X281653Y243144D01*
X282305Y243796D01*
X282765Y244594D01*
X282993Y245445D01*
D02*
G37*
G36*
X279004D02*
X276014D01*
X276242Y244594D01*
X276703Y243796D01*
X277355Y243144D01*
X278153Y242683D01*
X279004Y242455D01*
Y245445D01*
D02*
G37*
G36*
X270152Y220934D02*
Y217945D01*
X273142D01*
X272914Y218796D01*
X272453Y219594D01*
X271801Y220246D01*
X271003Y220706D01*
X270152Y220934D01*
D02*
G37*
G36*
X269152D02*
X268301Y220706D01*
X267503Y220246D01*
X266851Y219594D01*
X266391Y218796D01*
X266163Y217945D01*
X269152D01*
Y220934D01*
D02*
G37*
G36*
X273142Y216945D02*
X270152D01*
Y213955D01*
X271003Y214183D01*
X271801Y214644D01*
X272453Y215296D01*
X272914Y216094D01*
X273142Y216945D01*
D02*
G37*
G36*
X269152D02*
X266163D01*
X266391Y216094D01*
X266851Y215296D01*
X267503Y214644D01*
X268301Y214183D01*
X269152Y213955D01*
Y216945D01*
D02*
G37*
G36*
X270152Y209934D02*
Y206945D01*
X273142D01*
X272914Y207796D01*
X272453Y208594D01*
X271801Y209246D01*
X271003Y209706D01*
X270152Y209934D01*
D02*
G37*
G36*
X269152D02*
X268301Y209706D01*
X267503Y209246D01*
X266851Y208594D01*
X266391Y207796D01*
X266163Y206945D01*
X269152D01*
Y209934D01*
D02*
G37*
G36*
X315268Y209291D02*
X310347D01*
Y205945D01*
X315268D01*
Y209291D01*
D02*
G37*
G36*
X273142Y205945D02*
X270152D01*
Y202955D01*
X271003Y203183D01*
X271801Y203644D01*
X272453Y204296D01*
X272914Y205094D01*
X273142Y205945D01*
D02*
G37*
G36*
X269152D02*
X266163D01*
X266391Y205094D01*
X266851Y204296D01*
X267503Y203644D01*
X268301Y203183D01*
X269152Y202955D01*
Y205945D01*
D02*
G37*
G36*
X315268Y203945D02*
X310347D01*
Y200598D01*
X315268D01*
Y203945D01*
D02*
G37*
G36*
X270652Y198434D02*
Y195445D01*
X273642D01*
X273414Y196296D01*
X272953Y197094D01*
X272301Y197746D01*
X271503Y198206D01*
X270652Y198434D01*
D02*
G37*
G36*
X269652D02*
X268801Y198206D01*
X268003Y197746D01*
X267352Y197094D01*
X266891Y196296D01*
X266663Y195445D01*
X269652D01*
Y198434D01*
D02*
G37*
G36*
X273642Y194445D02*
X270652D01*
Y191455D01*
X271503Y191683D01*
X272301Y192144D01*
X272953Y192796D01*
X273414Y193594D01*
X273642Y194445D01*
D02*
G37*
G36*
X269652D02*
X266663D01*
X266891Y193594D01*
X267352Y192796D01*
X268003Y192144D01*
X268801Y191683D01*
X269652Y191455D01*
Y194445D01*
D02*
G37*
G36*
X337937Y209291D02*
X333016D01*
Y205945D01*
X337937D01*
Y209291D01*
D02*
G37*
G36*
X375275Y214937D02*
X374909D01*
Y204437D01*
X385409D01*
Y204803D01*
X385139Y206513D01*
X384604Y208159D01*
X383818Y209702D01*
X382800Y211103D01*
X381575Y212327D01*
X380175Y213345D01*
X378632Y214131D01*
X376985Y214666D01*
X375275Y214937D01*
D02*
G37*
G36*
X373909D02*
X373544D01*
X371834Y214666D01*
X370187Y214131D01*
X368644Y213345D01*
X367243Y212327D01*
X366019Y211103D01*
X365001Y209702D01*
X364215Y208159D01*
X363680Y206513D01*
X363409Y204803D01*
Y204437D01*
X373909D01*
Y214937D01*
D02*
G37*
G36*
X337937Y203945D02*
X333016D01*
Y200598D01*
X337937D01*
Y203945D01*
D02*
G37*
G36*
X385409Y203437D02*
X374909D01*
Y192937D01*
X375275D01*
X376985Y193208D01*
X378632Y193743D01*
X380175Y194529D01*
X381575Y195547D01*
X382800Y196771D01*
X383818Y198172D01*
X384604Y199715D01*
X385139Y201361D01*
X385409Y203071D01*
Y203437D01*
D02*
G37*
G36*
X373909D02*
X363409D01*
Y203071D01*
X363680Y201361D01*
X364215Y199715D01*
X365001Y198172D01*
X366019Y196771D01*
X367243Y195547D01*
X368644Y194529D01*
X370187Y193743D01*
X371834Y193208D01*
X373544Y192937D01*
X373909D01*
Y203437D01*
D02*
G37*
G36*
X335937Y147291D02*
X331016D01*
Y143945D01*
X335937D01*
Y147291D01*
D02*
G37*
G36*
Y141945D02*
X331016D01*
Y138598D01*
X335937D01*
Y141945D01*
D02*
G37*
G36*
X276642Y148434D02*
Y145445D01*
X279631D01*
X279403Y146296D01*
X278942Y147094D01*
X278291Y147746D01*
X277493Y148206D01*
X276642Y148434D01*
D02*
G37*
G36*
X275642D02*
X274791Y148206D01*
X273993Y147746D01*
X273341Y147094D01*
X272880Y146296D01*
X272652Y145445D01*
X275642D01*
Y148434D01*
D02*
G37*
G36*
X313268Y147291D02*
X308347D01*
Y143945D01*
X313268D01*
Y147291D01*
D02*
G37*
G36*
X279631Y144445D02*
X276642D01*
Y141455D01*
X277493Y141683D01*
X278291Y142144D01*
X278942Y142796D01*
X279403Y143594D01*
X279631Y144445D01*
D02*
G37*
G36*
X275642D02*
X272652D01*
X272880Y143594D01*
X273341Y142796D01*
X273993Y142144D01*
X274791Y141683D01*
X275642Y141455D01*
Y144445D01*
D02*
G37*
G36*
X313268Y141945D02*
X308347D01*
Y138598D01*
X313268D01*
Y141945D01*
D02*
G37*
G36*
X276642Y137434D02*
Y134445D01*
X279631D01*
X279403Y135296D01*
X278942Y136094D01*
X278291Y136746D01*
X277493Y137206D01*
X276642Y137434D01*
D02*
G37*
G36*
X275642D02*
X274791Y137206D01*
X273993Y136746D01*
X273341Y136094D01*
X272880Y135296D01*
X272652Y134445D01*
X275642D01*
Y137434D01*
D02*
G37*
G36*
X279631Y133445D02*
X276642D01*
Y130455D01*
X277493Y130683D01*
X278291Y131144D01*
X278942Y131796D01*
X279403Y132594D01*
X279631Y133445D01*
D02*
G37*
G36*
X275642D02*
X272652D01*
X272880Y132594D01*
X273341Y131796D01*
X273993Y131144D01*
X274791Y130683D01*
X275642Y130455D01*
Y133445D01*
D02*
G37*
G36*
X271760Y103883D02*
Y100894D01*
X274749D01*
X274521Y101745D01*
X274061Y102543D01*
X273409Y103194D01*
X272611Y103655D01*
X271760Y103883D01*
D02*
G37*
G36*
X270760D02*
X269909Y103655D01*
X269111Y103194D01*
X268459Y102543D01*
X267998Y101745D01*
X267770Y100894D01*
X270760D01*
Y103883D01*
D02*
G37*
G36*
X274749Y99894D02*
X271760D01*
Y96904D01*
X272611Y97132D01*
X273409Y97593D01*
X274061Y98245D01*
X274521Y99043D01*
X274749Y99894D01*
D02*
G37*
G36*
X270760D02*
X267770D01*
X267998Y99043D01*
X268459Y98245D01*
X269111Y97593D01*
X269909Y97132D01*
X270760Y96904D01*
Y99894D01*
D02*
G37*
G36*
X314655Y94960D02*
X309734D01*
Y91613D01*
X314655D01*
Y94960D01*
D02*
G37*
G36*
X271760Y92860D02*
Y89870D01*
X274749D01*
X274521Y90721D01*
X274061Y91519D01*
X273409Y92171D01*
X272611Y92632D01*
X271760Y92860D01*
D02*
G37*
G36*
X270760D02*
X269909Y92632D01*
X269111Y92171D01*
X268459Y91519D01*
X267998Y90721D01*
X267770Y89870D01*
X270760D01*
Y92860D01*
D02*
G37*
G36*
X314655Y89613D02*
X309734D01*
Y86267D01*
X314655D01*
Y89613D01*
D02*
G37*
G36*
X274749Y88870D02*
X271760D01*
Y85881D01*
X272611Y86109D01*
X273409Y86569D01*
X274061Y87221D01*
X274521Y88019D01*
X274749Y88870D01*
D02*
G37*
G36*
X270760D02*
X267770D01*
X267998Y88019D01*
X268459Y87221D01*
X269111Y86569D01*
X269909Y86109D01*
X270760Y85881D01*
Y88870D01*
D02*
G37*
G36*
X271760Y81836D02*
Y78847D01*
X274749D01*
X274521Y79697D01*
X274061Y80496D01*
X273409Y81147D01*
X272611Y81608D01*
X271760Y81836D01*
D02*
G37*
G36*
X270760D02*
X269909Y81608D01*
X269111Y81147D01*
X268459Y80496D01*
X267998Y79697D01*
X267770Y78847D01*
X270760D01*
Y81836D01*
D02*
G37*
G36*
X274749Y77846D02*
X271760D01*
Y74857D01*
X272611Y75085D01*
X273409Y75546D01*
X274061Y76197D01*
X274521Y76995D01*
X274749Y77846D01*
D02*
G37*
G36*
X270760D02*
X267770D01*
X267998Y76995D01*
X268459Y76197D01*
X269111Y75546D01*
X269909Y75085D01*
X270760Y74857D01*
Y77846D01*
D02*
G37*
G36*
X374307Y103307D02*
X373941D01*
Y92807D01*
X384441D01*
Y93173D01*
X384170Y94883D01*
X383635Y96530D01*
X382849Y98072D01*
X381831Y99473D01*
X380607Y100697D01*
X379206Y101715D01*
X377663Y102501D01*
X376017Y103036D01*
X374307Y103307D01*
D02*
G37*
G36*
X372941D02*
X372575D01*
X370865Y103036D01*
X369218Y102501D01*
X367676Y101715D01*
X366275Y100697D01*
X365051Y99473D01*
X364033Y98072D01*
X363247Y96530D01*
X362712Y94883D01*
X362441Y93173D01*
Y92807D01*
X372941D01*
Y103307D01*
D02*
G37*
G36*
X337324Y94960D02*
X332403D01*
Y91613D01*
X337324D01*
Y94960D01*
D02*
G37*
G36*
Y89613D02*
X332403D01*
Y86267D01*
X337324D01*
Y89613D01*
D02*
G37*
G36*
X384441Y91807D02*
X373941D01*
Y81307D01*
X374307D01*
X376017Y81578D01*
X377663Y82113D01*
X379206Y82899D01*
X380607Y83917D01*
X381831Y85141D01*
X382849Y86542D01*
X383635Y88085D01*
X384170Y89731D01*
X384441Y91441D01*
Y91807D01*
D02*
G37*
G36*
X372941D02*
X362441D01*
Y91441D01*
X362712Y89731D01*
X363247Y88085D01*
X364033Y86542D01*
X365051Y85141D01*
X366275Y83917D01*
X367676Y82899D01*
X369218Y82113D01*
X370865Y81578D01*
X372575Y81307D01*
X372941D01*
Y91807D01*
D02*
G37*
G36*
X336124Y41460D02*
X331203D01*
Y38113D01*
X336124D01*
Y41460D01*
D02*
G37*
G36*
Y36113D02*
X331203D01*
Y32767D01*
X336124D01*
Y36113D01*
D02*
G37*
G36*
X313455Y41460D02*
X308534D01*
Y38113D01*
X313455D01*
Y41460D01*
D02*
G37*
G36*
X273429Y36403D02*
Y33413D01*
X276419D01*
X276191Y34264D01*
X275730Y35062D01*
X275078Y35714D01*
X274280Y36175D01*
X273429Y36403D01*
D02*
G37*
G36*
X272429D02*
X271578Y36175D01*
X270780Y35714D01*
X270128Y35062D01*
X269668Y34264D01*
X269440Y33413D01*
X272429D01*
Y36403D01*
D02*
G37*
G36*
X313455Y36113D02*
X308534D01*
Y32767D01*
X313455D01*
Y36113D01*
D02*
G37*
G36*
X276419Y32413D02*
X273429D01*
Y29424D01*
X274280Y29652D01*
X275078Y30113D01*
X275730Y30764D01*
X276191Y31562D01*
X276419Y32413D01*
D02*
G37*
G36*
X272429D02*
X269440D01*
X269668Y31562D01*
X270128Y30764D01*
X270780Y30113D01*
X271578Y29652D01*
X272429Y29424D01*
Y32413D01*
D02*
G37*
G36*
X273429Y25403D02*
Y22413D01*
X276419D01*
X276191Y23264D01*
X275730Y24062D01*
X275078Y24714D01*
X274280Y25175D01*
X273429Y25403D01*
D02*
G37*
G36*
X272429D02*
X271578Y25175D01*
X270780Y24714D01*
X270128Y24062D01*
X269668Y23264D01*
X269440Y22413D01*
X272429D01*
Y25403D01*
D02*
G37*
G36*
X276419Y21413D02*
X273429D01*
Y18424D01*
X274280Y18652D01*
X275078Y19113D01*
X275730Y19764D01*
X276191Y20562D01*
X276419Y21413D01*
D02*
G37*
G36*
X272429D02*
X269440D01*
X269668Y20562D01*
X270128Y19764D01*
X270780Y19113D01*
X271578Y18652D01*
X272429Y18424D01*
Y21413D01*
D02*
G37*
%LPD*%
D47*
X135827Y222441D02*
X149409D01*
X100787Y218898D02*
X132283D01*
X135827Y222441D01*
X96063Y232283D02*
X133858D01*
X95669Y232677D02*
X96063Y232283D01*
X98425Y112205D02*
X98524Y112303D01*
X180020D01*
X157874Y7087D02*
X192520Y41732D01*
X98032Y7087D02*
X157874D01*
X192520Y41732D02*
X266748D01*
X272929Y47913D01*
X125354Y44882D02*
X142126D01*
X145276Y48031D02*
X246063D01*
X142126Y44882D02*
X145276Y48031D01*
X122835Y42362D02*
X125354Y44882D01*
X180020Y112303D02*
X201575Y133858D01*
Y143701D01*
X218110Y160236D01*
X175591Y279921D02*
X271019D01*
X146063Y250394D02*
X175591Y279921D01*
X271019D02*
X277367Y273573D01*
X133858Y232283D02*
X146063Y244488D01*
X54724Y146850D02*
X114173D01*
X116831Y144193D02*
X133957D01*
X114173Y146850D02*
X116831Y144193D01*
X103937Y155905D02*
X117323Y169291D01*
X206693D02*
X215347Y177945D01*
X117323Y169291D02*
X206693D01*
X187598Y237205D02*
X213779Y263386D01*
Y272441D01*
X182760Y302839D02*
X197638Y317717D01*
X209449D01*
X103937Y270866D02*
X103937D01*
X144882Y290551D02*
X146488Y288945D01*
X344004D01*
X141256Y302839D02*
X182760D01*
X135433Y290551D02*
X144882D01*
X132283Y287402D02*
X135433Y290551D01*
X122756Y321339D02*
X141256Y302839D01*
X163206Y71834D02*
Y78133D01*
X139764Y101575D02*
X163206Y78133D01*
Y71834D02*
X163779Y71260D01*
X110630Y287402D02*
X132283D01*
X103937Y280709D02*
X110630Y287402D01*
X103937Y270866D02*
Y280709D01*
X133858Y281890D02*
X139370D01*
X130900Y256299D02*
X133235Y258634D01*
X98629Y256299D02*
X130900D01*
X94326Y260602D02*
X98629Y256299D01*
X103150Y260236D02*
X124803D01*
X97638Y265748D02*
X103150Y260236D01*
X124803D02*
X131102Y266535D01*
X149409Y222441D02*
X153642Y226673D01*
X39764Y185433D02*
X80709Y226378D01*
X140945D02*
X147638Y233071D01*
X80709Y226378D02*
X140945D01*
X71653Y198819D02*
X127165D01*
X139370Y186614D01*
Y176772D02*
Y186614D01*
X216535Y168898D02*
X355581D01*
X187795Y140157D02*
X216535Y168898D01*
X215347Y177945D02*
X339142D01*
X172047Y177165D02*
Y189764D01*
X218110Y160236D02*
X274410D01*
X345276Y244488D02*
Y249213D01*
X335039Y234252D02*
X345276Y244488D01*
X262598Y234252D02*
X335039D01*
X252925Y224579D02*
X262598Y234252D01*
X259055Y63386D02*
X324402D01*
X334929Y73913D01*
X250394Y72047D02*
X259055Y63386D01*
X245669Y67716D02*
X257480Y55905D01*
X172835Y67716D02*
X245669D01*
X257480Y55905D02*
X331102D01*
X337631Y62434D01*
X246063Y48031D02*
X250000Y51968D01*
X337631Y62434D02*
Y62803D01*
X338929Y64102D02*
Y64913D01*
X337631Y62803D02*
X338929Y64102D01*
X334929Y73913D02*
X350929D01*
X164764Y237205D02*
X187598D01*
X146063Y244488D02*
Y250394D01*
X147638Y233071D02*
X160630D01*
X133235Y258634D02*
X139567D01*
X201575Y216929D02*
X212598Y205906D01*
Y198031D02*
Y205906D01*
X185039Y216929D02*
X201575D01*
X201350Y224579D02*
X252925D01*
X177559Y209449D02*
X185039Y216929D01*
X72835Y209449D02*
X177559D01*
X48819Y185433D02*
X72835Y209449D01*
X169685Y224410D02*
X201012D01*
X201181Y224579D01*
X168110Y140157D02*
X187795D01*
X108945Y321339D02*
X122756D01*
X250394Y72047D02*
Y78839D01*
X164173Y59055D02*
X172835Y67716D01*
X118504Y59055D02*
X164173D01*
X105512Y46063D02*
X118504Y59055D01*
X172047Y189764D02*
X191732Y209449D01*
X161614Y216339D02*
X169685Y224410D01*
X131102Y279134D02*
X133858Y281890D01*
X131102Y266535D02*
Y279134D01*
X181496Y245276D02*
Y245669D01*
X172638Y254528D02*
Y254921D01*
Y254528D02*
X181496Y245669D01*
X143110Y216339D02*
X161614D01*
X101181Y35827D02*
X139764D01*
X97638Y39370D02*
X101181Y35827D01*
X57480Y39370D02*
X97638D01*
X33268Y86614D02*
X127953D01*
X140157Y69291D02*
Y74410D01*
X127953Y86614D02*
X140157Y74410D01*
X26945Y49039D02*
Y114248D01*
Y49039D02*
X43307Y32677D01*
X148130Y160138D02*
X168110Y140157D01*
X132972Y160138D02*
X148130D01*
X125433Y152598D02*
X132972Y160138D01*
X120866Y152598D02*
X125433D01*
X133957Y144193D02*
X139370Y149606D01*
X160630Y233071D02*
X164764Y237205D01*
X44390Y265748D02*
X97638D01*
X31102Y252461D02*
X44390Y265748D01*
X62276Y260602D02*
X94326D01*
X36760Y306839D02*
X58122D01*
X64173Y300787D01*
X40551Y300394D02*
X48425D01*
X26945Y286787D02*
X40551Y300394D01*
X26945Y261339D02*
Y286787D01*
X33071Y141732D02*
X40157D01*
X33071Y141732D02*
Y166142D01*
Y120374D02*
Y141732D01*
X33071Y141732D01*
X26945Y114248D02*
X33071Y120374D01*
X20510Y178703D02*
X33071Y166142D01*
X26772Y136614D02*
Y158661D01*
X9945Y125969D02*
X16126D01*
X26772Y136614D01*
X20472Y146496D02*
Y166929D01*
X9945Y135968D02*
X20472Y146496D01*
X20510Y178703D02*
Y205968D01*
X341004Y252445D02*
X375197Y317717D01*
X2756Y203157D02*
X9945Y195968D01*
X2756Y272835D02*
X36760Y306839D01*
X2756Y203157D02*
Y272835D01*
X9945Y205968D02*
X20510D01*
X9945Y235968D02*
X23374Y222539D01*
X9945Y255968D02*
X21721Y244193D01*
X9945Y265968D02*
X23453Y252461D01*
X62205Y260531D02*
X62276Y260602D01*
X54945Y229839D02*
Y254405D01*
X54626Y254724D02*
X54945Y254405D01*
X337004Y252445D02*
X341004D01*
X355983Y73913D02*
X366983Y62913D01*
X21721Y244193D02*
X27953D01*
X28051Y244291D01*
X31075Y205968D02*
X54945Y229839D01*
X33071Y86811D02*
X33268Y86614D01*
X23453Y252461D02*
X31102D01*
X23374Y222539D02*
X35039D01*
X20510Y205968D02*
X31075D01*
D48*
X373441Y92307D02*
D03*
X375197Y317717D02*
D03*
X374410Y203937D02*
D03*
D49*
X122835Y42362D02*
D03*
Y52362D02*
D03*
Y67323D02*
D03*
Y77323D02*
D03*
X43307Y59842D02*
D03*
Y49843D02*
D03*
X122441Y15197D02*
D03*
Y25197D02*
D03*
X120866Y294331D02*
D03*
Y304331D02*
D03*
X121260Y267165D02*
D03*
Y277165D02*
D03*
X40551Y281102D02*
D03*
Y271102D02*
D03*
X121653Y239606D02*
D03*
Y249606D02*
D03*
X120866Y177795D02*
D03*
Y187795D02*
D03*
Y152598D02*
D03*
Y162598D02*
D03*
X44685Y165256D02*
D03*
Y155256D02*
D03*
X121260Y125827D02*
D03*
Y135827D02*
D03*
D50*
X43307Y20748D02*
D03*
X42520Y245768D02*
D03*
X43307Y130197D02*
D03*
D51*
Y10748D02*
D03*
X42520Y235768D02*
D03*
X43307Y120197D02*
D03*
D52*
X156299Y320472D02*
D03*
X175984D02*
D03*
D53*
X9945Y125969D02*
D03*
D54*
Y135968D02*
D03*
Y145968D02*
D03*
Y155968D02*
D03*
Y165969D02*
D03*
Y175969D02*
D03*
Y185968D02*
D03*
Y195968D02*
D03*
Y205968D02*
D03*
Y215968D02*
D03*
Y225969D02*
D03*
Y235968D02*
D03*
Y245969D02*
D03*
Y255968D02*
D03*
Y265968D02*
D03*
D55*
X95669Y232677D02*
D03*
X98425Y112205D02*
D03*
X159449Y29134D02*
D03*
X213779Y272441D02*
D03*
X220866Y311024D02*
D03*
X209449Y317717D02*
D03*
X250787Y301575D02*
D03*
X270472Y314567D02*
D03*
Y303543D02*
D03*
X250394Y78839D02*
D03*
X70866Y230315D02*
D03*
X70079Y113779D02*
D03*
X70472Y8268D02*
D03*
X139370Y281890D02*
D03*
X71653Y198819D02*
D03*
X155905Y176673D02*
D03*
X139370Y176772D02*
D03*
X172047Y177165D02*
D03*
X274410Y160236D02*
D03*
X250000Y51968D02*
D03*
X174409Y56524D02*
D03*
X139567Y258634D02*
D03*
X174606Y267913D02*
D03*
X220079Y205512D02*
D03*
X212598Y198031D02*
D03*
X201181Y224579D02*
D03*
X187795Y140157D02*
D03*
X139764Y101575D02*
D03*
Y89370D02*
D03*
X163779Y71260D02*
D03*
X173622Y162992D02*
D03*
X191732Y209449D02*
D03*
X181496Y245276D02*
D03*
X174213Y216634D02*
D03*
X147280Y200480D02*
D03*
X139764Y35827D02*
D03*
X140157Y22835D02*
D03*
Y69291D02*
D03*
X98032Y7087D02*
D03*
X105512Y46063D02*
D03*
X43307Y32677D02*
D03*
X54724Y146850D02*
D03*
X57480Y39370D02*
D03*
X139370Y149606D02*
D03*
X172638Y254921D02*
D03*
X143110Y216339D02*
D03*
X103937Y270866D02*
D03*
X48819Y185433D02*
D03*
X100787Y218898D02*
D03*
X64173Y300787D02*
D03*
X48425Y300394D02*
D03*
X103937Y155905D02*
D03*
X40157Y141732D02*
D03*
X26772Y158661D02*
D03*
X20472Y166929D02*
D03*
X39764Y185433D02*
D03*
X33071Y86811D02*
D03*
X62205Y260531D02*
D03*
X54626Y254724D02*
D03*
X224142Y128945D02*
D03*
X158197Y137520D02*
D03*
X224142Y138945D02*
D03*
X276142Y144945D02*
D03*
X224142Y149445D02*
D03*
X272929Y32913D02*
D03*
Y47913D02*
D03*
X223704Y248945D02*
D03*
X279504Y245945D02*
D03*
Y256945D02*
D03*
X276142Y133945D02*
D03*
X272929Y21913D02*
D03*
X338929Y64913D02*
D03*
X28051Y244291D02*
D03*
X35039Y222539D02*
D03*
X153642Y226673D02*
D03*
X220232Y14252D02*
D03*
X220331Y24685D02*
D03*
X220429Y35413D02*
D03*
X271260Y78347D02*
D03*
Y89370D02*
D03*
Y100394D02*
D03*
X223804Y257745D02*
D03*
X270152Y194945D02*
D03*
X269652Y206445D02*
D03*
Y217445D02*
D03*
X270472Y325984D02*
D03*
X339142Y177945D02*
D03*
X344004Y288945D02*
D03*
X108945Y321339D02*
D03*
X277367Y273573D02*
D03*
X223704Y239945D02*
D03*
X26945Y261339D02*
D03*
X157590Y245870D02*
D03*
D56*
X330016Y142945D02*
D03*
X314268D02*
D03*
X330203Y37113D02*
D03*
X314455D02*
D03*
X331403Y90613D02*
D03*
X315655D02*
D03*
X333378Y257945D02*
D03*
X317630D02*
D03*
X332016Y204945D02*
D03*
X316268D02*
D03*
X335378Y317945D02*
D03*
X319630D02*
D03*
M02*
