G04*
G04 #@! TF.GenerationSoftware,Altium Limited,Altium Designer,23.10.1 (27)*
G04*
G04 Layer_Color=32896*
%FSLAX25Y25*%
%MOIN*%
G70*
G04*
G04 #@! TF.SameCoordinates,D58E8A5F-C196-4DC0-9E6E-83BCDBF650AB*
G04*
G04*
G04 #@! TF.FilePolarity,Positive*
G04*
G01*
G75*
%ADD11C,0.00787*%
D11*
X372000Y153000D02*
Y160000D01*
X340000D02*
X372000D01*
Y144000D02*
Y151000D01*
X340000Y144000D02*
X372000D01*
X353063Y140000D02*
X353850D01*
X356606D02*
X357000D01*
X353850Y138425D02*
Y141969D01*
X356606Y140000D01*
X353850Y138425D02*
X356606Y140000D01*
Y138031D02*
Y141969D01*
X340000Y156626D02*
Y160000D01*
Y144000D02*
Y147374D01*
X371400Y45200D02*
Y52200D01*
X339400D02*
X371400D01*
Y36200D02*
Y43200D01*
X339400Y36200D02*
X371400D01*
X352463Y32200D02*
X353250D01*
X356006D02*
X356400D01*
X353250Y30625D02*
Y34168D01*
X356006Y32200D01*
X353250Y30625D02*
X356006Y32200D01*
Y30231D02*
Y34168D01*
X339400Y48826D02*
Y52200D01*
Y36200D02*
Y39574D01*
X372600Y102326D02*
Y105700D01*
Y89700D02*
Y93074D01*
X355994Y107731D02*
Y111669D01*
Y109700D02*
X358750Y111275D01*
X355994Y109700D02*
X358750Y107731D01*
Y111275D01*
X355600Y109700D02*
X355994D01*
X358750D02*
X359537D01*
X340600Y105700D02*
X372600D01*
X340600Y98700D02*
Y105700D01*
Y89700D02*
X372600D01*
X340600D02*
Y96700D01*
X373000Y268000D02*
Y275000D01*
X341000D02*
X373000D01*
Y259000D02*
Y266000D01*
X341000Y259000D02*
X373000D01*
X354063Y255000D02*
X354850D01*
X357606D02*
X358000D01*
X354850Y253425D02*
Y256968D01*
X357606Y255000D01*
X354850Y253425D02*
X357606Y255000D01*
Y253031D02*
Y256968D01*
X341000Y271626D02*
Y275000D01*
Y259000D02*
Y262374D01*
X374000Y218626D02*
Y222000D01*
Y206000D02*
Y209374D01*
X357394Y224031D02*
Y227969D01*
Y226000D02*
X360150Y227575D01*
X357394Y226000D02*
X360150Y224031D01*
Y227575D01*
X357000Y226000D02*
X357394D01*
X360150D02*
X360937D01*
X342000Y222000D02*
X374000D01*
X342000Y215000D02*
Y222000D01*
Y206000D02*
X374000D01*
X342000D02*
Y213000D01*
X375000Y331626D02*
Y335000D01*
Y319000D02*
Y322374D01*
X358394Y337032D02*
Y340968D01*
Y339000D02*
X361150Y340575D01*
X358394Y339000D02*
X361150Y337032D01*
Y340575D01*
X358000Y339000D02*
X358394D01*
X361150D02*
X361937D01*
X343000Y335000D02*
X375000D01*
X343000Y328000D02*
Y335000D01*
Y319000D02*
X375000D01*
X343000D02*
Y326000D01*
M02*
