G04*
G04 #@! TF.GenerationSoftware,Altium Limited,Altium Designer,23.10.1 (27)*
G04*
G04 Layer_Color=8388736*
%FSLAX25Y25*%
%MOIN*%
G70*
G04*
G04 #@! TF.SameCoordinates,D58E8A5F-C196-4DC0-9E6E-83BCDBF650AB*
G04*
G04*
G04 #@! TF.FilePolarity,Negative*
G04*
G01*
G75*
%ADD26R,0.02762X0.04337*%
%ADD27R,0.06312X0.05131*%
%ADD28R,0.06312X0.05918*%
%ADD29R,0.05131X0.06312*%
%ADD30R,0.05918X0.06312*%
%ADD31R,0.06115X0.05328*%
%ADD32R,0.07099X0.13005*%
%ADD33R,0.05328X0.06115*%
%ADD34R,0.37808X0.43320*%
%ADD35R,0.18910X0.03950*%
%ADD36R,0.04540X0.04343*%
%ADD37R,0.06706X0.03359*%
%ADD38C,0.04800*%
%ADD39C,0.07800*%
%ADD40C,0.07300*%
%ADD41C,0.06800*%
%ADD42R,0.06706X0.06706*%
%ADD43C,0.06706*%
%ADD44C,0.20800*%
%ADD45C,0.05800*%
G36*
X180933Y62919D02*
Y60719D01*
X175133D01*
Y62919D01*
X180933D01*
D02*
G37*
G36*
X190333D02*
Y60719D01*
X184533D01*
Y62919D01*
X190333D01*
D02*
G37*
G36*
Y66659D02*
Y64459D01*
X184533D01*
Y66659D01*
X190333D01*
D02*
G37*
G36*
X180933Y70399D02*
Y68199D01*
X175133D01*
Y70399D01*
X180933D01*
D02*
G37*
G36*
X190333D02*
Y68199D01*
X184533D01*
Y70399D01*
X190333D01*
D02*
G37*
G36*
X181050Y169045D02*
Y166845D01*
X175250D01*
Y169045D01*
X181050D01*
D02*
G37*
G36*
X190450D02*
Y166845D01*
X184650D01*
Y169045D01*
X190450D01*
D02*
G37*
G36*
X189348Y284136D02*
X183548D01*
Y286336D01*
X189348D01*
Y284136D01*
D02*
G37*
G36*
X179948D02*
X174148D01*
Y286336D01*
X179948D01*
Y284136D01*
D02*
G37*
G36*
X189348Y280396D02*
X183548D01*
Y282596D01*
X189348D01*
Y280396D01*
D02*
G37*
G36*
Y276656D02*
X183548D01*
Y278856D01*
X189348D01*
Y276656D01*
D02*
G37*
G36*
X179948D02*
X174148D01*
Y278856D01*
X179948D01*
Y276656D01*
D02*
G37*
G36*
X190450Y174325D02*
X184650D01*
Y176525D01*
X190450D01*
Y174325D01*
D02*
G37*
G36*
X181050D02*
X175250D01*
Y176525D01*
X181050D01*
Y174325D01*
D02*
G37*
G36*
X190450Y170585D02*
X184650D01*
Y172785D01*
X190450D01*
Y170585D01*
D02*
G37*
D26*
X287378Y278000D02*
D03*
X291118D02*
D03*
X294858D02*
D03*
Y288827D02*
D03*
X287378D02*
D03*
X290496Y180854D02*
D03*
X297976D02*
D03*
Y170028D02*
D03*
X294236D02*
D03*
X290496D02*
D03*
D27*
X72000Y286937D02*
D03*
X132500Y249413D02*
D03*
X73500Y171287D02*
D03*
X128000Y135063D02*
D03*
X72000Y64937D02*
D03*
X129500Y26063D02*
D03*
D28*
X72000Y279063D02*
D03*
X132500Y257287D02*
D03*
X73500Y163413D02*
D03*
X128000Y142937D02*
D03*
X72000Y57063D02*
D03*
X129500Y33937D02*
D03*
D29*
X286331Y302000D02*
D03*
X267181D02*
D03*
X289409Y192028D02*
D03*
X269504Y191902D02*
D03*
X177563Y247000D02*
D03*
X192063Y193000D02*
D03*
X178563Y136000D02*
D03*
X179563Y32000D02*
D03*
X177811Y265496D02*
D03*
X178913Y154185D02*
D03*
X179563Y48500D02*
D03*
D30*
X294205Y302000D02*
D03*
X275055D02*
D03*
X297284Y192028D02*
D03*
X277378Y191902D02*
D03*
X185437Y247000D02*
D03*
X199937Y193000D02*
D03*
X186437Y136000D02*
D03*
X187437Y32000D02*
D03*
X185685Y265496D02*
D03*
X186787Y154185D02*
D03*
X187437Y48500D02*
D03*
D31*
X69488Y246358D02*
D03*
Y254232D02*
D03*
X74000Y131193D02*
D03*
Y139067D02*
D03*
X72000Y24118D02*
D03*
Y31992D02*
D03*
X163976Y277854D02*
D03*
Y285728D02*
D03*
X161516Y168110D02*
D03*
Y175984D02*
D03*
X165500Y69992D02*
D03*
Y62118D02*
D03*
D32*
X297495Y261500D02*
D03*
X271905D02*
D03*
X269260Y148126D02*
D03*
X294850D02*
D03*
X291795Y35000D02*
D03*
X266205D02*
D03*
D33*
X267181Y284000D02*
D03*
X275055D02*
D03*
X278433Y172028D02*
D03*
X270559D02*
D03*
X220555Y227787D02*
D03*
X212681D02*
D03*
X232681D02*
D03*
X240555D02*
D03*
X219555Y192787D02*
D03*
X211681D02*
D03*
X232681D02*
D03*
X240555D02*
D03*
X219555Y156095D02*
D03*
X211681D02*
D03*
X230626Y156287D02*
D03*
X238500D02*
D03*
X220555Y217787D02*
D03*
X212681D02*
D03*
X211614Y180020D02*
D03*
X219488D02*
D03*
X219555Y145787D02*
D03*
X211681D02*
D03*
D34*
X337055Y322252D02*
D03*
X364055Y267252D02*
D03*
X336768Y210252D02*
D03*
X363055Y154252D02*
D03*
X335768Y95252D02*
D03*
X360500Y40000D02*
D03*
D35*
X373079Y337252D02*
D03*
Y332252D02*
D03*
Y327252D02*
D03*
Y317252D02*
D03*
Y312252D02*
D03*
Y307252D02*
D03*
X328031Y282252D02*
D03*
Y277252D02*
D03*
Y272252D02*
D03*
Y262252D02*
D03*
Y257252D02*
D03*
Y252252D02*
D03*
X372791Y225252D02*
D03*
Y220252D02*
D03*
Y215252D02*
D03*
Y205252D02*
D03*
Y200252D02*
D03*
Y195252D02*
D03*
X327031Y169252D02*
D03*
Y164252D02*
D03*
Y159252D02*
D03*
Y149252D02*
D03*
Y144252D02*
D03*
Y139252D02*
D03*
X371791Y110252D02*
D03*
Y105252D02*
D03*
Y100252D02*
D03*
Y90252D02*
D03*
Y85252D02*
D03*
Y80252D02*
D03*
X324476Y55000D02*
D03*
Y50000D02*
D03*
Y45000D02*
D03*
Y35000D02*
D03*
Y30000D02*
D03*
Y25000D02*
D03*
D36*
X118000Y313122D02*
D03*
Y300721D02*
D03*
X114000Y182429D02*
D03*
Y194831D02*
D03*
X116000Y84831D02*
D03*
Y72429D02*
D03*
X252000Y301402D02*
D03*
Y289000D02*
D03*
X258268Y179035D02*
D03*
Y191437D02*
D03*
D37*
X89370Y286130D02*
D03*
Y281130D02*
D03*
Y276130D02*
D03*
Y271130D02*
D03*
Y266130D02*
D03*
Y261130D02*
D03*
Y256130D02*
D03*
Y251130D02*
D03*
X110630D02*
D03*
Y256130D02*
D03*
Y261130D02*
D03*
Y266130D02*
D03*
Y271130D02*
D03*
Y276130D02*
D03*
Y281130D02*
D03*
Y286130D02*
D03*
Y170130D02*
D03*
Y165130D02*
D03*
Y160130D02*
D03*
Y155130D02*
D03*
Y150130D02*
D03*
Y145130D02*
D03*
Y140130D02*
D03*
Y135130D02*
D03*
X89370D02*
D03*
Y140130D02*
D03*
Y145130D02*
D03*
Y150130D02*
D03*
Y155130D02*
D03*
Y160130D02*
D03*
Y165130D02*
D03*
Y170130D02*
D03*
Y60130D02*
D03*
Y55130D02*
D03*
Y50130D02*
D03*
Y45130D02*
D03*
Y40130D02*
D03*
Y35130D02*
D03*
Y30130D02*
D03*
Y25130D02*
D03*
X110630D02*
D03*
Y30130D02*
D03*
Y35130D02*
D03*
Y40130D02*
D03*
Y45130D02*
D03*
Y50130D02*
D03*
Y55130D02*
D03*
Y60130D02*
D03*
D38*
X146161Y77205D02*
D03*
Y87205D02*
D03*
X146063Y50236D02*
D03*
Y60236D02*
D03*
X148000Y302630D02*
D03*
Y312630D02*
D03*
Y275500D02*
D03*
Y285500D02*
D03*
X52000Y290000D02*
D03*
Y280000D02*
D03*
X148031Y247284D02*
D03*
Y257283D02*
D03*
X144000Y186630D02*
D03*
Y196630D02*
D03*
Y160630D02*
D03*
Y170630D02*
D03*
X53740Y173917D02*
D03*
Y163917D02*
D03*
X144000Y134630D02*
D03*
Y144630D02*
D03*
X53771Y68500D02*
D03*
Y58500D02*
D03*
X146000Y24630D02*
D03*
Y34630D02*
D03*
D39*
X205807Y328543D02*
D03*
X225492D02*
D03*
D40*
X51575Y254429D02*
D03*
X53937Y138504D02*
D03*
X54000Y31130D02*
D03*
D41*
X51575Y244429D02*
D03*
X53937Y128504D02*
D03*
X54000Y21130D02*
D03*
D42*
X19000Y134630D02*
D03*
D43*
Y144630D02*
D03*
Y154630D02*
D03*
Y164630D02*
D03*
Y174630D02*
D03*
Y184630D02*
D03*
Y194630D02*
D03*
Y204630D02*
D03*
Y214630D02*
D03*
Y224630D02*
D03*
Y234630D02*
D03*
Y244630D02*
D03*
Y254630D02*
D03*
Y264630D02*
D03*
Y274630D02*
D03*
D44*
X402500Y70000D02*
D03*
X405500Y179000D02*
D03*
X405512Y300197D02*
D03*
D45*
X163976Y269264D02*
D03*
X158760Y141732D02*
D03*
X223425Y168701D02*
D03*
X211811Y168405D02*
D03*
X213189Y208760D02*
D03*
X199016Y278543D02*
D03*
X197047Y265551D02*
D03*
X212894D02*
D03*
X71260Y269193D02*
D03*
X63681Y263386D02*
D03*
X250492Y228051D02*
D03*
X263287Y201673D02*
D03*
X276870D02*
D03*
X161319Y159646D02*
D03*
X83169Y240059D02*
D03*
X283169Y61319D02*
D03*
X179134Y126673D02*
D03*
X258000Y138000D02*
D03*
X202618Y145787D02*
D03*
X183000Y145000D02*
D03*
X258000Y148000D02*
D03*
X310000Y154000D02*
D03*
X199114Y162598D02*
D03*
X258000Y158500D02*
D03*
X183500Y40500D02*
D03*
X306000Y40000D02*
D03*
Y55000D02*
D03*
X255200Y258000D02*
D03*
X311000Y255000D02*
D03*
Y266000D02*
D03*
X309000Y172000D02*
D03*
X310000Y143000D02*
D03*
X306000Y29000D02*
D03*
X372000Y72000D02*
D03*
X37106Y252953D02*
D03*
X92618Y215256D02*
D03*
X161319Y186811D02*
D03*
X42126Y95472D02*
D03*
X165354Y77953D02*
D03*
X163779Y292520D02*
D03*
X39764Y170374D02*
D03*
X39469Y138287D02*
D03*
X31201Y170079D02*
D03*
X68405Y146752D02*
D03*
X165256Y47047D02*
D03*
X283465Y85925D02*
D03*
X200500Y70000D02*
D03*
X167520Y226969D02*
D03*
X160630Y31299D02*
D03*
X180217Y22736D02*
D03*
X44094Y231201D02*
D03*
X110630Y230807D02*
D03*
X178051Y237303D02*
D03*
X246949Y171063D02*
D03*
X287106Y313189D02*
D03*
X247146Y192717D02*
D03*
X196000Y172000D02*
D03*
X253303Y21339D02*
D03*
X253402Y31772D02*
D03*
X253500Y42500D02*
D03*
X307087Y85630D02*
D03*
Y96457D02*
D03*
Y107283D02*
D03*
X255300Y266800D02*
D03*
X307500Y204500D02*
D03*
Y215500D02*
D03*
Y227500D02*
D03*
X307000Y312500D02*
D03*
Y323500D02*
D03*
Y335000D02*
D03*
X183500Y193000D02*
D03*
X119500Y55000D02*
D03*
X373000Y187000D02*
D03*
X119500Y165000D02*
D03*
X375500Y298000D02*
D03*
X121000Y281000D02*
D03*
X118000Y330000D02*
D03*
X119500Y30000D02*
D03*
X66500Y39000D02*
D03*
X74000Y155000D02*
D03*
X308864Y282628D02*
D03*
X120500Y256000D02*
D03*
X255200Y249000D02*
D03*
X274500Y313000D02*
D03*
X39500Y147000D02*
D03*
X260500Y284000D02*
D03*
X119000Y140000D02*
D03*
X78500Y45000D02*
D03*
X84500Y15500D02*
D03*
X76500Y111500D02*
D03*
X36000Y270000D02*
D03*
X82500Y307500D02*
D03*
X72000Y308000D02*
D03*
X182000Y256500D02*
D03*
M02*
