G04*
G04 #@! TF.GenerationSoftware,Altium Limited,Altium Designer,23.10.1 (27)*
G04*
G04 Layer_Color=32896*
%FSLAX25Y25*%
%MOIN*%
G70*
G04*
G04 #@! TF.SameCoordinates,92CF8CD3-C0A9-45A0-95EF-EEFF48AC6B84*
G04*
G04*
G04 #@! TF.FilePolarity,Positive*
G04*
G01*
G75*
%ADD13C,0.00787*%
D13*
X338142Y143945D02*
Y150945D01*
X306142D02*
X338142D01*
Y134945D02*
Y141945D01*
X306142Y134945D02*
X338142D01*
X319205Y130945D02*
X319992D01*
X322748D02*
X323142D01*
X319992Y129370D02*
Y132913D01*
X322748Y130945D01*
X319992Y129370D02*
X322748Y130945D01*
Y128976D02*
Y132913D01*
X306142Y147571D02*
Y150945D01*
Y134945D02*
Y138319D01*
X338329Y38113D02*
Y45113D01*
X306329D02*
X338329D01*
Y29113D02*
Y36113D01*
X306329Y29113D02*
X338329D01*
X319392Y25113D02*
X320180D01*
X322935D02*
X323329D01*
X320180Y23539D02*
Y27082D01*
X322935Y25113D01*
X320180Y23539D02*
X322935Y25113D01*
Y23145D02*
Y27082D01*
X306329Y41739D02*
Y45113D01*
Y29113D02*
Y32487D01*
X339529Y95239D02*
Y98613D01*
Y82613D02*
Y85987D01*
X322923Y100645D02*
Y104582D01*
Y102613D02*
X325679Y104188D01*
X322923Y102613D02*
X325679Y100645D01*
Y104188D01*
X322529Y102613D02*
X322923D01*
X325679D02*
X326466D01*
X307529Y98613D02*
X339529D01*
X307529Y91613D02*
Y98613D01*
Y82613D02*
X339529D01*
X307529D02*
Y89613D01*
X341504Y258945D02*
Y265945D01*
X309504D02*
X341504D01*
Y249945D02*
Y256945D01*
X309504Y249945D02*
X341504D01*
X322567Y245945D02*
X323354D01*
X326110D02*
X326504D01*
X323354Y244370D02*
Y247913D01*
X326110Y245945D01*
X323354Y244370D02*
X326110Y245945D01*
Y243976D02*
Y247913D01*
X309504Y262571D02*
Y265945D01*
Y249945D02*
Y253319D01*
X340142Y209571D02*
Y212945D01*
Y196945D02*
Y200319D01*
X323535Y214976D02*
Y218913D01*
Y216945D02*
X326291Y218520D01*
X323535Y216945D02*
X326291Y214976D01*
Y218520D01*
X323142Y216945D02*
X323535D01*
X326291D02*
X327079D01*
X308142Y212945D02*
X340142D01*
X308142Y205945D02*
Y212945D01*
Y196945D02*
X340142D01*
X308142D02*
Y203945D01*
X343504Y322571D02*
Y325945D01*
Y309945D02*
Y313319D01*
X326898Y327976D02*
Y331913D01*
Y329945D02*
X329654Y331520D01*
X326898Y329945D02*
X329654Y327976D01*
Y331520D01*
X326504Y329945D02*
X326898D01*
X329654D02*
X330441D01*
X311504Y325945D02*
X343504D01*
X311504Y318945D02*
Y325945D01*
Y309945D02*
X343504D01*
X311504D02*
Y316945D01*
M02*
