G04*
G04 #@! TF.GenerationSoftware,Altium Limited,Altium Designer,23.10.1 (27)*
G04*
G04 Layer_Physical_Order=2*
G04 Layer_Color=36540*
%FSLAX25Y25*%
%MOIN*%
G70*
G04*
G04 #@! TF.SameCoordinates,D58E8A5F-C196-4DC0-9E6E-83BCDBF650AB*
G04*
G04*
G04 #@! TF.FilePolarity,Positive*
G04*
G01*
G75*
%ADD49C,0.07000*%
%ADD50C,0.06500*%
%ADD51C,0.06000*%
%ADD52R,0.05906X0.05906*%
%ADD53C,0.05906*%
%ADD54C,0.20000*%
%ADD55C,0.05000*%
G36*
X96000Y217398D02*
X95500Y217264D01*
X95419Y217405D01*
X94767Y218057D01*
X93969Y218517D01*
X93079Y218756D01*
X92157D01*
X91267Y218517D01*
X90469Y218057D01*
X89817Y217405D01*
X89357Y216607D01*
X89118Y215717D01*
Y214795D01*
X89357Y213905D01*
X89817Y213107D01*
X90469Y212455D01*
X91267Y211994D01*
X92157Y211756D01*
X93079D01*
X93969Y211994D01*
X94767Y212455D01*
X95419Y213107D01*
X95500Y213247D01*
X96000Y213113D01*
Y0D01*
X0D01*
Y350600D01*
X96000D01*
Y217398D01*
D02*
G37*
G36*
X429134Y0D02*
X104000D01*
Y350600D01*
X429134D01*
Y0D01*
D02*
G37*
%LPC*%
G36*
X72461Y311500D02*
X71539D01*
X70649Y311262D01*
X69851Y310801D01*
X69199Y310149D01*
X68739Y309351D01*
X68500Y308461D01*
Y307539D01*
X68739Y306649D01*
X69199Y305851D01*
X69851Y305199D01*
X70649Y304738D01*
X71539Y304500D01*
X72461D01*
X73351Y304738D01*
X74149Y305199D01*
X74801Y305851D01*
X75261Y306649D01*
X75500Y307539D01*
Y308461D01*
X75261Y309351D01*
X74801Y310149D01*
X74149Y310801D01*
X73351Y311262D01*
X72461Y311500D01*
D02*
G37*
G36*
X82961Y311000D02*
X82039D01*
X81149Y310761D01*
X80351Y310301D01*
X79699Y309649D01*
X79238Y308851D01*
X79000Y307961D01*
Y307039D01*
X79238Y306149D01*
X79699Y305351D01*
X80351Y304699D01*
X81149Y304239D01*
X82039Y304000D01*
X82961D01*
X83851Y304239D01*
X84649Y304699D01*
X85301Y305351D01*
X85761Y306149D01*
X86000Y307039D01*
Y307961D01*
X85761Y308851D01*
X85301Y309649D01*
X84649Y310301D01*
X83851Y310761D01*
X82961Y311000D01*
D02*
G37*
G36*
X52500Y293490D02*
Y290500D01*
X55489D01*
X55261Y291351D01*
X54801Y292149D01*
X54149Y292801D01*
X53351Y293262D01*
X52500Y293490D01*
D02*
G37*
G36*
X51500D02*
X50649Y293262D01*
X49851Y292801D01*
X49199Y292149D01*
X48739Y291351D01*
X48511Y290500D01*
X51500D01*
Y293490D01*
D02*
G37*
G36*
X55489Y289500D02*
X52500D01*
Y286510D01*
X53351Y286738D01*
X54149Y287199D01*
X54801Y287851D01*
X55261Y288649D01*
X55489Y289500D01*
D02*
G37*
G36*
X51500D02*
X48511D01*
X48739Y288649D01*
X49199Y287851D01*
X49851Y287199D01*
X50649Y286738D01*
X51500Y286510D01*
Y289500D01*
D02*
G37*
G36*
X52461Y283500D02*
X51539D01*
X50649Y283261D01*
X49851Y282801D01*
X49199Y282149D01*
X48739Y281351D01*
X48500Y280461D01*
Y279539D01*
X48739Y278649D01*
X49199Y277851D01*
X49851Y277199D01*
X50649Y276739D01*
X51539Y276500D01*
X52461D01*
X53351Y276739D01*
X54149Y277199D01*
X54801Y277851D01*
X55261Y278649D01*
X55500Y279539D01*
Y280461D01*
X55261Y281351D01*
X54801Y282149D01*
X54149Y282801D01*
X53351Y283261D01*
X52461Y283500D01*
D02*
G37*
G36*
X19520Y278583D02*
X18480D01*
X17474Y278313D01*
X16573Y277793D01*
X15837Y277057D01*
X15317Y276156D01*
X15047Y275150D01*
Y274110D01*
X15317Y273104D01*
X15837Y272203D01*
X16573Y271467D01*
X17474Y270947D01*
X18480Y270677D01*
X19520D01*
X20526Y270947D01*
X21427Y271467D01*
X22163Y272203D01*
X22683Y273104D01*
X22953Y274110D01*
Y275150D01*
X22683Y276156D01*
X22163Y277057D01*
X21427Y277793D01*
X20526Y278313D01*
X19520Y278583D01*
D02*
G37*
G36*
X71760Y272682D02*
Y269693D01*
X74749D01*
X74521Y270544D01*
X74060Y271342D01*
X73409Y271994D01*
X72611Y272454D01*
X71760Y272682D01*
D02*
G37*
G36*
X70760D02*
X69909Y272454D01*
X69111Y271994D01*
X68459Y271342D01*
X67998Y270544D01*
X67770Y269693D01*
X70760D01*
Y272682D01*
D02*
G37*
G36*
X36461Y273500D02*
X35539D01*
X34649Y273261D01*
X33851Y272801D01*
X33199Y272149D01*
X32739Y271351D01*
X32500Y270461D01*
Y269539D01*
X32739Y268649D01*
X33199Y267851D01*
X33851Y267199D01*
X34649Y266739D01*
X35539Y266500D01*
X36461D01*
X37351Y266739D01*
X38149Y267199D01*
X38801Y267851D01*
X39261Y268649D01*
X39500Y269539D01*
Y270461D01*
X39261Y271351D01*
X38801Y272149D01*
X38149Y272801D01*
X37351Y273261D01*
X36461Y273500D01*
D02*
G37*
G36*
X74749Y268693D02*
X71760D01*
Y265703D01*
X72611Y265931D01*
X73409Y266392D01*
X74060Y267044D01*
X74521Y267842D01*
X74749Y268693D01*
D02*
G37*
G36*
X70760D02*
X67770D01*
X67998Y267842D01*
X68459Y267044D01*
X69111Y266392D01*
X69909Y265931D01*
X70760Y265703D01*
Y268693D01*
D02*
G37*
G36*
X19520Y268583D02*
X18480D01*
X17474Y268313D01*
X16573Y267793D01*
X15837Y267057D01*
X15317Y266156D01*
X15047Y265150D01*
Y264109D01*
X15317Y263104D01*
X15837Y262203D01*
X16573Y261467D01*
X17474Y260946D01*
X18480Y260677D01*
X19520D01*
X20526Y260946D01*
X21427Y261467D01*
X22163Y262203D01*
X22683Y263104D01*
X22953Y264109D01*
Y265150D01*
X22683Y266156D01*
X22163Y267057D01*
X21427Y267793D01*
X20526Y268313D01*
X19520Y268583D01*
D02*
G37*
G36*
X64142Y266886D02*
X63220D01*
X62330Y266647D01*
X61532Y266186D01*
X60880Y265535D01*
X60420Y264737D01*
X60181Y263847D01*
Y262925D01*
X60420Y262035D01*
X60880Y261237D01*
X61532Y260585D01*
X62330Y260124D01*
X63220Y259886D01*
X64142D01*
X65032Y260124D01*
X65830Y260585D01*
X66482Y261237D01*
X66943Y262035D01*
X67181Y262925D01*
Y263847D01*
X66943Y264737D01*
X66482Y265535D01*
X65830Y266186D01*
X65032Y266647D01*
X64142Y266886D01*
D02*
G37*
G36*
X19520Y258583D02*
X18480D01*
X17474Y258313D01*
X16573Y257793D01*
X15837Y257057D01*
X15317Y256156D01*
X15047Y255150D01*
Y254110D01*
X15317Y253104D01*
X15837Y252203D01*
X16573Y251467D01*
X17474Y250946D01*
X18480Y250677D01*
X19520D01*
X20526Y250946D01*
X21427Y251467D01*
X22163Y252203D01*
X22683Y253104D01*
X22953Y254110D01*
Y255150D01*
X22683Y256156D01*
X22163Y257057D01*
X21427Y257793D01*
X20526Y258313D01*
X19520Y258583D01*
D02*
G37*
G36*
X52134Y258679D02*
X51015D01*
X49934Y258389D01*
X48965Y257830D01*
X48174Y257039D01*
X47614Y256070D01*
X47325Y254989D01*
Y253870D01*
X47614Y252789D01*
X48174Y251820D01*
X48965Y251028D01*
X49934Y250469D01*
X51015Y250179D01*
X52134D01*
X53215Y250469D01*
X54184Y251028D01*
X54976Y251820D01*
X55535Y252789D01*
X55825Y253870D01*
Y254989D01*
X55535Y256070D01*
X54976Y257039D01*
X54184Y257830D01*
X53215Y258389D01*
X52134Y258679D01*
D02*
G37*
G36*
X37567Y256453D02*
X36645D01*
X35755Y256214D01*
X34957Y255753D01*
X34306Y255102D01*
X33845Y254304D01*
X33606Y253414D01*
Y252492D01*
X33845Y251602D01*
X34306Y250804D01*
X34957Y250152D01*
X35755Y249691D01*
X36645Y249453D01*
X37567D01*
X38457Y249691D01*
X39255Y250152D01*
X39907Y250804D01*
X40368Y251602D01*
X40606Y252492D01*
Y253414D01*
X40368Y254304D01*
X39907Y255102D01*
X39255Y255753D01*
X38457Y256214D01*
X37567Y256453D01*
D02*
G37*
G36*
X52101Y248429D02*
X52075D01*
Y244929D01*
X55575D01*
Y244956D01*
X55302Y245973D01*
X54776Y246885D01*
X54031Y247630D01*
X53119Y248156D01*
X52101Y248429D01*
D02*
G37*
G36*
X51075D02*
X51048D01*
X50031Y248156D01*
X49119Y247630D01*
X48374Y246885D01*
X47847Y245973D01*
X47575Y244956D01*
Y244929D01*
X51075D01*
Y248429D01*
D02*
G37*
G36*
X19520Y248583D02*
X18480D01*
X17474Y248313D01*
X16573Y247793D01*
X15837Y247057D01*
X15317Y246156D01*
X15047Y245150D01*
Y244110D01*
X15317Y243104D01*
X15837Y242203D01*
X16573Y241467D01*
X17474Y240947D01*
X18480Y240677D01*
X19520D01*
X20526Y240947D01*
X21427Y241467D01*
X22163Y242203D01*
X22683Y243104D01*
X22953Y244110D01*
Y245150D01*
X22683Y246156D01*
X22163Y247057D01*
X21427Y247793D01*
X20526Y248313D01*
X19520Y248583D01*
D02*
G37*
G36*
X55575Y243929D02*
X52075D01*
Y240429D01*
X52101D01*
X53119Y240702D01*
X54031Y241228D01*
X54776Y241973D01*
X55302Y242885D01*
X55575Y243902D01*
Y243929D01*
D02*
G37*
G36*
X51075D02*
X47575D01*
Y243902D01*
X47847Y242885D01*
X48374Y241973D01*
X49119Y241228D01*
X50031Y240702D01*
X51048Y240429D01*
X51075D01*
Y243929D01*
D02*
G37*
G36*
X83630Y243559D02*
X82709D01*
X81818Y243320D01*
X81020Y242860D01*
X80369Y242208D01*
X79908Y241410D01*
X79669Y240520D01*
Y239598D01*
X79908Y238708D01*
X80369Y237910D01*
X81020Y237258D01*
X81818Y236798D01*
X82709Y236559D01*
X83630D01*
X84520Y236798D01*
X85318Y237258D01*
X85970Y237910D01*
X86431Y238708D01*
X86669Y239598D01*
Y240520D01*
X86431Y241410D01*
X85970Y242208D01*
X85318Y242860D01*
X84520Y243320D01*
X83630Y243559D01*
D02*
G37*
G36*
X19520Y238583D02*
X18480D01*
X17474Y238313D01*
X16573Y237793D01*
X15837Y237057D01*
X15317Y236156D01*
X15047Y235150D01*
Y234109D01*
X15317Y233104D01*
X15837Y232203D01*
X16573Y231467D01*
X17474Y230946D01*
X18480Y230677D01*
X19520D01*
X20526Y230946D01*
X21427Y231467D01*
X22163Y232203D01*
X22683Y233104D01*
X22953Y234109D01*
Y235150D01*
X22683Y236156D01*
X22163Y237057D01*
X21427Y237793D01*
X20526Y238313D01*
X19520Y238583D01*
D02*
G37*
G36*
X44555Y234701D02*
X43634D01*
X42744Y234462D01*
X41945Y234001D01*
X41294Y233350D01*
X40833Y232552D01*
X40595Y231662D01*
Y230740D01*
X40833Y229850D01*
X41294Y229052D01*
X41945Y228400D01*
X42744Y227939D01*
X43634Y227701D01*
X44555D01*
X45445Y227939D01*
X46244Y228400D01*
X46895Y229052D01*
X47356Y229850D01*
X47594Y230740D01*
Y231662D01*
X47356Y232552D01*
X46895Y233350D01*
X46244Y234001D01*
X45445Y234462D01*
X44555Y234701D01*
D02*
G37*
G36*
X19520Y228583D02*
X19500D01*
Y225130D01*
X22953D01*
Y225150D01*
X22683Y226156D01*
X22163Y227057D01*
X21427Y227793D01*
X20526Y228313D01*
X19520Y228583D01*
D02*
G37*
G36*
X18500D02*
X18480D01*
X17474Y228313D01*
X16573Y227793D01*
X15837Y227057D01*
X15317Y226156D01*
X15047Y225150D01*
Y225130D01*
X18500D01*
Y228583D01*
D02*
G37*
G36*
X22953Y224130D02*
X19500D01*
Y220677D01*
X19520D01*
X20526Y220947D01*
X21427Y221467D01*
X22163Y222203D01*
X22683Y223104D01*
X22953Y224110D01*
Y224130D01*
D02*
G37*
G36*
X18500D02*
X15047D01*
Y224110D01*
X15317Y223104D01*
X15837Y222203D01*
X16573Y221467D01*
X17474Y220947D01*
X18480Y220677D01*
X18500D01*
Y224130D01*
D02*
G37*
G36*
X19520Y218583D02*
X18480D01*
X17474Y218313D01*
X16573Y217793D01*
X15837Y217057D01*
X15317Y216156D01*
X15047Y215150D01*
Y214109D01*
X15317Y213104D01*
X15837Y212203D01*
X16573Y211467D01*
X17474Y210946D01*
X18480Y210677D01*
X19520D01*
X20526Y210946D01*
X21427Y211467D01*
X22163Y212203D01*
X22683Y213104D01*
X22953Y214109D01*
Y215150D01*
X22683Y216156D01*
X22163Y217057D01*
X21427Y217793D01*
X20526Y218313D01*
X19520Y218583D01*
D02*
G37*
G36*
Y208583D02*
X18480D01*
X17474Y208313D01*
X16573Y207793D01*
X15837Y207057D01*
X15317Y206156D01*
X15047Y205150D01*
Y204110D01*
X15317Y203104D01*
X15837Y202203D01*
X16573Y201467D01*
X17474Y200946D01*
X18480Y200677D01*
X19520D01*
X20526Y200946D01*
X21427Y201467D01*
X22163Y202203D01*
X22683Y203104D01*
X22953Y204110D01*
Y205150D01*
X22683Y206156D01*
X22163Y207057D01*
X21427Y207793D01*
X20526Y208313D01*
X19520Y208583D01*
D02*
G37*
G36*
Y198583D02*
X18480D01*
X17474Y198313D01*
X16573Y197793D01*
X15837Y197057D01*
X15317Y196156D01*
X15047Y195150D01*
Y194109D01*
X15317Y193104D01*
X15837Y192203D01*
X16573Y191467D01*
X17474Y190946D01*
X18480Y190677D01*
X19520D01*
X20526Y190946D01*
X21427Y191467D01*
X22163Y192203D01*
X22683Y193104D01*
X22953Y194109D01*
Y195150D01*
X22683Y196156D01*
X22163Y197057D01*
X21427Y197793D01*
X20526Y198313D01*
X19520Y198583D01*
D02*
G37*
G36*
Y188583D02*
X18480D01*
X17474Y188313D01*
X16573Y187793D01*
X15837Y187057D01*
X15317Y186156D01*
X15047Y185150D01*
Y184109D01*
X15317Y183104D01*
X15837Y182203D01*
X16573Y181467D01*
X17474Y180947D01*
X18480Y180677D01*
X19520D01*
X20526Y180947D01*
X21427Y181467D01*
X22163Y182203D01*
X22683Y183104D01*
X22953Y184109D01*
Y185150D01*
X22683Y186156D01*
X22163Y187057D01*
X21427Y187793D01*
X20526Y188313D01*
X19520Y188583D01*
D02*
G37*
G36*
X54240Y177407D02*
Y174417D01*
X57230D01*
X57002Y175268D01*
X56541Y176066D01*
X55889Y176718D01*
X55091Y177179D01*
X54240Y177407D01*
D02*
G37*
G36*
X53240D02*
X52389Y177179D01*
X51591Y176718D01*
X50940Y176066D01*
X50479Y175268D01*
X50251Y174417D01*
X53240D01*
Y177407D01*
D02*
G37*
G36*
X19520Y178583D02*
X18480D01*
X17474Y178313D01*
X16573Y177793D01*
X15837Y177057D01*
X15317Y176156D01*
X15047Y175150D01*
Y174109D01*
X15317Y173104D01*
X15837Y172203D01*
X16573Y171467D01*
X17474Y170947D01*
X18480Y170677D01*
X19520D01*
X20526Y170947D01*
X21427Y171467D01*
X22163Y172203D01*
X22683Y173104D01*
X22953Y174109D01*
Y175150D01*
X22683Y176156D01*
X22163Y177057D01*
X21427Y177793D01*
X20526Y178313D01*
X19520Y178583D01*
D02*
G37*
G36*
X57230Y173417D02*
X54240D01*
Y170428D01*
X55091Y170656D01*
X55889Y171117D01*
X56541Y171768D01*
X57002Y172566D01*
X57230Y173417D01*
D02*
G37*
G36*
X53240D02*
X50251D01*
X50479Y172566D01*
X50940Y171768D01*
X51591Y171117D01*
X52389Y170656D01*
X53240Y170428D01*
Y173417D01*
D02*
G37*
G36*
X40225Y173874D02*
X39303D01*
X38413Y173635D01*
X37615Y173175D01*
X36963Y172523D01*
X36502Y171725D01*
X36264Y170835D01*
Y169913D01*
X36502Y169023D01*
X36963Y168225D01*
X37615Y167573D01*
X38413Y167113D01*
X39303Y166874D01*
X40225D01*
X41115Y167113D01*
X41913Y167573D01*
X42564Y168225D01*
X43025Y169023D01*
X43264Y169913D01*
Y170835D01*
X43025Y171725D01*
X42564Y172523D01*
X41913Y173175D01*
X41115Y173635D01*
X40225Y173874D01*
D02*
G37*
G36*
X31662Y173579D02*
X30740D01*
X29850Y173340D01*
X29052Y172879D01*
X28400Y172228D01*
X27939Y171430D01*
X27701Y170539D01*
Y169618D01*
X27939Y168728D01*
X28400Y167930D01*
X29052Y167278D01*
X29850Y166817D01*
X30740Y166579D01*
X31662D01*
X32552Y166817D01*
X33350Y167278D01*
X34001Y167930D01*
X34462Y168728D01*
X34701Y169618D01*
Y170539D01*
X34462Y171430D01*
X34001Y172228D01*
X33350Y172879D01*
X32552Y173340D01*
X31662Y173579D01*
D02*
G37*
G36*
X19520Y168583D02*
X18480D01*
X17474Y168313D01*
X16573Y167793D01*
X15837Y167057D01*
X15317Y166156D01*
X15047Y165150D01*
Y164110D01*
X15317Y163104D01*
X15837Y162203D01*
X16573Y161467D01*
X17474Y160947D01*
X18480Y160677D01*
X19520D01*
X20526Y160947D01*
X21427Y161467D01*
X22163Y162203D01*
X22683Y163104D01*
X22953Y164110D01*
Y165150D01*
X22683Y166156D01*
X22163Y167057D01*
X21427Y167793D01*
X20526Y168313D01*
X19520Y168583D01*
D02*
G37*
G36*
X54201Y167417D02*
X53279D01*
X52389Y167179D01*
X51591Y166718D01*
X50940Y166066D01*
X50479Y165268D01*
X50240Y164378D01*
Y163456D01*
X50479Y162566D01*
X50940Y161768D01*
X51591Y161117D01*
X52389Y160656D01*
X53279Y160417D01*
X54201D01*
X55091Y160656D01*
X55889Y161117D01*
X56541Y161768D01*
X57002Y162566D01*
X57240Y163456D01*
Y164378D01*
X57002Y165268D01*
X56541Y166066D01*
X55889Y166718D01*
X55091Y167179D01*
X54201Y167417D01*
D02*
G37*
G36*
X74500Y158490D02*
Y155500D01*
X77490D01*
X77262Y156351D01*
X76801Y157149D01*
X76149Y157801D01*
X75351Y158262D01*
X74500Y158490D01*
D02*
G37*
G36*
X73500D02*
X72649Y158262D01*
X71851Y157801D01*
X71199Y157149D01*
X70739Y156351D01*
X70511Y155500D01*
X73500D01*
Y158490D01*
D02*
G37*
G36*
X77490Y154500D02*
X74500D01*
Y151511D01*
X75351Y151739D01*
X76149Y152199D01*
X76801Y152851D01*
X77262Y153649D01*
X77490Y154500D01*
D02*
G37*
G36*
X73500D02*
X70511D01*
X70739Y153649D01*
X71199Y152851D01*
X71851Y152199D01*
X72649Y151739D01*
X73500Y151511D01*
Y154500D01*
D02*
G37*
G36*
X19520Y158583D02*
X18480D01*
X17474Y158313D01*
X16573Y157793D01*
X15837Y157057D01*
X15317Y156156D01*
X15047Y155150D01*
Y154110D01*
X15317Y153104D01*
X15837Y152203D01*
X16573Y151467D01*
X17474Y150946D01*
X18480Y150677D01*
X19520D01*
X20526Y150946D01*
X21427Y151467D01*
X22163Y152203D01*
X22683Y153104D01*
X22953Y154110D01*
Y155150D01*
X22683Y156156D01*
X22163Y157057D01*
X21427Y157793D01*
X20526Y158313D01*
X19520Y158583D01*
D02*
G37*
G36*
X39961Y150500D02*
X39039D01*
X38149Y150261D01*
X37351Y149801D01*
X36699Y149149D01*
X36239Y148351D01*
X36000Y147461D01*
Y146539D01*
X36239Y145649D01*
X36699Y144851D01*
X37351Y144199D01*
X38149Y143738D01*
X39039Y143500D01*
X39961D01*
X40851Y143738D01*
X41649Y144199D01*
X42301Y144851D01*
X42761Y145649D01*
X43000Y146539D01*
Y147461D01*
X42761Y148351D01*
X42301Y149149D01*
X41649Y149801D01*
X40851Y150261D01*
X39961Y150500D01*
D02*
G37*
G36*
X68866Y150252D02*
X67945D01*
X67055Y150013D01*
X66256Y149553D01*
X65605Y148901D01*
X65144Y148103D01*
X64906Y147213D01*
Y146291D01*
X65144Y145401D01*
X65605Y144603D01*
X66256Y143951D01*
X67055Y143491D01*
X67945Y143252D01*
X68866D01*
X69757Y143491D01*
X70555Y143951D01*
X71206Y144603D01*
X71667Y145401D01*
X71905Y146291D01*
Y147213D01*
X71667Y148103D01*
X71206Y148901D01*
X70555Y149553D01*
X69757Y150013D01*
X68866Y150252D01*
D02*
G37*
G36*
X19520Y148583D02*
X18480D01*
X17474Y148313D01*
X16573Y147793D01*
X15837Y147057D01*
X15317Y146156D01*
X15047Y145150D01*
Y144109D01*
X15317Y143104D01*
X15837Y142203D01*
X16573Y141467D01*
X17474Y140946D01*
X18480Y140677D01*
X19520D01*
X20526Y140946D01*
X21427Y141467D01*
X22163Y142203D01*
X22683Y143104D01*
X22953Y144109D01*
Y145150D01*
X22683Y146156D01*
X22163Y147057D01*
X21427Y147793D01*
X20526Y148313D01*
X19520Y148583D01*
D02*
G37*
G36*
X39929Y141787D02*
X39008D01*
X38118Y141549D01*
X37319Y141088D01*
X36668Y140436D01*
X36207Y139638D01*
X35969Y138748D01*
Y137827D01*
X36207Y136936D01*
X36668Y136138D01*
X37319Y135487D01*
X38118Y135026D01*
X39008Y134787D01*
X39929D01*
X40819Y135026D01*
X41618Y135487D01*
X42269Y136138D01*
X42730Y136936D01*
X42968Y137827D01*
Y138748D01*
X42730Y139638D01*
X42269Y140436D01*
X41618Y141088D01*
X40819Y141549D01*
X39929Y141787D01*
D02*
G37*
G36*
X54497Y142754D02*
X53377D01*
X52297Y142464D01*
X51327Y141905D01*
X50536Y141113D01*
X49977Y140144D01*
X49687Y139064D01*
Y137944D01*
X49977Y136864D01*
X50536Y135894D01*
X51327Y135103D01*
X52297Y134544D01*
X53377Y134254D01*
X54497D01*
X55577Y134544D01*
X56547Y135103D01*
X57338Y135894D01*
X57897Y136864D01*
X58187Y137944D01*
Y139064D01*
X57897Y140144D01*
X57338Y141113D01*
X56547Y141905D01*
X55577Y142464D01*
X54497Y142754D01*
D02*
G37*
G36*
X22953Y138583D02*
X15047D01*
Y130677D01*
X22953D01*
Y138583D01*
D02*
G37*
G36*
X54464Y132504D02*
X54437D01*
Y129004D01*
X57937D01*
Y129031D01*
X57664Y130048D01*
X57138Y130960D01*
X56393Y131705D01*
X55481Y132231D01*
X54464Y132504D01*
D02*
G37*
G36*
X53437D02*
X53410D01*
X52393Y132231D01*
X51481Y131705D01*
X50736Y130960D01*
X50210Y130048D01*
X49937Y129031D01*
Y129004D01*
X53437D01*
Y132504D01*
D02*
G37*
G36*
X57937Y128004D02*
X54437D01*
Y124504D01*
X54464D01*
X55481Y124776D01*
X56393Y125303D01*
X57138Y126048D01*
X57664Y126960D01*
X57937Y127977D01*
Y128004D01*
D02*
G37*
G36*
X53437D02*
X49937D01*
Y127977D01*
X50210Y126960D01*
X50736Y126048D01*
X51481Y125303D01*
X52393Y124776D01*
X53410Y124504D01*
X53437D01*
Y128004D01*
D02*
G37*
G36*
X76961Y115000D02*
X76039D01*
X75149Y114761D01*
X74351Y114301D01*
X73699Y113649D01*
X73238Y112851D01*
X73000Y111961D01*
Y111039D01*
X73238Y110149D01*
X73699Y109351D01*
X74351Y108699D01*
X75149Y108238D01*
X76039Y108000D01*
X76961D01*
X77851Y108238D01*
X78649Y108699D01*
X79301Y109351D01*
X79761Y110149D01*
X80000Y111039D01*
Y111961D01*
X79761Y112851D01*
X79301Y113649D01*
X78649Y114301D01*
X77851Y114761D01*
X76961Y115000D01*
D02*
G37*
G36*
X42587Y98972D02*
X41665D01*
X40775Y98734D01*
X39977Y98273D01*
X39325Y97622D01*
X38864Y96823D01*
X38626Y95933D01*
Y95012D01*
X38864Y94121D01*
X39325Y93323D01*
X39977Y92672D01*
X40775Y92211D01*
X41665Y91972D01*
X42587D01*
X43477Y92211D01*
X44275Y92672D01*
X44927Y93323D01*
X45388Y94121D01*
X45626Y95012D01*
Y95933D01*
X45388Y96823D01*
X44927Y97622D01*
X44275Y98273D01*
X43477Y98734D01*
X42587Y98972D01*
D02*
G37*
G36*
X54271Y71990D02*
Y69000D01*
X57260D01*
X57032Y69851D01*
X56571Y70649D01*
X55920Y71301D01*
X55122Y71762D01*
X54271Y71990D01*
D02*
G37*
G36*
X53271D02*
X52420Y71762D01*
X51622Y71301D01*
X50970Y70649D01*
X50509Y69851D01*
X50281Y69000D01*
X53271D01*
Y71990D01*
D02*
G37*
G36*
X57260Y68000D02*
X54271D01*
Y65010D01*
X55122Y65238D01*
X55920Y65699D01*
X56571Y66351D01*
X57032Y67149D01*
X57260Y68000D01*
D02*
G37*
G36*
X53271D02*
X50281D01*
X50509Y67149D01*
X50970Y66351D01*
X51622Y65699D01*
X52420Y65238D01*
X53271Y65010D01*
Y68000D01*
D02*
G37*
G36*
X54231Y62000D02*
X53310D01*
X52420Y61761D01*
X51622Y61301D01*
X50970Y60649D01*
X50509Y59851D01*
X50271Y58961D01*
Y58039D01*
X50509Y57149D01*
X50970Y56351D01*
X51622Y55699D01*
X52420Y55238D01*
X53310Y55000D01*
X54231D01*
X55122Y55238D01*
X55920Y55699D01*
X56571Y56351D01*
X57032Y57149D01*
X57271Y58039D01*
Y58961D01*
X57032Y59851D01*
X56571Y60649D01*
X55920Y61301D01*
X55122Y61761D01*
X54231Y62000D01*
D02*
G37*
G36*
X79000Y48489D02*
Y45500D01*
X81990D01*
X81761Y46351D01*
X81301Y47149D01*
X80649Y47801D01*
X79851Y48261D01*
X79000Y48489D01*
D02*
G37*
G36*
X78000D02*
X77149Y48261D01*
X76351Y47801D01*
X75699Y47149D01*
X75239Y46351D01*
X75011Y45500D01*
X78000D01*
Y48489D01*
D02*
G37*
G36*
X81990Y44500D02*
X79000D01*
Y41510D01*
X79851Y41739D01*
X80649Y42199D01*
X81301Y42851D01*
X81761Y43649D01*
X81990Y44500D01*
D02*
G37*
G36*
X78000D02*
X75011D01*
X75239Y43649D01*
X75699Y42851D01*
X76351Y42199D01*
X77149Y41739D01*
X78000Y41510D01*
Y44500D01*
D02*
G37*
G36*
X66961Y42500D02*
X66039D01*
X65149Y42261D01*
X64351Y41801D01*
X63699Y41149D01*
X63239Y40351D01*
X63000Y39461D01*
Y38539D01*
X63239Y37649D01*
X63699Y36851D01*
X64351Y36199D01*
X65149Y35739D01*
X66039Y35500D01*
X66961D01*
X67851Y35739D01*
X68649Y36199D01*
X69301Y36851D01*
X69762Y37649D01*
X70000Y38539D01*
Y39461D01*
X69762Y40351D01*
X69301Y41149D01*
X68649Y41801D01*
X67851Y42261D01*
X66961Y42500D01*
D02*
G37*
G36*
X54559Y35380D02*
X53440D01*
X52360Y35090D01*
X51390Y34531D01*
X50599Y33740D01*
X50040Y32770D01*
X49750Y31689D01*
Y30570D01*
X50040Y29489D01*
X50599Y28520D01*
X51390Y27729D01*
X52360Y27169D01*
X53440Y26880D01*
X54559D01*
X55640Y27169D01*
X56610Y27729D01*
X57401Y28520D01*
X57960Y29489D01*
X58250Y30570D01*
Y31689D01*
X57960Y32770D01*
X57401Y33740D01*
X56610Y34531D01*
X55640Y35090D01*
X54559Y35380D01*
D02*
G37*
G36*
X54527Y25130D02*
X54500D01*
Y21630D01*
X58000D01*
Y21656D01*
X57727Y22674D01*
X57201Y23586D01*
X56456Y24331D01*
X55544Y24857D01*
X54527Y25130D01*
D02*
G37*
G36*
X53500D02*
X53473D01*
X52456Y24857D01*
X51544Y24331D01*
X50799Y23586D01*
X50273Y22674D01*
X50000Y21656D01*
Y21630D01*
X53500D01*
Y25130D01*
D02*
G37*
G36*
X58000Y20630D02*
X54500D01*
Y17130D01*
X54527D01*
X55544Y17402D01*
X56456Y17929D01*
X57201Y18674D01*
X57727Y19586D01*
X58000Y20603D01*
Y20630D01*
D02*
G37*
G36*
X53500D02*
X50000D01*
Y20603D01*
X50273Y19586D01*
X50799Y18674D01*
X51544Y17929D01*
X52456Y17402D01*
X53473Y17130D01*
X53500D01*
Y20630D01*
D02*
G37*
G36*
X84961Y19000D02*
X84039D01*
X83149Y18762D01*
X82351Y18301D01*
X81699Y17649D01*
X81239Y16851D01*
X81000Y15961D01*
Y15039D01*
X81239Y14149D01*
X81699Y13351D01*
X82351Y12699D01*
X83149Y12239D01*
X84039Y12000D01*
X84961D01*
X85851Y12239D01*
X86649Y12699D01*
X87301Y13351D01*
X87761Y14149D01*
X88000Y15039D01*
Y15961D01*
X87761Y16851D01*
X87301Y17649D01*
X86649Y18301D01*
X85851Y18762D01*
X84961Y19000D01*
D02*
G37*
G36*
X307461Y338500D02*
X306539D01*
X305649Y338262D01*
X304851Y337801D01*
X304199Y337149D01*
X303738Y336351D01*
X303500Y335461D01*
Y334539D01*
X303738Y333649D01*
X304199Y332851D01*
X304851Y332199D01*
X305649Y331738D01*
X306539Y331500D01*
X307461D01*
X308351Y331738D01*
X309149Y332199D01*
X309801Y332851D01*
X310262Y333649D01*
X310500Y334539D01*
Y335461D01*
X310262Y336351D01*
X309801Y337149D01*
X309149Y337801D01*
X308351Y338262D01*
X307461Y338500D01*
D02*
G37*
G36*
X206399Y333043D02*
X206307D01*
Y329043D01*
X210307D01*
Y329136D01*
X210000Y330280D01*
X209408Y331306D01*
X208570Y332144D01*
X207544Y332737D01*
X206399Y333043D01*
D02*
G37*
G36*
X205307D02*
X205215D01*
X204070Y332737D01*
X203044Y332144D01*
X202206Y331306D01*
X201614Y330280D01*
X201307Y329136D01*
Y329043D01*
X205307D01*
Y333043D01*
D02*
G37*
G36*
X118461Y333500D02*
X117539D01*
X116649Y333261D01*
X115851Y332801D01*
X115199Y332149D01*
X114739Y331351D01*
X114500Y330461D01*
Y329539D01*
X114739Y328649D01*
X115199Y327851D01*
X115851Y327199D01*
X116649Y326739D01*
X117539Y326500D01*
X118461D01*
X119351Y326739D01*
X120149Y327199D01*
X120801Y327851D01*
X121262Y328649D01*
X121500Y329539D01*
Y330461D01*
X121262Y331351D01*
X120801Y332149D01*
X120149Y332801D01*
X119351Y333261D01*
X118461Y333500D01*
D02*
G37*
G36*
X226085Y333043D02*
X224900D01*
X223755Y332737D01*
X222729Y332144D01*
X221891Y331306D01*
X221299Y330280D01*
X220992Y329136D01*
Y327951D01*
X221299Y326806D01*
X221891Y325780D01*
X222729Y324942D01*
X223755Y324350D01*
X224900Y324043D01*
X226085D01*
X227229Y324350D01*
X228255Y324942D01*
X229093Y325780D01*
X229685Y326806D01*
X229992Y327951D01*
Y329136D01*
X229685Y330280D01*
X229093Y331306D01*
X228255Y332144D01*
X227229Y332737D01*
X226085Y333043D01*
D02*
G37*
G36*
X210307Y328043D02*
X206307D01*
Y324043D01*
X206399D01*
X207544Y324350D01*
X208570Y324942D01*
X209408Y325780D01*
X210000Y326806D01*
X210307Y327951D01*
Y328043D01*
D02*
G37*
G36*
X205307D02*
X201307D01*
Y327951D01*
X201614Y326806D01*
X202206Y325780D01*
X203044Y324942D01*
X204070Y324350D01*
X205215Y324043D01*
X205307D01*
Y328043D01*
D02*
G37*
G36*
X307461Y327000D02*
X306539D01*
X305649Y326762D01*
X304851Y326301D01*
X304199Y325649D01*
X303738Y324851D01*
X303500Y323961D01*
Y323039D01*
X303738Y322149D01*
X304199Y321351D01*
X304851Y320699D01*
X305649Y320238D01*
X306539Y320000D01*
X307461D01*
X308351Y320238D01*
X309149Y320699D01*
X309801Y321351D01*
X310262Y322149D01*
X310500Y323039D01*
Y323961D01*
X310262Y324851D01*
X309801Y325649D01*
X309149Y326301D01*
X308351Y326762D01*
X307461Y327000D01*
D02*
G37*
G36*
X275000Y316490D02*
Y313500D01*
X277990D01*
X277762Y314351D01*
X277301Y315149D01*
X276649Y315801D01*
X275851Y316262D01*
X275000Y316490D01*
D02*
G37*
G36*
X274000D02*
X273149Y316262D01*
X272351Y315801D01*
X271699Y315149D01*
X271238Y314351D01*
X271010Y313500D01*
X274000D01*
Y316490D01*
D02*
G37*
G36*
X287567Y316689D02*
X286646D01*
X285755Y316451D01*
X284957Y315990D01*
X284306Y315338D01*
X283845Y314540D01*
X283606Y313650D01*
Y312728D01*
X283845Y311838D01*
X284306Y311040D01*
X284957Y310388D01*
X285755Y309928D01*
X286646Y309689D01*
X287567D01*
X288457Y309928D01*
X289255Y310388D01*
X289907Y311040D01*
X290368Y311838D01*
X290606Y312728D01*
Y313650D01*
X290368Y314540D01*
X289907Y315338D01*
X289255Y315990D01*
X288457Y316451D01*
X287567Y316689D01*
D02*
G37*
G36*
X277990Y312500D02*
X275000D01*
Y309510D01*
X275851Y309738D01*
X276649Y310199D01*
X277301Y310851D01*
X277762Y311649D01*
X277990Y312500D01*
D02*
G37*
G36*
X274000D02*
X271010D01*
X271238Y311649D01*
X271699Y310851D01*
X272351Y310199D01*
X273149Y309738D01*
X274000Y309510D01*
Y312500D01*
D02*
G37*
G36*
X148461Y316130D02*
X147539D01*
X146649Y315891D01*
X145851Y315431D01*
X145199Y314779D01*
X144738Y313981D01*
X144500Y313091D01*
Y312169D01*
X144738Y311279D01*
X145199Y310481D01*
X145851Y309829D01*
X146649Y309368D01*
X147539Y309130D01*
X148461D01*
X149351Y309368D01*
X150149Y309829D01*
X150801Y310481D01*
X151261Y311279D01*
X151500Y312169D01*
Y313091D01*
X151261Y313981D01*
X150801Y314779D01*
X150149Y315431D01*
X149351Y315891D01*
X148461Y316130D01*
D02*
G37*
G36*
X307461Y316000D02*
X306539D01*
X305649Y315761D01*
X304851Y315301D01*
X304199Y314649D01*
X303738Y313851D01*
X303500Y312961D01*
Y312039D01*
X303738Y311149D01*
X304199Y310351D01*
X304851Y309699D01*
X305649Y309239D01*
X306539Y309000D01*
X307461D01*
X308351Y309239D01*
X309149Y309699D01*
X309801Y310351D01*
X310262Y311149D01*
X310500Y312039D01*
Y312961D01*
X310262Y313851D01*
X309801Y314649D01*
X309149Y315301D01*
X308351Y315761D01*
X307461Y316000D01*
D02*
G37*
G36*
X148500Y306119D02*
Y303130D01*
X151489D01*
X151261Y303981D01*
X150801Y304779D01*
X150149Y305431D01*
X149351Y305891D01*
X148500Y306119D01*
D02*
G37*
G36*
X147500D02*
X146649Y305891D01*
X145851Y305431D01*
X145199Y304779D01*
X144738Y303981D01*
X144510Y303130D01*
X147500D01*
Y306119D01*
D02*
G37*
G36*
X151489Y302130D02*
X148500D01*
Y299140D01*
X149351Y299368D01*
X150149Y299829D01*
X150801Y300481D01*
X151261Y301279D01*
X151489Y302130D01*
D02*
G37*
G36*
X147500D02*
X144510D01*
X144738Y301279D01*
X145199Y300481D01*
X145851Y299829D01*
X146649Y299368D01*
X147500Y299140D01*
Y302130D01*
D02*
G37*
G36*
X375961Y301500D02*
X375039D01*
X374149Y301261D01*
X373351Y300801D01*
X372699Y300149D01*
X372238Y299351D01*
X372000Y298461D01*
Y297539D01*
X372238Y296649D01*
X372699Y295851D01*
X373351Y295199D01*
X374149Y294739D01*
X375039Y294500D01*
X375961D01*
X376851Y294739D01*
X377649Y295199D01*
X378301Y295851D01*
X378762Y296649D01*
X379000Y297539D01*
Y298461D01*
X378762Y299351D01*
X378301Y300149D01*
X377649Y300801D01*
X376851Y301261D01*
X375961Y301500D01*
D02*
G37*
G36*
X406378Y311197D02*
X404646D01*
X402936Y310926D01*
X401289Y310391D01*
X399747Y309605D01*
X398346Y308587D01*
X397122Y307363D01*
X396104Y305962D01*
X395318Y304419D01*
X394783Y302773D01*
X394512Y301063D01*
Y299331D01*
X394783Y297621D01*
X395318Y295974D01*
X396104Y294432D01*
X397122Y293031D01*
X398346Y291807D01*
X399747Y290789D01*
X401289Y290003D01*
X402936Y289468D01*
X404646Y289197D01*
X406378D01*
X408088Y289468D01*
X409734Y290003D01*
X411277Y290789D01*
X412678Y291807D01*
X413902Y293031D01*
X414920Y294432D01*
X415706Y295974D01*
X416241Y297621D01*
X416512Y299331D01*
Y301063D01*
X416241Y302773D01*
X415706Y304419D01*
X414920Y305962D01*
X413902Y307363D01*
X412678Y308587D01*
X411277Y309605D01*
X409734Y310391D01*
X408088Y310926D01*
X406378Y311197D01*
D02*
G37*
G36*
X164240Y296020D02*
X163319D01*
X162429Y295781D01*
X161630Y295320D01*
X160979Y294669D01*
X160518Y293871D01*
X160280Y292981D01*
Y292059D01*
X160518Y291169D01*
X160979Y290371D01*
X161630Y289719D01*
X162429Y289258D01*
X163319Y289020D01*
X164240D01*
X165130Y289258D01*
X165929Y289719D01*
X166580Y290371D01*
X167041Y291169D01*
X167280Y292059D01*
Y292981D01*
X167041Y293871D01*
X166580Y294669D01*
X165929Y295320D01*
X165130Y295781D01*
X164240Y296020D01*
D02*
G37*
G36*
X148461Y289000D02*
X147539D01*
X146649Y288761D01*
X145851Y288301D01*
X145199Y287649D01*
X144738Y286851D01*
X144500Y285961D01*
Y285039D01*
X144738Y284149D01*
X145199Y283351D01*
X145851Y282699D01*
X146649Y282239D01*
X147539Y282000D01*
X148461D01*
X149351Y282239D01*
X150149Y282699D01*
X150801Y283351D01*
X151261Y284149D01*
X151500Y285039D01*
Y285961D01*
X151261Y286851D01*
X150801Y287649D01*
X150149Y288301D01*
X149351Y288761D01*
X148461Y289000D01*
D02*
G37*
G36*
X260961Y287500D02*
X260039D01*
X259149Y287262D01*
X258351Y286801D01*
X257699Y286149D01*
X257239Y285351D01*
X257000Y284461D01*
Y283539D01*
X257239Y282649D01*
X257699Y281851D01*
X258351Y281199D01*
X259149Y280738D01*
X260039Y280500D01*
X260961D01*
X261851Y280738D01*
X262649Y281199D01*
X263301Y281851D01*
X263761Y282649D01*
X264000Y283539D01*
Y284461D01*
X263761Y285351D01*
X263301Y286149D01*
X262649Y286801D01*
X261851Y287262D01*
X260961Y287500D01*
D02*
G37*
G36*
X309324Y286128D02*
X308403D01*
X307513Y285889D01*
X306715Y285428D01*
X306063Y284777D01*
X305602Y283979D01*
X305364Y283088D01*
Y282167D01*
X305602Y281277D01*
X306063Y280479D01*
X306715Y279827D01*
X307513Y279366D01*
X308403Y279128D01*
X309324D01*
X310214Y279366D01*
X311013Y279827D01*
X311664Y280479D01*
X312125Y281277D01*
X312364Y282167D01*
Y283088D01*
X312125Y283979D01*
X311664Y284777D01*
X311013Y285428D01*
X310214Y285889D01*
X309324Y286128D01*
D02*
G37*
G36*
X199516Y282033D02*
Y279043D01*
X202505D01*
X202277Y279894D01*
X201817Y280692D01*
X201165Y281344D01*
X200367Y281805D01*
X199516Y282033D01*
D02*
G37*
G36*
X198516D02*
X197665Y281805D01*
X196867Y281344D01*
X196215Y280692D01*
X195754Y279894D01*
X195526Y279043D01*
X198516D01*
Y282033D01*
D02*
G37*
G36*
X121461Y284500D02*
X120539D01*
X119649Y284261D01*
X118851Y283801D01*
X118199Y283149D01*
X117738Y282351D01*
X117500Y281461D01*
Y280539D01*
X117738Y279649D01*
X118199Y278851D01*
X118851Y278199D01*
X119649Y277738D01*
X120539Y277500D01*
X121461D01*
X122351Y277738D01*
X123149Y278199D01*
X123801Y278851D01*
X124261Y279649D01*
X124500Y280539D01*
Y281461D01*
X124261Y282351D01*
X123801Y283149D01*
X123149Y283801D01*
X122351Y284261D01*
X121461Y284500D01*
D02*
G37*
G36*
X202505Y278043D02*
X199516D01*
Y275054D01*
X200367Y275282D01*
X201165Y275743D01*
X201817Y276394D01*
X202277Y277192D01*
X202505Y278043D01*
D02*
G37*
G36*
X198516D02*
X195526D01*
X195754Y277192D01*
X196215Y276394D01*
X196867Y275743D01*
X197665Y275282D01*
X198516Y275054D01*
Y278043D01*
D02*
G37*
G36*
X148461Y279000D02*
X147539D01*
X146649Y278762D01*
X145851Y278301D01*
X145199Y277649D01*
X144738Y276851D01*
X144500Y275961D01*
Y275039D01*
X144738Y274149D01*
X145199Y273351D01*
X145851Y272699D01*
X146649Y272238D01*
X147539Y272000D01*
X148461D01*
X149351Y272238D01*
X150149Y272699D01*
X150801Y273351D01*
X151261Y274149D01*
X151500Y275039D01*
Y275961D01*
X151261Y276851D01*
X150801Y277649D01*
X150149Y278301D01*
X149351Y278762D01*
X148461Y279000D01*
D02*
G37*
G36*
X255800Y270289D02*
Y267300D01*
X258789D01*
X258561Y268151D01*
X258101Y268949D01*
X257449Y269601D01*
X256651Y270061D01*
X255800Y270289D01*
D02*
G37*
G36*
X254800D02*
X253949Y270061D01*
X253151Y269601D01*
X252499Y268949D01*
X252039Y268151D01*
X251811Y267300D01*
X254800D01*
Y270289D01*
D02*
G37*
G36*
X164437Y272764D02*
X163516D01*
X162625Y272525D01*
X161827Y272064D01*
X161176Y271413D01*
X160715Y270615D01*
X160476Y269725D01*
Y268803D01*
X160715Y267913D01*
X161176Y267115D01*
X161827Y266463D01*
X162625Y266002D01*
X163516Y265764D01*
X164437D01*
X165327Y266002D01*
X166125Y266463D01*
X166777Y267115D01*
X167238Y267913D01*
X167476Y268803D01*
Y269725D01*
X167238Y270615D01*
X166777Y271413D01*
X166125Y272064D01*
X165327Y272525D01*
X164437Y272764D01*
D02*
G37*
G36*
X258789Y266300D02*
X255800D01*
Y263311D01*
X256651Y263539D01*
X257449Y263999D01*
X258101Y264651D01*
X258561Y265449D01*
X258789Y266300D01*
D02*
G37*
G36*
X254800D02*
X251811D01*
X252039Y265449D01*
X252499Y264651D01*
X253151Y263999D01*
X253949Y263539D01*
X254800Y263311D01*
Y266300D01*
D02*
G37*
G36*
X311461Y269500D02*
X310539D01*
X309649Y269262D01*
X308851Y268801D01*
X308199Y268149D01*
X307738Y267351D01*
X307500Y266461D01*
Y265539D01*
X307738Y264649D01*
X308199Y263851D01*
X308851Y263199D01*
X309649Y262738D01*
X310539Y262500D01*
X311461D01*
X312351Y262738D01*
X313149Y263199D01*
X313801Y263851D01*
X314262Y264649D01*
X314500Y265539D01*
Y266461D01*
X314262Y267351D01*
X313801Y268149D01*
X313149Y268801D01*
X312351Y269262D01*
X311461Y269500D01*
D02*
G37*
G36*
X213354Y269051D02*
X212433D01*
X211543Y268813D01*
X210745Y268352D01*
X210093Y267700D01*
X209632Y266902D01*
X209394Y266012D01*
Y265090D01*
X209632Y264200D01*
X210093Y263402D01*
X210745Y262751D01*
X211543Y262290D01*
X212433Y262051D01*
X213354D01*
X214245Y262290D01*
X215043Y262751D01*
X215694Y263402D01*
X216155Y264200D01*
X216394Y265090D01*
Y266012D01*
X216155Y266902D01*
X215694Y267700D01*
X215043Y268352D01*
X214245Y268813D01*
X213354Y269051D01*
D02*
G37*
G36*
X197508D02*
X196587D01*
X195696Y268813D01*
X194898Y268352D01*
X194246Y267700D01*
X193786Y266902D01*
X193547Y266012D01*
Y265090D01*
X193786Y264200D01*
X194246Y263402D01*
X194898Y262751D01*
X195696Y262290D01*
X196587Y262051D01*
X197508D01*
X198398Y262290D01*
X199196Y262751D01*
X199848Y263402D01*
X200309Y264200D01*
X200547Y265090D01*
Y266012D01*
X200309Y266902D01*
X199848Y267700D01*
X199196Y268352D01*
X198398Y268813D01*
X197508Y269051D01*
D02*
G37*
G36*
X255700Y261490D02*
Y258500D01*
X258689D01*
X258461Y259351D01*
X258001Y260149D01*
X257349Y260801D01*
X256551Y261262D01*
X255700Y261490D01*
D02*
G37*
G36*
X254700D02*
X253849Y261262D01*
X253051Y260801D01*
X252399Y260149D01*
X251939Y259351D01*
X251711Y258500D01*
X254700D01*
Y261490D01*
D02*
G37*
G36*
X182500Y259990D02*
Y257000D01*
X185489D01*
X185261Y257851D01*
X184801Y258649D01*
X184149Y259301D01*
X183351Y259762D01*
X182500Y259990D01*
D02*
G37*
G36*
X181500D02*
X180649Y259762D01*
X179851Y259301D01*
X179199Y258649D01*
X178738Y257851D01*
X178510Y257000D01*
X181500D01*
Y259990D01*
D02*
G37*
G36*
X258689Y257500D02*
X255700D01*
Y254510D01*
X256551Y254738D01*
X257349Y255199D01*
X258001Y255851D01*
X258461Y256649D01*
X258689Y257500D01*
D02*
G37*
G36*
X254700D02*
X251711D01*
X251939Y256649D01*
X252399Y255851D01*
X253051Y255199D01*
X253849Y254738D01*
X254700Y254510D01*
Y257500D01*
D02*
G37*
G36*
X148492Y260784D02*
X147571D01*
X146680Y260545D01*
X145882Y260084D01*
X145231Y259433D01*
X144770Y258634D01*
X144532Y257744D01*
Y256823D01*
X144770Y255932D01*
X145231Y255134D01*
X145882Y254483D01*
X146680Y254022D01*
X147571Y253783D01*
X148492D01*
X149382Y254022D01*
X150180Y254483D01*
X150832Y255134D01*
X151293Y255932D01*
X151532Y256823D01*
Y257744D01*
X151293Y258634D01*
X150832Y259433D01*
X150180Y260084D01*
X149382Y260545D01*
X148492Y260784D01*
D02*
G37*
G36*
X185489Y256000D02*
X182500D01*
Y253011D01*
X183351Y253239D01*
X184149Y253699D01*
X184801Y254351D01*
X185261Y255149D01*
X185489Y256000D01*
D02*
G37*
G36*
X181500D02*
X178510D01*
X178738Y255149D01*
X179199Y254351D01*
X179851Y253699D01*
X180649Y253239D01*
X181500Y253011D01*
Y256000D01*
D02*
G37*
G36*
X120961Y259500D02*
X120039D01*
X119149Y259261D01*
X118351Y258801D01*
X117699Y258149D01*
X117238Y257351D01*
X117000Y256461D01*
Y255539D01*
X117238Y254649D01*
X117699Y253851D01*
X118351Y253199D01*
X119149Y252738D01*
X120039Y252500D01*
X120961D01*
X121851Y252738D01*
X122649Y253199D01*
X123301Y253851D01*
X123761Y254649D01*
X124000Y255539D01*
Y256461D01*
X123761Y257351D01*
X123301Y258149D01*
X122649Y258801D01*
X121851Y259261D01*
X120961Y259500D01*
D02*
G37*
G36*
X311461Y258500D02*
X310539D01*
X309649Y258261D01*
X308851Y257801D01*
X308199Y257149D01*
X307738Y256351D01*
X307500Y255461D01*
Y254539D01*
X307738Y253649D01*
X308199Y252851D01*
X308851Y252199D01*
X309649Y251739D01*
X310539Y251500D01*
X311461D01*
X312351Y251739D01*
X313149Y252199D01*
X313801Y252851D01*
X314262Y253649D01*
X314500Y254539D01*
Y255461D01*
X314262Y256351D01*
X313801Y257149D01*
X313149Y257801D01*
X312351Y258261D01*
X311461Y258500D01*
D02*
G37*
G36*
X255700Y252489D02*
Y249500D01*
X258689D01*
X258461Y250351D01*
X258001Y251149D01*
X257349Y251801D01*
X256551Y252261D01*
X255700Y252489D01*
D02*
G37*
G36*
X254700D02*
X253849Y252261D01*
X253051Y251801D01*
X252399Y251149D01*
X251939Y250351D01*
X251711Y249500D01*
X254700D01*
Y252489D01*
D02*
G37*
G36*
X148531Y250773D02*
Y247783D01*
X151521D01*
X151293Y248634D01*
X150832Y249432D01*
X150180Y250084D01*
X149382Y250545D01*
X148531Y250773D01*
D02*
G37*
G36*
X147531Y250773D02*
X146680Y250545D01*
X145882Y250084D01*
X145231Y249432D01*
X144770Y248634D01*
X144542Y247783D01*
X147531D01*
Y250773D01*
D02*
G37*
G36*
X258689Y248500D02*
X255700D01*
Y245511D01*
X256551Y245739D01*
X257349Y246199D01*
X258001Y246851D01*
X258461Y247649D01*
X258689Y248500D01*
D02*
G37*
G36*
X254700D02*
X251711D01*
X251939Y247649D01*
X252399Y246851D01*
X253051Y246199D01*
X253849Y245739D01*
X254700Y245511D01*
Y248500D01*
D02*
G37*
G36*
X151521Y246783D02*
X148531D01*
Y243794D01*
X149382Y244022D01*
X150180Y244483D01*
X150832Y245134D01*
X151293Y245933D01*
X151521Y246783D01*
D02*
G37*
G36*
X147531D02*
X144542D01*
X144770Y245933D01*
X145231Y245134D01*
X145882Y244483D01*
X146680Y244022D01*
X147531Y243794D01*
Y246783D01*
D02*
G37*
G36*
X178512Y240803D02*
X177590D01*
X176700Y240565D01*
X175902Y240104D01*
X175250Y239452D01*
X174790Y238654D01*
X174551Y237764D01*
Y236842D01*
X174790Y235952D01*
X175250Y235154D01*
X175902Y234502D01*
X176700Y234042D01*
X177590Y233803D01*
X178512D01*
X179402Y234042D01*
X180200Y234502D01*
X180852Y235154D01*
X181313Y235952D01*
X181551Y236842D01*
Y237764D01*
X181313Y238654D01*
X180852Y239452D01*
X180200Y240104D01*
X179402Y240565D01*
X178512Y240803D01*
D02*
G37*
G36*
X111091Y234307D02*
X110169D01*
X109279Y234069D01*
X108481Y233608D01*
X107829Y232956D01*
X107368Y232158D01*
X107130Y231268D01*
Y230346D01*
X107368Y229456D01*
X107829Y228658D01*
X108481Y228006D01*
X109279Y227546D01*
X110169Y227307D01*
X111091D01*
X111981Y227546D01*
X112779Y228006D01*
X113431Y228658D01*
X113891Y229456D01*
X114130Y230346D01*
Y231268D01*
X113891Y232158D01*
X113431Y232956D01*
X112779Y233608D01*
X111981Y234069D01*
X111091Y234307D01*
D02*
G37*
G36*
X250953Y231551D02*
X250031D01*
X249141Y231313D01*
X248343Y230852D01*
X247691Y230200D01*
X247231Y229402D01*
X246992Y228512D01*
Y227590D01*
X247231Y226700D01*
X247691Y225902D01*
X248343Y225251D01*
X249141Y224790D01*
X250031Y224551D01*
X250953D01*
X251843Y224790D01*
X252641Y225251D01*
X253293Y225902D01*
X253754Y226700D01*
X253992Y227590D01*
Y228512D01*
X253754Y229402D01*
X253293Y230200D01*
X252641Y230852D01*
X251843Y231313D01*
X250953Y231551D01*
D02*
G37*
G36*
X307961Y231000D02*
X307039D01*
X306149Y230762D01*
X305351Y230301D01*
X304699Y229649D01*
X304239Y228851D01*
X304000Y227961D01*
Y227039D01*
X304239Y226149D01*
X304699Y225351D01*
X305351Y224699D01*
X306149Y224238D01*
X307039Y224000D01*
X307961D01*
X308851Y224238D01*
X309649Y224699D01*
X310301Y225351D01*
X310761Y226149D01*
X311000Y227039D01*
Y227961D01*
X310761Y228851D01*
X310301Y229649D01*
X309649Y230301D01*
X308851Y230762D01*
X307961Y231000D01*
D02*
G37*
G36*
X167981Y230469D02*
X167059D01*
X166169Y230230D01*
X165371Y229769D01*
X164719Y229117D01*
X164258Y228320D01*
X164020Y227429D01*
Y226508D01*
X164258Y225618D01*
X164719Y224819D01*
X165371Y224168D01*
X166169Y223707D01*
X167059Y223468D01*
X167981D01*
X168871Y223707D01*
X169669Y224168D01*
X170320Y224819D01*
X170781Y225618D01*
X171020Y226508D01*
Y227429D01*
X170781Y228320D01*
X170320Y229117D01*
X169669Y229769D01*
X168871Y230230D01*
X167981Y230469D01*
D02*
G37*
G36*
X307961Y219000D02*
X307039D01*
X306149Y218761D01*
X305351Y218301D01*
X304699Y217649D01*
X304239Y216851D01*
X304000Y215961D01*
Y215039D01*
X304239Y214149D01*
X304699Y213351D01*
X305351Y212699D01*
X306149Y212239D01*
X307039Y212000D01*
X307961D01*
X308851Y212239D01*
X309649Y212699D01*
X310301Y213351D01*
X310761Y214149D01*
X311000Y215039D01*
Y215961D01*
X310761Y216851D01*
X310301Y217649D01*
X309649Y218301D01*
X308851Y218761D01*
X307961Y219000D01*
D02*
G37*
G36*
X213689Y212249D02*
Y209260D01*
X216679D01*
X216451Y210111D01*
X215990Y210909D01*
X215338Y211561D01*
X214540Y212021D01*
X213689Y212249D01*
D02*
G37*
G36*
X212689D02*
X211838Y212021D01*
X211040Y211561D01*
X210388Y210909D01*
X209928Y210111D01*
X209700Y209260D01*
X212689D01*
Y212249D01*
D02*
G37*
G36*
X216679Y208260D02*
X213689D01*
Y205270D01*
X214540Y205498D01*
X215338Y205959D01*
X215990Y206611D01*
X216451Y207409D01*
X216679Y208260D01*
D02*
G37*
G36*
X212689D02*
X209700D01*
X209928Y207409D01*
X210388Y206611D01*
X211040Y205959D01*
X211838Y205498D01*
X212689Y205270D01*
Y208260D01*
D02*
G37*
G36*
X277370Y205163D02*
Y202173D01*
X280360D01*
X280132Y203024D01*
X279671Y203822D01*
X279019Y204474D01*
X278221Y204935D01*
X277370Y205163D01*
D02*
G37*
G36*
X276370D02*
X275519Y204935D01*
X274721Y204474D01*
X274069Y203822D01*
X273609Y203024D01*
X273381Y202173D01*
X276370D01*
Y205163D01*
D02*
G37*
G36*
X307961Y208000D02*
X307039D01*
X306149Y207762D01*
X305351Y207301D01*
X304699Y206649D01*
X304239Y205851D01*
X304000Y204961D01*
Y204039D01*
X304239Y203149D01*
X304699Y202351D01*
X305351Y201699D01*
X306149Y201238D01*
X307039Y201000D01*
X307961D01*
X308851Y201238D01*
X309649Y201699D01*
X310301Y202351D01*
X310761Y203149D01*
X311000Y204039D01*
Y204961D01*
X310761Y205851D01*
X310301Y206649D01*
X309649Y207301D01*
X308851Y207762D01*
X307961Y208000D01*
D02*
G37*
G36*
X280360Y201173D02*
X277370D01*
Y198184D01*
X278221Y198412D01*
X279019Y198872D01*
X279671Y199524D01*
X280132Y200322D01*
X280360Y201173D01*
D02*
G37*
G36*
X276370D02*
X273381D01*
X273609Y200322D01*
X274069Y199524D01*
X274721Y198872D01*
X275519Y198412D01*
X276370Y198184D01*
Y201173D01*
D02*
G37*
G36*
X263748Y205173D02*
X262827D01*
X261936Y204935D01*
X261138Y204474D01*
X260487Y203822D01*
X260026Y203024D01*
X259787Y202134D01*
Y201212D01*
X260026Y200322D01*
X260487Y199524D01*
X261138Y198872D01*
X261936Y198412D01*
X262827Y198173D01*
X263748D01*
X264638Y198412D01*
X265437Y198872D01*
X266088Y199524D01*
X266549Y200322D01*
X266787Y201212D01*
Y202134D01*
X266549Y203024D01*
X266088Y203822D01*
X265437Y204474D01*
X264638Y204935D01*
X263748Y205173D01*
D02*
G37*
G36*
X184000Y196490D02*
Y193500D01*
X186989D01*
X186761Y194351D01*
X186301Y195149D01*
X185649Y195801D01*
X184851Y196262D01*
X184000Y196490D01*
D02*
G37*
G36*
X183000D02*
X182149Y196262D01*
X181351Y195801D01*
X180699Y195149D01*
X180238Y194351D01*
X180010Y193500D01*
X183000D01*
Y196490D01*
D02*
G37*
G36*
X144461Y200130D02*
X143539D01*
X142649Y199891D01*
X141851Y199431D01*
X141199Y198779D01*
X140738Y197981D01*
X140500Y197091D01*
Y196169D01*
X140738Y195279D01*
X141199Y194481D01*
X141851Y193829D01*
X142649Y193368D01*
X143539Y193130D01*
X144461D01*
X145351Y193368D01*
X146149Y193829D01*
X146801Y194481D01*
X147262Y195279D01*
X147500Y196169D01*
Y197091D01*
X147262Y197981D01*
X146801Y198779D01*
X146149Y199431D01*
X145351Y199891D01*
X144461Y200130D01*
D02*
G37*
G36*
X186989Y192500D02*
X184000D01*
Y189511D01*
X184851Y189739D01*
X185649Y190199D01*
X186301Y190851D01*
X186761Y191649D01*
X186989Y192500D01*
D02*
G37*
G36*
X183000D02*
X180010D01*
X180238Y191649D01*
X180699Y190851D01*
X181351Y190199D01*
X182149Y189739D01*
X183000Y189511D01*
Y192500D01*
D02*
G37*
G36*
X247606Y196216D02*
X246685D01*
X245795Y195978D01*
X244997Y195517D01*
X244345Y194866D01*
X243884Y194068D01*
X243646Y193177D01*
Y192256D01*
X243884Y191366D01*
X244345Y190568D01*
X244997Y189916D01*
X245795Y189455D01*
X246685Y189216D01*
X247606D01*
X248497Y189455D01*
X249295Y189916D01*
X249946Y190568D01*
X250407Y191366D01*
X250646Y192256D01*
Y193177D01*
X250407Y194068D01*
X249946Y194866D01*
X249295Y195517D01*
X248497Y195978D01*
X247606Y196216D01*
D02*
G37*
G36*
X144500Y190119D02*
Y187130D01*
X147490D01*
X147262Y187981D01*
X146801Y188779D01*
X146149Y189431D01*
X145351Y189891D01*
X144500Y190119D01*
D02*
G37*
G36*
X143500D02*
X142649Y189891D01*
X141851Y189431D01*
X141199Y188779D01*
X140738Y187981D01*
X140510Y187130D01*
X143500D01*
Y190119D01*
D02*
G37*
G36*
X373461Y190500D02*
X372539D01*
X371649Y190261D01*
X370851Y189801D01*
X370199Y189149D01*
X369739Y188351D01*
X369500Y187461D01*
Y186539D01*
X369739Y185649D01*
X370199Y184851D01*
X370851Y184199D01*
X371649Y183739D01*
X372539Y183500D01*
X373461D01*
X374351Y183739D01*
X375149Y184199D01*
X375801Y184851D01*
X376261Y185649D01*
X376500Y186539D01*
Y187461D01*
X376261Y188351D01*
X375801Y189149D01*
X375149Y189801D01*
X374351Y190261D01*
X373461Y190500D01*
D02*
G37*
G36*
X161780Y190311D02*
X160858D01*
X159968Y190073D01*
X159170Y189612D01*
X158518Y188960D01*
X158057Y188162D01*
X157819Y187272D01*
Y186350D01*
X158057Y185460D01*
X158518Y184662D01*
X159170Y184010D01*
X159968Y183549D01*
X160858Y183311D01*
X161780D01*
X162670Y183549D01*
X163468Y184010D01*
X164120Y184662D01*
X164580Y185460D01*
X164819Y186350D01*
Y187272D01*
X164580Y188162D01*
X164120Y188960D01*
X163468Y189612D01*
X162670Y190073D01*
X161780Y190311D01*
D02*
G37*
G36*
X147490Y186130D02*
X144500D01*
Y183140D01*
X145351Y183368D01*
X146149Y183829D01*
X146801Y184481D01*
X147262Y185279D01*
X147490Y186130D01*
D02*
G37*
G36*
X143500D02*
X140510D01*
X140738Y185279D01*
X141199Y184481D01*
X141851Y183829D01*
X142649Y183368D01*
X143500Y183140D01*
Y186130D01*
D02*
G37*
G36*
X196500Y175489D02*
Y172500D01*
X199489D01*
X199261Y173351D01*
X198801Y174149D01*
X198149Y174801D01*
X197351Y175261D01*
X196500Y175489D01*
D02*
G37*
G36*
X195500D02*
X194649Y175261D01*
X193851Y174801D01*
X193199Y174149D01*
X192738Y173351D01*
X192510Y172500D01*
X195500D01*
Y175489D01*
D02*
G37*
G36*
X212311Y171895D02*
Y168905D01*
X215300D01*
X215072Y169756D01*
X214612Y170555D01*
X213960Y171206D01*
X213162Y171667D01*
X212311Y171895D01*
D02*
G37*
G36*
X211311D02*
X210460Y171667D01*
X209662Y171206D01*
X209010Y170555D01*
X208549Y169756D01*
X208321Y168905D01*
X211311D01*
Y171895D01*
D02*
G37*
G36*
X199489Y171500D02*
X196500D01*
Y168510D01*
X197351Y168738D01*
X198149Y169199D01*
X198801Y169851D01*
X199261Y170649D01*
X199489Y171500D01*
D02*
G37*
G36*
X195500D02*
X192510D01*
X192738Y170649D01*
X193199Y169851D01*
X193851Y169199D01*
X194649Y168738D01*
X195500Y168510D01*
Y171500D01*
D02*
G37*
G36*
X309461Y175500D02*
X308539D01*
X307649Y175261D01*
X306851Y174801D01*
X306199Y174149D01*
X305738Y173351D01*
X305500Y172461D01*
Y171539D01*
X305738Y170649D01*
X306199Y169851D01*
X306851Y169199D01*
X307649Y168738D01*
X308539Y168500D01*
X309461D01*
X310351Y168738D01*
X311149Y169199D01*
X311801Y169851D01*
X312262Y170649D01*
X312500Y171539D01*
Y172461D01*
X312262Y173351D01*
X311801Y174149D01*
X311149Y174801D01*
X310351Y175261D01*
X309461Y175500D01*
D02*
G37*
G36*
X406366Y190000D02*
X404634D01*
X402924Y189729D01*
X401277Y189194D01*
X399735Y188408D01*
X398334Y187390D01*
X397110Y186166D01*
X396092Y184765D01*
X395306Y183222D01*
X394771Y181576D01*
X394500Y179866D01*
Y178134D01*
X394771Y176424D01*
X395306Y174777D01*
X396092Y173235D01*
X397110Y171834D01*
X398334Y170610D01*
X399735Y169592D01*
X401277Y168806D01*
X402924Y168271D01*
X404634Y168000D01*
X406366D01*
X408076Y168271D01*
X409723Y168806D01*
X411265Y169592D01*
X412666Y170610D01*
X413890Y171834D01*
X414908Y173235D01*
X415694Y174777D01*
X416229Y176424D01*
X416500Y178134D01*
Y179866D01*
X416229Y181576D01*
X415694Y183222D01*
X414908Y184765D01*
X413890Y186166D01*
X412666Y187390D01*
X411265Y188408D01*
X409723Y189194D01*
X408076Y189729D01*
X406366Y190000D01*
D02*
G37*
G36*
X247410Y174563D02*
X246488D01*
X245598Y174325D01*
X244800Y173864D01*
X244148Y173212D01*
X243687Y172414D01*
X243449Y171524D01*
Y170602D01*
X243687Y169712D01*
X244148Y168914D01*
X244800Y168262D01*
X245598Y167801D01*
X246488Y167563D01*
X247410D01*
X248300Y167801D01*
X249098Y168262D01*
X249749Y168914D01*
X250210Y169712D01*
X250449Y170602D01*
Y171524D01*
X250210Y172414D01*
X249749Y173212D01*
X249098Y173864D01*
X248300Y174325D01*
X247410Y174563D01*
D02*
G37*
G36*
X144461Y174130D02*
X143539D01*
X142649Y173891D01*
X141851Y173431D01*
X141199Y172779D01*
X140738Y171981D01*
X140500Y171091D01*
Y170169D01*
X140738Y169279D01*
X141199Y168481D01*
X141851Y167829D01*
X142649Y167368D01*
X143539Y167130D01*
X144461D01*
X145351Y167368D01*
X146149Y167829D01*
X146801Y168481D01*
X147262Y169279D01*
X147500Y170169D01*
Y171091D01*
X147262Y171981D01*
X146801Y172779D01*
X146149Y173431D01*
X145351Y173891D01*
X144461Y174130D01*
D02*
G37*
G36*
X223886Y172201D02*
X222964D01*
X222074Y171962D01*
X221276Y171502D01*
X220624Y170850D01*
X220164Y170052D01*
X219925Y169162D01*
Y168240D01*
X220164Y167350D01*
X220624Y166552D01*
X221276Y165900D01*
X222074Y165439D01*
X222964Y165201D01*
X223886D01*
X224776Y165439D01*
X225574Y165900D01*
X226226Y166552D01*
X226687Y167350D01*
X226925Y168240D01*
Y169162D01*
X226687Y170052D01*
X226226Y170850D01*
X225574Y171502D01*
X224776Y171962D01*
X223886Y172201D01*
D02*
G37*
G36*
X215300Y167905D02*
X212311D01*
Y164916D01*
X213162Y165144D01*
X213960Y165605D01*
X214612Y166256D01*
X215072Y167055D01*
X215300Y167905D01*
D02*
G37*
G36*
X211311D02*
X208321D01*
X208549Y167055D01*
X209010Y166256D01*
X209662Y165605D01*
X210460Y165144D01*
X211311Y164916D01*
Y167905D01*
D02*
G37*
G36*
X119961Y168500D02*
X119039D01*
X118149Y168262D01*
X117351Y167801D01*
X116699Y167149D01*
X116238Y166351D01*
X116000Y165461D01*
Y164539D01*
X116238Y163649D01*
X116699Y162851D01*
X117351Y162199D01*
X118149Y161739D01*
X119039Y161500D01*
X119961D01*
X120851Y161739D01*
X121649Y162199D01*
X122301Y162851D01*
X122761Y163649D01*
X123000Y164539D01*
Y165461D01*
X122761Y166351D01*
X122301Y167149D01*
X121649Y167801D01*
X120851Y168262D01*
X119961Y168500D01*
D02*
G37*
G36*
X199575Y166098D02*
X198653D01*
X197763Y165860D01*
X196965Y165399D01*
X196314Y164748D01*
X195853Y163949D01*
X195614Y163059D01*
Y162138D01*
X195853Y161248D01*
X196314Y160449D01*
X196965Y159798D01*
X197763Y159337D01*
X198653Y159098D01*
X199575D01*
X200465Y159337D01*
X201263Y159798D01*
X201915Y160449D01*
X202376Y161248D01*
X202614Y162138D01*
Y163059D01*
X202376Y163949D01*
X201915Y164748D01*
X201263Y165399D01*
X200465Y165860D01*
X199575Y166098D01*
D02*
G37*
G36*
X258500Y161989D02*
Y159000D01*
X261490D01*
X261262Y159851D01*
X260801Y160649D01*
X260149Y161301D01*
X259351Y161761D01*
X258500Y161989D01*
D02*
G37*
G36*
X257500D02*
X256649Y161761D01*
X255851Y161301D01*
X255199Y160649D01*
X254738Y159851D01*
X254510Y159000D01*
X257500D01*
Y161989D01*
D02*
G37*
G36*
X144461Y164130D02*
X143539D01*
X142649Y163891D01*
X141851Y163431D01*
X141199Y162779D01*
X140738Y161981D01*
X140500Y161091D01*
Y160169D01*
X140738Y159279D01*
X141199Y158481D01*
X141851Y157829D01*
X142649Y157368D01*
X143539Y157130D01*
X144461D01*
X145351Y157368D01*
X146149Y157829D01*
X146801Y158481D01*
X147262Y159279D01*
X147500Y160169D01*
Y161091D01*
X147262Y161981D01*
X146801Y162779D01*
X146149Y163431D01*
X145351Y163891D01*
X144461Y164130D01*
D02*
G37*
G36*
X161780Y163146D02*
X160858D01*
X159968Y162907D01*
X159170Y162446D01*
X158518Y161795D01*
X158057Y160997D01*
X157819Y160106D01*
Y159185D01*
X158057Y158295D01*
X158518Y157497D01*
X159170Y156845D01*
X159968Y156384D01*
X160858Y156146D01*
X161780D01*
X162670Y156384D01*
X163468Y156845D01*
X164120Y157497D01*
X164580Y158295D01*
X164819Y159185D01*
Y160106D01*
X164580Y160997D01*
X164120Y161795D01*
X163468Y162446D01*
X162670Y162907D01*
X161780Y163146D01*
D02*
G37*
G36*
X261490Y158000D02*
X258500D01*
Y155010D01*
X259351Y155238D01*
X260149Y155699D01*
X260801Y156351D01*
X261262Y157149D01*
X261490Y158000D01*
D02*
G37*
G36*
X257500D02*
X254510D01*
X254738Y157149D01*
X255199Y156351D01*
X255851Y155699D01*
X256649Y155238D01*
X257500Y155010D01*
Y158000D01*
D02*
G37*
G36*
X310461Y157500D02*
X309539D01*
X308649Y157262D01*
X307851Y156801D01*
X307199Y156149D01*
X306738Y155351D01*
X306500Y154461D01*
Y153539D01*
X306738Y152649D01*
X307199Y151851D01*
X307851Y151199D01*
X308649Y150739D01*
X309539Y150500D01*
X310461D01*
X311351Y150739D01*
X312149Y151199D01*
X312801Y151851D01*
X313262Y152649D01*
X313500Y153539D01*
Y154461D01*
X313262Y155351D01*
X312801Y156149D01*
X312149Y156801D01*
X311351Y157262D01*
X310461Y157500D01*
D02*
G37*
G36*
X258500Y151489D02*
Y148500D01*
X261490D01*
X261262Y149351D01*
X260801Y150149D01*
X260149Y150801D01*
X259351Y151261D01*
X258500Y151489D01*
D02*
G37*
G36*
X257500D02*
X256649Y151261D01*
X255851Y150801D01*
X255199Y150149D01*
X254738Y149351D01*
X254510Y148500D01*
X257500D01*
Y151489D01*
D02*
G37*
G36*
X203118Y149277D02*
Y146287D01*
X206108D01*
X205880Y147138D01*
X205419Y147936D01*
X204767Y148588D01*
X203969Y149049D01*
X203118Y149277D01*
D02*
G37*
G36*
X202118D02*
X201267Y149049D01*
X200469Y148588D01*
X199817Y147936D01*
X199357Y147138D01*
X199129Y146287D01*
X202118D01*
Y149277D01*
D02*
G37*
G36*
X183500Y148489D02*
Y145500D01*
X186489D01*
X186261Y146351D01*
X185801Y147149D01*
X185149Y147801D01*
X184351Y148261D01*
X183500Y148489D01*
D02*
G37*
G36*
X182500D02*
X181649Y148261D01*
X180851Y147801D01*
X180199Y147149D01*
X179738Y146351D01*
X179510Y145500D01*
X182500D01*
Y148489D01*
D02*
G37*
G36*
X261490Y147500D02*
X258500D01*
Y144510D01*
X259351Y144738D01*
X260149Y145199D01*
X260801Y145851D01*
X261262Y146649D01*
X261490Y147500D01*
D02*
G37*
G36*
X257500D02*
X254510D01*
X254738Y146649D01*
X255199Y145851D01*
X255851Y145199D01*
X256649Y144738D01*
X257500Y144510D01*
Y147500D01*
D02*
G37*
G36*
X206108Y145287D02*
X203118D01*
Y142298D01*
X203969Y142526D01*
X204767Y142987D01*
X205419Y143638D01*
X205880Y144436D01*
X206108Y145287D01*
D02*
G37*
G36*
X202118D02*
X199129D01*
X199357Y144436D01*
X199817Y143638D01*
X200469Y142987D01*
X201267Y142526D01*
X202118Y142298D01*
Y145287D01*
D02*
G37*
G36*
X186489Y144500D02*
X183500D01*
Y141510D01*
X184351Y141738D01*
X185149Y142199D01*
X185801Y142851D01*
X186261Y143649D01*
X186489Y144500D01*
D02*
G37*
G36*
X182500D02*
X179510D01*
X179738Y143649D01*
X180199Y142851D01*
X180851Y142199D01*
X181649Y141738D01*
X182500Y141510D01*
Y144500D01*
D02*
G37*
G36*
X144461Y148130D02*
X143539D01*
X142649Y147891D01*
X141851Y147431D01*
X141199Y146779D01*
X140738Y145981D01*
X140500Y145091D01*
Y144169D01*
X140738Y143279D01*
X141199Y142481D01*
X141851Y141829D01*
X142649Y141368D01*
X143539Y141130D01*
X144461D01*
X145351Y141368D01*
X146149Y141829D01*
X146801Y142481D01*
X147262Y143279D01*
X147500Y144169D01*
Y145091D01*
X147262Y145981D01*
X146801Y146779D01*
X146149Y147431D01*
X145351Y147891D01*
X144461Y148130D01*
D02*
G37*
G36*
X310461Y146500D02*
X309539D01*
X308649Y146262D01*
X307851Y145801D01*
X307199Y145149D01*
X306738Y144351D01*
X306500Y143461D01*
Y142539D01*
X306738Y141649D01*
X307199Y140851D01*
X307851Y140199D01*
X308649Y139739D01*
X309539Y139500D01*
X310461D01*
X311351Y139739D01*
X312149Y140199D01*
X312801Y140851D01*
X313262Y141649D01*
X313500Y142539D01*
Y143461D01*
X313262Y144351D01*
X312801Y145149D01*
X312149Y145801D01*
X311351Y146262D01*
X310461Y146500D01*
D02*
G37*
G36*
X258500Y141490D02*
Y138500D01*
X261490D01*
X261262Y139351D01*
X260801Y140149D01*
X260149Y140801D01*
X259351Y141261D01*
X258500Y141490D01*
D02*
G37*
G36*
X257500D02*
X256649Y141261D01*
X255851Y140801D01*
X255199Y140149D01*
X254738Y139351D01*
X254510Y138500D01*
X257500D01*
Y141490D01*
D02*
G37*
G36*
X159221Y145232D02*
X158299D01*
X157409Y144994D01*
X156611Y144533D01*
X155959Y143881D01*
X155498Y143083D01*
X155260Y142193D01*
Y141271D01*
X155498Y140381D01*
X155959Y139583D01*
X156611Y138932D01*
X157409Y138471D01*
X158299Y138232D01*
X159221D01*
X160111Y138471D01*
X160909Y138932D01*
X161560Y139583D01*
X162021Y140381D01*
X162260Y141271D01*
Y142193D01*
X162021Y143083D01*
X161560Y143881D01*
X160909Y144533D01*
X160111Y144994D01*
X159221Y145232D01*
D02*
G37*
G36*
X119461Y143500D02*
X118539D01*
X117649Y143262D01*
X116851Y142801D01*
X116199Y142149D01*
X115738Y141351D01*
X115500Y140461D01*
Y139539D01*
X115738Y138649D01*
X116199Y137851D01*
X116851Y137199D01*
X117649Y136739D01*
X118539Y136500D01*
X119461D01*
X120351Y136739D01*
X121149Y137199D01*
X121801Y137851D01*
X122262Y138649D01*
X122500Y139539D01*
Y140461D01*
X122262Y141351D01*
X121801Y142149D01*
X121149Y142801D01*
X120351Y143262D01*
X119461Y143500D01*
D02*
G37*
G36*
X144500Y138119D02*
Y135130D01*
X147490D01*
X147262Y135981D01*
X146801Y136779D01*
X146149Y137431D01*
X145351Y137891D01*
X144500Y138119D01*
D02*
G37*
G36*
X143500D02*
X142649Y137891D01*
X141851Y137431D01*
X141199Y136779D01*
X140738Y135981D01*
X140510Y135130D01*
X143500D01*
Y138119D01*
D02*
G37*
G36*
X261490Y137500D02*
X258500D01*
Y134511D01*
X259351Y134739D01*
X260149Y135199D01*
X260801Y135851D01*
X261262Y136649D01*
X261490Y137500D01*
D02*
G37*
G36*
X257500D02*
X254510D01*
X254738Y136649D01*
X255199Y135851D01*
X255851Y135199D01*
X256649Y134739D01*
X257500Y134511D01*
Y137500D01*
D02*
G37*
G36*
X147490Y134130D02*
X144500D01*
Y131140D01*
X145351Y131368D01*
X146149Y131829D01*
X146801Y132481D01*
X147262Y133279D01*
X147490Y134130D01*
D02*
G37*
G36*
X143500D02*
X140510D01*
X140738Y133279D01*
X141199Y132481D01*
X141851Y131829D01*
X142649Y131368D01*
X143500Y131140D01*
Y134130D01*
D02*
G37*
G36*
X179595Y130173D02*
X178673D01*
X177783Y129935D01*
X176985Y129474D01*
X176333Y128822D01*
X175872Y128024D01*
X175634Y127134D01*
Y126212D01*
X175872Y125322D01*
X176333Y124524D01*
X176985Y123872D01*
X177783Y123412D01*
X178673Y123173D01*
X179595D01*
X180485Y123412D01*
X181283Y123872D01*
X181935Y124524D01*
X182395Y125322D01*
X182634Y126212D01*
Y127134D01*
X182395Y128024D01*
X181935Y128822D01*
X181283Y129474D01*
X180485Y129935D01*
X179595Y130173D01*
D02*
G37*
G36*
X307547Y110784D02*
X306626D01*
X305736Y110545D01*
X304938Y110084D01*
X304286Y109432D01*
X303825Y108634D01*
X303587Y107744D01*
Y106823D01*
X303825Y105932D01*
X304286Y105134D01*
X304938Y104483D01*
X305736Y104022D01*
X306626Y103784D01*
X307547D01*
X308438Y104022D01*
X309236Y104483D01*
X309887Y105134D01*
X310348Y105932D01*
X310587Y106823D01*
Y107744D01*
X310348Y108634D01*
X309887Y109432D01*
X309236Y110084D01*
X308438Y110545D01*
X307547Y110784D01*
D02*
G37*
G36*
Y99957D02*
X306626D01*
X305736Y99718D01*
X304938Y99257D01*
X304286Y98606D01*
X303825Y97808D01*
X303587Y96917D01*
Y95996D01*
X303825Y95106D01*
X304286Y94308D01*
X304938Y93656D01*
X305736Y93195D01*
X306626Y92957D01*
X307547D01*
X308438Y93195D01*
X309236Y93656D01*
X309887Y94308D01*
X310348Y95106D01*
X310587Y95996D01*
Y96917D01*
X310348Y97808D01*
X309887Y98606D01*
X309236Y99257D01*
X308438Y99718D01*
X307547Y99957D01*
D02*
G37*
G36*
X146622Y90705D02*
X145701D01*
X144810Y90466D01*
X144012Y90005D01*
X143361Y89354D01*
X142900Y88556D01*
X142661Y87665D01*
Y86744D01*
X142900Y85854D01*
X143361Y85056D01*
X144012Y84404D01*
X144810Y83943D01*
X145701Y83705D01*
X146622D01*
X147512Y83943D01*
X148310Y84404D01*
X148962Y85056D01*
X149423Y85854D01*
X149661Y86744D01*
Y87665D01*
X149423Y88556D01*
X148962Y89354D01*
X148310Y90005D01*
X147512Y90466D01*
X146622Y90705D01*
D02*
G37*
G36*
X283925Y89425D02*
X283004D01*
X282114Y89187D01*
X281315Y88726D01*
X280664Y88074D01*
X280203Y87276D01*
X279965Y86386D01*
Y85464D01*
X280203Y84574D01*
X280664Y83776D01*
X281315Y83125D01*
X282114Y82664D01*
X283004Y82425D01*
X283925D01*
X284816Y82664D01*
X285614Y83125D01*
X286265Y83776D01*
X286726Y84574D01*
X286965Y85464D01*
Y86386D01*
X286726Y87276D01*
X286265Y88074D01*
X285614Y88726D01*
X284816Y89187D01*
X283925Y89425D01*
D02*
G37*
G36*
X307547Y89130D02*
X306626D01*
X305736Y88891D01*
X304938Y88431D01*
X304286Y87779D01*
X303825Y86981D01*
X303587Y86091D01*
Y85169D01*
X303825Y84279D01*
X304286Y83481D01*
X304938Y82829D01*
X305736Y82368D01*
X306626Y82130D01*
X307547D01*
X308438Y82368D01*
X309236Y82829D01*
X309887Y83481D01*
X310348Y84279D01*
X310587Y85169D01*
Y86091D01*
X310348Y86981D01*
X309887Y87779D01*
X309236Y88431D01*
X308438Y88891D01*
X307547Y89130D01*
D02*
G37*
G36*
X146661Y80694D02*
Y77705D01*
X149651D01*
X149423Y78556D01*
X148962Y79354D01*
X148310Y80005D01*
X147512Y80466D01*
X146661Y80694D01*
D02*
G37*
G36*
X145661D02*
X144810Y80466D01*
X144012Y80005D01*
X143361Y79354D01*
X142900Y78556D01*
X142672Y77705D01*
X145661D01*
Y80694D01*
D02*
G37*
G36*
X165815Y81453D02*
X164894D01*
X164003Y81214D01*
X163205Y80753D01*
X162554Y80102D01*
X162093Y79304D01*
X161854Y78413D01*
Y77492D01*
X162093Y76602D01*
X162554Y75804D01*
X163205Y75152D01*
X164003Y74691D01*
X164894Y74453D01*
X165815D01*
X166705Y74691D01*
X167503Y75152D01*
X168155Y75804D01*
X168616Y76602D01*
X168854Y77492D01*
Y78413D01*
X168616Y79304D01*
X168155Y80102D01*
X167503Y80753D01*
X166705Y81214D01*
X165815Y81453D01*
D02*
G37*
G36*
X149651Y76705D02*
X146661D01*
Y73715D01*
X147512Y73943D01*
X148310Y74404D01*
X148962Y75056D01*
X149423Y75854D01*
X149651Y76705D01*
D02*
G37*
G36*
X145661D02*
X142672D01*
X142900Y75854D01*
X143361Y75056D01*
X144012Y74404D01*
X144810Y73943D01*
X145661Y73715D01*
Y76705D01*
D02*
G37*
G36*
X201000Y73489D02*
Y70500D01*
X203990D01*
X203762Y71351D01*
X203301Y72149D01*
X202649Y72801D01*
X201851Y73261D01*
X201000Y73489D01*
D02*
G37*
G36*
X200000D02*
X199149Y73261D01*
X198351Y72801D01*
X197699Y72149D01*
X197239Y71351D01*
X197011Y70500D01*
X200000D01*
Y73489D01*
D02*
G37*
G36*
X372461Y75500D02*
X371539D01*
X370649Y75261D01*
X369851Y74801D01*
X369199Y74149D01*
X368739Y73351D01*
X368500Y72461D01*
Y71539D01*
X368739Y70649D01*
X369199Y69851D01*
X369851Y69199D01*
X370649Y68739D01*
X371539Y68500D01*
X372461D01*
X373351Y68739D01*
X374149Y69199D01*
X374801Y69851D01*
X375261Y70649D01*
X375500Y71539D01*
Y72461D01*
X375261Y73351D01*
X374801Y74149D01*
X374149Y74801D01*
X373351Y75261D01*
X372461Y75500D01*
D02*
G37*
G36*
X203990Y69500D02*
X201000D01*
Y66510D01*
X201851Y66738D01*
X202649Y67199D01*
X203301Y67851D01*
X203762Y68649D01*
X203990Y69500D01*
D02*
G37*
G36*
X200000D02*
X197011D01*
X197239Y68649D01*
X197699Y67851D01*
X198351Y67199D01*
X199149Y66738D01*
X200000Y66510D01*
Y69500D01*
D02*
G37*
G36*
X403366Y81000D02*
X401634D01*
X399924Y80729D01*
X398277Y80194D01*
X396735Y79408D01*
X395334Y78390D01*
X394110Y77166D01*
X393092Y75765D01*
X392306Y74222D01*
X391771Y72576D01*
X391500Y70866D01*
Y69134D01*
X391771Y67424D01*
X392306Y65777D01*
X393092Y64235D01*
X394110Y62834D01*
X395334Y61610D01*
X396735Y60592D01*
X398277Y59806D01*
X399924Y59271D01*
X401634Y59000D01*
X403366D01*
X405076Y59271D01*
X406722Y59806D01*
X408265Y60592D01*
X409666Y61610D01*
X410890Y62834D01*
X411908Y64235D01*
X412694Y65777D01*
X413229Y67424D01*
X413500Y69134D01*
Y70866D01*
X413229Y72576D01*
X412694Y74222D01*
X411908Y75765D01*
X410890Y77166D01*
X409666Y78390D01*
X408265Y79408D01*
X406722Y80194D01*
X405076Y80729D01*
X403366Y81000D01*
D02*
G37*
G36*
X283630Y64819D02*
X282709D01*
X281818Y64580D01*
X281020Y64120D01*
X280369Y63468D01*
X279908Y62670D01*
X279669Y61780D01*
Y60858D01*
X279908Y59968D01*
X280369Y59170D01*
X281020Y58518D01*
X281818Y58057D01*
X282709Y57819D01*
X283630D01*
X284520Y58057D01*
X285318Y58518D01*
X285970Y59170D01*
X286431Y59968D01*
X286669Y60858D01*
Y61780D01*
X286431Y62670D01*
X285970Y63468D01*
X285318Y64120D01*
X284520Y64580D01*
X283630Y64819D01*
D02*
G37*
G36*
X146524Y63736D02*
X145602D01*
X144712Y63498D01*
X143914Y63037D01*
X143262Y62385D01*
X142801Y61587D01*
X142563Y60697D01*
Y59775D01*
X142801Y58885D01*
X143262Y58087D01*
X143914Y57436D01*
X144712Y56975D01*
X145602Y56736D01*
X146524D01*
X147414Y56975D01*
X148212Y57436D01*
X148864Y58087D01*
X149325Y58885D01*
X149563Y59775D01*
Y60697D01*
X149325Y61587D01*
X148864Y62385D01*
X148212Y63037D01*
X147414Y63498D01*
X146524Y63736D01*
D02*
G37*
G36*
X306461Y58500D02*
X305539D01*
X304649Y58262D01*
X303851Y57801D01*
X303199Y57149D01*
X302738Y56351D01*
X302500Y55461D01*
Y54539D01*
X302738Y53649D01*
X303199Y52851D01*
X303851Y52199D01*
X304649Y51739D01*
X305539Y51500D01*
X306461D01*
X307351Y51739D01*
X308149Y52199D01*
X308801Y52851D01*
X309261Y53649D01*
X309500Y54539D01*
Y55461D01*
X309261Y56351D01*
X308801Y57149D01*
X308149Y57801D01*
X307351Y58262D01*
X306461Y58500D01*
D02*
G37*
G36*
X119961D02*
X119039D01*
X118149Y58262D01*
X117351Y57801D01*
X116699Y57149D01*
X116238Y56351D01*
X116000Y55461D01*
Y54539D01*
X116238Y53649D01*
X116699Y52851D01*
X117351Y52199D01*
X118149Y51739D01*
X119039Y51500D01*
X119961D01*
X120851Y51739D01*
X121649Y52199D01*
X122301Y52851D01*
X122761Y53649D01*
X123000Y54539D01*
Y55461D01*
X122761Y56351D01*
X122301Y57149D01*
X121649Y57801D01*
X120851Y58262D01*
X119961Y58500D01*
D02*
G37*
G36*
X146524Y53736D02*
X145602D01*
X144712Y53498D01*
X143914Y53037D01*
X143262Y52385D01*
X142801Y51587D01*
X142563Y50697D01*
Y49775D01*
X142801Y48885D01*
X143262Y48087D01*
X143914Y47436D01*
X144712Y46975D01*
X145602Y46736D01*
X146524D01*
X147414Y46975D01*
X148212Y47436D01*
X148864Y48087D01*
X149325Y48885D01*
X149563Y49775D01*
Y50697D01*
X149325Y51587D01*
X148864Y52385D01*
X148212Y53037D01*
X147414Y53498D01*
X146524Y53736D01*
D02*
G37*
G36*
X165717Y50547D02*
X164795D01*
X163905Y50309D01*
X163107Y49848D01*
X162455Y49196D01*
X161994Y48398D01*
X161756Y47508D01*
Y46586D01*
X161994Y45696D01*
X162455Y44898D01*
X163107Y44247D01*
X163905Y43786D01*
X164795Y43547D01*
X165717D01*
X166607Y43786D01*
X167405Y44247D01*
X168057Y44898D01*
X168517Y45696D01*
X168756Y46586D01*
Y47508D01*
X168517Y48398D01*
X168057Y49196D01*
X167405Y49848D01*
X166607Y50309D01*
X165717Y50547D01*
D02*
G37*
G36*
X254000Y45990D02*
Y43000D01*
X256990D01*
X256762Y43851D01*
X256301Y44649D01*
X255649Y45301D01*
X254851Y45761D01*
X254000Y45990D01*
D02*
G37*
G36*
X253000D02*
X252149Y45761D01*
X251351Y45301D01*
X250699Y44649D01*
X250238Y43851D01*
X250010Y43000D01*
X253000D01*
Y45990D01*
D02*
G37*
G36*
X184000Y43990D02*
Y41000D01*
X186989D01*
X186761Y41851D01*
X186301Y42649D01*
X185649Y43301D01*
X184851Y43762D01*
X184000Y43990D01*
D02*
G37*
G36*
X183000D02*
X182149Y43762D01*
X181351Y43301D01*
X180699Y42649D01*
X180238Y41851D01*
X180010Y41000D01*
X183000D01*
Y43990D01*
D02*
G37*
G36*
X256990Y42000D02*
X254000D01*
Y39011D01*
X254851Y39239D01*
X255649Y39699D01*
X256301Y40351D01*
X256762Y41149D01*
X256990Y42000D01*
D02*
G37*
G36*
X253000D02*
X250010D01*
X250238Y41149D01*
X250699Y40351D01*
X251351Y39699D01*
X252149Y39239D01*
X253000Y39011D01*
Y42000D01*
D02*
G37*
G36*
X186989Y40000D02*
X184000D01*
Y37010D01*
X184851Y37238D01*
X185649Y37699D01*
X186301Y38351D01*
X186761Y39149D01*
X186989Y40000D01*
D02*
G37*
G36*
X183000D02*
X180010D01*
X180238Y39149D01*
X180699Y38351D01*
X181351Y37699D01*
X182149Y37238D01*
X183000Y37010D01*
Y40000D01*
D02*
G37*
G36*
X306461Y43500D02*
X305539D01*
X304649Y43262D01*
X303851Y42801D01*
X303199Y42149D01*
X302738Y41351D01*
X302500Y40461D01*
Y39539D01*
X302738Y38649D01*
X303199Y37851D01*
X303851Y37199D01*
X304649Y36738D01*
X305539Y36500D01*
X306461D01*
X307351Y36738D01*
X308149Y37199D01*
X308801Y37851D01*
X309261Y38649D01*
X309500Y39539D01*
Y40461D01*
X309261Y41351D01*
X308801Y42149D01*
X308149Y42801D01*
X307351Y43262D01*
X306461Y43500D01*
D02*
G37*
G36*
X253902Y35261D02*
Y32272D01*
X256891D01*
X256663Y33123D01*
X256202Y33921D01*
X255551Y34572D01*
X254752Y35033D01*
X253902Y35261D01*
D02*
G37*
G36*
X252902D02*
X252051Y35033D01*
X251253Y34572D01*
X250601Y33921D01*
X250140Y33123D01*
X249912Y32272D01*
X252902D01*
Y35261D01*
D02*
G37*
G36*
X146461Y38130D02*
X145539D01*
X144649Y37891D01*
X143851Y37431D01*
X143199Y36779D01*
X142738Y35981D01*
X142500Y35091D01*
Y34169D01*
X142738Y33279D01*
X143199Y32481D01*
X143851Y31829D01*
X144649Y31368D01*
X145539Y31130D01*
X146461D01*
X147351Y31368D01*
X148149Y31829D01*
X148801Y32481D01*
X149261Y33279D01*
X149500Y34169D01*
Y35091D01*
X149261Y35981D01*
X148801Y36779D01*
X148149Y37431D01*
X147351Y37891D01*
X146461Y38130D01*
D02*
G37*
G36*
X256891Y31272D02*
X253902D01*
Y28282D01*
X254752Y28510D01*
X255551Y28971D01*
X256202Y29623D01*
X256663Y30421D01*
X256891Y31272D01*
D02*
G37*
G36*
X252902D02*
X249912D01*
X250140Y30421D01*
X250601Y29623D01*
X251253Y28971D01*
X252051Y28510D01*
X252902Y28282D01*
Y31272D01*
D02*
G37*
G36*
X161091Y34799D02*
X160169D01*
X159279Y34561D01*
X158481Y34100D01*
X157829Y33448D01*
X157368Y32650D01*
X157130Y31760D01*
Y30838D01*
X157368Y29948D01*
X157829Y29150D01*
X158481Y28499D01*
X159279Y28038D01*
X160169Y27799D01*
X161091D01*
X161981Y28038D01*
X162779Y28499D01*
X163431Y29150D01*
X163891Y29948D01*
X164130Y30838D01*
Y31760D01*
X163891Y32650D01*
X163431Y33448D01*
X162779Y34100D01*
X161981Y34561D01*
X161091Y34799D01*
D02*
G37*
G36*
X119961Y33500D02*
X119039D01*
X118149Y33261D01*
X117351Y32801D01*
X116699Y32149D01*
X116238Y31351D01*
X116000Y30461D01*
Y29539D01*
X116238Y28649D01*
X116699Y27851D01*
X117351Y27199D01*
X118149Y26739D01*
X119039Y26500D01*
X119961D01*
X120851Y26739D01*
X121649Y27199D01*
X122301Y27851D01*
X122761Y28649D01*
X123000Y29539D01*
Y30461D01*
X122761Y31351D01*
X122301Y32149D01*
X121649Y32801D01*
X120851Y33261D01*
X119961Y33500D01*
D02*
G37*
G36*
X306461Y32500D02*
X305539D01*
X304649Y32261D01*
X303851Y31801D01*
X303199Y31149D01*
X302738Y30351D01*
X302500Y29461D01*
Y28539D01*
X302738Y27649D01*
X303199Y26851D01*
X303851Y26199D01*
X304649Y25738D01*
X305539Y25500D01*
X306461D01*
X307351Y25738D01*
X308149Y26199D01*
X308801Y26851D01*
X309261Y27649D01*
X309500Y28539D01*
Y29461D01*
X309261Y30351D01*
X308801Y31149D01*
X308149Y31801D01*
X307351Y32261D01*
X306461Y32500D01*
D02*
G37*
G36*
X146500Y28119D02*
Y25130D01*
X149489D01*
X149261Y25981D01*
X148801Y26779D01*
X148149Y27431D01*
X147351Y27891D01*
X146500Y28119D01*
D02*
G37*
G36*
X145500D02*
X144649Y27891D01*
X143851Y27431D01*
X143199Y26779D01*
X142738Y25981D01*
X142510Y25130D01*
X145500D01*
Y28119D01*
D02*
G37*
G36*
X253803Y24828D02*
Y21839D01*
X256793D01*
X256565Y22690D01*
X256104Y23488D01*
X255452Y24139D01*
X254654Y24600D01*
X253803Y24828D01*
D02*
G37*
G36*
X252803D02*
X251952Y24600D01*
X251154Y24139D01*
X250502Y23488D01*
X250042Y22690D01*
X249814Y21839D01*
X252803D01*
Y24828D01*
D02*
G37*
G36*
X149489Y24130D02*
X146500D01*
Y21140D01*
X147351Y21368D01*
X148149Y21829D01*
X148801Y22481D01*
X149261Y23279D01*
X149489Y24130D01*
D02*
G37*
G36*
X145500D02*
X142510D01*
X142738Y23279D01*
X143199Y22481D01*
X143851Y21829D01*
X144649Y21368D01*
X145500Y21140D01*
Y24130D01*
D02*
G37*
G36*
X180677Y26236D02*
X179756D01*
X178866Y25998D01*
X178068Y25537D01*
X177416Y24885D01*
X176955Y24087D01*
X176716Y23197D01*
Y22275D01*
X176955Y21385D01*
X177416Y20587D01*
X178068Y19936D01*
X178866Y19475D01*
X179756Y19236D01*
X180677D01*
X181568Y19475D01*
X182366Y19936D01*
X183017Y20587D01*
X183478Y21385D01*
X183716Y22275D01*
Y23197D01*
X183478Y24087D01*
X183017Y24885D01*
X182366Y25537D01*
X181568Y25998D01*
X180677Y26236D01*
D02*
G37*
G36*
X256793Y20839D02*
X253803D01*
Y17849D01*
X254654Y18077D01*
X255452Y18538D01*
X256104Y19189D01*
X256565Y19988D01*
X256793Y20839D01*
D02*
G37*
G36*
X252803D02*
X249814D01*
X250042Y19988D01*
X250502Y19189D01*
X251154Y18538D01*
X251952Y18077D01*
X252803Y17849D01*
Y20839D01*
D02*
G37*
%LPD*%
D49*
X205807Y328543D02*
D03*
X225492D02*
D03*
D50*
X51575Y254429D02*
D03*
X53937Y138504D02*
D03*
X54000Y31130D02*
D03*
D51*
X51575Y244429D02*
D03*
X53937Y128504D02*
D03*
X54000Y21130D02*
D03*
D52*
X19000Y134630D02*
D03*
D53*
Y144630D02*
D03*
Y154630D02*
D03*
Y164630D02*
D03*
Y174630D02*
D03*
Y184630D02*
D03*
Y194630D02*
D03*
Y204630D02*
D03*
Y214630D02*
D03*
Y224630D02*
D03*
Y234630D02*
D03*
Y244630D02*
D03*
Y254630D02*
D03*
Y264630D02*
D03*
Y274630D02*
D03*
D54*
X402500Y70000D02*
D03*
X405500Y179000D02*
D03*
X405512Y300197D02*
D03*
D55*
X146161Y77205D02*
D03*
Y87205D02*
D03*
X146063Y50236D02*
D03*
Y60236D02*
D03*
X148000Y302630D02*
D03*
Y312630D02*
D03*
Y275500D02*
D03*
Y285500D02*
D03*
X52000Y290000D02*
D03*
Y280000D02*
D03*
X148031Y247284D02*
D03*
Y257283D02*
D03*
X144000Y186630D02*
D03*
Y196630D02*
D03*
Y160630D02*
D03*
Y170630D02*
D03*
X53740Y173917D02*
D03*
Y163917D02*
D03*
X144000Y134630D02*
D03*
Y144630D02*
D03*
X53771Y68500D02*
D03*
Y58500D02*
D03*
X146000Y24630D02*
D03*
Y34630D02*
D03*
X163976Y269264D02*
D03*
X158760Y141732D02*
D03*
X223425Y168701D02*
D03*
X211811Y168405D02*
D03*
X213189Y208760D02*
D03*
X199016Y278543D02*
D03*
X197047Y265551D02*
D03*
X212894D02*
D03*
X71260Y269193D02*
D03*
X63681Y263386D02*
D03*
X250492Y228051D02*
D03*
X263287Y201673D02*
D03*
X276870D02*
D03*
X161319Y159646D02*
D03*
X83169Y240059D02*
D03*
X283169Y61319D02*
D03*
X179134Y126673D02*
D03*
X258000Y138000D02*
D03*
X202618Y145787D02*
D03*
X183000Y145000D02*
D03*
X258000Y148000D02*
D03*
X310000Y154000D02*
D03*
X199114Y162598D02*
D03*
X258000Y158500D02*
D03*
X183500Y40500D02*
D03*
X306000Y40000D02*
D03*
Y55000D02*
D03*
X255200Y258000D02*
D03*
X311000Y255000D02*
D03*
Y266000D02*
D03*
X309000Y172000D02*
D03*
X310000Y143000D02*
D03*
X306000Y29000D02*
D03*
X372000Y72000D02*
D03*
X37106Y252953D02*
D03*
X92618Y215256D02*
D03*
X161319Y186811D02*
D03*
X42126Y95472D02*
D03*
X165354Y77953D02*
D03*
X163779Y292520D02*
D03*
X39764Y170374D02*
D03*
X39469Y138287D02*
D03*
X31201Y170079D02*
D03*
X68405Y146752D02*
D03*
X165256Y47047D02*
D03*
X283465Y85925D02*
D03*
X200500Y70000D02*
D03*
X167520Y226969D02*
D03*
X160630Y31299D02*
D03*
X180217Y22736D02*
D03*
X44094Y231201D02*
D03*
X110630Y230807D02*
D03*
X178051Y237303D02*
D03*
X246949Y171063D02*
D03*
X287106Y313189D02*
D03*
X247146Y192717D02*
D03*
X196000Y172000D02*
D03*
X253303Y21339D02*
D03*
X253402Y31772D02*
D03*
X253500Y42500D02*
D03*
X307087Y85630D02*
D03*
Y96457D02*
D03*
Y107283D02*
D03*
X255300Y266800D02*
D03*
X307500Y204500D02*
D03*
Y215500D02*
D03*
Y227500D02*
D03*
X307000Y312500D02*
D03*
Y323500D02*
D03*
Y335000D02*
D03*
X183500Y193000D02*
D03*
X119500Y55000D02*
D03*
X373000Y187000D02*
D03*
X119500Y165000D02*
D03*
X375500Y298000D02*
D03*
X121000Y281000D02*
D03*
X118000Y330000D02*
D03*
X119500Y30000D02*
D03*
X66500Y39000D02*
D03*
X74000Y155000D02*
D03*
X308864Y282628D02*
D03*
X120500Y256000D02*
D03*
X255200Y249000D02*
D03*
X274500Y313000D02*
D03*
X39500Y147000D02*
D03*
X260500Y284000D02*
D03*
X119000Y140000D02*
D03*
X78500Y45000D02*
D03*
X84500Y15500D02*
D03*
X76500Y111500D02*
D03*
X36000Y270000D02*
D03*
X82500Y307500D02*
D03*
X72000Y308000D02*
D03*
X182000Y256500D02*
D03*
M02*
