G04*
G04 #@! TF.GenerationSoftware,Altium Limited,Altium Designer,23.10.1 (27)*
G04*
G04 Layer_Physical_Order=1*
G04 Layer_Color=255*
%FSLAX25Y25*%
%MOIN*%
G70*
G04*
G04 #@! TF.SameCoordinates,D58E8A5F-C196-4DC0-9E6E-83BCDBF650AB*
G04*
G04*
G04 #@! TF.FilePolarity,Positive*
G04*
G01*
G75*
%ADD14R,0.02362X0.03937*%
%ADD15R,0.05512X0.04331*%
%ADD16R,0.05512X0.05118*%
%ADD17R,0.04331X0.05512*%
%ADD18R,0.05118X0.05512*%
%ADD19R,0.05315X0.04528*%
%ADD20R,0.06299X0.12205*%
%ADD21R,0.04528X0.05315*%
%ADD22R,0.37008X0.42520*%
%ADD23R,0.18110X0.03150*%
%ADD24R,0.03740X0.03543*%
%ADD25R,0.05906X0.02559*%
%ADD46R,0.05800X0.02200*%
%ADD47C,0.02000*%
%ADD48C,0.04000*%
%ADD49C,0.07000*%
%ADD50C,0.06500*%
%ADD51C,0.06000*%
%ADD52R,0.05906X0.05906*%
%ADD53C,0.05906*%
%ADD54C,0.20000*%
%ADD55C,0.05000*%
G36*
X358000Y346260D02*
Y298622D01*
X357815D01*
X356693Y297500D01*
X309500D01*
X299500Y307500D01*
Y338870D01*
X308130Y347500D01*
X356929D01*
X358000Y346260D01*
D02*
G37*
G36*
X317976Y278252D02*
X328031D01*
Y276252D01*
X317976D01*
Y274677D01*
Y273252D01*
X328031D01*
Y272252D01*
X329031D01*
Y269677D01*
X338000D01*
Y264827D01*
X329031D01*
Y262252D01*
X328031D01*
Y261252D01*
X317976D01*
Y259677D01*
Y258252D01*
X328031D01*
Y256252D01*
X317976D01*
Y254677D01*
Y253252D01*
X328031D01*
Y252252D01*
X329031D01*
Y249677D01*
X337470D01*
X337677Y249177D01*
X335000Y246500D01*
X293602D01*
X293527Y246496D01*
X291000Y249024D01*
X291000Y269600D01*
X292660Y271260D01*
X308260D01*
X316000Y279000D01*
X317976D01*
Y278252D01*
D02*
G37*
G36*
X260088Y273000D02*
X260274D01*
X274700Y273000D01*
X278500Y269200D01*
Y252631D01*
X275484Y249311D01*
X268675D01*
X263259Y243895D01*
X251376D01*
X247633Y247638D01*
X247633Y271883D01*
X250660Y274406D01*
X258607Y274481D01*
X260088Y273000D01*
D02*
G37*
G36*
X397638Y334646D02*
X406695Y334646D01*
X423228Y319976D01*
X423228Y274606D01*
X401122Y252500D01*
X394000D01*
X384000Y242500D01*
X343307D01*
X341634Y244390D01*
X341500D01*
Y288878D01*
X343370Y290748D01*
X344094Y291000D01*
X384504D01*
X387795Y294291D01*
X387795Y307105D01*
X384846Y310000D01*
X383134D01*
Y311252D01*
X373079D01*
X363024D01*
Y310000D01*
X362500D01*
X361500Y311000D01*
Y342000D01*
X390283D01*
X397638Y334646D01*
D02*
G37*
G36*
X357283Y233717D02*
X357283Y186909D01*
X357217D01*
X355807Y185500D01*
X316000D01*
X299000Y202500D01*
X299000Y229500D01*
X304500Y235000D01*
X356000D01*
X357283Y233717D01*
D02*
G37*
G36*
X316976Y165252D02*
X327031D01*
Y163252D01*
X316976D01*
Y161677D01*
Y160252D01*
X327031D01*
Y159252D01*
X328031D01*
Y156677D01*
X336750D01*
Y151827D01*
X328031D01*
Y149252D01*
X327031D01*
Y148252D01*
X316976D01*
Y146677D01*
Y145252D01*
X327031D01*
Y143252D01*
X316976D01*
Y141677D01*
Y140252D01*
X327031D01*
Y139252D01*
X328031D01*
Y136677D01*
X336750D01*
Y134000D01*
X300000D01*
X298000Y136000D01*
X292000D01*
X289000Y139000D01*
Y156000D01*
X292000Y159000D01*
X307000D01*
X314000Y166000D01*
X316976D01*
Y165252D01*
D02*
G37*
G36*
X261934Y163676D02*
X270313Y163687D01*
X276000Y158000D01*
Y136221D01*
X274882Y135000D01*
X268287D01*
X263996Y130709D01*
X253563Y130709D01*
X250118Y134154D01*
Y162106D01*
X253366Y165354D01*
X260256D01*
X261934Y163676D01*
D02*
G37*
G36*
X394559Y222441D02*
X407480D01*
X422500Y207421D01*
Y156050D01*
X406692Y135500D01*
X391000D01*
X385000Y129500D01*
X343110D01*
X342000Y130539D01*
Y178000D01*
X343000Y179000D01*
X383823D01*
X385728Y180905D01*
X385728Y195965D01*
X383693Y198000D01*
X382846D01*
Y199252D01*
X372791D01*
X362736D01*
Y198000D01*
X362171D01*
Y228600D01*
X363071Y229500D01*
X387500D01*
X394559Y222441D01*
D02*
G37*
G36*
X355514Y117912D02*
X355206Y117512D01*
X354799Y117512D01*
X336768D01*
Y96252D01*
X355272D01*
Y117016D01*
X355272Y117446D01*
X355671Y117754D01*
X356299Y117126D01*
Y72835D01*
X354331Y70866D01*
X308071D01*
X299311Y79626D01*
Y112303D01*
X308071Y121063D01*
X352362D01*
X355514Y117912D01*
D02*
G37*
G36*
X314421Y51268D02*
Y51000D01*
X324476D01*
Y49000D01*
X314421D01*
Y47425D01*
Y46000D01*
X324476D01*
Y45000D01*
X325476D01*
Y42425D01*
X334531D01*
X334547Y41932D01*
Y38068D01*
X334531Y37575D01*
X325476D01*
Y35000D01*
X324476D01*
Y34000D01*
X314421D01*
Y32425D01*
Y31000D01*
X324476D01*
Y29000D01*
X314421D01*
Y27425D01*
Y26000D01*
X324476D01*
Y25000D01*
X325476D01*
Y22425D01*
X332992D01*
X333184Y21963D01*
X331299Y20079D01*
X293683D01*
X286000Y26517D01*
Y43000D01*
X289000Y46000D01*
X308500D01*
X313959Y51459D01*
X314421Y51268D01*
D02*
G37*
G36*
X394783Y103347D02*
X404921D01*
X419291Y88976D01*
Y34350D01*
X404626Y19685D01*
X394783D01*
X390059Y14961D01*
X340945Y14961D01*
X339567Y16339D01*
Y62992D01*
X341535Y64961D01*
X377953D01*
X381890Y68898D01*
Y80709D01*
X381846Y80752D01*
Y82677D01*
Y84252D01*
X371791D01*
Y86252D01*
X381846D01*
Y87677D01*
Y89252D01*
X371791D01*
X361736D01*
Y87677D01*
Y85368D01*
X361236Y85100D01*
X361221Y85111D01*
Y113221D01*
X362000Y114000D01*
X384130D01*
X394783Y103347D01*
D02*
G37*
G36*
X259898Y47323D02*
X268677D01*
X271709Y44291D01*
Y23609D01*
X267400Y19300D01*
X264100D01*
X257674Y12874D01*
X247201D01*
X244445Y15630D01*
Y47520D01*
X244740D01*
X247890Y50669D01*
X256551D01*
X259898Y47323D01*
D02*
G37*
%LPC*%
G36*
X307500Y338490D02*
Y335500D01*
X310490D01*
X310262Y336351D01*
X309801Y337149D01*
X309149Y337801D01*
X308351Y338262D01*
X307500Y338490D01*
D02*
G37*
G36*
X306500D02*
X305649Y338262D01*
X304851Y337801D01*
X304199Y337149D01*
X303738Y336351D01*
X303510Y335500D01*
X306500D01*
Y338490D01*
D02*
G37*
G36*
X310490Y334500D02*
X307500D01*
Y331510D01*
X308351Y331738D01*
X309149Y332199D01*
X309801Y332851D01*
X310262Y333649D01*
X310490Y334500D01*
D02*
G37*
G36*
X306500D02*
X303510D01*
X303738Y333649D01*
X304199Y332851D01*
X304851Y332199D01*
X305649Y331738D01*
X306500Y331510D01*
Y334500D01*
D02*
G37*
G36*
X307500Y326990D02*
Y324000D01*
X310490D01*
X310262Y324851D01*
X309801Y325649D01*
X309149Y326301D01*
X308351Y326762D01*
X307500Y326990D01*
D02*
G37*
G36*
X306500D02*
X305649Y326762D01*
X304851Y326301D01*
X304199Y325649D01*
X303738Y324851D01*
X303510Y324000D01*
X306500D01*
Y326990D01*
D02*
G37*
G36*
X356559Y344512D02*
X338055D01*
Y323252D01*
X356559D01*
Y344512D01*
D02*
G37*
G36*
X319551Y344551D02*
X319354Y344512D01*
X317551D01*
Y342709D01*
X317512Y342512D01*
X317551Y342315D01*
Y323252D01*
X336055D01*
Y344512D01*
X319748D01*
X319551Y344551D01*
D02*
G37*
G36*
X310490Y323000D02*
X307500D01*
Y320010D01*
X308351Y320238D01*
X309149Y320699D01*
X309801Y321351D01*
X310262Y322149D01*
X310490Y323000D01*
D02*
G37*
G36*
X306500D02*
X303510D01*
X303738Y322149D01*
X304199Y321351D01*
X304851Y320699D01*
X305649Y320238D01*
X306500Y320010D01*
Y323000D01*
D02*
G37*
G36*
X307500Y315989D02*
Y313000D01*
X310490D01*
X310262Y313851D01*
X309801Y314649D01*
X309149Y315301D01*
X308351Y315761D01*
X307500Y315989D01*
D02*
G37*
G36*
X306500D02*
X305649Y315761D01*
X304851Y315301D01*
X304199Y314649D01*
X303738Y313851D01*
X303510Y313000D01*
X306500D01*
Y315989D01*
D02*
G37*
G36*
X310490Y312000D02*
X307500D01*
Y309011D01*
X308351Y309239D01*
X309149Y309699D01*
X309801Y310351D01*
X310262Y311149D01*
X310490Y312000D01*
D02*
G37*
G36*
X306500D02*
X303510D01*
X303738Y311149D01*
X304199Y310351D01*
X304851Y309699D01*
X305649Y309239D01*
X306500Y309011D01*
Y312000D01*
D02*
G37*
G36*
X356559Y321252D02*
X338055D01*
Y299992D01*
X356559D01*
Y321252D01*
D02*
G37*
G36*
X336055D02*
X317551D01*
Y299992D01*
X336055D01*
Y321252D01*
D02*
G37*
G36*
X327031Y271252D02*
X317976D01*
Y269677D01*
X327031D01*
Y271252D01*
D02*
G37*
G36*
X311500Y269490D02*
Y266500D01*
X314490D01*
X314262Y267351D01*
X313801Y268149D01*
X313149Y268801D01*
X312351Y269262D01*
X311500Y269490D01*
D02*
G37*
G36*
X310500D02*
X309649Y269262D01*
X308851Y268801D01*
X308199Y268149D01*
X307738Y267351D01*
X307510Y266500D01*
X310500D01*
Y269490D01*
D02*
G37*
G36*
X327031Y264827D02*
X317976D01*
Y263252D01*
X327031D01*
Y264827D01*
D02*
G37*
G36*
X314490Y265500D02*
X311500D01*
Y262510D01*
X312351Y262738D01*
X313149Y263199D01*
X313801Y263851D01*
X314262Y264649D01*
X314490Y265500D01*
D02*
G37*
G36*
X310500D02*
X307510D01*
X307738Y264649D01*
X308199Y263851D01*
X308851Y263199D01*
X309649Y262738D01*
X310500Y262510D01*
Y265500D01*
D02*
G37*
G36*
X301645Y268602D02*
X298495D01*
Y262500D01*
X301645D01*
Y268602D01*
D02*
G37*
G36*
X296495D02*
X293346D01*
Y262500D01*
X296495D01*
Y268602D01*
D02*
G37*
G36*
X311500Y258489D02*
Y255500D01*
X314490D01*
X314262Y256351D01*
X313801Y257149D01*
X313149Y257801D01*
X312351Y258261D01*
X311500Y258489D01*
D02*
G37*
G36*
X310500D02*
X309649Y258261D01*
X308851Y257801D01*
X308199Y257149D01*
X307738Y256351D01*
X307510Y255500D01*
X310500D01*
Y258489D01*
D02*
G37*
G36*
X301645Y260500D02*
X298495D01*
Y254398D01*
X301645D01*
Y260500D01*
D02*
G37*
G36*
X296495D02*
X293346D01*
Y254398D01*
X296495D01*
Y260500D01*
D02*
G37*
G36*
X314490Y254500D02*
X311500D01*
Y251511D01*
X312351Y251739D01*
X313149Y252199D01*
X313801Y252851D01*
X314262Y253649D01*
X314490Y254500D01*
D02*
G37*
G36*
X310500D02*
X307510D01*
X307738Y253649D01*
X308199Y252851D01*
X308851Y252199D01*
X309649Y251739D01*
X310500Y251511D01*
Y254500D01*
D02*
G37*
G36*
X327031Y251252D02*
X317976D01*
Y249677D01*
X327031D01*
Y251252D01*
D02*
G37*
G36*
X255800Y270289D02*
Y267300D01*
X258789D01*
X258561Y268151D01*
X258101Y268949D01*
X257449Y269601D01*
X256651Y270061D01*
X255800Y270289D01*
D02*
G37*
G36*
X254800D02*
X253949Y270061D01*
X253151Y269601D01*
X252499Y268949D01*
X252039Y268151D01*
X251811Y267300D01*
X254800D01*
Y270289D01*
D02*
G37*
G36*
X258789Y266300D02*
X255800D01*
Y263311D01*
X256651Y263539D01*
X257449Y263999D01*
X258101Y264651D01*
X258561Y265449D01*
X258789Y266300D01*
D02*
G37*
G36*
X254800D02*
X251811D01*
X252039Y265449D01*
X252499Y264651D01*
X253151Y263999D01*
X253949Y263539D01*
X254800Y263311D01*
Y266300D01*
D02*
G37*
G36*
X276054Y268602D02*
X272905D01*
Y262500D01*
X276054D01*
Y268602D01*
D02*
G37*
G36*
X270905D02*
X267755D01*
Y262500D01*
X270905D01*
Y268602D01*
D02*
G37*
G36*
X255700Y261490D02*
Y258500D01*
X258689D01*
X258461Y259351D01*
X258001Y260149D01*
X257349Y260801D01*
X256551Y261262D01*
X255700Y261490D01*
D02*
G37*
G36*
X254700D02*
X253849Y261262D01*
X253051Y260801D01*
X252399Y260149D01*
X251939Y259351D01*
X251711Y258500D01*
X254700D01*
Y261490D01*
D02*
G37*
G36*
X258689Y257500D02*
X255700D01*
Y254510D01*
X256551Y254738D01*
X257349Y255199D01*
X258001Y255851D01*
X258461Y256649D01*
X258689Y257500D01*
D02*
G37*
G36*
X254700D02*
X251711D01*
X251939Y256649D01*
X252399Y255851D01*
X253051Y255199D01*
X253849Y254738D01*
X254700Y254510D01*
Y257500D01*
D02*
G37*
G36*
X276054Y260500D02*
X272905D01*
Y254398D01*
X276054D01*
Y260500D01*
D02*
G37*
G36*
X270905D02*
X267755D01*
Y254398D01*
X270905D01*
Y260500D01*
D02*
G37*
G36*
X255700Y252489D02*
Y249500D01*
X258689D01*
X258461Y250351D01*
X258001Y251149D01*
X257349Y251801D01*
X256551Y252261D01*
X255700Y252489D01*
D02*
G37*
G36*
X254700D02*
X253849Y252261D01*
X253051Y251801D01*
X252399Y251149D01*
X251939Y250351D01*
X251711Y249500D01*
X254700D01*
Y252489D01*
D02*
G37*
G36*
X258689Y248500D02*
X255700D01*
Y245511D01*
X256551Y245739D01*
X257349Y246199D01*
X258001Y246851D01*
X258461Y247649D01*
X258689Y248500D01*
D02*
G37*
G36*
X254700D02*
X251711D01*
X251939Y247649D01*
X252399Y246851D01*
X253051Y246199D01*
X253849Y245739D01*
X254700Y245511D01*
Y248500D01*
D02*
G37*
G36*
X383134Y339827D02*
X374079D01*
Y338252D01*
X383134D01*
Y339827D01*
D02*
G37*
G36*
X372079D02*
X363024D01*
Y338252D01*
X372079D01*
Y339827D01*
D02*
G37*
G36*
X383134Y336252D02*
X373079D01*
X363024D01*
Y334677D01*
Y333252D01*
X373079D01*
X383134D01*
Y334677D01*
Y336252D01*
D02*
G37*
G36*
Y331252D02*
X373079D01*
X363024D01*
Y329677D01*
Y328252D01*
X373079D01*
X383134D01*
Y329677D01*
Y331252D01*
D02*
G37*
G36*
Y326252D02*
X374079D01*
Y324677D01*
X383134D01*
Y326252D01*
D02*
G37*
G36*
X372079D02*
X363024D01*
Y324677D01*
X372079D01*
Y326252D01*
D02*
G37*
G36*
X383134Y319827D02*
X374079D01*
Y318252D01*
X383134D01*
Y319827D01*
D02*
G37*
G36*
X372079D02*
X363024D01*
Y318252D01*
X372079D01*
Y319827D01*
D02*
G37*
G36*
X383134Y316252D02*
X373079D01*
X363024D01*
Y314677D01*
Y313252D01*
X373079D01*
X383134D01*
Y314677D01*
Y316252D01*
D02*
G37*
G36*
X406378Y311197D02*
X406012D01*
Y300697D01*
X416512D01*
Y301063D01*
X416241Y302773D01*
X415706Y304419D01*
X414920Y305962D01*
X413902Y307363D01*
X412678Y308587D01*
X411277Y309605D01*
X409734Y310391D01*
X408088Y310926D01*
X406378Y311197D01*
D02*
G37*
G36*
X405012D02*
X404646D01*
X402936Y310926D01*
X401289Y310391D01*
X399747Y309605D01*
X398346Y308587D01*
X397122Y307363D01*
X396104Y305962D01*
X395318Y304419D01*
X394783Y302773D01*
X394512Y301063D01*
Y300697D01*
X405012D01*
Y311197D01*
D02*
G37*
G36*
X416512Y299697D02*
X406012D01*
Y289197D01*
X406378D01*
X408088Y289468D01*
X409734Y290003D01*
X411277Y290789D01*
X412678Y291807D01*
X413902Y293031D01*
X414920Y294432D01*
X415706Y295974D01*
X416241Y297621D01*
X416512Y299331D01*
Y299697D01*
D02*
G37*
G36*
X405012D02*
X394512D01*
Y299331D01*
X394783Y297621D01*
X395318Y295974D01*
X396104Y294432D01*
X397122Y293031D01*
X398346Y291807D01*
X399747Y290789D01*
X401289Y290003D01*
X402936Y289468D01*
X404646Y289197D01*
X405012D01*
Y299697D01*
D02*
G37*
G36*
X383559Y289512D02*
X365055D01*
Y268252D01*
X383559D01*
Y289512D01*
D02*
G37*
G36*
X363055D02*
X344551D01*
Y268252D01*
X363055D01*
Y289512D01*
D02*
G37*
G36*
X383559Y266252D02*
X365055D01*
Y244992D01*
X383559D01*
Y266252D01*
D02*
G37*
G36*
X363055D02*
X344551D01*
Y244992D01*
X363055D01*
Y266252D01*
D02*
G37*
G36*
X308000Y230990D02*
Y228000D01*
X310989D01*
X310761Y228851D01*
X310301Y229649D01*
X309649Y230301D01*
X308851Y230762D01*
X308000Y230990D01*
D02*
G37*
G36*
X307000D02*
X306149Y230762D01*
X305351Y230301D01*
X304699Y229649D01*
X304239Y228851D01*
X304011Y228000D01*
X307000D01*
Y230990D01*
D02*
G37*
G36*
X310989Y227000D02*
X308000D01*
Y224010D01*
X308851Y224238D01*
X309649Y224699D01*
X310301Y225351D01*
X310761Y226149D01*
X310989Y227000D01*
D02*
G37*
G36*
X307000D02*
X304011D01*
X304239Y226149D01*
X304699Y225351D01*
X305351Y224699D01*
X306149Y224238D01*
X307000Y224010D01*
Y227000D01*
D02*
G37*
G36*
X308000Y218989D02*
Y216000D01*
X310989D01*
X310761Y216851D01*
X310301Y217649D01*
X309649Y218301D01*
X308851Y218761D01*
X308000Y218989D01*
D02*
G37*
G36*
X307000D02*
X306149Y218761D01*
X305351Y218301D01*
X304699Y217649D01*
X304239Y216851D01*
X304011Y216000D01*
X307000D01*
Y218989D01*
D02*
G37*
G36*
X310989Y215000D02*
X308000D01*
Y212011D01*
X308851Y212239D01*
X309649Y212699D01*
X310301Y213351D01*
X310761Y214149D01*
X310989Y215000D01*
D02*
G37*
G36*
X307000D02*
X304011D01*
X304239Y214149D01*
X304699Y213351D01*
X305351Y212699D01*
X306149Y212239D01*
X307000Y212011D01*
Y215000D01*
D02*
G37*
G36*
X356272Y232512D02*
X337768D01*
Y211252D01*
X356272D01*
Y232512D01*
D02*
G37*
G36*
X335768D02*
X317264D01*
Y211252D01*
X335768D01*
Y232512D01*
D02*
G37*
G36*
X308000Y207990D02*
Y205000D01*
X310989D01*
X310761Y205851D01*
X310301Y206649D01*
X309649Y207301D01*
X308851Y207762D01*
X308000Y207990D01*
D02*
G37*
G36*
X307000D02*
X306149Y207762D01*
X305351Y207301D01*
X304699Y206649D01*
X304239Y205851D01*
X304011Y205000D01*
X307000D01*
Y207990D01*
D02*
G37*
G36*
X310989Y204000D02*
X308000D01*
Y201010D01*
X308851Y201238D01*
X309649Y201699D01*
X310301Y202351D01*
X310761Y203149D01*
X310989Y204000D01*
D02*
G37*
G36*
X307000D02*
X304011D01*
X304239Y203149D01*
X304699Y202351D01*
X305351Y201699D01*
X306149Y201238D01*
X307000Y201010D01*
Y204000D01*
D02*
G37*
G36*
X356272Y209252D02*
X337768D01*
Y187992D01*
X356272D01*
Y209252D01*
D02*
G37*
G36*
X335768D02*
X317264D01*
Y187992D01*
X335768D01*
Y209252D01*
D02*
G37*
G36*
X326031Y158252D02*
X316976D01*
Y156677D01*
X326031D01*
Y158252D01*
D02*
G37*
G36*
X310500Y157490D02*
Y154500D01*
X313490D01*
X313262Y155351D01*
X312801Y156149D01*
X312149Y156801D01*
X311351Y157262D01*
X310500Y157490D01*
D02*
G37*
G36*
X309500D02*
X308649Y157262D01*
X307851Y156801D01*
X307199Y156149D01*
X306738Y155351D01*
X306510Y154500D01*
X309500D01*
Y157490D01*
D02*
G37*
G36*
X313490Y153500D02*
X310500D01*
Y150511D01*
X311351Y150739D01*
X312149Y151199D01*
X312801Y151851D01*
X313262Y152649D01*
X313490Y153500D01*
D02*
G37*
G36*
X309500D02*
X306510D01*
X306738Y152649D01*
X307199Y151851D01*
X307851Y151199D01*
X308649Y150739D01*
X309500Y150511D01*
Y153500D01*
D02*
G37*
G36*
X326031Y151827D02*
X316976D01*
Y150252D01*
X326031D01*
Y151827D01*
D02*
G37*
G36*
X299000Y155228D02*
X295850D01*
Y149126D01*
X299000D01*
Y155228D01*
D02*
G37*
G36*
X293850D02*
X290701D01*
Y149126D01*
X293850D01*
Y155228D01*
D02*
G37*
G36*
X310500Y146490D02*
Y143500D01*
X313490D01*
X313262Y144351D01*
X312801Y145149D01*
X312149Y145801D01*
X311351Y146262D01*
X310500Y146490D01*
D02*
G37*
G36*
X309500D02*
X308649Y146262D01*
X307851Y145801D01*
X307199Y145149D01*
X306738Y144351D01*
X306510Y143500D01*
X309500D01*
Y146490D01*
D02*
G37*
G36*
X299000Y147126D02*
X295850D01*
Y141024D01*
X299000D01*
Y147126D01*
D02*
G37*
G36*
X293850D02*
X290701D01*
Y141024D01*
X293850D01*
Y147126D01*
D02*
G37*
G36*
X313490Y142500D02*
X310500D01*
Y139511D01*
X311351Y139739D01*
X312149Y140199D01*
X312801Y140851D01*
X313262Y141649D01*
X313490Y142500D01*
D02*
G37*
G36*
X309500D02*
X306510D01*
X306738Y141649D01*
X307199Y140851D01*
X307851Y140199D01*
X308649Y139739D01*
X309500Y139511D01*
Y142500D01*
D02*
G37*
G36*
X326031Y138252D02*
X316976D01*
Y136677D01*
X326031D01*
Y138252D01*
D02*
G37*
G36*
X258500Y161989D02*
Y159000D01*
X261490D01*
X261262Y159851D01*
X260801Y160649D01*
X260149Y161301D01*
X259351Y161761D01*
X258500Y161989D01*
D02*
G37*
G36*
X257500D02*
X256649Y161761D01*
X255851Y161301D01*
X255199Y160649D01*
X254738Y159851D01*
X254510Y159000D01*
X257500D01*
Y161989D01*
D02*
G37*
G36*
X261490Y158000D02*
X258500D01*
Y155010D01*
X259351Y155238D01*
X260149Y155699D01*
X260801Y156351D01*
X261262Y157149D01*
X261490Y158000D01*
D02*
G37*
G36*
X257500D02*
X254510D01*
X254738Y157149D01*
X255199Y156351D01*
X255851Y155699D01*
X256649Y155238D01*
X257500Y155010D01*
Y158000D01*
D02*
G37*
G36*
X273409Y155228D02*
X270260D01*
Y149126D01*
X273409D01*
Y155228D01*
D02*
G37*
G36*
X268260D02*
X265110D01*
Y149126D01*
X268260D01*
Y155228D01*
D02*
G37*
G36*
X258500Y151489D02*
Y148500D01*
X261490D01*
X261262Y149351D01*
X260801Y150149D01*
X260149Y150801D01*
X259351Y151261D01*
X258500Y151489D01*
D02*
G37*
G36*
X257500D02*
X256649Y151261D01*
X255851Y150801D01*
X255199Y150149D01*
X254738Y149351D01*
X254510Y148500D01*
X257500D01*
Y151489D01*
D02*
G37*
G36*
X261490Y147500D02*
X258500D01*
Y144510D01*
X259351Y144738D01*
X260149Y145199D01*
X260801Y145851D01*
X261262Y146649D01*
X261490Y147500D01*
D02*
G37*
G36*
X257500D02*
X254510D01*
X254738Y146649D01*
X255199Y145851D01*
X255851Y145199D01*
X256649Y144738D01*
X257500Y144510D01*
Y147500D01*
D02*
G37*
G36*
X273409Y147126D02*
X270260D01*
Y141024D01*
X273409D01*
Y147126D01*
D02*
G37*
G36*
X268260D02*
X265110D01*
Y141024D01*
X268260D01*
Y147126D01*
D02*
G37*
G36*
X258500Y141490D02*
Y138500D01*
X261490D01*
X261262Y139351D01*
X260801Y140149D01*
X260149Y140801D01*
X259351Y141261D01*
X258500Y141490D01*
D02*
G37*
G36*
X257500D02*
X256649Y141261D01*
X255851Y140801D01*
X255199Y140149D01*
X254738Y139351D01*
X254510Y138500D01*
X257500D01*
Y141490D01*
D02*
G37*
G36*
X261490Y137500D02*
X258500D01*
Y134511D01*
X259351Y134739D01*
X260149Y135199D01*
X260801Y135851D01*
X261262Y136649D01*
X261490Y137500D01*
D02*
G37*
G36*
X257500D02*
X254510D01*
X254738Y136649D01*
X255199Y135851D01*
X255851Y135199D01*
X256649Y134739D01*
X257500Y134511D01*
Y137500D01*
D02*
G37*
G36*
X382846Y227827D02*
X373791D01*
Y226252D01*
X382846D01*
Y227827D01*
D02*
G37*
G36*
X371791D02*
X362736D01*
Y226252D01*
X371791D01*
Y227827D01*
D02*
G37*
G36*
X382846Y224252D02*
X372791D01*
X362736D01*
Y222677D01*
Y221252D01*
X372791D01*
X382846D01*
Y222677D01*
Y224252D01*
D02*
G37*
G36*
Y219252D02*
X372791D01*
X362736D01*
Y217677D01*
Y216252D01*
X372791D01*
X382846D01*
Y217677D01*
Y219252D01*
D02*
G37*
G36*
Y214252D02*
X373791D01*
Y212677D01*
X382846D01*
Y214252D01*
D02*
G37*
G36*
X371791D02*
X362736D01*
Y212677D01*
X371791D01*
Y214252D01*
D02*
G37*
G36*
X382846Y207827D02*
X373791D01*
Y206252D01*
X382846D01*
Y207827D01*
D02*
G37*
G36*
X371791D02*
X362736D01*
Y206252D01*
X371791D01*
Y207827D01*
D02*
G37*
G36*
X382846Y204252D02*
X372791D01*
X362736D01*
Y202677D01*
Y201252D01*
X372791D01*
X382846D01*
Y202677D01*
Y204252D01*
D02*
G37*
G36*
X406366Y190000D02*
X406000D01*
Y179500D01*
X416500D01*
Y179866D01*
X416229Y181576D01*
X415694Y183222D01*
X414908Y184765D01*
X413890Y186166D01*
X412666Y187390D01*
X411265Y188408D01*
X409723Y189194D01*
X408076Y189729D01*
X406366Y190000D01*
D02*
G37*
G36*
X405000D02*
X404634D01*
X402924Y189729D01*
X401277Y189194D01*
X399735Y188408D01*
X398334Y187390D01*
X397110Y186166D01*
X396092Y184765D01*
X395306Y183222D01*
X394771Y181576D01*
X394500Y179866D01*
Y179500D01*
X405000D01*
Y190000D01*
D02*
G37*
G36*
X416500Y178500D02*
X406000D01*
Y168000D01*
X406366D01*
X408076Y168271D01*
X409723Y168806D01*
X411265Y169592D01*
X412666Y170610D01*
X413890Y171834D01*
X414908Y173235D01*
X415694Y174777D01*
X416229Y176424D01*
X416500Y178134D01*
Y178500D01*
D02*
G37*
G36*
X405000D02*
X394500D01*
Y178134D01*
X394771Y176424D01*
X395306Y174777D01*
X396092Y173235D01*
X397110Y171834D01*
X398334Y170610D01*
X399735Y169592D01*
X401277Y168806D01*
X402924Y168271D01*
X404634Y168000D01*
X405000D01*
Y178500D01*
D02*
G37*
G36*
X382559Y176512D02*
X364055D01*
Y155252D01*
X382559D01*
Y176512D01*
D02*
G37*
G36*
X362055D02*
X343551D01*
Y155252D01*
X362055D01*
Y176512D01*
D02*
G37*
G36*
X382559Y153252D02*
X364055D01*
Y131992D01*
X382559D01*
Y153252D01*
D02*
G37*
G36*
X362055D02*
X343551D01*
Y131992D01*
X362055D01*
Y153252D01*
D02*
G37*
G36*
X307587Y110773D02*
Y107783D01*
X310576D01*
X310348Y108634D01*
X309887Y109432D01*
X309236Y110084D01*
X308438Y110545D01*
X307587Y110773D01*
D02*
G37*
G36*
X306587D02*
X305736Y110545D01*
X304938Y110084D01*
X304286Y109432D01*
X303825Y108634D01*
X303597Y107783D01*
X306587D01*
Y110773D01*
D02*
G37*
G36*
X310576Y106783D02*
X307587D01*
Y103794D01*
X308438Y104022D01*
X309236Y104483D01*
X309887Y105134D01*
X310348Y105932D01*
X310576Y106783D01*
D02*
G37*
G36*
X306587D02*
X303597D01*
X303825Y105932D01*
X304286Y105134D01*
X304938Y104483D01*
X305736Y104022D01*
X306587Y103794D01*
Y106783D01*
D02*
G37*
G36*
X307587Y99946D02*
Y96957D01*
X310576D01*
X310348Y97808D01*
X309887Y98606D01*
X309236Y99257D01*
X308438Y99718D01*
X307587Y99946D01*
D02*
G37*
G36*
X306587D02*
X305736Y99718D01*
X304938Y99257D01*
X304286Y98606D01*
X303825Y97808D01*
X303597Y96957D01*
X306587D01*
Y99946D01*
D02*
G37*
G36*
X334768Y117512D02*
X316264D01*
Y96252D01*
X334768D01*
Y117512D01*
D02*
G37*
G36*
X310576Y95957D02*
X307587D01*
Y92967D01*
X308438Y93195D01*
X309236Y93656D01*
X309887Y94308D01*
X310348Y95106D01*
X310576Y95957D01*
D02*
G37*
G36*
X306587D02*
X303597D01*
X303825Y95106D01*
X304286Y94308D01*
X304938Y93656D01*
X305736Y93195D01*
X306587Y92967D01*
Y95957D01*
D02*
G37*
G36*
X307587Y89119D02*
Y86130D01*
X310576D01*
X310348Y86981D01*
X309887Y87779D01*
X309236Y88431D01*
X308438Y88891D01*
X307587Y89119D01*
D02*
G37*
G36*
X306587D02*
X305736Y88891D01*
X304938Y88431D01*
X304286Y87779D01*
X303825Y86981D01*
X303597Y86130D01*
X306587D01*
Y89119D01*
D02*
G37*
G36*
X310576Y85130D02*
X307587D01*
Y82140D01*
X308438Y82368D01*
X309236Y82829D01*
X309887Y83481D01*
X310348Y84279D01*
X310576Y85130D01*
D02*
G37*
G36*
X306587D02*
X303597D01*
X303825Y84279D01*
X304286Y83481D01*
X304938Y82829D01*
X305736Y82368D01*
X306587Y82140D01*
Y85130D01*
D02*
G37*
G36*
X355272Y94252D02*
X336768D01*
Y72992D01*
X355272D01*
Y94252D01*
D02*
G37*
G36*
X334768D02*
X316264D01*
Y72992D01*
X334768D01*
Y94252D01*
D02*
G37*
G36*
X323476Y44000D02*
X314421D01*
Y42425D01*
X323476D01*
Y44000D01*
D02*
G37*
G36*
X306500Y43490D02*
Y40500D01*
X309489D01*
X309261Y41351D01*
X308801Y42149D01*
X308149Y42801D01*
X307351Y43262D01*
X306500Y43490D01*
D02*
G37*
G36*
X305500D02*
X304649Y43262D01*
X303851Y42801D01*
X303199Y42149D01*
X302738Y41351D01*
X302510Y40500D01*
X305500D01*
Y43490D01*
D02*
G37*
G36*
X309489Y39500D02*
X306500D01*
Y36511D01*
X307351Y36738D01*
X308149Y37199D01*
X308801Y37851D01*
X309261Y38649D01*
X309489Y39500D01*
D02*
G37*
G36*
X305500D02*
X302510D01*
X302738Y38649D01*
X303199Y37851D01*
X303851Y37199D01*
X304649Y36738D01*
X305500Y36511D01*
Y39500D01*
D02*
G37*
G36*
X323476Y37575D02*
X314421D01*
Y36000D01*
X323476D01*
Y37575D01*
D02*
G37*
G36*
X295945Y42102D02*
X292795D01*
Y36000D01*
X295945D01*
Y42102D01*
D02*
G37*
G36*
X290795D02*
X287646D01*
Y36000D01*
X290795D01*
Y42102D01*
D02*
G37*
G36*
X306500Y32489D02*
Y29500D01*
X309489D01*
X309261Y30351D01*
X308801Y31149D01*
X308149Y31801D01*
X307351Y32261D01*
X306500Y32489D01*
D02*
G37*
G36*
X305500D02*
X304649Y32261D01*
X303851Y31801D01*
X303199Y31149D01*
X302738Y30351D01*
X302510Y29500D01*
X305500D01*
Y32489D01*
D02*
G37*
G36*
X295945Y34000D02*
X292795D01*
Y27898D01*
X295945D01*
Y34000D01*
D02*
G37*
G36*
X290795D02*
X287646D01*
Y27898D01*
X290795D01*
Y34000D01*
D02*
G37*
G36*
X309489Y28500D02*
X306500D01*
Y25510D01*
X307351Y25738D01*
X308149Y26199D01*
X308801Y26851D01*
X309261Y27649D01*
X309489Y28500D01*
D02*
G37*
G36*
X305500D02*
X302510D01*
X302738Y27649D01*
X303199Y26851D01*
X303851Y26199D01*
X304649Y25738D01*
X305500Y25510D01*
Y28500D01*
D02*
G37*
G36*
X323476Y24000D02*
X314421D01*
Y22425D01*
X323476D01*
Y24000D01*
D02*
G37*
G36*
X381846Y112827D02*
X372791D01*
Y111252D01*
X381846D01*
Y112827D01*
D02*
G37*
G36*
X370791D02*
X361736D01*
Y111252D01*
X370791D01*
Y112827D01*
D02*
G37*
G36*
X381846Y109252D02*
X371791D01*
X361736D01*
Y107677D01*
Y106252D01*
X371791D01*
X381846D01*
Y107677D01*
Y109252D01*
D02*
G37*
G36*
Y104252D02*
X371791D01*
X361736D01*
Y102677D01*
Y101252D01*
X371791D01*
X381846D01*
Y102677D01*
Y104252D01*
D02*
G37*
G36*
Y99252D02*
X372791D01*
Y97677D01*
X381846D01*
Y99252D01*
D02*
G37*
G36*
X370791D02*
X361736D01*
Y97677D01*
X370791D01*
Y99252D01*
D02*
G37*
G36*
X381846Y92827D02*
X372791D01*
Y91252D01*
X381846D01*
Y92827D01*
D02*
G37*
G36*
X370791D02*
X361736D01*
Y91252D01*
X370791D01*
Y92827D01*
D02*
G37*
G36*
X403366Y81000D02*
X403000D01*
Y70500D01*
X413500D01*
Y70866D01*
X413229Y72576D01*
X412694Y74222D01*
X411908Y75765D01*
X410890Y77166D01*
X409666Y78390D01*
X408265Y79408D01*
X406722Y80194D01*
X405076Y80729D01*
X403366Y81000D01*
D02*
G37*
G36*
X402000D02*
X401634D01*
X399924Y80729D01*
X398277Y80194D01*
X396735Y79408D01*
X395334Y78390D01*
X394110Y77166D01*
X393092Y75765D01*
X392306Y74222D01*
X391771Y72576D01*
X391500Y70866D01*
Y70500D01*
X402000D01*
Y81000D01*
D02*
G37*
G36*
X413500Y69500D02*
X403000D01*
Y59000D01*
X403366D01*
X405076Y59271D01*
X406722Y59806D01*
X408265Y60592D01*
X409666Y61610D01*
X410890Y62834D01*
X411908Y64235D01*
X412694Y65777D01*
X413229Y67424D01*
X413500Y69134D01*
Y69500D01*
D02*
G37*
G36*
X402000D02*
X391500D01*
Y69134D01*
X391771Y67424D01*
X392306Y65777D01*
X393092Y64235D01*
X394110Y62834D01*
X395334Y61610D01*
X396735Y60592D01*
X398277Y59806D01*
X399924Y59271D01*
X401634Y59000D01*
X402000D01*
Y69500D01*
D02*
G37*
G36*
X380004Y62260D02*
X361500D01*
Y41000D01*
X380004D01*
Y62260D01*
D02*
G37*
G36*
X359500D02*
X340996D01*
Y41000D01*
X359500D01*
Y62260D01*
D02*
G37*
G36*
X380004Y39000D02*
X361500D01*
Y17740D01*
X380004D01*
Y39000D01*
D02*
G37*
G36*
X359500D02*
X340996D01*
Y17740D01*
X359500D01*
Y39000D01*
D02*
G37*
G36*
X254000Y45990D02*
Y43000D01*
X256990D01*
X256762Y43851D01*
X256301Y44649D01*
X255649Y45301D01*
X254851Y45761D01*
X254000Y45990D01*
D02*
G37*
G36*
X253000D02*
X252149Y45761D01*
X251351Y45301D01*
X250699Y44649D01*
X250238Y43851D01*
X250010Y43000D01*
X253000D01*
Y45990D01*
D02*
G37*
G36*
X256990Y42000D02*
X254000D01*
Y39011D01*
X254851Y39239D01*
X255649Y39699D01*
X256301Y40351D01*
X256762Y41149D01*
X256990Y42000D01*
D02*
G37*
G36*
X253000D02*
X250010D01*
X250238Y41149D01*
X250699Y40351D01*
X251351Y39699D01*
X252149Y39239D01*
X253000Y39011D01*
Y42000D01*
D02*
G37*
G36*
X270354Y42102D02*
X267205D01*
Y36000D01*
X270354D01*
Y42102D01*
D02*
G37*
G36*
X265205D02*
X262055D01*
Y36000D01*
X265205D01*
Y42102D01*
D02*
G37*
G36*
X253902Y35261D02*
Y32272D01*
X256891D01*
X256663Y33123D01*
X256202Y33921D01*
X255551Y34572D01*
X254752Y35033D01*
X253902Y35261D01*
D02*
G37*
G36*
X252902D02*
X252051Y35033D01*
X251253Y34572D01*
X250601Y33921D01*
X250140Y33123D01*
X249912Y32272D01*
X252902D01*
Y35261D01*
D02*
G37*
G36*
X256891Y31272D02*
X253902D01*
Y28282D01*
X254752Y28510D01*
X255551Y28971D01*
X256202Y29623D01*
X256663Y30421D01*
X256891Y31272D01*
D02*
G37*
G36*
X252902D02*
X249912D01*
X250140Y30421D01*
X250601Y29623D01*
X251253Y28971D01*
X252051Y28510D01*
X252902Y28282D01*
Y31272D01*
D02*
G37*
G36*
X270354Y34000D02*
X267205D01*
Y27898D01*
X270354D01*
Y34000D01*
D02*
G37*
G36*
X265205D02*
X262055D01*
Y27898D01*
X265205D01*
Y34000D01*
D02*
G37*
G36*
X253803Y24828D02*
Y21839D01*
X256793D01*
X256565Y22690D01*
X256104Y23488D01*
X255452Y24139D01*
X254654Y24600D01*
X253803Y24828D01*
D02*
G37*
G36*
X252803D02*
X251952Y24600D01*
X251154Y24139D01*
X250502Y23488D01*
X250042Y22690D01*
X249814Y21839D01*
X252803D01*
Y24828D01*
D02*
G37*
G36*
X256793Y20839D02*
X253803D01*
Y17849D01*
X254654Y18077D01*
X255452Y18538D01*
X256104Y19189D01*
X256565Y19988D01*
X256793Y20839D01*
D02*
G37*
G36*
X252803D02*
X249814D01*
X250042Y19988D01*
X250502Y19189D01*
X251154Y18538D01*
X251952Y18077D01*
X252803Y17849D01*
Y20839D01*
D02*
G37*
%LPD*%
D14*
X287378Y278000D02*
D03*
X291118D02*
D03*
X294858D02*
D03*
Y288827D02*
D03*
X287378D02*
D03*
X290496Y180854D02*
D03*
X297976D02*
D03*
Y170028D02*
D03*
X294236D02*
D03*
X290496D02*
D03*
D15*
X72000Y286937D02*
D03*
X132500Y249413D02*
D03*
X73500Y171287D02*
D03*
X128000Y135063D02*
D03*
X72000Y64937D02*
D03*
X129500Y26063D02*
D03*
D16*
X72000Y279063D02*
D03*
X132500Y257287D02*
D03*
X73500Y163413D02*
D03*
X128000Y142937D02*
D03*
X72000Y57063D02*
D03*
X129500Y33937D02*
D03*
D17*
X286331Y302000D02*
D03*
X267181D02*
D03*
X289409Y192028D02*
D03*
X269504Y191902D02*
D03*
X177563Y247000D02*
D03*
X192063Y193000D02*
D03*
X178563Y136000D02*
D03*
X179563Y32000D02*
D03*
X177811Y265496D02*
D03*
X178913Y154185D02*
D03*
X179563Y48500D02*
D03*
D18*
X294205Y302000D02*
D03*
X275055D02*
D03*
X297284Y192028D02*
D03*
X277378Y191902D02*
D03*
X185437Y247000D02*
D03*
X199937Y193000D02*
D03*
X186437Y136000D02*
D03*
X187437Y32000D02*
D03*
X185685Y265496D02*
D03*
X186787Y154185D02*
D03*
X187437Y48500D02*
D03*
D19*
X69488Y246358D02*
D03*
Y254232D02*
D03*
X74000Y131193D02*
D03*
Y139067D02*
D03*
X72000Y24118D02*
D03*
Y31992D02*
D03*
X163976Y277854D02*
D03*
Y285728D02*
D03*
X161516Y168110D02*
D03*
Y175984D02*
D03*
X165500Y69992D02*
D03*
Y62118D02*
D03*
D20*
X297495Y261500D02*
D03*
X271905D02*
D03*
X269260Y148126D02*
D03*
X294850D02*
D03*
X291795Y35000D02*
D03*
X266205D02*
D03*
D21*
X267181Y284000D02*
D03*
X275055D02*
D03*
X278433Y172028D02*
D03*
X270559D02*
D03*
X220555Y227787D02*
D03*
X212681D02*
D03*
X232681D02*
D03*
X240555D02*
D03*
X219555Y192787D02*
D03*
X211681D02*
D03*
X232681D02*
D03*
X240555D02*
D03*
X219555Y156095D02*
D03*
X211681D02*
D03*
X230626Y156287D02*
D03*
X238500D02*
D03*
X220555Y217787D02*
D03*
X212681D02*
D03*
X211614Y180020D02*
D03*
X219488D02*
D03*
X219555Y145787D02*
D03*
X211681D02*
D03*
D22*
X337055Y322252D02*
D03*
X364055Y267252D02*
D03*
X336768Y210252D02*
D03*
X363055Y154252D02*
D03*
X335768Y95252D02*
D03*
X360500Y40000D02*
D03*
D23*
X373079Y337252D02*
D03*
Y332252D02*
D03*
Y327252D02*
D03*
Y317252D02*
D03*
Y312252D02*
D03*
Y307252D02*
D03*
X328031Y282252D02*
D03*
Y277252D02*
D03*
Y272252D02*
D03*
Y262252D02*
D03*
Y257252D02*
D03*
Y252252D02*
D03*
X372791Y225252D02*
D03*
Y220252D02*
D03*
Y215252D02*
D03*
Y205252D02*
D03*
Y200252D02*
D03*
Y195252D02*
D03*
X327031Y169252D02*
D03*
Y164252D02*
D03*
Y159252D02*
D03*
Y149252D02*
D03*
Y144252D02*
D03*
Y139252D02*
D03*
X371791Y110252D02*
D03*
Y105252D02*
D03*
Y100252D02*
D03*
Y90252D02*
D03*
Y85252D02*
D03*
Y80252D02*
D03*
X324476Y55000D02*
D03*
Y50000D02*
D03*
Y45000D02*
D03*
Y35000D02*
D03*
Y30000D02*
D03*
Y25000D02*
D03*
D24*
X118000Y313122D02*
D03*
Y300721D02*
D03*
X114000Y182429D02*
D03*
Y194831D02*
D03*
X116000Y84831D02*
D03*
Y72429D02*
D03*
X252000Y301402D02*
D03*
Y289000D02*
D03*
X258268Y179035D02*
D03*
Y191437D02*
D03*
D25*
X89370Y286130D02*
D03*
Y281130D02*
D03*
Y276130D02*
D03*
Y271130D02*
D03*
Y266130D02*
D03*
Y261130D02*
D03*
Y256130D02*
D03*
Y251130D02*
D03*
X110630D02*
D03*
Y256130D02*
D03*
Y261130D02*
D03*
Y266130D02*
D03*
Y271130D02*
D03*
Y276130D02*
D03*
Y281130D02*
D03*
Y286130D02*
D03*
Y170130D02*
D03*
Y165130D02*
D03*
Y160130D02*
D03*
Y155130D02*
D03*
Y150130D02*
D03*
Y145130D02*
D03*
Y140130D02*
D03*
Y135130D02*
D03*
X89370D02*
D03*
Y140130D02*
D03*
Y145130D02*
D03*
Y150130D02*
D03*
Y155130D02*
D03*
Y160130D02*
D03*
Y165130D02*
D03*
Y170130D02*
D03*
Y60130D02*
D03*
Y55130D02*
D03*
Y50130D02*
D03*
Y45130D02*
D03*
Y40130D02*
D03*
Y35130D02*
D03*
Y30130D02*
D03*
Y25130D02*
D03*
X110630D02*
D03*
Y30130D02*
D03*
Y35130D02*
D03*
Y40130D02*
D03*
Y45130D02*
D03*
Y50130D02*
D03*
Y55130D02*
D03*
Y60130D02*
D03*
D46*
X186448Y277756D02*
D03*
Y281496D02*
D03*
Y285236D02*
D03*
X177048D02*
D03*
Y277756D02*
D03*
X178150Y167945D02*
D03*
Y175425D02*
D03*
X187550D02*
D03*
Y171685D02*
D03*
Y167945D02*
D03*
X187433Y61819D02*
D03*
Y65559D02*
D03*
Y69299D02*
D03*
X178033D02*
D03*
Y61819D02*
D03*
D47*
X132500Y250201D02*
X138299D01*
X141217Y247284D01*
X148031D01*
X126303Y262500D02*
X132303Y256500D01*
X132500D02*
X132959Y256959D01*
X148029Y257285D02*
X148031Y257283D01*
X132500Y257287D02*
X132502Y257285D01*
X148029D01*
X163976Y269264D02*
Y278346D01*
X152756Y152067D02*
Y187500D01*
X158760Y141732D02*
Y146063D01*
X152756Y152067D02*
X158760Y146063D01*
X210827Y193642D02*
Y201579D01*
X204232Y208173D02*
X210827Y201579D01*
X199256Y192894D02*
X210922D01*
X210827Y193642D02*
X211681Y192787D01*
X210922Y188383D02*
Y192028D01*
X203937Y181398D02*
X210922Y188383D01*
X203937Y178937D02*
Y181398D01*
X210922Y192028D02*
X211681Y192787D01*
X219488Y180020D02*
X219555Y179953D01*
Y172609D02*
Y179953D01*
X232681Y192787D02*
X233173D01*
X219555D02*
X232681D01*
X219522Y180053D02*
Y192754D01*
X219555Y192787D01*
X219488Y180020D02*
X219522Y180053D01*
X219555Y172609D02*
X223425Y168739D01*
Y168701D02*
Y168739D01*
X211746Y168471D02*
X211811Y168405D01*
X211746Y181360D02*
X211844Y181459D01*
X211746Y168471D02*
Y181360D01*
X212935Y209014D02*
X213189Y208760D01*
X212935Y217549D02*
X213146Y217760D01*
X212935Y209014D02*
Y217549D01*
X205906Y255807D02*
X213002Y248710D01*
X205906Y255807D02*
Y280315D01*
X201084Y285136D02*
X205906Y280315D01*
X186548Y285136D02*
X201084D01*
X186448Y281496D02*
X195251D01*
X198204Y278543D02*
X199016D01*
X195251Y281496D02*
X198204Y278543D01*
X185698Y265524D02*
X197020D01*
X197047Y265551D01*
X184900Y265498D02*
X185673D01*
X185698Y265524D01*
X220555Y228279D02*
Y257890D01*
X220063Y227787D02*
X220555Y228279D01*
X212894Y265551D02*
X220555Y257890D01*
X187435Y48502D02*
X187437Y48500D01*
X187433Y61819D02*
X187435Y61817D01*
X187008Y61719D02*
X187108Y61819D01*
X187433D01*
X187435Y48502D02*
Y61817D01*
X156496Y83465D02*
X179134Y106102D01*
X156496Y35433D02*
X160630Y31299D01*
X156496Y35433D02*
Y83465D01*
X143246Y84831D02*
X145620Y87205D01*
X146161D01*
X116000Y84831D02*
X143246D01*
X114000Y194339D02*
X141167D01*
X74009Y271130D02*
X89370D01*
X71260Y269193D02*
X72072D01*
X74009Y271130D01*
X76386Y263386D02*
X79130Y266130D01*
X63681Y263386D02*
X76386D01*
X69095Y246358D02*
X69095Y246358D01*
X63090Y246358D02*
X69095D01*
X61161Y244429D02*
X63090Y246358D01*
X51575Y244429D02*
X61161D01*
X74844Y254232D02*
X81742Y261130D01*
X69488Y254232D02*
X74844D01*
X51673Y254331D02*
X69390D01*
X69488Y254232D01*
X51575Y254429D02*
X51673Y254331D01*
Y254547D02*
X53740D01*
X261819Y237000D02*
X289409Y209409D01*
X289803Y192421D02*
X290496Y191728D01*
X289409Y192028D02*
Y209409D01*
X245185Y237000D02*
X261819D01*
X226000Y256185D02*
Y296000D01*
Y256185D02*
X245185Y237000D01*
X240325Y227919D02*
X250360D01*
X250492Y228051D01*
X240128Y227722D02*
X240325Y227919D01*
X263287Y201673D02*
X263386Y201575D01*
Y191620D02*
Y201575D01*
X276590Y191902D02*
X277124Y192435D01*
X276870Y201673D02*
X277124Y201419D01*
Y192435D02*
Y201419D01*
X204232Y208173D02*
Y223130D01*
X207232Y226130D01*
X211910D01*
X213173Y227394D01*
X171000Y257445D02*
X176922Y251523D01*
X171000Y257445D02*
Y273500D01*
X176922Y247641D02*
X177563Y247000D01*
X176922Y247641D02*
Y251523D01*
X178201Y237453D02*
Y246850D01*
X185437Y247000D02*
Y252251D01*
X182000Y255688D02*
X185437Y252251D01*
X177953Y260606D02*
X179035Y259523D01*
Y259465D02*
Y259523D01*
X177953Y260606D02*
Y265354D01*
X179035Y259465D02*
X182000Y256500D01*
Y255688D02*
Y256500D01*
X177811Y265496D02*
X177953Y265354D01*
X186437Y136000D02*
Y140969D01*
X183000Y144405D02*
Y145130D01*
Y144405D02*
X186437Y140969D01*
X178913Y149216D02*
Y154185D01*
X198327Y151673D02*
X209738D01*
X210910Y152845D01*
Y154831D01*
X212173Y156095D01*
X194587Y73917D02*
Y147933D01*
X198327Y151673D01*
X173500Y40968D02*
Y53500D01*
X178434Y33756D02*
Y36035D01*
X173500Y40968D02*
X178434Y36035D01*
X180257Y31933D02*
X180283D01*
X178434Y33756D02*
X180257Y31933D01*
X183905Y40500D02*
X187437Y36968D01*
Y32000D02*
Y36968D01*
X55749Y57063D02*
X72000D01*
X72492Y57555D02*
X79917Y50130D01*
X53771Y58500D02*
X54312D01*
X55749Y57063D01*
X63587Y68500D02*
X67150Y64937D01*
X72000D01*
X53771Y68500D02*
X63587D01*
X85402Y144850D02*
X89091D01*
X79126Y138575D02*
X85402Y144850D01*
X89091D02*
X89370Y145130D01*
X54008Y138575D02*
X79126D01*
X56607Y171287D02*
X73500D01*
X53977Y173917D02*
X56607Y171287D01*
X126536Y144401D02*
X128000Y142937D01*
X121555Y146752D02*
X123906Y144401D01*
X116535Y146752D02*
X121555D01*
X123906Y144401D02*
X126536D01*
X128000Y142937D02*
X141766D01*
X115009Y145226D02*
X116535Y146752D01*
X110726Y145226D02*
X115009D01*
X110630Y145130D02*
X110726Y145226D01*
X121100Y132517D02*
X123031Y134449D01*
X127386D02*
X128000Y135063D01*
X117089Y132517D02*
X121100D01*
X123031Y134449D02*
X127386D01*
X114756Y134850D02*
X117089Y132517D01*
X110909Y134850D02*
X114756D01*
X110630Y135130D02*
X110909Y134850D01*
X141766Y142937D02*
X143459Y144630D01*
X128000Y135063D02*
X128433Y134630D01*
X144000D01*
X39764Y166535D02*
Y170374D01*
Y166535D02*
X45768Y160531D01*
Y144716D02*
Y160531D01*
X31201Y164665D02*
X39500Y156366D01*
X31201Y164665D02*
Y170079D01*
X39500Y147000D02*
Y156366D01*
X258169Y164469D02*
X258268Y164567D01*
Y179035D01*
X161417Y159744D02*
Y168504D01*
X161319Y159646D02*
X161417Y159744D01*
Y168504D02*
X161516Y168602D01*
X187437Y48500D02*
X194000D01*
X83169Y240059D02*
X89370Y246260D01*
Y251130D01*
X95323Y276323D02*
X98500Y279500D01*
Y318000D01*
X110500Y330000D01*
X89563Y276323D02*
X95323D01*
X270010Y191620D02*
X270291Y191902D01*
X270671Y172407D02*
X271051Y172028D01*
X269083Y193110D02*
X270291Y191902D01*
X270671Y172407D02*
Y191522D01*
X270291Y191902D02*
X270671Y191522D01*
X248721Y104232D02*
X265158D01*
X238008Y114945D02*
X248721Y104232D01*
X265158D02*
X283465Y85925D01*
X238008Y114945D02*
Y156287D01*
X283169Y61319D02*
X283317Y61466D01*
Y85778D01*
X179242Y126781D02*
Y135892D01*
X202618Y145787D02*
X212173D01*
X178913Y149216D02*
X183000Y145130D01*
X199114Y162402D02*
Y162598D01*
X190898Y154185D02*
X199114Y162402D01*
X180350Y48500D02*
X180584Y48266D01*
Y43416D02*
Y48266D01*
Y43416D02*
X183500Y40500D01*
X306000Y55000D02*
X324476D01*
X114000Y176000D02*
Y182429D01*
X115803Y72921D02*
X116000D01*
X110630Y67748D02*
X111221D01*
X115902Y72429D02*
X116000D01*
X111221Y67748D02*
X115902Y72429D01*
X116000Y84831D02*
X116289Y84541D01*
X118000Y313122D02*
X118246Y312876D01*
X147754D01*
X148000Y312630D01*
X118000Y296500D02*
Y300721D01*
X147459Y275500D02*
X148000D01*
X126878D02*
X147459D01*
X163878Y259081D01*
X273000Y270000D02*
X276500Y273500D01*
X290937Y277819D02*
X291299Y278181D01*
X276500Y273500D02*
X288856D01*
X226000Y296000D02*
X249882Y319882D01*
X280413D01*
X312560Y169252D02*
X327031D01*
X309812Y172000D02*
X312560Y169252D01*
X309000Y172000D02*
X309812D01*
X372000Y72000D02*
Y80043D01*
X371791Y80252D02*
X372000Y80043D01*
X290496Y180854D02*
Y191728D01*
X267821Y301852D02*
X267969Y302000D01*
X267669Y301701D02*
X267821Y301852D01*
X252299Y301701D02*
X267669D01*
X252000Y301402D02*
X252299Y301701D01*
X252000Y274000D02*
Y289000D01*
X258268Y179035D02*
X258465Y178839D01*
X258268Y191437D02*
X258451Y191620D01*
X263386D01*
X297976Y180854D02*
Y190547D01*
Y180067D02*
Y180854D01*
X252839Y302049D02*
X252854Y302033D01*
X252839Y302049D02*
Y302067D01*
X260500Y284000D02*
X267673D01*
X263386Y191620D02*
X270010D01*
X48622Y215256D02*
X92618D01*
X37106Y226772D02*
X48622Y215256D01*
X37106Y226772D02*
Y252953D01*
X30063Y195801D02*
Y264063D01*
X36000Y270000D01*
X19000Y194630D02*
X28891D01*
X30063Y195801D01*
X161319Y186811D02*
X161417Y186713D01*
Y175591D02*
X161516Y175492D01*
X161417Y175591D02*
Y186713D01*
X186000Y154185D02*
X190898D01*
X7579Y243209D02*
X19000Y254630D01*
X7579Y118799D02*
Y243209D01*
Y118799D02*
X30906Y95472D01*
X42126D01*
X165354Y77953D02*
X165500Y77807D01*
Y69500D02*
Y77807D01*
X163878Y285335D02*
Y292421D01*
X163779Y292520D02*
X163878Y292421D01*
Y285335D02*
X163976Y285236D01*
X55082Y21130D02*
X58563Y24610D01*
X54000Y21130D02*
X55082D01*
X54000Y31130D02*
X54370Y31500D01*
X53937Y138504D02*
X54008Y138575D01*
X55019Y128504D02*
X58201Y131685D01*
X53937Y128504D02*
X55019D01*
X39469Y138417D02*
X45768Y144716D01*
X53740Y173917D02*
X53977D01*
X53882Y164059D02*
X73358D01*
X53740Y163917D02*
X53882Y164059D01*
X39469Y138287D02*
Y138417D01*
X68405Y146752D02*
X68657Y146500D01*
X75000D01*
X78630Y150130D01*
X54370Y31500D02*
X72000D01*
X163878Y231105D02*
Y259081D01*
X165378Y62488D02*
X165500Y62610D01*
X165378Y47169D02*
Y62488D01*
X165256Y47047D02*
X165378Y47169D01*
X152756Y187500D02*
X178051Y212795D01*
X125886Y287402D02*
X127787Y285500D01*
X148000D01*
X116240Y287402D02*
X125886D01*
X115037Y286198D02*
X116240Y287402D01*
X110698Y286198D02*
X115037D01*
X110630Y286130D02*
X110698Y286198D01*
X110738Y287106D02*
Y289238D01*
X125787Y274410D02*
X126878Y275500D01*
X116535Y274410D02*
X125787D01*
X110775Y275985D02*
X114960D01*
X116535Y274410D01*
X110630Y276130D02*
X110775Y275985D01*
X123622Y158661D02*
X124409Y159449D01*
X143459Y160630D02*
X144000D01*
X115631Y158661D02*
X123622D01*
X124409Y159449D02*
X142278D01*
X143459Y160630D01*
X110630Y160130D02*
X110909Y159850D01*
X114442D02*
X115631Y158661D01*
X110909Y159850D02*
X114442D01*
X125236Y170630D02*
X144000D01*
X116339Y172146D02*
X123721D01*
X125236Y170630D01*
X114602Y170409D02*
X116339Y172146D01*
X110909Y170409D02*
X114602D01*
X110630Y170130D02*
X110909Y170409D01*
X111000D02*
Y173000D01*
X127756Y60236D02*
X146063D01*
X126575Y61417D02*
X127756Y60236D01*
X117126Y61417D02*
X126575D01*
X129291Y50236D02*
X146063D01*
X127465Y48409D02*
X129291Y50236D01*
X116453Y48409D02*
X127465D01*
X283317Y85778D02*
X283465Y85925D01*
X115012Y49850D02*
X116453Y48409D01*
X110909Y49850D02*
X115012D01*
X110630Y50130D02*
X110909Y49850D01*
X115839Y60130D02*
X117126Y61417D01*
X110630Y60130D02*
X115839D01*
X110630D02*
Y67748D01*
X116000Y84339D02*
X116043Y84295D01*
X196059Y65559D02*
X200500Y70000D01*
X297933Y157185D02*
X297976Y157228D01*
X297933Y156890D02*
Y157185D01*
X297976Y157228D02*
Y170028D01*
X178051Y212795D02*
Y237303D01*
X167520Y226969D02*
Y227463D01*
X163878Y231105D02*
X167520Y227463D01*
X179134Y106102D02*
Y126673D01*
X180217Y22736D02*
X180283Y22803D01*
Y31933D01*
X179134Y126673D02*
X179242Y126781D01*
Y135892D02*
X179350Y136000D01*
X110433Y231004D02*
X110630Y230807D01*
X44291Y231004D02*
X110433D01*
X44094Y231201D02*
X44291Y231004D01*
X178051Y237303D02*
X178201Y237453D01*
X112583Y250850D02*
X113925Y249508D01*
X131807D02*
X132500Y250201D01*
X113925Y249508D02*
X131807D01*
X110909Y250850D02*
X112583D01*
X110630Y251130D02*
X110909Y250850D01*
X163976Y285236D02*
X177048D01*
X247047Y192618D02*
X247146Y192717D01*
X246949Y171063D02*
X247047Y171161D01*
Y192618D01*
X280413Y319882D02*
X287106Y313189D01*
X287112Y313183D01*
Y302006D02*
Y313183D01*
Y302006D02*
X287248Y301870D01*
X213173Y227394D02*
Y227787D01*
X193937Y178937D02*
X203937D01*
X190525Y175525D02*
X193937Y178937D01*
X203937Y168110D02*
Y178937D01*
Y168110D02*
X211481Y160566D01*
Y156787D02*
X212173Y156095D01*
X211481Y156787D02*
Y160566D01*
X190068Y69399D02*
X194587Y73917D01*
X213002Y227958D02*
Y248710D01*
Y227958D02*
X213173Y227787D01*
X208000Y62500D02*
Y127980D01*
X219063Y139043D02*
Y145787D01*
X208000Y127980D02*
X219063Y139043D01*
Y145787D02*
Y156095D01*
X199150Y193000D02*
X199256Y192894D01*
X220063Y217787D02*
Y227787D01*
X233173D01*
X240098Y192752D02*
X247110D01*
X240063Y192787D02*
X240098Y192752D01*
X219063Y156095D02*
X219160Y156191D01*
X231022D01*
X231118Y156287D01*
X187650Y171785D02*
X195785D01*
X196000Y172000D01*
X187550Y171685D02*
X187650Y171785D01*
X187533Y69399D02*
X190068D01*
X187433Y69299D02*
X187533Y69399D01*
X184898Y265496D02*
X184900Y265498D01*
X169980Y164272D02*
X173653Y167945D01*
X169980Y145567D02*
Y164272D01*
X173653Y167945D02*
X178150D01*
X169980Y145567D02*
X179350Y136197D01*
Y136000D02*
Y136197D01*
X161583Y175425D02*
X178150D01*
X187550D02*
X187650Y175525D01*
X190525D01*
X186000Y154185D02*
X186775Y154960D01*
Y167845D01*
X186875Y167945D01*
X187550D01*
X296496Y192028D02*
X297976Y190547D01*
X297933Y150043D02*
X299850Y148126D01*
X291539Y163500D02*
X294236Y166197D01*
X278500Y163500D02*
X291539D01*
X294236Y166197D02*
Y170028D01*
X280376D02*
X290496D01*
X280034Y170370D02*
X280376Y170028D01*
X279205Y170370D02*
X280034D01*
X277941Y171634D02*
X279205Y170370D01*
X277941Y171634D02*
Y172028D01*
X294236Y170028D02*
Y176327D01*
X297976Y180067D01*
X294858Y270350D02*
Y278000D01*
X294685Y270177D02*
X294858Y270350D01*
X274000Y159000D02*
X278500Y163500D01*
X294709Y261500D02*
X294858Y261650D01*
X194000Y48500D02*
X208000Y62500D01*
X183500Y193000D02*
X192850D01*
X187433Y65559D02*
X196059D01*
X173500Y53500D02*
X178033Y58033D01*
Y61819D01*
X183500Y40500D02*
X183905D01*
X119370Y55130D02*
X119500Y55000D01*
X110630Y55130D02*
X119370D01*
X372791Y195252D02*
X373000Y195043D01*
Y187000D02*
Y195043D01*
X119370Y165130D02*
X119500Y165000D01*
X110630Y165130D02*
X119370D01*
X374925Y307252D02*
X375500Y306677D01*
Y298000D02*
Y306677D01*
X373079Y307252D02*
X374925D01*
X120870Y281130D02*
X121000Y281000D01*
X110630Y281130D02*
X120870D01*
X110500Y330000D02*
X118000D01*
X89370Y276130D02*
X89563Y276323D01*
X176032Y69500D02*
X176233Y69299D01*
X165500Y69500D02*
X176032D01*
X176233Y69299D02*
X178033D01*
X143238Y26850D02*
X145459Y24630D01*
X129303Y26850D02*
X143238D01*
X145459Y24630D02*
X146000D01*
X129500Y33150D02*
X143979D01*
X145459Y34630D01*
X146000D01*
X119370Y30130D02*
X119500Y30000D01*
X110630Y30130D02*
X119370D01*
X116000Y36500D02*
X123000D01*
X128296Y34354D02*
X129500Y33150D01*
X125146Y34354D02*
X128296D01*
X123000Y36500D02*
X125146Y34354D01*
X110630Y25130D02*
X112303D01*
X112583Y24850D01*
Y24672D02*
X113754Y23500D01*
X125953D02*
X129303Y26850D01*
X112583Y24672D02*
Y24850D01*
X113754Y23500D02*
X125953D01*
X110630Y35130D02*
X110909Y35409D01*
X114909D01*
X116000Y36500D01*
X78630Y39130D02*
X79630Y40130D01*
X89370D01*
X66630Y39130D02*
X78630D01*
X66500Y39000D02*
X66630Y39130D01*
X78630Y150130D02*
X89370D01*
X73358Y164059D02*
X73500Y164201D01*
X89276Y160224D02*
X89370Y160130D01*
X73500Y164201D02*
X79441D01*
X83417Y160224D01*
X89276D01*
X74083Y154917D02*
X89157D01*
X74000Y155000D02*
X74083Y154917D01*
X51000Y187500D02*
X68500D01*
X84417Y171583D01*
X39000Y175500D02*
X51000Y187500D01*
X46500Y195000D02*
X71500D01*
X89370Y170130D02*
Y177130D01*
X71500Y195000D02*
X89370Y177130D01*
X19000Y184630D02*
X36130D01*
X46500Y195000D01*
X110630Y261130D02*
X112303D01*
X113673Y262500D01*
X126303D01*
X147459Y284630D02*
X148000D01*
X309051Y282440D02*
X327844D01*
X328031Y282252D01*
X308864Y282628D02*
X309051Y282440D01*
X120435Y256065D02*
X120500Y256000D01*
X110630Y256130D02*
X110695Y256065D01*
X120435D01*
X110738Y289238D02*
X118000Y296500D01*
X175248Y277756D02*
X177048D01*
X175148Y277648D02*
Y277656D01*
X171000Y273500D02*
X175148Y277648D01*
Y277656D02*
X175248Y277756D01*
X272205Y261500D02*
X272587Y261118D01*
X287248Y288957D02*
Y301870D01*
Y288957D02*
X287378Y288827D01*
X274384Y302116D02*
Y312884D01*
X274268Y302000D02*
X274384Y302116D01*
Y312884D02*
X274500Y313000D01*
X293417Y302000D02*
X294677Y300740D01*
Y289008D02*
X294858Y288827D01*
X294677Y289008D02*
Y300740D01*
X291299Y278181D02*
Y280419D01*
X294858Y283858D02*
Y288827D01*
X293328Y282328D02*
X294858Y283858D01*
X293208Y282328D02*
X293328D01*
X291299Y280419D02*
X293208Y282328D01*
X274563Y283606D02*
X280169Y278000D01*
X274563Y283606D02*
Y284000D01*
X280169Y278000D02*
X287378D01*
X288856Y273500D02*
X290937Y275581D01*
Y277819D01*
X22124Y175500D02*
X39000D01*
X19000Y174630D02*
X19747Y175377D01*
X22002D01*
X22124Y175500D01*
X33000Y125000D02*
Y150630D01*
X19000Y164630D02*
X33000Y150630D01*
X19000Y154630D02*
X28500Y145130D01*
Y121500D02*
Y145130D01*
Y121500D02*
X78000Y72000D01*
X33000Y125000D02*
X82500Y75500D01*
X267821Y284148D02*
Y301852D01*
X267673Y284000D02*
X267821Y284148D01*
X143459Y144630D02*
X144000D01*
X118935Y140065D02*
X119000Y140000D01*
X110630Y140130D02*
X110695Y140065D01*
X118935D01*
X110970Y170380D02*
X111000Y170409D01*
X110880Y170380D02*
X110970D01*
X110630Y170130D02*
X110880Y170380D01*
X111000Y173000D02*
X114000Y176000D01*
X143459Y196630D02*
X144000D01*
X141167Y194339D02*
X143459Y196630D01*
X78000Y64000D02*
X86590Y55409D01*
X78000Y64000D02*
Y72000D01*
X89091Y55409D02*
X89370Y55130D01*
X86590Y55409D02*
X89091D01*
X87417Y60409D02*
X87697Y60130D01*
X82500Y67000D02*
Y75500D01*
X87697Y60130D02*
X89370D01*
X87417Y60409D02*
Y62083D01*
X82500Y67000D02*
X87417Y62083D01*
X79917Y50130D02*
X89370D01*
X78500Y45000D02*
X78630Y45130D01*
X89370D01*
X58563Y24610D02*
X72000D01*
X78862Y31500D02*
X82492Y35130D01*
X89370D01*
X72000Y31500D02*
X78862D01*
X84500Y15500D02*
X89370Y20370D01*
Y25130D01*
X76500Y111500D02*
X89370Y124370D01*
Y135130D01*
X58201Y131685D02*
X74000D01*
X89091Y165409D02*
X89370Y165130D01*
X84417Y166581D02*
X85589Y165409D01*
X89091D01*
X84417Y166581D02*
Y171583D01*
X81500Y284301D02*
Y288000D01*
Y284301D02*
X84672Y281130D01*
X72000Y297500D02*
X81500Y288000D01*
X84672Y281130D02*
X89370D01*
X72000Y297500D02*
Y308000D01*
X82500Y293000D02*
Y307500D01*
Y293000D02*
X89370Y286130D01*
X78650Y279850D02*
X82091Y276410D01*
X89091D01*
X72197Y279850D02*
X78650D01*
X89091Y276410D02*
X89370Y276130D01*
X71925Y279925D02*
X72000Y279850D01*
X79130Y266130D02*
X89370D01*
X89157Y154917D02*
X89370Y155130D01*
X52000Y290000D02*
X67953D01*
X71803Y286150D01*
X72000D01*
X81742Y261130D02*
X89370D01*
X52075Y279925D02*
X71925D01*
X52000Y280000D02*
X52075Y279925D01*
X185773Y277756D02*
X186448D01*
X185673Y277656D02*
X185773Y277756D01*
X185673Y266271D02*
Y277656D01*
X186448Y285236D02*
X186548Y285136D01*
X365024Y306677D02*
X372504D01*
X373079Y307252D01*
X318551Y35252D02*
X326031D01*
X337055Y322252D02*
Y325008D01*
X319551Y342512D02*
X337055Y325008D01*
D48*
X146161Y77205D02*
D03*
Y87205D02*
D03*
X146063Y50236D02*
D03*
Y60236D02*
D03*
X148000Y302630D02*
D03*
Y312630D02*
D03*
Y275500D02*
D03*
Y285500D02*
D03*
X52000Y290000D02*
D03*
Y280000D02*
D03*
X148031Y247284D02*
D03*
Y257283D02*
D03*
X144000Y186630D02*
D03*
Y196630D02*
D03*
Y160630D02*
D03*
Y170630D02*
D03*
X53740Y173917D02*
D03*
Y163917D02*
D03*
X144000Y134630D02*
D03*
Y144630D02*
D03*
X53771Y68500D02*
D03*
Y58500D02*
D03*
X146000Y24630D02*
D03*
Y34630D02*
D03*
D49*
X205807Y328543D02*
D03*
X225492D02*
D03*
D50*
X51575Y254429D02*
D03*
X53937Y138504D02*
D03*
X54000Y31130D02*
D03*
D51*
X51575Y244429D02*
D03*
X53937Y128504D02*
D03*
X54000Y21130D02*
D03*
D52*
X19000Y134630D02*
D03*
D53*
Y144630D02*
D03*
Y154630D02*
D03*
Y164630D02*
D03*
Y174630D02*
D03*
Y184630D02*
D03*
Y194630D02*
D03*
Y204630D02*
D03*
Y214630D02*
D03*
Y224630D02*
D03*
Y234630D02*
D03*
Y244630D02*
D03*
Y254630D02*
D03*
Y264630D02*
D03*
Y274630D02*
D03*
D54*
X402500Y70000D02*
D03*
X405500Y179000D02*
D03*
X405512Y300197D02*
D03*
D55*
X163976Y269264D02*
D03*
X158760Y141732D02*
D03*
X223425Y168701D02*
D03*
X211811Y168405D02*
D03*
X213189Y208760D02*
D03*
X199016Y278543D02*
D03*
X197047Y265551D02*
D03*
X212894D02*
D03*
X71260Y269193D02*
D03*
X63681Y263386D02*
D03*
X250492Y228051D02*
D03*
X263287Y201673D02*
D03*
X276870D02*
D03*
X161319Y159646D02*
D03*
X83169Y240059D02*
D03*
X283169Y61319D02*
D03*
X179134Y126673D02*
D03*
X258000Y138000D02*
D03*
X202618Y145787D02*
D03*
X183000Y145000D02*
D03*
X258000Y148000D02*
D03*
X310000Y154000D02*
D03*
X199114Y162598D02*
D03*
X258000Y158500D02*
D03*
X183500Y40500D02*
D03*
X306000Y40000D02*
D03*
Y55000D02*
D03*
X255200Y258000D02*
D03*
X311000Y255000D02*
D03*
Y266000D02*
D03*
X309000Y172000D02*
D03*
X310000Y143000D02*
D03*
X306000Y29000D02*
D03*
X372000Y72000D02*
D03*
X37106Y252953D02*
D03*
X92618Y215256D02*
D03*
X161319Y186811D02*
D03*
X42126Y95472D02*
D03*
X165354Y77953D02*
D03*
X163779Y292520D02*
D03*
X39764Y170374D02*
D03*
X39469Y138287D02*
D03*
X31201Y170079D02*
D03*
X68405Y146752D02*
D03*
X165256Y47047D02*
D03*
X283465Y85925D02*
D03*
X200500Y70000D02*
D03*
X167520Y226969D02*
D03*
X160630Y31299D02*
D03*
X180217Y22736D02*
D03*
X44094Y231201D02*
D03*
X110630Y230807D02*
D03*
X178051Y237303D02*
D03*
X246949Y171063D02*
D03*
X287106Y313189D02*
D03*
X247146Y192717D02*
D03*
X196000Y172000D02*
D03*
X253303Y21339D02*
D03*
X253402Y31772D02*
D03*
X253500Y42500D02*
D03*
X307087Y85630D02*
D03*
Y96457D02*
D03*
Y107283D02*
D03*
X255300Y266800D02*
D03*
X307500Y204500D02*
D03*
Y215500D02*
D03*
Y227500D02*
D03*
X307000Y312500D02*
D03*
Y323500D02*
D03*
Y335000D02*
D03*
X183500Y193000D02*
D03*
X119500Y55000D02*
D03*
X373000Y187000D02*
D03*
X119500Y165000D02*
D03*
X375500Y298000D02*
D03*
X121000Y281000D02*
D03*
X118000Y330000D02*
D03*
X119500Y30000D02*
D03*
X66500Y39000D02*
D03*
X74000Y155000D02*
D03*
X308864Y282628D02*
D03*
X120500Y256000D02*
D03*
X255200Y249000D02*
D03*
X274500Y313000D02*
D03*
X39500Y147000D02*
D03*
X260500Y284000D02*
D03*
X119000Y140000D02*
D03*
X78500Y45000D02*
D03*
X84500Y15500D02*
D03*
X76500Y111500D02*
D03*
X36000Y270000D02*
D03*
X82500Y307500D02*
D03*
X72000Y308000D02*
D03*
X182000Y256500D02*
D03*
M02*
