G04*
G04 #@! TF.GenerationSoftware,Altium Limited,Altium Designer,23.10.1 (27)*
G04*
G04 Layer_Color=2752767*
%FSLAX25Y25*%
%MOIN*%
G70*
G04*
G04 #@! TF.SameCoordinates,D58E8A5F-C196-4DC0-9E6E-83BCDBF650AB*
G04*
G04*
G04 #@! TF.FilePolarity,Positive*
G04*
G01*
G75*
%ADD10C,0.01000*%
%ADD58C,0.00500*%
%ADD64C,0.01500*%
%ADD65C,0.01600*%
D10*
X-93271Y-51150D02*
X-89938Y-49483D01*
X-86604Y-51150D01*
X-88271Y-47817D02*
X-86604Y-51150D01*
X-88271Y-47817D02*
X-86604Y-44483D01*
X-89938Y-46150D02*
X-86604Y-44483D01*
X-93271D02*
X-89938Y-46150D01*
X-93271Y-44483D02*
X-91604Y-47817D01*
X-93271Y-51150D02*
X-91604Y-47817D01*
Y-64483D02*
X-89938Y-66150D01*
X-93271Y-64483D02*
X-91604D01*
X-93271D02*
X-91604Y-62817D01*
X-93271Y-61150D02*
X-91604Y-62817D01*
X-93271Y-61150D02*
X-91604D01*
X-89938Y-59483D01*
X-88271Y-61150D01*
X-86604D01*
X-88271Y-62817D02*
X-86604Y-61150D01*
X-88271Y-62817D02*
X-86604Y-64483D01*
X-88271D02*
X-86604D01*
X-89938Y-66150D02*
X-88271Y-64483D01*
X-93271Y-81150D02*
X-86604D01*
Y-74483D01*
X-93271D02*
X-86604D01*
X-93271Y-81150D02*
Y-74483D01*
X-89938Y-96150D02*
X-86604Y-89483D01*
X-93271D02*
X-86604D01*
X-93271D02*
X-89938Y-96150D01*
X542776Y-47151D02*
X539777D01*
X538777Y-48151D01*
Y-50150D01*
X539777Y-51150D01*
X542776D01*
X548774Y-45152D02*
X544775D01*
Y-48151D01*
X546774Y-47151D01*
X547774D01*
X548774Y-48151D01*
Y-50150D01*
X547774Y-51150D01*
X545775D01*
X544775Y-50150D01*
X550773Y-46152D02*
X551773Y-45152D01*
X553772D01*
X554772Y-46152D01*
Y-50150D01*
X553772Y-51150D01*
X551773D01*
X550773Y-50150D01*
Y-46152D01*
X556771D02*
X557771Y-45152D01*
X559770D01*
X560770Y-46152D01*
Y-47151D01*
X559770Y-48151D01*
X560770Y-49151D01*
Y-50150D01*
X559770Y-51150D01*
X557771D01*
X556771Y-50150D01*
Y-49151D01*
X557771Y-48151D01*
X556771Y-47151D01*
Y-46152D01*
X557771Y-48151D02*
X559770D01*
X562769Y-45152D02*
Y-51150D01*
Y-48151D01*
X563769Y-47151D01*
X565768D01*
X566768Y-48151D01*
Y-51150D01*
X568767Y-46152D02*
X569767Y-45152D01*
X571766D01*
X572766Y-46152D01*
Y-47151D01*
X571766Y-48151D01*
X570766D01*
X571766D01*
X572766Y-49151D01*
Y-50150D01*
X571766Y-51150D01*
X569767D01*
X568767Y-50150D01*
X574765Y-46152D02*
X575765Y-45152D01*
X577764D01*
X578764Y-46152D01*
Y-50150D01*
X577764Y-51150D01*
X575765D01*
X574765Y-50150D01*
Y-46152D01*
X580763D02*
X581763Y-45152D01*
X583762D01*
X584762Y-46152D01*
Y-50150D01*
X583762Y-51150D01*
X581763D01*
X580763Y-50150D01*
Y-46152D01*
X540776Y-66150D02*
X538777Y-64151D01*
Y-62151D01*
X540776Y-60152D01*
X543775Y-66150D02*
Y-60152D01*
X545775Y-62151D01*
X547774Y-60152D01*
Y-66150D01*
X549773D02*
X551773D01*
X550773D01*
Y-62151D01*
X549773D01*
X554772D02*
X558770Y-66150D01*
X556771Y-64151D01*
X558770Y-62151D01*
X554772Y-66150D01*
X563769D02*
X561769D01*
X560770Y-65150D01*
Y-63151D01*
X561769Y-62151D01*
X563769D01*
X564768Y-63151D01*
Y-64151D01*
X560770D01*
X570766Y-60152D02*
Y-66150D01*
X567767D01*
X566768Y-65150D01*
Y-63151D01*
X567767Y-62151D01*
X570766D01*
X572766Y-66150D02*
X574765Y-64151D01*
Y-62151D01*
X572766Y-60152D01*
X540776Y-81150D02*
X538777Y-79151D01*
Y-77151D01*
X540776Y-75152D01*
X543775Y-81150D02*
Y-75152D01*
X545775Y-77151D01*
X547774Y-75152D01*
Y-81150D01*
X549773D02*
X551773D01*
X550773D01*
Y-77151D01*
X549773D01*
X554772D02*
X558770Y-81150D01*
X556771Y-79151D01*
X558770Y-77151D01*
X554772Y-81150D01*
X563769D02*
X561769D01*
X560770Y-80150D01*
Y-78151D01*
X561769Y-77151D01*
X563769D01*
X564768Y-78151D01*
Y-79151D01*
X560770D01*
X570766Y-75152D02*
Y-81150D01*
X567767D01*
X566768Y-80150D01*
Y-78151D01*
X567767Y-77151D01*
X570766D01*
X572766Y-81150D02*
X574765Y-79151D01*
Y-77151D01*
X572766Y-75152D01*
X540776Y-96150D02*
X538777Y-94151D01*
Y-92151D01*
X540776Y-90152D01*
X543775Y-96150D02*
Y-90152D01*
X545775Y-92151D01*
X547774Y-90152D01*
Y-96150D01*
X549773D02*
X551773D01*
X550773D01*
Y-92151D01*
X549773D01*
X554772D02*
X558770Y-96150D01*
X556771Y-94151D01*
X558770Y-92151D01*
X554772Y-96150D01*
X563769D02*
X561769D01*
X560770Y-95150D01*
Y-93151D01*
X561769Y-92151D01*
X563769D01*
X564768Y-93151D01*
Y-94151D01*
X560770D01*
X570766Y-90152D02*
Y-96150D01*
X567767D01*
X566768Y-95150D01*
Y-93151D01*
X567767Y-92151D01*
X570766D01*
X572766Y-96150D02*
X574765Y-94151D01*
Y-92151D01*
X572766Y-90152D01*
X464197Y-51150D02*
Y-45152D01*
X467196D01*
X468196Y-46152D01*
Y-48151D01*
X467196Y-49151D01*
X464197D01*
X466196D02*
X468196Y-51150D01*
X471195D02*
X473194D01*
X474194Y-50150D01*
Y-48151D01*
X473194Y-47151D01*
X471195D01*
X470195Y-48151D01*
Y-50150D01*
X471195Y-51150D01*
X476193Y-47151D02*
Y-50150D01*
X477193Y-51150D01*
X480192D01*
Y-47151D01*
X482191Y-51150D02*
Y-47151D01*
X485190D01*
X486190Y-48151D01*
Y-51150D01*
X492188Y-45152D02*
Y-51150D01*
X489189D01*
X488189Y-50150D01*
Y-48151D01*
X489189Y-47151D01*
X492188D01*
X497186Y-51150D02*
X495187D01*
X494187Y-50150D01*
Y-48151D01*
X495187Y-47151D01*
X497186D01*
X498186Y-48151D01*
Y-49151D01*
X494187D01*
X504184Y-45152D02*
Y-51150D01*
X501185D01*
X500185Y-50150D01*
Y-48151D01*
X501185Y-47151D01*
X504184D01*
X464197Y-66150D02*
Y-60152D01*
X467196D01*
X468196Y-61152D01*
Y-63151D01*
X467196Y-64151D01*
X464197D01*
X466196D02*
X468196Y-66150D01*
X471195D02*
X473194D01*
X474194Y-65150D01*
Y-63151D01*
X473194Y-62151D01*
X471195D01*
X470195Y-63151D01*
Y-65150D01*
X471195Y-66150D01*
X476193Y-62151D02*
Y-65150D01*
X477193Y-66150D01*
X480192D01*
Y-62151D01*
X482191Y-66150D02*
Y-62151D01*
X485190D01*
X486190Y-63151D01*
Y-66150D01*
X492188Y-60152D02*
Y-66150D01*
X489189D01*
X488189Y-65150D01*
Y-63151D01*
X489189Y-62151D01*
X492188D01*
X497186Y-66150D02*
X495187D01*
X494187Y-65150D01*
Y-63151D01*
X495187Y-62151D01*
X497186D01*
X498186Y-63151D01*
Y-64151D01*
X494187D01*
X504184Y-60152D02*
Y-66150D01*
X501185D01*
X500185Y-65150D01*
Y-63151D01*
X501185Y-62151D01*
X504184D01*
X466196Y-81150D02*
X464197Y-79151D01*
Y-77151D01*
X466196Y-75152D01*
X469195Y-81150D02*
Y-75152D01*
X471195Y-77151D01*
X473194Y-75152D01*
Y-81150D01*
X475194D02*
X477193D01*
X476193D01*
Y-77151D01*
X475194D01*
X480192D02*
X484191Y-81150D01*
X482191Y-79151D01*
X484191Y-77151D01*
X480192Y-81150D01*
X489189D02*
X487190D01*
X486190Y-80150D01*
Y-78151D01*
X487190Y-77151D01*
X489189D01*
X490189Y-78151D01*
Y-79151D01*
X486190D01*
X496187Y-75152D02*
Y-81150D01*
X493188D01*
X492188Y-80150D01*
Y-78151D01*
X493188Y-77151D01*
X496187D01*
X498186Y-81150D02*
X500185Y-79151D01*
Y-77151D01*
X498186Y-75152D01*
X464197Y-96150D02*
Y-90152D01*
X467196D01*
X468196Y-91152D01*
Y-93151D01*
X467196Y-94151D01*
X464197D01*
X466196D02*
X468196Y-96150D01*
X471195D02*
X473194D01*
X474194Y-95150D01*
Y-93151D01*
X473194Y-92151D01*
X471195D01*
X470195Y-93151D01*
Y-95150D01*
X471195Y-96150D01*
X476193Y-92151D02*
Y-95150D01*
X477193Y-96150D01*
X480192D01*
Y-92151D01*
X482191Y-96150D02*
Y-92151D01*
X485190D01*
X486190Y-93151D01*
Y-96150D01*
X492188Y-90152D02*
Y-96150D01*
X489189D01*
X488189Y-95150D01*
Y-93151D01*
X489189Y-92151D01*
X492188D01*
X497186Y-96150D02*
X495187D01*
X494187Y-95150D01*
Y-93151D01*
X495187Y-92151D01*
X497186D01*
X498186Y-93151D01*
Y-94151D01*
X494187D01*
X504184Y-90152D02*
Y-96150D01*
X501185D01*
X500185Y-95150D01*
Y-93151D01*
X501185Y-92151D01*
X504184D01*
X405212Y-51150D02*
Y-45152D01*
X408211D01*
X409211Y-46152D01*
Y-48151D01*
X408211Y-49151D01*
X405212D01*
X412210Y-47151D02*
X414209D01*
X415209Y-48151D01*
Y-51150D01*
X412210D01*
X411210Y-50150D01*
X412210Y-49151D01*
X415209D01*
X421207Y-45152D02*
Y-51150D01*
X418208D01*
X417208Y-50150D01*
Y-48151D01*
X418208Y-47151D01*
X421207D01*
X405212Y-66150D02*
Y-60152D01*
X408211D01*
X409211Y-61152D01*
Y-63151D01*
X408211Y-64151D01*
X405212D01*
X412210Y-62151D02*
X414209D01*
X415209Y-63151D01*
Y-66150D01*
X412210D01*
X411210Y-65150D01*
X412210Y-64151D01*
X415209D01*
X421207Y-60152D02*
Y-66150D01*
X418208D01*
X417208Y-65150D01*
Y-63151D01*
X418208Y-62151D01*
X421207D01*
X405212Y-81150D02*
Y-75152D01*
X408211D01*
X409211Y-76152D01*
Y-78151D01*
X408211Y-79151D01*
X405212D01*
X412210Y-77151D02*
X414209D01*
X415209Y-78151D01*
Y-81150D01*
X412210D01*
X411210Y-80150D01*
X412210Y-79151D01*
X415209D01*
X421207Y-75152D02*
Y-81150D01*
X418208D01*
X417208Y-80150D01*
Y-78151D01*
X418208Y-77151D01*
X421207D01*
X407211Y-96150D02*
X405212Y-94151D01*
Y-92151D01*
X407211Y-90152D01*
X410211Y-96150D02*
Y-90152D01*
X412210Y-92151D01*
X414209Y-90152D01*
Y-96150D01*
X416209D02*
X418208D01*
X417208D01*
Y-92151D01*
X416209D01*
X421207D02*
X425206Y-96150D01*
X423206Y-94151D01*
X425206Y-92151D01*
X421207Y-96150D01*
X430204D02*
X428205D01*
X427205Y-95150D01*
Y-93151D01*
X428205Y-92151D01*
X430204D01*
X431204Y-93151D01*
Y-94151D01*
X427205D01*
X437202Y-90152D02*
Y-96150D01*
X434203D01*
X433203Y-95150D01*
Y-93151D01*
X434203Y-92151D01*
X437202D01*
X439201Y-96150D02*
X441200Y-94151D01*
Y-92151D01*
X439201Y-90152D01*
X255257Y-45152D02*
X259256D01*
X257257D01*
Y-51150D01*
X262255D02*
X264254D01*
X265254Y-50150D01*
Y-48151D01*
X264254Y-47151D01*
X262255D01*
X261255Y-48151D01*
Y-50150D01*
X262255Y-51150D01*
X267253Y-53149D02*
Y-47151D01*
X270252D01*
X271252Y-48151D01*
Y-50150D01*
X270252Y-51150D01*
X267253D01*
X279249Y-45152D02*
Y-51150D01*
X283248D01*
X286247Y-47151D02*
X288246D01*
X289246Y-48151D01*
Y-51150D01*
X286247D01*
X285247Y-50150D01*
X286247Y-49151D01*
X289246D01*
X291246Y-47151D02*
Y-50150D01*
X292245Y-51150D01*
X295244D01*
Y-52150D01*
X294245Y-53149D01*
X293245D01*
X295244Y-51150D02*
Y-47151D01*
X300243Y-51150D02*
X298243D01*
X297244Y-50150D01*
Y-48151D01*
X298243Y-47151D01*
X300243D01*
X301242Y-48151D01*
Y-49151D01*
X297244D01*
X303242Y-47151D02*
Y-51150D01*
Y-49151D01*
X304241Y-48151D01*
X305241Y-47151D01*
X306241D01*
X315238Y-48151D02*
X319236D01*
X327234Y-45152D02*
Y-51150D01*
X330233D01*
X331233Y-50150D01*
Y-49151D01*
X330233Y-48151D01*
X327234D01*
X330233D01*
X331233Y-47151D01*
Y-46152D01*
X330233Y-45152D01*
X327234D01*
X334232Y-51150D02*
X336231D01*
X337231Y-50150D01*
Y-48151D01*
X336231Y-47151D01*
X334232D01*
X333232Y-48151D01*
Y-50150D01*
X334232Y-51150D01*
X340230Y-46152D02*
Y-47151D01*
X339230D01*
X341229D01*
X340230D01*
Y-50150D01*
X341229Y-51150D01*
X345228Y-46152D02*
Y-47151D01*
X344228D01*
X346228D01*
X345228D01*
Y-50150D01*
X346228Y-51150D01*
X350226D02*
X352226D01*
X353225Y-50150D01*
Y-48151D01*
X352226Y-47151D01*
X350226D01*
X349227Y-48151D01*
Y-50150D01*
X350226Y-51150D01*
X355225D02*
Y-47151D01*
X356224D01*
X357224Y-48151D01*
Y-51150D01*
Y-48151D01*
X358224Y-47151D01*
X359224Y-48151D01*
Y-51150D01*
X367221Y-45152D02*
Y-51150D01*
X371220D01*
X374219Y-47151D02*
X376218D01*
X377218Y-48151D01*
Y-51150D01*
X374219D01*
X373219Y-50150D01*
X374219Y-49151D01*
X377218D01*
X379217Y-47151D02*
Y-50150D01*
X380217Y-51150D01*
X383216D01*
Y-52150D01*
X382216Y-53149D01*
X381216D01*
X383216Y-51150D02*
Y-47151D01*
X388214Y-51150D02*
X386215D01*
X385215Y-50150D01*
Y-48151D01*
X386215Y-47151D01*
X388214D01*
X389214Y-48151D01*
Y-49151D01*
X385215D01*
X391213Y-47151D02*
Y-51150D01*
Y-49151D01*
X392213Y-48151D01*
X393213Y-47151D01*
X394212D01*
X255257Y-60152D02*
X259256D01*
X257257D01*
Y-66150D01*
X262255D02*
X264254D01*
X265254Y-65150D01*
Y-63151D01*
X264254Y-62151D01*
X262255D01*
X261255Y-63151D01*
Y-65150D01*
X262255Y-66150D01*
X267253Y-68149D02*
Y-62151D01*
X270252D01*
X271252Y-63151D01*
Y-65150D01*
X270252Y-66150D01*
X267253D01*
X279249Y-60152D02*
Y-66150D01*
X283248D01*
X286247Y-62151D02*
X288246D01*
X289246Y-63151D01*
Y-66150D01*
X286247D01*
X285247Y-65150D01*
X286247Y-64151D01*
X289246D01*
X291246Y-62151D02*
Y-65150D01*
X292245Y-66150D01*
X295244D01*
Y-67150D01*
X294245Y-68149D01*
X293245D01*
X295244Y-66150D02*
Y-62151D01*
X300243Y-66150D02*
X298243D01*
X297244Y-65150D01*
Y-63151D01*
X298243Y-62151D01*
X300243D01*
X301242Y-63151D01*
Y-64151D01*
X297244D01*
X303242Y-62151D02*
Y-66150D01*
Y-64151D01*
X304241Y-63151D01*
X305241Y-62151D01*
X306241D01*
X315238Y-63151D02*
X319236D01*
X327234Y-60152D02*
Y-66150D01*
X330233D01*
X331233Y-65150D01*
Y-64151D01*
X330233Y-63151D01*
X327234D01*
X330233D01*
X331233Y-62151D01*
Y-61152D01*
X330233Y-60152D01*
X327234D01*
X334232Y-66150D02*
X336231D01*
X337231Y-65150D01*
Y-63151D01*
X336231Y-62151D01*
X334232D01*
X333232Y-63151D01*
Y-65150D01*
X334232Y-66150D01*
X340230Y-61152D02*
Y-62151D01*
X339230D01*
X341229D01*
X340230D01*
Y-65150D01*
X341229Y-66150D01*
X345228Y-61152D02*
Y-62151D01*
X344228D01*
X346228D01*
X345228D01*
Y-65150D01*
X346228Y-66150D01*
X350226D02*
X352226D01*
X353225Y-65150D01*
Y-63151D01*
X352226Y-62151D01*
X350226D01*
X349227Y-63151D01*
Y-65150D01*
X350226Y-66150D01*
X355225D02*
Y-62151D01*
X356224D01*
X357224Y-63151D01*
Y-66150D01*
Y-63151D01*
X358224Y-62151D01*
X359224Y-63151D01*
Y-66150D01*
X367221Y-60152D02*
Y-66150D01*
X371220D01*
X374219Y-62151D02*
X376218D01*
X377218Y-63151D01*
Y-66150D01*
X374219D01*
X373219Y-65150D01*
X374219Y-64151D01*
X377218D01*
X379217Y-62151D02*
Y-65150D01*
X380217Y-66150D01*
X383216D01*
Y-67150D01*
X382216Y-68149D01*
X381216D01*
X383216Y-66150D02*
Y-62151D01*
X388214Y-66150D02*
X386215D01*
X385215Y-65150D01*
Y-63151D01*
X386215Y-62151D01*
X388214D01*
X389214Y-63151D01*
Y-64151D01*
X385215D01*
X391213Y-62151D02*
Y-66150D01*
Y-64151D01*
X392213Y-63151D01*
X393213Y-62151D01*
X394212D01*
X255257Y-75152D02*
X259256D01*
X257257D01*
Y-81150D01*
X262255D02*
X264254D01*
X265254Y-80150D01*
Y-78151D01*
X264254Y-77151D01*
X262255D01*
X261255Y-78151D01*
Y-80150D01*
X262255Y-81150D01*
X267253Y-83149D02*
Y-77151D01*
X270252D01*
X271252Y-78151D01*
Y-80150D01*
X270252Y-81150D01*
X267253D01*
X279249Y-75152D02*
Y-81150D01*
X283248D01*
X286247Y-77151D02*
X288246D01*
X289246Y-78151D01*
Y-81150D01*
X286247D01*
X285247Y-80150D01*
X286247Y-79151D01*
X289246D01*
X291246Y-77151D02*
Y-80150D01*
X292245Y-81150D01*
X295244D01*
Y-82150D01*
X294245Y-83149D01*
X293245D01*
X295244Y-81150D02*
Y-77151D01*
X300243Y-81150D02*
X298243D01*
X297244Y-80150D01*
Y-78151D01*
X298243Y-77151D01*
X300243D01*
X301242Y-78151D01*
Y-79151D01*
X297244D01*
X303242Y-77151D02*
Y-81150D01*
Y-79151D01*
X304241Y-78151D01*
X305241Y-77151D01*
X306241D01*
X315238Y-78151D02*
X319236D01*
X327234Y-75152D02*
Y-81150D01*
X330233D01*
X331233Y-80150D01*
Y-79151D01*
X330233Y-78151D01*
X327234D01*
X330233D01*
X331233Y-77151D01*
Y-76152D01*
X330233Y-75152D01*
X327234D01*
X334232Y-81150D02*
X336231D01*
X337231Y-80150D01*
Y-78151D01*
X336231Y-77151D01*
X334232D01*
X333232Y-78151D01*
Y-80150D01*
X334232Y-81150D01*
X340230Y-76152D02*
Y-77151D01*
X339230D01*
X341229D01*
X340230D01*
Y-80150D01*
X341229Y-81150D01*
X345228Y-76152D02*
Y-77151D01*
X344228D01*
X346228D01*
X345228D01*
Y-80150D01*
X346228Y-81150D01*
X350226D02*
X352226D01*
X353225Y-80150D01*
Y-78151D01*
X352226Y-77151D01*
X350226D01*
X349227Y-78151D01*
Y-80150D01*
X350226Y-81150D01*
X355225D02*
Y-77151D01*
X356224D01*
X357224Y-78151D01*
Y-81150D01*
Y-78151D01*
X358224Y-77151D01*
X359224Y-78151D01*
Y-81150D01*
X367221Y-75152D02*
Y-81150D01*
X371220D01*
X374219Y-77151D02*
X376218D01*
X377218Y-78151D01*
Y-81150D01*
X374219D01*
X373219Y-80150D01*
X374219Y-79151D01*
X377218D01*
X379217Y-77151D02*
Y-80150D01*
X380217Y-81150D01*
X383216D01*
Y-82150D01*
X382216Y-83149D01*
X381216D01*
X383216Y-81150D02*
Y-77151D01*
X388214Y-81150D02*
X386215D01*
X385215Y-80150D01*
Y-78151D01*
X386215Y-77151D01*
X388214D01*
X389214Y-78151D01*
Y-79151D01*
X385215D01*
X391213Y-77151D02*
Y-81150D01*
Y-79151D01*
X392213Y-78151D01*
X393213Y-77151D01*
X394212D01*
X255257Y-90152D02*
X259256D01*
X257257D01*
Y-96150D01*
X262255D02*
X264254D01*
X265254Y-95150D01*
Y-93151D01*
X264254Y-92151D01*
X262255D01*
X261255Y-93151D01*
Y-95150D01*
X262255Y-96150D01*
X267253Y-98149D02*
Y-92151D01*
X270252D01*
X271252Y-93151D01*
Y-95150D01*
X270252Y-96150D01*
X267253D01*
X279249Y-90152D02*
Y-96150D01*
X283248D01*
X286247Y-92151D02*
X288246D01*
X289246Y-93151D01*
Y-96150D01*
X286247D01*
X285247Y-95150D01*
X286247Y-94151D01*
X289246D01*
X291246Y-92151D02*
Y-95150D01*
X292245Y-96150D01*
X295244D01*
Y-97150D01*
X294245Y-98149D01*
X293245D01*
X295244Y-96150D02*
Y-92151D01*
X300243Y-96150D02*
X298243D01*
X297244Y-95150D01*
Y-93151D01*
X298243Y-92151D01*
X300243D01*
X301242Y-93151D01*
Y-94151D01*
X297244D01*
X303242Y-92151D02*
Y-96150D01*
Y-94151D01*
X304241Y-93151D01*
X305241Y-92151D01*
X306241D01*
X315238Y-93151D02*
X319236D01*
X327234Y-90152D02*
Y-96150D01*
X330233D01*
X331233Y-95150D01*
Y-94151D01*
X330233Y-93151D01*
X327234D01*
X330233D01*
X331233Y-92151D01*
Y-91152D01*
X330233Y-90152D01*
X327234D01*
X334232Y-96150D02*
X336231D01*
X337231Y-95150D01*
Y-93151D01*
X336231Y-92151D01*
X334232D01*
X333232Y-93151D01*
Y-95150D01*
X334232Y-96150D01*
X340230Y-91152D02*
Y-92151D01*
X339230D01*
X341229D01*
X340230D01*
Y-95150D01*
X341229Y-96150D01*
X345228Y-91152D02*
Y-92151D01*
X344228D01*
X346228D01*
X345228D01*
Y-95150D01*
X346228Y-96150D01*
X350226D02*
X352226D01*
X353225Y-95150D01*
Y-93151D01*
X352226Y-92151D01*
X350226D01*
X349227Y-93151D01*
Y-95150D01*
X350226Y-96150D01*
X355225D02*
Y-92151D01*
X356224D01*
X357224Y-93151D01*
Y-96150D01*
Y-93151D01*
X358224Y-92151D01*
X359224Y-93151D01*
Y-96150D01*
X367221Y-90152D02*
Y-96150D01*
X371220D01*
X374219Y-92151D02*
X376218D01*
X377218Y-93151D01*
Y-96150D01*
X374219D01*
X373219Y-95150D01*
X374219Y-94151D01*
X377218D01*
X379217Y-92151D02*
Y-95150D01*
X380217Y-96150D01*
X383216D01*
Y-97150D01*
X382216Y-98149D01*
X381216D01*
X383216Y-96150D02*
Y-92151D01*
X388214Y-96150D02*
X386215D01*
X385215Y-95150D01*
Y-93151D01*
X386215Y-92151D01*
X388214D01*
X389214Y-93151D01*
Y-94151D01*
X385215D01*
X391213Y-92151D02*
Y-96150D01*
Y-94151D01*
X392213Y-93151D01*
X393213Y-92151D01*
X394212D01*
X181877Y-51150D02*
Y-45152D01*
X184876D01*
X185876Y-46152D01*
Y-48151D01*
X184876Y-49151D01*
X181877D01*
X183876D02*
X185876Y-51150D01*
X188875D02*
X190874D01*
X191874Y-50150D01*
Y-48151D01*
X190874Y-47151D01*
X188875D01*
X187875Y-48151D01*
Y-50150D01*
X188875Y-51150D01*
X193873Y-47151D02*
Y-50150D01*
X194873Y-51150D01*
X197872D01*
Y-47151D01*
X199871Y-51150D02*
Y-47151D01*
X202870D01*
X203870Y-48151D01*
Y-51150D01*
X209868Y-45152D02*
Y-51150D01*
X206869D01*
X205869Y-50150D01*
Y-48151D01*
X206869Y-47151D01*
X209868D01*
X181877Y-66150D02*
Y-60152D01*
X184876D01*
X185876Y-61152D01*
Y-63151D01*
X184876Y-64151D01*
X181877D01*
X183876D02*
X185876Y-66150D01*
X188875D02*
X190874D01*
X191874Y-65150D01*
Y-63151D01*
X190874Y-62151D01*
X188875D01*
X187875Y-63151D01*
Y-65150D01*
X188875Y-66150D01*
X193873Y-62151D02*
Y-65150D01*
X194873Y-66150D01*
X197872D01*
Y-62151D01*
X199871Y-66150D02*
Y-62151D01*
X202870D01*
X203870Y-63151D01*
Y-66150D01*
X209868Y-60152D02*
Y-66150D01*
X206869D01*
X205869Y-65150D01*
Y-63151D01*
X206869Y-62151D01*
X209868D01*
X181877Y-81150D02*
Y-75152D01*
X184876D01*
X185876Y-76152D01*
Y-78151D01*
X184876Y-79151D01*
X181877D01*
X183876D02*
X185876Y-81150D01*
X188875D02*
X190874D01*
X191874Y-80150D01*
Y-78151D01*
X190874Y-77151D01*
X188875D01*
X187875Y-78151D01*
Y-80150D01*
X188875Y-81150D01*
X193873Y-77151D02*
Y-80150D01*
X194873Y-81150D01*
X197872D01*
Y-77151D01*
X199871Y-81150D02*
Y-77151D01*
X202870D01*
X203870Y-78151D01*
Y-81150D01*
X209868Y-75152D02*
Y-81150D01*
X206869D01*
X205869Y-80150D01*
Y-78151D01*
X206869Y-77151D01*
X209868D01*
X181877Y-96150D02*
Y-90152D01*
X184876D01*
X185876Y-91152D01*
Y-93151D01*
X184876Y-94151D01*
X181877D01*
X183876D02*
X185876Y-96150D01*
X188875D02*
X190874D01*
X191874Y-95150D01*
Y-93151D01*
X190874Y-92151D01*
X188875D01*
X187875Y-93151D01*
Y-95150D01*
X188875Y-96150D01*
X193873Y-92151D02*
Y-95150D01*
X194873Y-96150D01*
X197872D01*
Y-92151D01*
X199871Y-96150D02*
Y-92151D01*
X202870D01*
X203870Y-93151D01*
Y-96150D01*
X209868Y-90152D02*
Y-96150D01*
X206869D01*
X205869Y-95150D01*
Y-93151D01*
X206869Y-92151D01*
X209868D01*
X131289Y-51150D02*
Y-45152D01*
X134288D01*
X135288Y-46152D01*
Y-48151D01*
X134288Y-49151D01*
X131289D01*
X137287Y-45152D02*
X141286D01*
X139287D01*
Y-51150D01*
X143286Y-45152D02*
Y-51150D01*
Y-48151D01*
X147284D01*
Y-45152D01*
Y-51150D01*
X131289Y-66150D02*
Y-60152D01*
X134288D01*
X135288Y-61152D01*
Y-63151D01*
X134288Y-64151D01*
X131289D01*
X137287Y-60152D02*
X141286D01*
X139287D01*
Y-66150D01*
X143286Y-60152D02*
Y-66150D01*
Y-63151D01*
X147284D01*
Y-60152D01*
Y-66150D01*
X131289Y-81150D02*
Y-75152D01*
X134288D01*
X135288Y-76152D01*
Y-78151D01*
X134288Y-79151D01*
X131289D01*
X137287Y-75152D02*
X141286D01*
X139287D01*
Y-81150D01*
X143286Y-75152D02*
Y-81150D01*
Y-78151D01*
X147284D01*
Y-75152D01*
Y-81150D01*
X131289Y-96150D02*
Y-90152D01*
X134288D01*
X135288Y-91152D01*
Y-93151D01*
X134288Y-94151D01*
X131289D01*
X137287Y-90152D02*
X141286D01*
X139287D01*
Y-96150D01*
X143286Y-90152D02*
Y-96150D01*
Y-93151D01*
X147284D01*
Y-90152D01*
Y-96150D01*
X19322Y-51150D02*
X21321D01*
X20322D01*
Y-45152D01*
X19322Y-46152D01*
X24320Y-51150D02*
X26320D01*
X25320D01*
Y-45152D01*
X24320Y-46152D01*
X29319D02*
X30318Y-45152D01*
X32318D01*
X33318Y-46152D01*
Y-47151D01*
X32318Y-48151D01*
X33318Y-49151D01*
Y-50150D01*
X32318Y-51150D01*
X30318D01*
X29319Y-50150D01*
Y-49151D01*
X30318Y-48151D01*
X29319Y-47151D01*
Y-46152D01*
X30318Y-48151D02*
X32318D01*
X35317Y-51150D02*
Y-50150D01*
X36316D01*
Y-51150D01*
X35317D01*
X40315D02*
X42315D01*
X41315D01*
Y-45152D01*
X40315Y-46152D01*
X45314Y-51150D02*
X47313D01*
X46313D01*
Y-45152D01*
X45314Y-46152D01*
X50312Y-51150D02*
Y-47151D01*
X51312D01*
X52311Y-48151D01*
Y-51150D01*
Y-48151D01*
X53311Y-47151D01*
X54311Y-48151D01*
Y-51150D01*
X56310D02*
X58309D01*
X57310D01*
Y-47151D01*
X56310D01*
X61308Y-51150D02*
X63308D01*
X62308D01*
Y-45152D01*
X61308D01*
X74304Y-51150D02*
X72305Y-49151D01*
Y-47151D01*
X74304Y-45152D01*
X77303Y-46152D02*
X78303Y-45152D01*
X80302D01*
X81302Y-46152D01*
Y-47151D01*
X80302Y-48151D01*
X79303D01*
X80302D01*
X81302Y-49151D01*
Y-50150D01*
X80302Y-51150D01*
X78303D01*
X77303Y-50150D01*
X83301Y-51150D02*
Y-50150D01*
X84301D01*
Y-51150D01*
X83301D01*
X88300Y-46152D02*
X89299Y-45152D01*
X91299D01*
X92298Y-46152D01*
Y-50150D01*
X91299Y-51150D01*
X89299D01*
X88300Y-50150D01*
Y-46152D01*
X94298D02*
X95297Y-45152D01*
X97297D01*
X98296Y-46152D01*
Y-50150D01*
X97297Y-51150D01*
X95297D01*
X94298Y-50150D01*
Y-46152D01*
X100296D02*
X101295Y-45152D01*
X103295D01*
X104295Y-46152D01*
Y-50150D01*
X103295Y-51150D01*
X101295D01*
X100296Y-50150D01*
Y-46152D01*
X106294Y-51150D02*
Y-47151D01*
X107294D01*
X108293Y-48151D01*
Y-51150D01*
Y-48151D01*
X109293Y-47151D01*
X110293Y-48151D01*
Y-51150D01*
X112292D02*
Y-47151D01*
X113292D01*
X114291Y-48151D01*
Y-51150D01*
Y-48151D01*
X115291Y-47151D01*
X116291Y-48151D01*
Y-51150D01*
X118290D02*
X120289Y-49151D01*
Y-47151D01*
X118290Y-45152D01*
X22321Y-66150D02*
Y-60152D01*
X19322Y-63151D01*
X23321D01*
X25320Y-61152D02*
X26320Y-60152D01*
X28319D01*
X29319Y-61152D01*
Y-65150D01*
X28319Y-66150D01*
X26320D01*
X25320Y-65150D01*
Y-61152D01*
X31318Y-66150D02*
Y-65150D01*
X32318D01*
Y-66150D01*
X31318D01*
X36316Y-61152D02*
X37316Y-60152D01*
X39316D01*
X40315Y-61152D01*
Y-65150D01*
X39316Y-66150D01*
X37316D01*
X36316Y-65150D01*
Y-61152D01*
X42315D02*
X43314Y-60152D01*
X45314D01*
X46313Y-61152D01*
Y-65150D01*
X45314Y-66150D01*
X43314D01*
X42315Y-65150D01*
Y-61152D01*
X48313Y-66150D02*
Y-62151D01*
X49312D01*
X50312Y-63151D01*
Y-66150D01*
Y-63151D01*
X51312Y-62151D01*
X52311Y-63151D01*
Y-66150D01*
X54311D02*
X56310D01*
X55310D01*
Y-62151D01*
X54311D01*
X59309Y-66150D02*
X61308D01*
X60309D01*
Y-60152D01*
X59309D01*
X72305Y-66150D02*
X70306Y-64151D01*
Y-62151D01*
X72305Y-60152D01*
X75304Y-66150D02*
X77303D01*
X76304D01*
Y-60152D01*
X75304Y-61152D01*
X80302Y-66150D02*
Y-65150D01*
X81302D01*
Y-66150D01*
X80302D01*
X85301Y-61152D02*
X86300Y-60152D01*
X88300D01*
X89299Y-61152D01*
Y-65150D01*
X88300Y-66150D01*
X86300D01*
X85301Y-65150D01*
Y-61152D01*
X91299Y-66150D02*
X93298D01*
X92298D01*
Y-60152D01*
X91299Y-61152D01*
X100296Y-60152D02*
X98296Y-61152D01*
X96297Y-63151D01*
Y-65150D01*
X97297Y-66150D01*
X99296D01*
X100296Y-65150D01*
Y-64151D01*
X99296Y-63151D01*
X96297D01*
X102295Y-66150D02*
Y-62151D01*
X103295D01*
X104295Y-63151D01*
Y-66150D01*
Y-63151D01*
X105294Y-62151D01*
X106294Y-63151D01*
Y-66150D01*
X108293D02*
Y-62151D01*
X109293D01*
X110293Y-63151D01*
Y-66150D01*
Y-63151D01*
X111292Y-62151D01*
X112292Y-63151D01*
Y-66150D01*
X114291D02*
X116291Y-64151D01*
Y-62151D01*
X114291Y-60152D01*
X19322Y-76152D02*
X20322Y-75152D01*
X22321D01*
X23321Y-76152D01*
Y-77151D01*
X22321Y-78151D01*
X21321D01*
X22321D01*
X23321Y-79151D01*
Y-80150D01*
X22321Y-81150D01*
X20322D01*
X19322Y-80150D01*
X29319Y-75152D02*
X25320D01*
Y-78151D01*
X27319Y-77151D01*
X28319D01*
X29319Y-78151D01*
Y-80150D01*
X28319Y-81150D01*
X26320D01*
X25320Y-80150D01*
X31318Y-81150D02*
Y-80150D01*
X32318D01*
Y-81150D01*
X31318D01*
X39316D02*
Y-75152D01*
X36316Y-78151D01*
X40315D01*
X42315Y-76152D02*
X43314Y-75152D01*
X45314D01*
X46313Y-76152D01*
Y-77151D01*
X45314Y-78151D01*
X44314D01*
X45314D01*
X46313Y-79151D01*
Y-80150D01*
X45314Y-81150D01*
X43314D01*
X42315Y-80150D01*
X48313Y-81150D02*
Y-77151D01*
X49312D01*
X50312Y-78151D01*
Y-81150D01*
Y-78151D01*
X51312Y-77151D01*
X52311Y-78151D01*
Y-81150D01*
X54311D02*
X56310D01*
X55310D01*
Y-77151D01*
X54311D01*
X59309Y-81150D02*
X61308D01*
X60309D01*
Y-75152D01*
X59309D01*
X72305Y-81150D02*
X70306Y-79151D01*
Y-77151D01*
X72305Y-75152D01*
X75304Y-76152D02*
X76304Y-75152D01*
X78303D01*
X79303Y-76152D01*
Y-80150D01*
X78303Y-81150D01*
X76304D01*
X75304Y-80150D01*
Y-76152D01*
X81302Y-81150D02*
Y-80150D01*
X82302D01*
Y-81150D01*
X81302D01*
X86300Y-80150D02*
X87300Y-81150D01*
X89299D01*
X90299Y-80150D01*
Y-76152D01*
X89299Y-75152D01*
X87300D01*
X86300Y-76152D01*
Y-77151D01*
X87300Y-78151D01*
X90299D01*
X92298Y-76152D02*
X93298Y-75152D01*
X95297D01*
X96297Y-76152D01*
Y-80150D01*
X95297Y-81150D01*
X93298D01*
X92298Y-80150D01*
Y-76152D01*
X98296D02*
X99296Y-75152D01*
X101295D01*
X102295Y-76152D01*
Y-80150D01*
X101295Y-81150D01*
X99296D01*
X98296Y-80150D01*
Y-76152D01*
X104295Y-81150D02*
Y-77151D01*
X105294D01*
X106294Y-78151D01*
Y-81150D01*
Y-78151D01*
X107294Y-77151D01*
X108293Y-78151D01*
Y-81150D01*
X110293D02*
Y-77151D01*
X111292D01*
X112292Y-78151D01*
Y-81150D01*
Y-78151D01*
X113292Y-77151D01*
X114291Y-78151D01*
Y-81150D01*
X116291D02*
X118290Y-79151D01*
Y-77151D01*
X116291Y-75152D01*
X23321Y-96150D02*
X19322D01*
X23321Y-92151D01*
Y-91152D01*
X22321Y-90152D01*
X20322D01*
X19322Y-91152D01*
X25320D02*
X26320Y-90152D01*
X28319D01*
X29319Y-91152D01*
Y-92151D01*
X28319Y-93151D01*
X29319Y-94151D01*
Y-95150D01*
X28319Y-96150D01*
X26320D01*
X25320Y-95150D01*
Y-94151D01*
X26320Y-93151D01*
X25320Y-92151D01*
Y-91152D01*
X26320Y-93151D02*
X28319D01*
X31318Y-96150D02*
Y-95150D01*
X32318D01*
Y-96150D01*
X31318D01*
X36316Y-91152D02*
X37316Y-90152D01*
X39316D01*
X40315Y-91152D01*
Y-95150D01*
X39316Y-96150D01*
X37316D01*
X36316Y-95150D01*
Y-91152D01*
X42315D02*
X43314Y-90152D01*
X45314D01*
X46313Y-91152D01*
Y-95150D01*
X45314Y-96150D01*
X43314D01*
X42315Y-95150D01*
Y-91152D01*
X48313Y-96150D02*
Y-92151D01*
X49312D01*
X50312Y-93151D01*
Y-96150D01*
Y-93151D01*
X51312Y-92151D01*
X52311Y-93151D01*
Y-96150D01*
X54311D02*
X56310D01*
X55310D01*
Y-92151D01*
X54311D01*
X59309Y-96150D02*
X61308D01*
X60309D01*
Y-90152D01*
X59309D01*
X72305Y-96150D02*
X70306Y-94151D01*
Y-92151D01*
X72305Y-90152D01*
X75304Y-91152D02*
X76304Y-90152D01*
X78303D01*
X79303Y-91152D01*
Y-95150D01*
X78303Y-96150D01*
X76304D01*
X75304Y-95150D01*
Y-91152D01*
X81302Y-96150D02*
Y-95150D01*
X82302D01*
Y-96150D01*
X81302D01*
X86300Y-90152D02*
X90299D01*
Y-91152D01*
X86300Y-95150D01*
Y-96150D01*
X92298D02*
X94298D01*
X93298D01*
Y-90152D01*
X92298Y-91152D01*
X97297Y-96150D02*
X99296D01*
X98296D01*
Y-90152D01*
X97297Y-91152D01*
X102295Y-96150D02*
Y-92151D01*
X103295D01*
X104295Y-93151D01*
Y-96150D01*
Y-93151D01*
X105294Y-92151D01*
X106294Y-93151D01*
Y-96150D01*
X108293D02*
Y-92151D01*
X109293D01*
X110293Y-93151D01*
Y-96150D01*
Y-93151D01*
X111292Y-92151D01*
X112292Y-93151D01*
Y-96150D01*
X114291D02*
X116291Y-94151D01*
Y-92151D01*
X114291Y-90152D01*
X-39662Y-111150D02*
X-37663D01*
X-38663D01*
Y-105152D01*
X-39662Y-106152D01*
X-31665Y-111150D02*
Y-105152D01*
X-34664Y-108151D01*
X-30665D01*
X-25667Y-111150D02*
Y-105152D01*
X-28666Y-108151D01*
X-24667D01*
X-16670Y-105152D02*
X-12671D01*
X-14671D01*
Y-111150D01*
X-9672D02*
X-7673D01*
X-6673Y-110150D01*
Y-108151D01*
X-7673Y-107151D01*
X-9672D01*
X-10672Y-108151D01*
Y-110150D01*
X-9672Y-111150D01*
X-3674Y-106152D02*
Y-107151D01*
X-4674D01*
X-2674D01*
X-3674D01*
Y-110150D01*
X-2674Y-111150D01*
X1324Y-107151D02*
X3324D01*
X4323Y-108151D01*
Y-111150D01*
X1324D01*
X325Y-110150D01*
X1324Y-109151D01*
X4323D01*
X6323Y-111150D02*
X8322D01*
X7322D01*
Y-105152D01*
X6323D01*
X-39662Y-46152D02*
X-38663Y-45152D01*
X-36663D01*
X-35664Y-46152D01*
Y-47151D01*
X-36663Y-48151D01*
X-37663D01*
X-36663D01*
X-35664Y-49151D01*
Y-50150D01*
X-36663Y-51150D01*
X-38663D01*
X-39662Y-50150D01*
Y-61152D02*
X-38663Y-60152D01*
X-36663D01*
X-35664Y-61152D01*
Y-62151D01*
X-36663Y-63151D01*
X-35664Y-64151D01*
Y-65150D01*
X-36663Y-66150D01*
X-38663D01*
X-39662Y-65150D01*
Y-64151D01*
X-38663Y-63151D01*
X-39662Y-62151D01*
Y-61152D01*
X-38663Y-63151D02*
X-36663D01*
X-39662Y-81150D02*
X-37663D01*
X-38663D01*
Y-75152D01*
X-39662Y-76152D01*
X-30665Y-75152D02*
X-34664D01*
Y-78151D01*
X-32665Y-77151D01*
X-31665D01*
X-30665Y-78151D01*
Y-80150D01*
X-31665Y-81150D01*
X-33664D01*
X-34664Y-80150D01*
X-39662Y-96150D02*
X-37663D01*
X-38663D01*
Y-90152D01*
X-39662Y-91152D01*
X-34664Y-96150D02*
X-32665D01*
X-33664D01*
Y-90152D01*
X-34664Y-91152D01*
X-29666D02*
X-28666Y-90152D01*
X-26667D01*
X-25667Y-91152D01*
Y-92151D01*
X-26667Y-93151D01*
X-25667Y-94151D01*
Y-95150D01*
X-26667Y-96150D01*
X-28666D01*
X-29666Y-95150D01*
Y-94151D01*
X-28666Y-93151D01*
X-29666Y-92151D01*
Y-91152D01*
X-28666Y-93151D02*
X-26667D01*
D58*
X182000Y254000D02*
X184500Y259000D01*
X179500D02*
X184500D01*
X179500D02*
X182000Y254000D01*
X72000Y305500D02*
X74500Y310500D01*
X69500D02*
X74500D01*
X69500D02*
X72000Y305500D01*
X82500Y305000D02*
X85000Y310000D01*
X80000D02*
X85000D01*
X80000D02*
X82500Y305000D01*
X36000Y267500D02*
X38500Y272500D01*
X33500D02*
X38500D01*
X33500D02*
X36000Y267500D01*
X76500Y109000D02*
X79000Y114000D01*
X74000D02*
X79000D01*
X74000D02*
X76500Y109000D01*
X84500Y13000D02*
X87000Y18000D01*
X82000D02*
X87000D01*
X82000D02*
X84500Y13000D01*
X78500Y42500D02*
X81000Y47500D01*
X76000D02*
X81000D01*
X76000D02*
X78500Y42500D01*
X119000Y137500D02*
X121500Y142500D01*
X116500D02*
X121500D01*
X116500D02*
X119000Y137500D01*
X260500Y281500D02*
X263000Y286500D01*
X258000D02*
X263000D01*
X258000D02*
X260500Y281500D01*
X39500Y144500D02*
X42000Y149500D01*
X37000D02*
X42000D01*
X37000D02*
X39500Y144500D01*
X274500Y310500D02*
X277000Y315500D01*
X272000D02*
X277000D01*
X272000D02*
X274500Y310500D01*
X255200Y246500D02*
X257700Y251500D01*
X252700D02*
X257700D01*
X252700D02*
X255200Y246500D01*
X120500Y253500D02*
X123000Y258500D01*
X118000D02*
X123000D01*
X118000D02*
X120500Y253500D01*
X308864Y280128D02*
X311364Y285128D01*
X306364D02*
X311364D01*
X306364D02*
X308864Y280128D01*
X74000Y152500D02*
X76500Y157500D01*
X71500D02*
X76500D01*
X71500D02*
X74000Y152500D01*
X66500Y36500D02*
X69000Y41500D01*
X64000D02*
X69000D01*
X64000D02*
X66500Y36500D01*
X119500Y27500D02*
X122000Y32500D01*
X117000D02*
X122000D01*
X117000D02*
X119500Y27500D01*
X118000Y327500D02*
X120500Y332500D01*
X115500D02*
X120500D01*
X115500D02*
X118000Y327500D01*
X121000Y278500D02*
X123500Y283500D01*
X118500D02*
X123500D01*
X118500D02*
X121000Y278500D01*
X375500Y295500D02*
X378000Y300500D01*
X373000D02*
X378000D01*
X373000D02*
X375500Y295500D01*
X119500Y162500D02*
X122000Y167500D01*
X117000D02*
X122000D01*
X117000D02*
X119500Y162500D01*
X373000Y184500D02*
X375500Y189500D01*
X370500D02*
X375500D01*
X370500D02*
X373000Y184500D01*
X119500Y52500D02*
X122000Y57500D01*
X117000D02*
X122000D01*
X117000D02*
X119500Y52500D01*
X183500Y190500D02*
X186000Y195500D01*
X181000D02*
X186000D01*
X181000D02*
X183500Y190500D01*
X307000Y332500D02*
X309500Y337500D01*
X304500D02*
X309500D01*
X304500D02*
X307000Y332500D01*
Y321000D02*
X309500Y326000D01*
X304500D02*
X309500D01*
X304500D02*
X307000Y321000D01*
Y310000D02*
X309500Y315000D01*
X304500D02*
X309500D01*
X304500D02*
X307000Y310000D01*
X307500Y225000D02*
X310000Y230000D01*
X305000D02*
X310000D01*
X305000D02*
X307500Y225000D01*
Y213000D02*
X310000Y218000D01*
X305000D02*
X310000D01*
X305000D02*
X307500Y213000D01*
Y202000D02*
X310000Y207000D01*
X305000D02*
X310000D01*
X305000D02*
X307500Y202000D01*
X255300Y264300D02*
X257800Y269300D01*
X252800D02*
X257800D01*
X252800D02*
X255300Y264300D01*
X307087Y104783D02*
X309587Y109783D01*
X304587D02*
X309587D01*
X304587D02*
X307087Y104783D01*
Y93957D02*
X309587Y98957D01*
X304587D02*
X309587D01*
X304587D02*
X307087Y93957D01*
Y83130D02*
X309587Y88130D01*
X304587D02*
X309587D01*
X304587D02*
X307087Y83130D01*
X253500Y40000D02*
X256000Y45000D01*
X251000D02*
X256000D01*
X251000D02*
X253500Y40000D01*
X253402Y29272D02*
X255902Y34272D01*
X250902D02*
X255902D01*
X250902D02*
X253402Y29272D01*
X253303Y18839D02*
X255803Y23839D01*
X250803D02*
X255803D01*
X250803D02*
X253303Y18839D01*
X196000Y169500D02*
X198500Y174500D01*
X193500D02*
X198500D01*
X193500D02*
X196000Y169500D01*
X247146Y190217D02*
X249646Y195217D01*
X244646D02*
X249646D01*
X244646D02*
X247146Y190217D01*
X287106Y310689D02*
X289606Y315689D01*
X284606D02*
X289606D01*
X284606D02*
X287106Y310689D01*
X246949Y168563D02*
X249449Y173563D01*
X244449D02*
X249449D01*
X244449D02*
X246949Y168563D01*
X178051Y234803D02*
X180551Y239803D01*
X175551D02*
X180551D01*
X175551D02*
X178051Y234803D01*
X110630Y228307D02*
X113130Y233307D01*
X108130D02*
X113130D01*
X108130D02*
X110630Y228307D01*
X44094Y228701D02*
X46595Y233701D01*
X41594D02*
X46595D01*
X41594D02*
X44094Y228701D01*
X180217Y20236D02*
X182717Y25236D01*
X177717D02*
X182717D01*
X177717D02*
X180217Y20236D01*
X160630Y28799D02*
X163130Y33799D01*
X158130D02*
X163130D01*
X158130D02*
X160630Y28799D01*
X167520Y224468D02*
X170020Y229468D01*
X165020D02*
X170020D01*
X165020D02*
X167520Y224468D01*
X200500Y67500D02*
X203000Y72500D01*
X198000D02*
X203000D01*
X198000D02*
X200500Y67500D01*
X283465Y83425D02*
X285965Y88425D01*
X280965D02*
X285965D01*
X280965D02*
X283465Y83425D01*
X165256Y44547D02*
X167756Y49547D01*
X162756D02*
X167756D01*
X162756D02*
X165256Y44547D01*
X68405Y144252D02*
X70906Y149252D01*
X65905D02*
X70906D01*
X65905D02*
X68405Y144252D01*
X31201Y167579D02*
X33701Y172579D01*
X28701D02*
X33701D01*
X28701D02*
X31201Y167579D01*
X39469Y135787D02*
X41969Y140787D01*
X36968D02*
X41969D01*
X36968D02*
X39469Y135787D01*
X39764Y167874D02*
X42264Y172874D01*
X37264D02*
X42264D01*
X37264D02*
X39764Y167874D01*
X163779Y290020D02*
X166279Y295020D01*
X161279D02*
X166279D01*
X161279D02*
X163779Y290020D01*
X165354Y75453D02*
X167854Y80453D01*
X162854D02*
X167854D01*
X162854D02*
X165354Y75453D01*
X42126Y92972D02*
X44626Y97972D01*
X39626D02*
X44626D01*
X39626D02*
X42126Y92972D01*
X161319Y184311D02*
X163819Y189311D01*
X158819D02*
X163819D01*
X158819D02*
X161319Y184311D01*
X92618Y212756D02*
X95118Y217756D01*
X90118D02*
X95118D01*
X90118D02*
X92618Y212756D01*
X37106Y250453D02*
X39606Y255453D01*
X34606D02*
X39606D01*
X34606D02*
X37106Y250453D01*
X372000Y69500D02*
X374500Y74500D01*
X369500D02*
X374500D01*
X369500D02*
X372000Y69500D01*
X306000Y26500D02*
X308500Y31500D01*
X303500D02*
X308500D01*
X303500D02*
X306000Y26500D01*
X310000Y140500D02*
X312500Y145500D01*
X307500D02*
X312500D01*
X307500D02*
X310000Y140500D01*
X309000Y169500D02*
X311500Y174500D01*
X306500D02*
X311500D01*
X306500D02*
X309000Y169500D01*
X311000Y263500D02*
X313500Y268500D01*
X308500D02*
X313500D01*
X308500D02*
X311000Y263500D01*
Y252500D02*
X313500Y257500D01*
X308500D02*
X313500D01*
X308500D02*
X311000Y252500D01*
X255200Y255500D02*
X257700Y260500D01*
X252700D02*
X257700D01*
X252700D02*
X255200Y255500D01*
X306000Y52500D02*
X308500Y57500D01*
X303500D02*
X308500D01*
X303500D02*
X306000Y52500D01*
Y37500D02*
X308500Y42500D01*
X303500D02*
X308500D01*
X303500D02*
X306000Y37500D01*
X183500Y38000D02*
X186000Y43000D01*
X181000D02*
X186000D01*
X181000D02*
X183500Y38000D01*
X258000Y156000D02*
X260500Y161000D01*
X255500D02*
X260500D01*
X255500D02*
X258000Y156000D01*
X199114Y160098D02*
X201614Y165098D01*
X196614D02*
X201614D01*
X196614D02*
X199114Y160098D01*
X310000Y151500D02*
X312500Y156500D01*
X307500D02*
X312500D01*
X307500D02*
X310000Y151500D01*
X258000Y145500D02*
X260500Y150500D01*
X255500D02*
X260500D01*
X255500D02*
X258000Y145500D01*
X183000Y142500D02*
X185500Y147500D01*
X180500D02*
X185500D01*
X180500D02*
X183000Y142500D01*
X202618Y143287D02*
X205118Y148287D01*
X200118D02*
X205118D01*
X200118D02*
X202618Y143287D01*
X258000Y135500D02*
X260500Y140500D01*
X255500D02*
X260500D01*
X255500D02*
X258000Y135500D01*
X179134Y124173D02*
X181634Y129173D01*
X176634D02*
X181634D01*
X176634D02*
X179134Y124173D01*
X283169Y58819D02*
X285669Y63819D01*
X280669D02*
X285669D01*
X280669D02*
X283169Y58819D01*
X83169Y237559D02*
X85669Y242559D01*
X80669D02*
X85669D01*
X80669D02*
X83169Y237559D01*
X161319Y157146D02*
X163819Y162146D01*
X158819D02*
X163819D01*
X158819D02*
X161319Y157146D01*
X276870Y199173D02*
X279370Y204173D01*
X274370D02*
X279370D01*
X274370D02*
X276870Y199173D01*
X263287D02*
X265787Y204173D01*
X260787D02*
X265787D01*
X260787D02*
X263287Y199173D01*
X250492Y225551D02*
X252992Y230551D01*
X247992D02*
X252992D01*
X247992D02*
X250492Y225551D01*
X63681Y260886D02*
X66181Y265886D01*
X61181D02*
X66181D01*
X61181D02*
X63681Y260886D01*
X71260Y266693D02*
X73760Y271693D01*
X68760D02*
X73760D01*
X68760D02*
X71260Y266693D01*
X212894Y263051D02*
X215394Y268051D01*
X210394D02*
X215394D01*
X210394D02*
X212894Y263051D01*
X197047D02*
X199547Y268051D01*
X194547D02*
X199547D01*
X194547D02*
X197047Y263051D01*
X199016Y276043D02*
X201516Y281043D01*
X196516D02*
X201516D01*
X196516D02*
X199016Y276043D01*
X213189Y206260D02*
X215689Y211260D01*
X210689D02*
X215689D01*
X210689D02*
X213189Y206260D01*
X211811Y165905D02*
X214311Y170905D01*
X209311D02*
X214311D01*
X209311D02*
X211811Y165905D01*
X223425Y166201D02*
X225925Y171201D01*
X220925D02*
X225925D01*
X220925D02*
X223425Y166201D01*
X158760Y139232D02*
X161260Y144232D01*
X156260D02*
X161260D01*
X156260D02*
X158760Y139232D01*
X163976Y266764D02*
X166476Y271764D01*
X161476D02*
X166476D01*
X161476D02*
X163976Y266764D01*
X403012Y297697D02*
X405512Y298947D01*
X408012Y297697D01*
X406762Y300197D02*
X408012Y297697D01*
X406762Y300197D02*
X408012Y302697D01*
X405512Y301447D02*
X408012Y302697D01*
X403012D02*
X405512Y301447D01*
X403012Y302697D02*
X404262Y300197D01*
X403012Y297697D02*
X404262Y300197D01*
X403000Y176500D02*
X405500Y177750D01*
X408000Y176500D01*
X406750Y179000D02*
X408000Y176500D01*
X406750Y179000D02*
X408000Y181500D01*
X405500Y180250D02*
X408000Y181500D01*
X403000D02*
X405500Y180250D01*
X403000Y181500D02*
X404250Y179000D01*
X403000Y176500D02*
X404250Y179000D01*
X400000Y67500D02*
X402500Y68750D01*
X405000Y67500D01*
X403750Y70000D02*
X405000Y67500D01*
X403750Y70000D02*
X405000Y72500D01*
X402500Y71250D02*
X405000Y72500D01*
X400000D02*
X402500Y71250D01*
X400000Y72500D02*
X401250Y70000D01*
X400000Y67500D02*
X401250Y70000D01*
X16500Y272130D02*
X21500D01*
Y277130D01*
X16500D02*
X21500D01*
X16500Y272130D02*
Y277130D01*
Y262130D02*
X21500D01*
Y267130D01*
X16500D02*
X21500D01*
X16500Y262130D02*
Y267130D01*
Y252130D02*
X21500D01*
Y257130D01*
X16500D02*
X21500D01*
X16500Y252130D02*
Y257130D01*
Y242130D02*
X21500D01*
Y247130D01*
X16500D02*
X21500D01*
X16500Y242130D02*
Y247130D01*
Y232130D02*
X21500D01*
Y237130D01*
X16500D02*
X21500D01*
X16500Y232130D02*
Y237130D01*
Y222130D02*
X21500D01*
Y227130D01*
X16500D02*
X21500D01*
X16500Y222130D02*
Y227130D01*
Y212130D02*
X21500D01*
Y217130D01*
X16500D02*
X21500D01*
X16500Y212130D02*
Y217130D01*
Y202130D02*
X21500D01*
Y207130D01*
X16500D02*
X21500D01*
X16500Y202130D02*
Y207130D01*
Y192130D02*
X21500D01*
Y197130D01*
X16500D02*
X21500D01*
X16500Y192130D02*
Y197130D01*
Y182130D02*
X21500D01*
Y187130D01*
X16500D02*
X21500D01*
X16500Y182130D02*
Y187130D01*
Y172130D02*
X21500D01*
Y177130D01*
X16500D02*
X21500D01*
X16500Y172130D02*
Y177130D01*
Y162130D02*
X21500D01*
Y167130D01*
X16500D02*
X21500D01*
X16500Y162130D02*
Y167130D01*
Y152130D02*
X21500D01*
Y157130D01*
X16500D02*
X21500D01*
X16500Y152130D02*
Y157130D01*
Y142130D02*
X21500D01*
Y147130D01*
X16500D02*
X21500D01*
X16500Y142130D02*
Y147130D01*
Y132130D02*
X21500D01*
Y137130D01*
X16500D02*
X21500D01*
X16500Y132130D02*
Y137130D01*
X52750Y19880D02*
X54000Y18630D01*
X51500Y19880D02*
X52750D01*
X51500D02*
X52750Y21130D01*
X51500Y22380D02*
X52750Y21130D01*
X51500Y22380D02*
X52750D01*
X54000Y23630D01*
X55250Y22380D01*
X56500D01*
X55250Y21130D02*
X56500Y22380D01*
X55250Y21130D02*
X56500Y19880D01*
X55250D02*
X56500D01*
X54000Y18630D02*
X55250Y19880D01*
X52750Y29880D02*
X54000Y28630D01*
X51500Y29880D02*
X52750D01*
X51500D02*
X52750Y31130D01*
X51500Y32380D02*
X52750Y31130D01*
X51500Y32380D02*
X52750D01*
X54000Y33630D01*
X55250Y32380D01*
X56500D01*
X55250Y31130D02*
X56500Y32380D01*
X55250Y31130D02*
X56500Y29880D01*
X55250D02*
X56500D01*
X54000Y28630D02*
X55250Y29880D01*
X52687Y137254D02*
X53937Y136004D01*
X51437Y137254D02*
X52687D01*
X51437D02*
X52687Y138504D01*
X51437Y139754D02*
X52687Y138504D01*
X51437Y139754D02*
X52687D01*
X53937Y141004D01*
X55187Y139754D01*
X56437D01*
X55187Y138504D02*
X56437Y139754D01*
X55187Y138504D02*
X56437Y137254D01*
X55187D02*
X56437D01*
X53937Y136004D02*
X55187Y137254D01*
X52687Y127254D02*
X53937Y126004D01*
X51437Y127254D02*
X52687D01*
X51437D02*
X52687Y128504D01*
X51437Y129754D02*
X52687Y128504D01*
X51437Y129754D02*
X52687D01*
X53937Y131004D01*
X55187Y129754D01*
X56437D01*
X55187Y128504D02*
X56437Y129754D01*
X55187Y128504D02*
X56437Y127254D01*
X55187D02*
X56437D01*
X53937Y126004D02*
X55187Y127254D01*
X50325Y243179D02*
X51575Y241929D01*
X49075Y243179D02*
X50325D01*
X49075D02*
X50325Y244429D01*
X49075Y245679D02*
X50325Y244429D01*
X49075Y245679D02*
X50325D01*
X51575Y246929D01*
X52825Y245679D01*
X54075D01*
X52825Y244429D02*
X54075Y245679D01*
X52825Y244429D02*
X54075Y243179D01*
X52825D02*
X54075D01*
X51575Y241929D02*
X52825Y243179D01*
X50325Y253179D02*
X51575Y251929D01*
X49075Y253179D02*
X50325D01*
X49075D02*
X50325Y254429D01*
X49075Y255679D02*
X50325Y254429D01*
X49075Y255679D02*
X50325D01*
X51575Y256929D01*
X52825Y255679D01*
X54075D01*
X52825Y254429D02*
X54075Y255679D01*
X52825Y254429D02*
X54075Y253179D01*
X52825D02*
X54075D01*
X51575Y251929D02*
X52825Y253179D01*
X146000Y32130D02*
X148500Y37130D01*
X143500D02*
X148500D01*
X143500D02*
X146000Y32130D01*
Y22130D02*
X148500Y27130D01*
X143500D02*
X148500D01*
X143500D02*
X146000Y22130D01*
X53771Y56000D02*
X56271Y61000D01*
X51271D02*
X56271D01*
X51271D02*
X53771Y56000D01*
Y66000D02*
X56271Y71000D01*
X51271D02*
X56271D01*
X51271D02*
X53771Y66000D01*
X144000Y142130D02*
X146500Y147130D01*
X141500D02*
X146500D01*
X141500D02*
X144000Y142130D01*
Y132130D02*
X146500Y137130D01*
X141500D02*
X146500D01*
X141500D02*
X144000Y132130D01*
X53740Y161417D02*
X56240Y166417D01*
X51240D02*
X56240D01*
X51240D02*
X53740Y161417D01*
Y171417D02*
X56240Y176417D01*
X51240D02*
X56240D01*
X51240D02*
X53740Y171417D01*
X144000Y168130D02*
X146500Y173130D01*
X141500D02*
X146500D01*
X141500D02*
X144000Y168130D01*
Y158130D02*
X146500Y163130D01*
X141500D02*
X146500D01*
X141500D02*
X144000Y158130D01*
Y194130D02*
X146500Y199130D01*
X141500D02*
X146500D01*
X141500D02*
X144000Y194130D01*
Y184130D02*
X146500Y189130D01*
X141500D02*
X146500D01*
X141500D02*
X144000Y184130D01*
X148031Y254784D02*
X150531Y259784D01*
X145531D02*
X150531D01*
X145531D02*
X148031Y254784D01*
Y244783D02*
X150531Y249783D01*
X145531D02*
X150531D01*
X145531D02*
X148031Y244783D01*
X52000Y277500D02*
X54500Y282500D01*
X49500D02*
X54500D01*
X49500D02*
X52000Y277500D01*
Y287500D02*
X54500Y292500D01*
X49500D02*
X54500D01*
X49500D02*
X52000Y287500D01*
X148000Y283000D02*
X150500Y288000D01*
X145500D02*
X150500D01*
X145500D02*
X148000Y283000D01*
Y273000D02*
X150500Y278000D01*
X145500D02*
X150500D01*
X145500D02*
X148000Y273000D01*
Y310130D02*
X150500Y315130D01*
X145500D02*
X150500D01*
X145500D02*
X148000Y310130D01*
Y300130D02*
X150500Y305130D01*
X145500D02*
X150500D01*
X145500D02*
X148000Y300130D01*
X224242Y327293D02*
X225492Y326043D01*
X222992Y327293D02*
X224242D01*
X222992D02*
X224242Y328543D01*
X222992Y329793D02*
X224242Y328543D01*
X222992Y329793D02*
X224242D01*
X225492Y331043D01*
X226742Y329793D01*
X227992D01*
X226742Y328543D02*
X227992Y329793D01*
X226742Y328543D02*
X227992Y327293D01*
X226742D02*
X227992D01*
X225492Y326043D02*
X226742Y327293D01*
X204557D02*
X205807Y326043D01*
X203307Y327293D02*
X204557D01*
X203307D02*
X204557Y328543D01*
X203307Y329793D02*
X204557Y328543D01*
X203307Y329793D02*
X204557D01*
X205807Y331043D01*
X207057Y329793D01*
X208307D01*
X207057Y328543D02*
X208307Y329793D01*
X207057Y328543D02*
X208307Y327293D01*
X207057D02*
X208307D01*
X205807Y326043D02*
X207057Y327293D01*
X146063Y57736D02*
X148563Y62736D01*
X143563D02*
X148563D01*
X143563D02*
X146063Y57736D01*
Y47736D02*
X148563Y52736D01*
X143563D02*
X148563D01*
X143563D02*
X146063Y47736D01*
X146161Y84705D02*
X148661Y89705D01*
X143661D02*
X148661D01*
X143661D02*
X146161Y84705D01*
Y74705D02*
X148661Y79705D01*
X143661D02*
X148661D01*
X143661D02*
X146161Y74705D01*
D64*
X-99250Y-40650D02*
X955858D01*
X-99250Y-100650D02*
X955858D01*
X-99250Y-115650D02*
X955858D01*
Y-25650D01*
X-99250D02*
X955858D01*
X-99250Y-115650D02*
Y-25650D01*
X817997Y-115650D02*
Y-25650D01*
X684636Y-115650D02*
Y-25650D01*
X599260Y-115650D02*
Y-25650D01*
X534277Y-115650D02*
Y-25650D01*
X459697Y-115650D02*
Y-25650D01*
X400712Y-115650D02*
Y-25650D01*
X250757Y-115650D02*
Y-25650D01*
X177377Y-115650D02*
Y-25650D01*
X126789Y-115650D02*
Y-25650D01*
X14822Y-115650D02*
Y-25650D01*
X-44162Y-115650D02*
Y-25650D01*
D65*
X822497Y-28952D02*
Y-36150D01*
Y-32551D01*
X827295D01*
Y-28952D01*
Y-36150D01*
X830894D02*
X833293D01*
X834493Y-34950D01*
Y-32551D01*
X833293Y-31352D01*
X830894D01*
X829694Y-32551D01*
Y-34950D01*
X830894Y-36150D01*
X836892D02*
X839291D01*
X838092D01*
Y-28952D01*
X836892D01*
X846489Y-36150D02*
X844090D01*
X842890Y-34950D01*
Y-32551D01*
X844090Y-31352D01*
X846489D01*
X847689Y-32551D01*
Y-33751D01*
X842890D01*
X857286Y-28952D02*
X862084D01*
X859685D01*
Y-36150D01*
X865683D02*
X868082D01*
X869282Y-34950D01*
Y-32551D01*
X868082Y-31352D01*
X865683D01*
X864483Y-32551D01*
Y-34950D01*
X865683Y-36150D01*
X871681D02*
X874080D01*
X872881D01*
Y-28952D01*
X871681D01*
X881278Y-36150D02*
X878879D01*
X877679Y-34950D01*
Y-32551D01*
X878879Y-31352D01*
X881278D01*
X882477Y-32551D01*
Y-33751D01*
X877679D01*
X884877Y-31352D02*
Y-36150D01*
Y-33751D01*
X886076Y-32551D01*
X887276Y-31352D01*
X888476D01*
X893274D02*
X895673D01*
X896873Y-32551D01*
Y-36150D01*
X893274D01*
X892074Y-34950D01*
X893274Y-33751D01*
X896873D01*
X899272Y-36150D02*
Y-31352D01*
X902871D01*
X904070Y-32551D01*
Y-36150D01*
X911268Y-31352D02*
X907669D01*
X906470Y-32551D01*
Y-34950D01*
X907669Y-36150D01*
X911268D01*
X917266D02*
X914867D01*
X913667Y-34950D01*
Y-32551D01*
X914867Y-31352D01*
X917266D01*
X918466Y-32551D01*
Y-33751D01*
X913667D01*
X930462Y-36150D02*
X928063Y-33751D01*
Y-31352D01*
X930462Y-28952D01*
X934061Y-32551D02*
X938859D01*
X941258Y-36150D02*
X943658Y-33751D01*
Y-31352D01*
X941258Y-28952D01*
X689136D02*
Y-36150D01*
Y-32551D01*
X693934D01*
Y-28952D01*
Y-36150D01*
X697533D02*
X699933D01*
X701132Y-34950D01*
Y-32551D01*
X699933Y-31352D01*
X697533D01*
X696334Y-32551D01*
Y-34950D01*
X697533Y-36150D01*
X703531D02*
X705931D01*
X704731D01*
Y-28952D01*
X703531D01*
X713128Y-36150D02*
X710729D01*
X709529Y-34950D01*
Y-32551D01*
X710729Y-31352D01*
X713128D01*
X714328Y-32551D01*
Y-33751D01*
X709529D01*
X723925Y-28952D02*
X728723D01*
X726324D01*
Y-36150D01*
X732322D02*
X734721D01*
X735921Y-34950D01*
Y-32551D01*
X734721Y-31352D01*
X732322D01*
X731122Y-32551D01*
Y-34950D01*
X732322Y-36150D01*
X738320D02*
X740719D01*
X739520D01*
Y-28952D01*
X738320D01*
X747917Y-36150D02*
X745518D01*
X744318Y-34950D01*
Y-32551D01*
X745518Y-31352D01*
X747917D01*
X749117Y-32551D01*
Y-33751D01*
X744318D01*
X751516Y-31352D02*
Y-36150D01*
Y-33751D01*
X752715Y-32551D01*
X753915Y-31352D01*
X755115D01*
X759913D02*
X762312D01*
X763512Y-32551D01*
Y-36150D01*
X759913D01*
X758714Y-34950D01*
X759913Y-33751D01*
X763512D01*
X765911Y-36150D02*
Y-31352D01*
X769510D01*
X770710Y-32551D01*
Y-36150D01*
X777907Y-31352D02*
X774308D01*
X773109Y-32551D01*
Y-34950D01*
X774308Y-36150D01*
X777907D01*
X783905D02*
X781506D01*
X780307Y-34950D01*
Y-32551D01*
X781506Y-31352D01*
X783905D01*
X785105Y-32551D01*
Y-33751D01*
X780307D01*
X797101Y-36150D02*
X794702Y-33751D01*
Y-31352D01*
X797101Y-28952D01*
X800700Y-32551D02*
X805498D01*
X803099Y-30152D02*
Y-34950D01*
X807898Y-36150D02*
X810297Y-33751D01*
Y-31352D01*
X807898Y-28952D01*
X603760D02*
Y-36150D01*
X607359D01*
X608558Y-34950D01*
Y-30152D01*
X607359Y-28952D01*
X603760D01*
X614556Y-36150D02*
X612157D01*
X610957Y-34950D01*
Y-32551D01*
X612157Y-31352D01*
X614556D01*
X615756Y-32551D01*
Y-33751D01*
X610957D01*
X618155Y-36150D02*
X621754D01*
X622954Y-34950D01*
X621754Y-33751D01*
X619355D01*
X618155Y-32551D01*
X619355Y-31352D01*
X622954D01*
X630151D02*
X626552D01*
X625353Y-32551D01*
Y-34950D01*
X626552Y-36150D01*
X630151D01*
X632550Y-31352D02*
Y-36150D01*
Y-33751D01*
X633750Y-32551D01*
X634950Y-31352D01*
X636149D01*
X639748Y-36150D02*
X642147D01*
X640948D01*
Y-31352D01*
X639748D01*
X645746Y-38549D02*
Y-31352D01*
X649345D01*
X650545Y-32551D01*
Y-34950D01*
X649345Y-36150D01*
X645746D01*
X654143Y-30152D02*
Y-31352D01*
X652944D01*
X655343D01*
X654143D01*
Y-34950D01*
X655343Y-36150D01*
X658942D02*
X661341D01*
X660142D01*
Y-31352D01*
X658942D01*
X666140Y-36150D02*
X668539D01*
X669738Y-34950D01*
Y-32551D01*
X668539Y-31352D01*
X666140D01*
X664940Y-32551D01*
Y-34950D01*
X666140Y-36150D01*
X672138D02*
Y-31352D01*
X675737D01*
X676936Y-32551D01*
Y-36150D01*
X538777Y-28952D02*
X543575D01*
X541176D01*
Y-36150D01*
X549573D02*
X547174D01*
X545974Y-34950D01*
Y-32551D01*
X547174Y-31352D01*
X549573D01*
X550773Y-32551D01*
Y-33751D01*
X545974D01*
X553172Y-36150D02*
Y-31352D01*
X554372D01*
X555571Y-32551D01*
Y-36150D01*
Y-32551D01*
X556771Y-31352D01*
X557971Y-32551D01*
Y-36150D01*
X560370Y-38549D02*
Y-31352D01*
X563969D01*
X565168Y-32551D01*
Y-34950D01*
X563969Y-36150D01*
X560370D01*
X567567D02*
X569967D01*
X568767D01*
Y-28952D01*
X567567D01*
X574765Y-31352D02*
X577164D01*
X578364Y-32551D01*
Y-36150D01*
X574765D01*
X573566Y-34950D01*
X574765Y-33751D01*
X578364D01*
X581963Y-30152D02*
Y-31352D01*
X580763D01*
X583162D01*
X581963D01*
Y-34950D01*
X583162Y-36150D01*
X590360D02*
X587961D01*
X586761Y-34950D01*
Y-32551D01*
X587961Y-31352D01*
X590360D01*
X591560Y-32551D01*
Y-33751D01*
X586761D01*
X464197Y-36150D02*
Y-28952D01*
X467796D01*
X468996Y-30152D01*
Y-32551D01*
X467796Y-33751D01*
X464197D01*
X472594Y-31352D02*
X474994D01*
X476193Y-32551D01*
Y-36150D01*
X472594D01*
X471395Y-34950D01*
X472594Y-33751D01*
X476193D01*
X483391Y-28952D02*
Y-36150D01*
X479792D01*
X478592Y-34950D01*
Y-32551D01*
X479792Y-31352D01*
X483391D01*
X497786Y-30152D02*
X496587Y-28952D01*
X494187D01*
X492988Y-30152D01*
Y-31352D01*
X494187Y-32551D01*
X496587D01*
X497786Y-33751D01*
Y-34950D01*
X496587Y-36150D01*
X494187D01*
X492988Y-34950D01*
X500185Y-28952D02*
Y-36150D01*
Y-32551D01*
X501385Y-31352D01*
X503784D01*
X504984Y-32551D01*
Y-36150D01*
X508583Y-31352D02*
X510982D01*
X512182Y-32551D01*
Y-36150D01*
X508583D01*
X507383Y-34950D01*
X508583Y-33751D01*
X512182D01*
X514581Y-38549D02*
Y-31352D01*
X518180D01*
X519379Y-32551D01*
Y-34950D01*
X518180Y-36150D01*
X514581D01*
X525377D02*
X522978D01*
X521778Y-34950D01*
Y-32551D01*
X522978Y-31352D01*
X525377D01*
X526577Y-32551D01*
Y-33751D01*
X521778D01*
X405212Y-28952D02*
Y-33751D01*
X407611Y-36150D01*
X410011Y-33751D01*
Y-28952D01*
X412410Y-36150D02*
X414809D01*
X413610D01*
Y-31352D01*
X412410D01*
X419607D02*
X422007D01*
X423206Y-32551D01*
Y-36150D01*
X419607D01*
X418408Y-34950D01*
X419607Y-33751D01*
X423206D01*
X425606Y-36150D02*
X430404Y-31352D01*
X432803Y-36150D02*
Y-28952D01*
X436402D01*
X437602Y-30152D01*
Y-32551D01*
X436402Y-33751D01*
X432803D01*
X441200Y-31352D02*
X443600D01*
X444799Y-32551D01*
Y-36150D01*
X441200D01*
X440001Y-34950D01*
X441200Y-33751D01*
X444799D01*
X451997Y-28952D02*
Y-36150D01*
X448398D01*
X447199Y-34950D01*
Y-32551D01*
X448398Y-31352D01*
X451997D01*
X255257Y-28952D02*
Y-36150D01*
X258856D01*
X260056Y-34950D01*
Y-30152D01*
X258856Y-28952D01*
X255257D01*
X262455Y-31352D02*
Y-36150D01*
Y-33751D01*
X263654Y-32551D01*
X264854Y-31352D01*
X266054D01*
X269653Y-36150D02*
X272052D01*
X270852D01*
Y-31352D01*
X269653D01*
X275651Y-36150D02*
X278050D01*
X276850D01*
Y-28952D01*
X275651D01*
X281649Y-36150D02*
X284048D01*
X282848D01*
Y-28952D01*
X281649D01*
X294844D02*
Y-36150D01*
X299643D01*
X303242Y-31352D02*
X305641D01*
X306840Y-32551D01*
Y-36150D01*
X303242D01*
X302042Y-34950D01*
X303242Y-33751D01*
X306840D01*
X309240Y-31352D02*
Y-34950D01*
X310439Y-36150D01*
X314038D01*
Y-37350D01*
X312839Y-38549D01*
X311639D01*
X314038Y-36150D02*
Y-31352D01*
X320036Y-36150D02*
X317637D01*
X316437Y-34950D01*
Y-32551D01*
X317637Y-31352D01*
X320036D01*
X321236Y-32551D01*
Y-33751D01*
X316437D01*
X323635Y-31352D02*
Y-36150D01*
Y-33751D01*
X324835Y-32551D01*
X326034Y-31352D01*
X327234D01*
X338030Y-36150D02*
Y-28952D01*
X341629D01*
X342829Y-30152D01*
Y-32551D01*
X341629Y-33751D01*
X338030D01*
X346428Y-31352D02*
X348827D01*
X350026Y-32551D01*
Y-36150D01*
X346428D01*
X345228Y-34950D01*
X346428Y-33751D01*
X350026D01*
X352426Y-36150D02*
X354825D01*
X353625D01*
Y-31352D01*
X352426D01*
X358424D02*
Y-36150D01*
Y-33751D01*
X359623Y-32551D01*
X360823Y-31352D01*
X362023D01*
X181877Y-28952D02*
Y-36150D01*
Y-32551D01*
X186675D01*
Y-28952D01*
Y-36150D01*
X190274D02*
X192673D01*
X193873Y-34950D01*
Y-32551D01*
X192673Y-31352D01*
X190274D01*
X189075Y-32551D01*
Y-34950D01*
X190274Y-36150D01*
X196272D02*
X198671D01*
X197472D01*
Y-28952D01*
X196272D01*
X205869Y-36150D02*
X203470D01*
X202270Y-34950D01*
Y-32551D01*
X203470Y-31352D01*
X205869D01*
X207069Y-32551D01*
Y-33751D01*
X202270D01*
X216666Y-28952D02*
X221464D01*
X219065D01*
Y-36150D01*
X223863Y-31352D02*
Y-34950D01*
X225063Y-36150D01*
X228662D01*
Y-37350D01*
X227462Y-38549D01*
X226263D01*
X228662Y-36150D02*
Y-31352D01*
X231061Y-38549D02*
Y-31352D01*
X234660D01*
X235859Y-32551D01*
Y-34950D01*
X234660Y-36150D01*
X231061D01*
X241858D02*
X239458D01*
X238259Y-34950D01*
Y-32551D01*
X239458Y-31352D01*
X241858D01*
X243057Y-32551D01*
Y-33751D01*
X238259D01*
X131289Y-36150D02*
Y-28952D01*
X134888D01*
X136088Y-30152D01*
Y-32551D01*
X134888Y-33751D01*
X131289D01*
X138487Y-36150D02*
X140886D01*
X139687D01*
Y-28952D01*
X138487D01*
X145685Y-31352D02*
X148084D01*
X149284Y-32551D01*
Y-36150D01*
X145685D01*
X144485Y-34950D01*
X145685Y-33751D01*
X149284D01*
X152882Y-30152D02*
Y-31352D01*
X151683D01*
X154082D01*
X152882D01*
Y-34950D01*
X154082Y-36150D01*
X161280D02*
X158880D01*
X157681Y-34950D01*
Y-32551D01*
X158880Y-31352D01*
X161280D01*
X162479Y-32551D01*
Y-33751D01*
X157681D01*
X169677Y-28952D02*
Y-36150D01*
X166078D01*
X164878Y-34950D01*
Y-32551D01*
X166078Y-31352D01*
X169677D01*
X19322Y-28952D02*
Y-36150D01*
Y-32551D01*
X24121D01*
Y-28952D01*
Y-36150D01*
X27719D02*
X30119D01*
X31318Y-34950D01*
Y-32551D01*
X30119Y-31352D01*
X27719D01*
X26520Y-32551D01*
Y-34950D01*
X27719Y-36150D01*
X33717D02*
X36117D01*
X34917D01*
Y-28952D01*
X33717D01*
X43314Y-36150D02*
X40915D01*
X39715Y-34950D01*
Y-32551D01*
X40915Y-31352D01*
X43314D01*
X44514Y-32551D01*
Y-33751D01*
X39715D01*
X58909Y-30152D02*
X57710Y-28952D01*
X55310D01*
X54111Y-30152D01*
Y-31352D01*
X55310Y-32551D01*
X57710D01*
X58909Y-33751D01*
Y-34950D01*
X57710Y-36150D01*
X55310D01*
X54111Y-34950D01*
X61308Y-36150D02*
X63708D01*
X62508D01*
Y-31352D01*
X61308D01*
X67307D02*
X72105D01*
X67307Y-36150D01*
X72105D01*
X78103D02*
X75704D01*
X74504Y-34950D01*
Y-32551D01*
X75704Y-31352D01*
X78103D01*
X79303Y-32551D01*
Y-33751D01*
X74504D01*
X-34864Y-30152D02*
X-36064Y-28952D01*
X-38463D01*
X-39662Y-30152D01*
Y-34950D01*
X-38463Y-36150D01*
X-36064D01*
X-34864Y-34950D01*
X-31265Y-36150D02*
X-28866D01*
X-27666Y-34950D01*
Y-32551D01*
X-28866Y-31352D01*
X-31265D01*
X-32465Y-32551D01*
Y-34950D01*
X-31265Y-36150D01*
X-25267Y-31352D02*
Y-34950D01*
X-24068Y-36150D01*
X-20469D01*
Y-31352D01*
X-18069Y-36150D02*
Y-31352D01*
X-14471D01*
X-13271Y-32551D01*
Y-36150D01*
X-9672Y-30152D02*
Y-31352D01*
X-10872D01*
X-8472D01*
X-9672D01*
Y-34950D01*
X-8472Y-36150D01*
X-85452Y-30152D02*
X-86651Y-28952D01*
X-89050D01*
X-90250Y-30152D01*
Y-31352D01*
X-89050Y-32551D01*
X-86651D01*
X-85452Y-33751D01*
Y-34950D01*
X-86651Y-36150D01*
X-89050D01*
X-90250Y-34950D01*
X-83052Y-31352D02*
Y-34950D01*
X-81853Y-36150D01*
X-78254D01*
Y-37350D01*
X-79453Y-38549D01*
X-80653D01*
X-78254Y-36150D02*
Y-31352D01*
X-75855Y-36150D02*
Y-31352D01*
X-74655D01*
X-73455Y-32551D01*
Y-36150D01*
Y-32551D01*
X-72256Y-31352D01*
X-71056Y-32551D01*
Y-36150D01*
X-68657Y-28952D02*
Y-36150D01*
X-65058D01*
X-63858Y-34950D01*
Y-33751D01*
Y-32551D01*
X-65058Y-31352D01*
X-68657D01*
X-60260Y-36150D02*
X-57860D01*
X-56661Y-34950D01*
Y-32551D01*
X-57860Y-31352D01*
X-60260D01*
X-61459Y-32551D01*
Y-34950D01*
X-60260Y-36150D01*
X-54262D02*
X-51862D01*
X-53062D01*
Y-28952D01*
X-54262D01*
M02*
