G04*
G04 #@! TF.GenerationSoftware,Altium Limited,Altium Designer,23.10.1 (27)*
G04*
G04 Layer_Color=32768*
%FSLAX25Y25*%
%MOIN*%
G70*
G04*
G04 #@! TF.SameCoordinates,D58E8A5F-C196-4DC0-9E6E-83BCDBF650AB*
G04*
G04*
G04 #@! TF.FilePolarity,Positive*
G04*
G01*
G75*
%ADD12C,0.00600*%
%ADD61C,0.00394*%
%ADD63C,0.00197*%
D12*
X190348Y274496D02*
Y288496D01*
X173148Y274496D02*
X190348D01*
X173148D02*
Y288496D01*
X190348D01*
X174250Y178685D02*
X191450D01*
X174250Y164685D02*
Y178685D01*
Y164685D02*
X191450D01*
Y178685D01*
X191333Y58559D02*
Y72559D01*
X174133Y58559D02*
X191333D01*
X174133D02*
Y72559D01*
X191333D01*
D61*
X289150Y283413D02*
X293087D01*
X291118Y281445D02*
Y285382D01*
X294236Y173472D02*
Y177409D01*
X292268Y175441D02*
X296205D01*
X72000Y281031D02*
Y284968D01*
X70031Y283000D02*
X73968D01*
X130532Y253350D02*
X134468D01*
X132500Y251382D02*
Y255319D01*
X288299Y302000D02*
X292236D01*
X290268Y300031D02*
Y303969D01*
X271118Y300031D02*
Y303969D01*
X269150Y302000D02*
X273087D01*
X73500Y165382D02*
Y169319D01*
X71531Y167350D02*
X75468D01*
X126031Y139000D02*
X129969D01*
X128000Y137031D02*
Y140969D01*
X291378Y192028D02*
X295315D01*
X293347Y190059D02*
Y193996D01*
X273441Y189933D02*
Y193870D01*
X271472Y191902D02*
X275410D01*
X72000Y59031D02*
Y62968D01*
X70031Y61000D02*
X73968D01*
X127532Y30000D02*
X131468D01*
X129500Y28032D02*
Y31969D01*
X179532Y247000D02*
X183468D01*
X181500Y245031D02*
Y248969D01*
X196000Y191032D02*
Y194968D01*
X194032Y193000D02*
X197968D01*
X180532Y136000D02*
X184468D01*
X182500Y134031D02*
Y137969D01*
X183500Y30031D02*
Y33968D01*
X181532Y32000D02*
X185468D01*
X179780Y265496D02*
X183716D01*
X181748Y263528D02*
Y267465D01*
X182850Y152216D02*
Y156154D01*
X180882Y154185D02*
X184819D01*
X181532Y48500D02*
X185468D01*
X183500Y46532D02*
Y50468D01*
X69488Y248327D02*
Y252264D01*
X67520Y250295D02*
X71457D01*
X284700Y259531D02*
Y263469D01*
X282732Y261500D02*
X286668D01*
X280087Y148126D02*
X284024D01*
X282055Y146158D02*
Y150094D01*
X279000Y33031D02*
Y36968D01*
X277031Y35000D02*
X280968D01*
X271118Y282031D02*
Y285968D01*
X269150Y284000D02*
X273087D01*
X74000Y133161D02*
Y137098D01*
X72031Y135130D02*
X75968D01*
X274496Y170059D02*
Y173996D01*
X272528Y172028D02*
X276465D01*
X72000Y26087D02*
Y30024D01*
X70031Y28055D02*
X73968D01*
X162008Y281791D02*
X165945D01*
X163976Y279823D02*
Y283760D01*
X214650Y227787D02*
X218587D01*
X216618Y225819D02*
Y229756D01*
X236618Y225819D02*
Y229756D01*
X234650Y227787D02*
X238587D01*
X213650Y192787D02*
X217587D01*
X215618Y190819D02*
Y194756D01*
X236618Y190819D02*
Y194756D01*
X234650Y192787D02*
X238587D01*
X213650Y156095D02*
X217587D01*
X215618Y154126D02*
Y158063D01*
X234563Y154319D02*
Y158256D01*
X232594Y156287D02*
X236531D01*
X214650Y217787D02*
X218587D01*
X216618Y215819D02*
Y219756D01*
X215551Y178051D02*
Y181988D01*
X213583Y180020D02*
X217520D01*
X213650Y145787D02*
X217587D01*
X215618Y143819D02*
Y147756D01*
X159547Y172047D02*
X163484D01*
X161516Y170079D02*
Y174016D01*
X165500Y64087D02*
Y68024D01*
X163531Y66055D02*
X167469D01*
X356000Y150031D02*
Y153969D01*
X354031Y152000D02*
X357968D01*
X355400Y42232D02*
Y46169D01*
X353432Y44200D02*
X357368D01*
X354631Y97700D02*
X358569D01*
X356600Y95732D02*
Y99669D01*
X350342Y320284D02*
Y324220D01*
X348374Y322252D02*
X352311D01*
X348799Y267252D02*
X352736D01*
X350768Y265283D02*
Y269220D01*
X350055Y208283D02*
Y212221D01*
X348087Y210252D02*
X352024D01*
X347799Y154252D02*
X351736D01*
X349768Y152284D02*
Y156220D01*
X349055Y93283D02*
Y97220D01*
X347087Y95252D02*
X351024D01*
X345244Y40000D02*
X349181D01*
X347213Y38032D02*
Y41969D01*
X357000Y265032D02*
Y268969D01*
X355031Y267000D02*
X358968D01*
X356031Y214000D02*
X359968D01*
X358000Y212032D02*
Y215968D01*
X357031Y327000D02*
X360968D01*
X359000Y325031D02*
Y328969D01*
X118000Y304953D02*
Y308890D01*
X116032Y306921D02*
X119968D01*
X112031Y188630D02*
X115969D01*
X114000Y186661D02*
Y190598D01*
X116000Y76661D02*
Y80598D01*
X114032Y78630D02*
X117968D01*
X250031Y295201D02*
X253969D01*
X252000Y293232D02*
Y297169D01*
X258268Y183268D02*
Y187205D01*
X256299Y185236D02*
X260236D01*
X92323Y288118D02*
X107677D01*
Y249142D02*
Y288118D01*
X92323Y249142D02*
X107677D01*
X92323D02*
Y288118D01*
Y283118D02*
X97323Y288118D01*
X92323Y167118D02*
X97323Y172118D01*
X92323Y133142D02*
Y172118D01*
Y133142D02*
X107677D01*
Y172118D01*
X92323D02*
X107677D01*
X92323Y62118D02*
X107677D01*
Y23142D02*
Y62118D01*
X92323Y23142D02*
X107677D01*
X92323D02*
Y62118D01*
Y57118D02*
X97323Y62118D01*
D63*
X298205Y275146D02*
Y291681D01*
X284032Y275146D02*
Y291681D01*
X298205D01*
X284032Y275146D02*
X298205D01*
X287150Y167173D02*
X301323D01*
X287150Y183709D02*
X301323D01*
X287150Y167173D02*
Y183709D01*
X301323Y167173D02*
Y183709D01*
X68260Y289693D02*
X75740D01*
X68260Y276307D02*
X75740D01*
Y289693D01*
X68260Y276307D02*
Y289693D01*
X136240Y246657D02*
Y260043D01*
X128760Y246657D02*
Y260043D01*
X136240D01*
X128760Y246657D02*
X136240D01*
X283575Y298260D02*
Y305740D01*
X296961Y298260D02*
Y305740D01*
X283575D02*
X296961D01*
X283575Y298260D02*
X296961D01*
X264425D02*
X277811D01*
X264425Y305740D02*
X277811D01*
Y298260D02*
Y305740D01*
X264425Y298260D02*
Y305740D01*
X69760Y174043D02*
X77240D01*
X69760Y160658D02*
X77240D01*
Y174043D01*
X69760Y160658D02*
Y174043D01*
X131740Y132307D02*
Y145693D01*
X124260Y132307D02*
Y145693D01*
X131740D01*
X124260Y132307D02*
X131740D01*
X286653Y188287D02*
Y195768D01*
X300039Y188287D02*
Y195768D01*
X286653D02*
X300039D01*
X286653Y188287D02*
X300039D01*
X266748Y188161D02*
X280134D01*
X266748Y195642D02*
X280134D01*
Y188161D02*
Y195642D01*
X266748Y188161D02*
Y195642D01*
X68260Y67693D02*
X75740D01*
X68260Y54307D02*
X75740D01*
Y67693D01*
X68260Y54307D02*
Y67693D01*
X133240Y23307D02*
Y36693D01*
X125760Y23307D02*
Y36693D01*
X133240D01*
X125760Y23307D02*
X133240D01*
X174807Y243260D02*
Y250740D01*
X188193Y243260D02*
Y250740D01*
X174807D02*
X188193D01*
X174807Y243260D02*
X188193D01*
X189307Y189260D02*
X202693D01*
X189307Y196740D02*
X202693D01*
Y189260D02*
Y196740D01*
X189307Y189260D02*
Y196740D01*
X175807Y132260D02*
Y139740D01*
X189193Y132260D02*
Y139740D01*
X175807D02*
X189193D01*
X175807Y132260D02*
X189193D01*
X176807Y28260D02*
X190193D01*
X176807Y35740D02*
X190193D01*
Y28260D02*
Y35740D01*
X176807Y28260D02*
Y35740D01*
X175055Y261756D02*
Y269236D01*
X188441Y261756D02*
Y269236D01*
X175055D02*
X188441D01*
X175055Y261756D02*
X188441D01*
X176157Y150445D02*
X189543D01*
X176157Y157925D02*
X189543D01*
Y150445D02*
Y157925D01*
X176157Y150445D02*
Y157925D01*
X176807Y44760D02*
Y52240D01*
X190193Y44760D02*
Y52240D01*
X176807D02*
X190193D01*
X176807Y44760D02*
X190193D01*
X73228Y243295D02*
Y257295D01*
X65748D02*
X73228D01*
X65748Y243295D02*
Y257295D01*
X67618Y243295D02*
X71358D01*
X65748D02*
X67618D01*
X71358D02*
X73228D01*
X267377Y253823D02*
X302023D01*
X267377Y269177D02*
X302023D01*
Y253823D02*
Y269177D01*
X267377Y253823D02*
Y269177D01*
X264732Y140449D02*
Y155803D01*
X299378Y140449D02*
Y155803D01*
X264732D02*
X299378D01*
X264732Y140449D02*
X299378D01*
X261677Y27323D02*
X296323D01*
X261677Y42677D02*
X296323D01*
Y27323D02*
Y42677D01*
X261677Y27323D02*
Y42677D01*
X278118Y285870D02*
Y287740D01*
Y280260D02*
Y282130D01*
Y285870D01*
X264118Y280260D02*
X278118D01*
X264118D02*
Y287740D01*
X278118D01*
X77740Y128130D02*
Y142130D01*
X70260D02*
X77740D01*
X70260Y128130D02*
Y142130D01*
X72130Y128130D02*
X75870D01*
X70260D02*
X72130D01*
X75870D02*
X77740D01*
X267496Y168287D02*
Y170158D01*
Y173898D02*
Y175768D01*
Y170158D02*
Y173898D01*
Y175768D02*
X281496D01*
Y168287D02*
Y175768D01*
X267496Y168287D02*
X281496D01*
X75740Y21055D02*
Y35055D01*
X68260D02*
X75740D01*
X68260Y21055D02*
Y35055D01*
X70130Y21055D02*
X73870D01*
X68260D02*
X70130D01*
X73870D02*
X75740D01*
X160236Y288791D02*
X162106D01*
X165847D02*
X167717D01*
X162106D02*
X165847D01*
X167717Y274791D02*
Y288791D01*
X160236Y274791D02*
X167717D01*
X160236D02*
Y288791D01*
X209618Y231528D02*
X223618D01*
X209618Y224047D02*
Y231528D01*
Y224047D02*
X223618D01*
Y225917D02*
Y229658D01*
Y224047D02*
Y225917D01*
Y229658D02*
Y231528D01*
X243618Y229658D02*
Y231528D01*
Y224047D02*
Y225917D01*
Y229658D01*
X229618Y224047D02*
X243618D01*
X229618D02*
Y231528D01*
X243618D01*
X208618Y196528D02*
X222618D01*
X208618Y189047D02*
Y196528D01*
Y189047D02*
X222618D01*
Y190917D02*
Y194658D01*
Y189047D02*
Y190917D01*
Y194658D02*
Y196528D01*
X243618Y194658D02*
Y196528D01*
Y189047D02*
Y190917D01*
Y194658D01*
X229618Y189047D02*
X243618D01*
X229618D02*
Y196528D01*
X243618D01*
X208618Y159835D02*
X222618D01*
X208618Y152354D02*
Y159835D01*
Y152354D02*
X222618D01*
Y154224D02*
Y157965D01*
Y152354D02*
Y154224D01*
Y157965D02*
Y159835D01*
X241563Y158158D02*
Y160028D01*
Y152547D02*
Y154417D01*
Y158158D01*
X227563Y152547D02*
X241563D01*
X227563D02*
Y160028D01*
X241563D01*
X209618Y221528D02*
X223618D01*
X209618Y214047D02*
Y221528D01*
Y214047D02*
X223618D01*
Y215917D02*
Y219657D01*
Y214047D02*
Y215917D01*
Y219657D02*
Y221528D01*
X222551Y181890D02*
Y183760D01*
Y176279D02*
Y178150D01*
Y181890D01*
X208551Y176279D02*
X222551D01*
X208551D02*
Y183760D01*
X222551D01*
X208618Y149528D02*
X222618D01*
X208618Y142047D02*
Y149528D01*
Y142047D02*
X222618D01*
Y143917D02*
Y147658D01*
Y142047D02*
Y143917D01*
Y147658D02*
Y149528D01*
X157776Y179047D02*
X159646D01*
X163386D02*
X165256D01*
X159646D02*
X163386D01*
X165256Y165047D02*
Y179047D01*
X157776Y165047D02*
X165256D01*
X157776D02*
Y179047D01*
X161760Y59055D02*
Y73055D01*
Y59055D02*
X169240D01*
Y73055D01*
X163630D02*
X167370D01*
X169240D01*
X161760D02*
X163630D01*
X342000Y158890D02*
X370000D01*
X342000Y145110D02*
X370000D01*
Y158890D01*
X342000Y145110D02*
Y158890D01*
X341400Y51090D02*
X369400D01*
X341400Y37310D02*
X369400D01*
Y51090D01*
X341400Y37310D02*
Y51090D01*
X370600Y90810D02*
Y104590D01*
X342600Y90810D02*
Y104590D01*
X370600D01*
X342600Y90810D02*
X370600D01*
X316681Y344496D02*
X384004D01*
X316681Y300008D02*
X384004D01*
X316681D02*
Y344496D01*
X384004Y300008D02*
Y344496D01*
X317106Y245008D02*
Y289496D01*
X384429Y245008D02*
Y289496D01*
X317106D02*
X384429D01*
X317106Y245008D02*
X384429D01*
X316394Y232496D02*
X383717D01*
X316394Y188008D02*
X383717D01*
X316394D02*
Y232496D01*
X383717Y188008D02*
Y232496D01*
X316106Y132008D02*
Y176496D01*
X383429Y132008D02*
Y176496D01*
X316106D02*
X383429D01*
X316106Y132008D02*
X383429D01*
X315394Y117496D02*
X382716D01*
X315394Y73008D02*
X382716D01*
X315394D02*
Y117496D01*
X382716Y73008D02*
Y117496D01*
X313551Y17756D02*
Y62244D01*
X380874Y17756D02*
Y62244D01*
X313551D02*
X380874D01*
X313551Y17756D02*
X380874D01*
X343000Y273890D02*
X371000D01*
X343000Y260110D02*
X371000D01*
Y273890D01*
X343000Y260110D02*
Y273890D01*
X372000Y207110D02*
Y220890D01*
X344000Y207110D02*
Y220890D01*
X372000D01*
X344000Y207110D02*
X372000D01*
X373000Y320110D02*
Y333890D01*
X345000Y320110D02*
Y333890D01*
X373000D01*
X345000Y320110D02*
X373000D01*
X114063Y315976D02*
X121937D01*
X114063Y297866D02*
X121937D01*
X121543D02*
Y315976D01*
X114063Y297866D02*
Y315976D01*
X110063Y179575D02*
Y197685D01*
X117543Y179575D02*
Y197685D01*
X110063Y179575D02*
X117937D01*
X110063Y197685D02*
X117937D01*
X112063Y87685D02*
X119937D01*
X112063Y69575D02*
X119937D01*
X119543D02*
Y87685D01*
X112063Y69575D02*
Y87685D01*
X255937Y286146D02*
Y304256D01*
X248457Y286146D02*
Y304256D01*
X248063D02*
X255937D01*
X248063Y286146D02*
X255937D01*
X254331Y176181D02*
X262205D01*
X254331Y194291D02*
X262205D01*
X254724Y176181D02*
Y194291D01*
X262205Y176181D02*
Y194291D01*
M02*
