G04*
G04 #@! TF.GenerationSoftware,Altium Limited,Altium Designer,23.10.1 (27)*
G04*
G04 Layer_Color=128*
%FSLAX25Y25*%
%MOIN*%
G70*
G04*
G04 #@! TF.SameCoordinates,92CF8CD3-C0A9-45A0-95EF-EEFF48AC6B84*
G04*
G04*
G04 #@! TF.FilePolarity,Positive*
G04*
G01*
G75*
%ADD59C,0.00500*%
D59*
X367535Y92307D02*
X379346D01*
X373441Y86402D02*
Y98213D01*
X121435Y42362D02*
X124235D01*
X122835Y40962D02*
Y43762D01*
X121435Y52362D02*
X124235D01*
X122835Y50962D02*
Y53762D01*
X121435Y67323D02*
X124235D01*
X122835Y65923D02*
Y68723D01*
X121435Y77323D02*
X124235D01*
X122835Y75923D02*
Y78723D01*
X369291Y317717D02*
X381102D01*
X375197Y311811D02*
Y323622D01*
X41307Y20748D02*
X45307D01*
X43307Y18748D02*
Y22748D01*
X41307Y10748D02*
X45307D01*
X43307Y8748D02*
Y12748D01*
X41907Y59842D02*
X44707D01*
X43307Y58442D02*
Y61243D01*
X41907Y49843D02*
X44707D01*
X43307Y48443D02*
Y51243D01*
X121041Y15197D02*
X123841D01*
X122441Y13797D02*
Y16597D01*
X121041Y25197D02*
X123841D01*
X122441Y23797D02*
Y26597D01*
X154299Y320472D02*
X158299D01*
X156299Y318472D02*
Y322472D01*
X173984Y320472D02*
X177984D01*
X175984Y318472D02*
Y322472D01*
X119466Y294331D02*
X122266D01*
X120866Y292931D02*
Y295731D01*
X119466Y304331D02*
X122266D01*
X120866Y302931D02*
Y305731D01*
X119860Y267165D02*
X122660D01*
X121260Y265765D02*
Y268565D01*
X119860Y277165D02*
X122660D01*
X121260Y275765D02*
Y278565D01*
X39151Y281102D02*
X41951D01*
X40551Y279702D02*
Y282502D01*
X39151Y271102D02*
X41951D01*
X40551Y269702D02*
Y272502D01*
X120254Y239606D02*
X123054D01*
X121653Y238206D02*
Y241006D01*
X120254Y249606D02*
X123054D01*
X121653Y248206D02*
Y251006D01*
X119466Y177795D02*
X122266D01*
X120866Y176395D02*
Y179195D01*
X119466Y187795D02*
X122266D01*
X120866Y186395D02*
Y189195D01*
X119466Y152598D02*
X122266D01*
X120866Y151198D02*
Y153998D01*
X119466Y162598D02*
X122266D01*
X120866Y161198D02*
Y163998D01*
X43285Y165256D02*
X46085D01*
X44685Y163856D02*
Y166656D01*
X43285Y155256D02*
X46085D01*
X44685Y153856D02*
Y156656D01*
X119860Y125827D02*
X122660D01*
X121260Y124427D02*
Y127227D01*
X119860Y135827D02*
X122660D01*
X121260Y134427D02*
Y137227D01*
X40520Y245768D02*
X44520D01*
X42520Y243768D02*
Y247768D01*
X40520Y235768D02*
X44520D01*
X42520Y233768D02*
Y237768D01*
X41307Y120197D02*
X45307D01*
X43307Y118197D02*
Y122197D01*
X41307Y130197D02*
X45307D01*
X43307Y128197D02*
Y132197D01*
X8173Y125969D02*
X11716D01*
X9945Y124197D02*
Y127740D01*
X8173Y135968D02*
X11716D01*
X9945Y134197D02*
Y137740D01*
X8173Y145968D02*
X11716D01*
X9945Y144197D02*
Y147740D01*
X8173Y155968D02*
X11716D01*
X9945Y154197D02*
Y157740D01*
X8173Y165969D02*
X11716D01*
X9945Y164197D02*
Y167740D01*
X8173Y175969D02*
X11716D01*
X9945Y174197D02*
Y177740D01*
X8173Y185968D02*
X11716D01*
X9945Y184197D02*
Y187740D01*
X8173Y195968D02*
X11716D01*
X9945Y194197D02*
Y197740D01*
X8173Y205968D02*
X11716D01*
X9945Y204197D02*
Y207740D01*
X8173Y215968D02*
X11716D01*
X9945Y214197D02*
Y217740D01*
X8173Y225969D02*
X11716D01*
X9945Y224197D02*
Y227740D01*
X8173Y235968D02*
X11716D01*
X9945Y234197D02*
Y237740D01*
X8173Y245969D02*
X11716D01*
X9945Y244197D02*
Y247740D01*
X8173Y255968D02*
X11716D01*
X9945Y254197D02*
Y257740D01*
X8173Y265968D02*
X11716D01*
X9945Y264197D02*
Y267740D01*
X368504Y203937D02*
X380315D01*
X374410Y198031D02*
Y209842D01*
X94269Y232677D02*
X97069D01*
X95669Y231277D02*
Y234077D01*
X97025Y112205D02*
X99825D01*
X98425Y110805D02*
Y113605D01*
X158049Y29134D02*
X160849D01*
X159449Y27734D02*
Y30534D01*
X212380Y272441D02*
X215179D01*
X213779Y271041D02*
Y273841D01*
X219466Y311024D02*
X222266D01*
X220866Y309624D02*
Y312424D01*
X208049Y317717D02*
X210849D01*
X209449Y316317D02*
Y319116D01*
X249387Y301575D02*
X252187D01*
X250787Y300175D02*
Y302975D01*
X269072Y314567D02*
X271872D01*
X270472Y313167D02*
Y315967D01*
X269072Y303543D02*
X271872D01*
X270472Y302143D02*
Y304943D01*
X248994Y78839D02*
X251794D01*
X250394Y77439D02*
Y80239D01*
X69466Y230315D02*
X72266D01*
X70866Y228915D02*
Y231715D01*
X68679Y113779D02*
X71479D01*
X70079Y112380D02*
Y115180D01*
X69072Y8268D02*
X71872D01*
X70472Y6868D02*
Y9668D01*
X137970Y281890D02*
X140770D01*
X139370Y280490D02*
Y283290D01*
X70253Y198819D02*
X73053D01*
X71653Y197419D02*
Y200219D01*
X154506Y176673D02*
X157306D01*
X155905Y175273D02*
Y178073D01*
X137970Y176772D02*
X140770D01*
X139370Y175372D02*
Y178172D01*
X170647Y177165D02*
X173447D01*
X172047Y175765D02*
Y178565D01*
X273009Y160236D02*
X275810D01*
X274410Y158836D02*
Y161636D01*
X248600Y51968D02*
X251400D01*
X250000Y50568D02*
Y53369D01*
X173009Y56524D02*
X175809D01*
X174409Y55124D02*
Y57924D01*
X138167Y258634D02*
X140967D01*
X139567Y257234D02*
Y260034D01*
X173206Y267913D02*
X176006D01*
X174606Y266513D02*
Y269313D01*
X218679Y205512D02*
X221479D01*
X220079Y204112D02*
Y206912D01*
X211198Y198031D02*
X213998D01*
X212598Y196632D02*
Y199432D01*
X199781Y224579D02*
X202581D01*
X201181Y223179D02*
Y225979D01*
X186395Y140157D02*
X189195D01*
X187795Y138758D02*
Y141558D01*
X138364Y101575D02*
X141164D01*
X139764Y100175D02*
Y102975D01*
X138364Y89370D02*
X141164D01*
X139764Y87970D02*
Y90770D01*
X162380Y71260D02*
X165180D01*
X163779Y69860D02*
Y72660D01*
X172222Y162992D02*
X175022D01*
X173622Y161592D02*
Y164392D01*
X190332Y209449D02*
X193132D01*
X191732Y208049D02*
Y210849D01*
X180096Y245276D02*
X182896D01*
X181496Y243876D02*
Y246676D01*
X172813Y216634D02*
X175613D01*
X174213Y215234D02*
Y218034D01*
X145879Y200480D02*
X148679D01*
X147280Y199080D02*
Y201880D01*
X138364Y35827D02*
X141164D01*
X139764Y34427D02*
Y37227D01*
X138758Y22835D02*
X141558D01*
X140157Y21435D02*
Y24235D01*
X138758Y69291D02*
X141558D01*
X140157Y67891D02*
Y70691D01*
X96631Y7087D02*
X99432D01*
X98032Y5687D02*
Y8487D01*
X104112Y46063D02*
X106912D01*
X105512Y44663D02*
Y47463D01*
X41907Y32677D02*
X44707D01*
X43307Y31277D02*
Y34077D01*
X53324Y146850D02*
X56124D01*
X54724Y145450D02*
Y148250D01*
X56080Y39370D02*
X58880D01*
X57480Y37970D02*
Y40770D01*
X137970Y149606D02*
X140770D01*
X139370Y148206D02*
Y151006D01*
X171238Y254921D02*
X174038D01*
X172638Y253521D02*
Y256321D01*
X141710Y216339D02*
X144510D01*
X143110Y214939D02*
Y217739D01*
X102537Y270866D02*
X105337D01*
X103937Y269466D02*
Y272266D01*
X47419Y185433D02*
X50219D01*
X48819Y184033D02*
Y186833D01*
X99387Y218898D02*
X102187D01*
X100787Y217498D02*
Y220298D01*
X62773Y300787D02*
X65573D01*
X64173Y299387D02*
Y302187D01*
X47025Y300394D02*
X49825D01*
X48425Y298994D02*
Y301794D01*
X102537Y155905D02*
X105337D01*
X103937Y154506D02*
Y157306D01*
X38758Y141732D02*
X41557D01*
X40157Y140332D02*
Y143132D01*
X25372Y158661D02*
X28172D01*
X26772Y157261D02*
Y160061D01*
X19072Y166929D02*
X21872D01*
X20472Y165529D02*
Y168329D01*
X38364Y185433D02*
X41164D01*
X39764Y184033D02*
Y186833D01*
X31671Y86811D02*
X34471D01*
X33071Y85411D02*
Y88211D01*
X60805Y260531D02*
X63605D01*
X62205Y259132D02*
Y261931D01*
X53226Y254724D02*
X56026D01*
X54626Y253324D02*
Y256124D01*
X222742Y128945D02*
X225542D01*
X224142Y127545D02*
Y130345D01*
X156797Y137520D02*
X159597D01*
X158197Y136120D02*
Y138920D01*
X222742Y138945D02*
X225542D01*
X224142Y137545D02*
Y140345D01*
X274742Y144945D02*
X277542D01*
X276142Y143545D02*
Y146345D01*
X222742Y149445D02*
X225542D01*
X224142Y148045D02*
Y150845D01*
X271529Y32913D02*
X274329D01*
X272929Y31513D02*
Y34313D01*
X271529Y47913D02*
X274329D01*
X272929Y46513D02*
Y49313D01*
X222304Y248945D02*
X225104D01*
X223704Y247545D02*
Y250345D01*
X278104Y245945D02*
X280904D01*
X279504Y244545D02*
Y247345D01*
X278104Y256945D02*
X280904D01*
X279504Y255545D02*
Y258345D01*
X274742Y133945D02*
X277542D01*
X276142Y132545D02*
Y135345D01*
X271529Y21913D02*
X274329D01*
X272929Y20513D02*
Y23313D01*
X337529Y64913D02*
X340329D01*
X338929Y63513D02*
Y66313D01*
X26651Y244291D02*
X29451D01*
X28051Y242891D02*
Y245691D01*
X33639Y222539D02*
X36439D01*
X35039Y221139D02*
Y223939D01*
X152242Y226673D02*
X155042D01*
X153642Y225273D02*
Y228073D01*
X218832Y14252D02*
X221632D01*
X220232Y12852D02*
Y15652D01*
X218931Y24685D02*
X221731D01*
X220331Y23285D02*
Y26085D01*
X219029Y35413D02*
X221829D01*
X220429Y34013D02*
Y36813D01*
X269860Y78347D02*
X272660D01*
X271260Y76947D02*
Y79747D01*
X269860Y89370D02*
X272660D01*
X271260Y87970D02*
Y90770D01*
X269860Y100394D02*
X272660D01*
X271260Y98994D02*
Y101794D01*
X222404Y257745D02*
X225204D01*
X223804Y256345D02*
Y259145D01*
X268752Y194945D02*
X271552D01*
X270152Y193545D02*
Y196345D01*
X268252Y206445D02*
X271052D01*
X269652Y205045D02*
Y207845D01*
X268252Y217445D02*
X271052D01*
X269652Y216045D02*
Y218845D01*
X269072Y325984D02*
X271872D01*
X270472Y324584D02*
Y327384D01*
X337742Y177945D02*
X340542D01*
X339142Y176545D02*
Y179345D01*
X342604Y288945D02*
X345404D01*
X344004Y287545D02*
Y290345D01*
X107545Y321339D02*
X110345D01*
X108945Y319939D02*
Y322739D01*
X275968Y273573D02*
X278767D01*
X277367Y272173D02*
Y274973D01*
X222304Y239945D02*
X225104D01*
X223704Y238545D02*
Y241345D01*
X25545Y261339D02*
X28345D01*
X26945Y259939D02*
Y262739D01*
X156191Y245870D02*
X158991D01*
X157590Y244470D02*
Y247270D01*
M02*
