G04*
G04 #@! TF.GenerationSoftware,Altium Limited,Altium Designer,23.10.1 (27)*
G04*
G04 Layer_Color=255*
%FSLAX25Y25*%
%MOIN*%
G70*
G04*
G04 #@! TF.SameCoordinates,92CF8CD3-C0A9-45A0-95EF-EEFF48AC6B84*
G04*
G04*
G04 #@! TF.FilePolarity,Positive*
G04*
G01*
G75*
%ADD14R,0.40945X0.42520*%
%ADD15R,0.18110X0.03150*%
%ADD16R,0.04528X0.05315*%
%ADD17R,0.05118X0.05512*%
%ADD18R,0.04331X0.05512*%
%ADD19R,0.05800X0.02200*%
%ADD20R,0.05315X0.04528*%
%ADD21R,0.05906X0.02559*%
%ADD22R,0.05512X0.04331*%
%ADD23R,0.05512X0.05118*%
%ADD24R,0.03740X0.03543*%
%ADD25R,0.02362X0.03937*%
%ADD26R,0.06299X0.12205*%
%ADD48C,0.20000*%
%ADD49C,0.04000*%
%ADD50C,0.06500*%
%ADD51C,0.06000*%
%ADD52C,0.07000*%
%ADD53R,0.05906X0.05906*%
%ADD54C,0.05906*%
D14*
X303590Y313197D02*
D03*
X334528Y258197D02*
D03*
X300941Y201197D02*
D03*
X331165Y145197D02*
D03*
X300728Y88165D02*
D03*
X329398Y32913D02*
D03*
D15*
X341583Y328197D02*
D03*
Y323197D02*
D03*
Y318197D02*
D03*
Y308197D02*
D03*
Y303197D02*
D03*
Y298197D02*
D03*
X296535Y273197D02*
D03*
Y268197D02*
D03*
Y263197D02*
D03*
Y253197D02*
D03*
Y248197D02*
D03*
Y243197D02*
D03*
X338933Y216197D02*
D03*
Y211197D02*
D03*
Y206197D02*
D03*
Y196197D02*
D03*
Y191197D02*
D03*
Y186197D02*
D03*
X293173Y160197D02*
D03*
Y155197D02*
D03*
Y150197D02*
D03*
Y140197D02*
D03*
Y135197D02*
D03*
Y130197D02*
D03*
X338720Y103165D02*
D03*
Y98165D02*
D03*
Y93165D02*
D03*
Y83165D02*
D03*
Y78165D02*
D03*
Y73165D02*
D03*
X291406Y47913D02*
D03*
Y42913D02*
D03*
Y37913D02*
D03*
Y27913D02*
D03*
Y22913D02*
D03*
Y17913D02*
D03*
D16*
X155709Y188287D02*
D03*
X163583D02*
D03*
X184252Y200394D02*
D03*
X176378D02*
D03*
Y188189D02*
D03*
X184252D02*
D03*
X213638Y283606D02*
D03*
X221512D02*
D03*
X220472Y169291D02*
D03*
X212598D02*
D03*
X181579Y235661D02*
D03*
X173705D02*
D03*
X193705D02*
D03*
X201579D02*
D03*
X158138Y102157D02*
D03*
X150264D02*
D03*
X169209Y102350D02*
D03*
X177083D02*
D03*
X181579Y225661D02*
D03*
X173705D02*
D03*
X158138Y89488D02*
D03*
X150264D02*
D03*
D17*
X163716Y200480D02*
D03*
X163386Y19291D02*
D03*
Y38976D02*
D03*
X240661Y301606D02*
D03*
X221512D02*
D03*
X240945Y188583D02*
D03*
X220291Y188358D02*
D03*
X161028Y236370D02*
D03*
X162205Y128347D02*
D03*
X161276Y254866D02*
D03*
X161984Y146705D02*
D03*
D18*
X155842Y200480D02*
D03*
X155512Y19291D02*
D03*
Y38976D02*
D03*
X232787Y301606D02*
D03*
X213638D02*
D03*
X233071Y188583D02*
D03*
X212417Y188358D02*
D03*
X153154Y236370D02*
D03*
X154331Y128347D02*
D03*
X153402Y254866D02*
D03*
X154110Y146705D02*
D03*
D19*
X164124Y53543D02*
D03*
Y57284D02*
D03*
Y61024D02*
D03*
X154724D02*
D03*
Y53543D02*
D03*
X162039Y267126D02*
D03*
Y270866D02*
D03*
Y274606D02*
D03*
X152639D02*
D03*
Y267126D02*
D03*
X153174Y159252D02*
D03*
Y166732D02*
D03*
X162574D02*
D03*
Y162992D02*
D03*
Y159252D02*
D03*
D20*
X139764Y159055D02*
D03*
Y166929D02*
D03*
X140157Y61417D02*
D03*
Y53543D02*
D03*
X59055Y13386D02*
D03*
Y21260D02*
D03*
X60433Y237697D02*
D03*
Y245571D02*
D03*
X61417Y122835D02*
D03*
Y130709D02*
D03*
X139567Y267224D02*
D03*
Y275098D02*
D03*
D21*
X74016Y275768D02*
D03*
Y270768D02*
D03*
Y265768D02*
D03*
Y260768D02*
D03*
Y255768D02*
D03*
Y250768D02*
D03*
Y245768D02*
D03*
Y240768D02*
D03*
X95276D02*
D03*
Y245768D02*
D03*
Y250768D02*
D03*
Y255768D02*
D03*
Y260768D02*
D03*
Y265768D02*
D03*
Y270768D02*
D03*
Y275768D02*
D03*
X74016Y51358D02*
D03*
Y46358D02*
D03*
Y41358D02*
D03*
Y36358D02*
D03*
Y31358D02*
D03*
Y26358D02*
D03*
Y21358D02*
D03*
Y16358D02*
D03*
X95276D02*
D03*
Y21358D02*
D03*
Y26358D02*
D03*
Y31358D02*
D03*
Y36358D02*
D03*
Y41358D02*
D03*
Y46358D02*
D03*
Y51358D02*
D03*
Y160787D02*
D03*
Y155787D02*
D03*
Y150787D02*
D03*
Y145787D02*
D03*
Y140787D02*
D03*
Y135787D02*
D03*
Y130787D02*
D03*
Y125787D02*
D03*
X74016D02*
D03*
Y130787D02*
D03*
Y135787D02*
D03*
Y140787D02*
D03*
Y145787D02*
D03*
Y150787D02*
D03*
Y155787D02*
D03*
Y160787D02*
D03*
D22*
X59449Y279528D02*
D03*
Y58268D02*
D03*
X107087Y18110D02*
D03*
X104677Y242173D02*
D03*
X61024Y163779D02*
D03*
X105905Y127559D02*
D03*
D23*
X59449Y271654D02*
D03*
Y50394D02*
D03*
X107087Y25984D02*
D03*
X104677Y250047D02*
D03*
X61024Y155905D02*
D03*
X105905Y135433D02*
D03*
D24*
X97244Y77461D02*
D03*
Y65059D02*
D03*
X96850Y304232D02*
D03*
Y291831D02*
D03*
X98032Y173819D02*
D03*
Y186221D02*
D03*
X194882Y301083D02*
D03*
Y288681D02*
D03*
X201181Y175492D02*
D03*
Y187894D02*
D03*
D25*
X233835Y277606D02*
D03*
X237575D02*
D03*
X241315D02*
D03*
Y288433D02*
D03*
X233835D02*
D03*
X233409Y177311D02*
D03*
X240890D02*
D03*
Y166484D02*
D03*
X237150D02*
D03*
X233409D02*
D03*
D26*
X265999Y252445D02*
D03*
X240409D02*
D03*
X235402Y139071D02*
D03*
X260992D02*
D03*
X258724Y27913D02*
D03*
X233134D02*
D03*
D48*
X373441Y92307D02*
D03*
X375197Y317717D02*
D03*
X374410Y203937D02*
D03*
D49*
X122835Y42362D02*
D03*
Y52362D02*
D03*
Y67323D02*
D03*
Y77323D02*
D03*
X43307Y59842D02*
D03*
Y49843D02*
D03*
X122441Y15197D02*
D03*
Y25197D02*
D03*
X120866Y294331D02*
D03*
Y304331D02*
D03*
X121260Y267165D02*
D03*
Y277165D02*
D03*
X40551Y281102D02*
D03*
Y271102D02*
D03*
X121653Y239606D02*
D03*
Y249606D02*
D03*
X120866Y177795D02*
D03*
Y187795D02*
D03*
Y152598D02*
D03*
Y162598D02*
D03*
X44685Y165256D02*
D03*
Y155256D02*
D03*
X121260Y125827D02*
D03*
Y135827D02*
D03*
D50*
X43307Y20748D02*
D03*
X42520Y245768D02*
D03*
X43307Y130197D02*
D03*
D51*
Y10748D02*
D03*
X42520Y235768D02*
D03*
X43307Y120197D02*
D03*
D52*
X156299Y320472D02*
D03*
X175984D02*
D03*
D53*
X9945Y125969D02*
D03*
D54*
Y135968D02*
D03*
Y145968D02*
D03*
Y155968D02*
D03*
Y165969D02*
D03*
Y175969D02*
D03*
Y185968D02*
D03*
Y195968D02*
D03*
Y205968D02*
D03*
Y215968D02*
D03*
Y225969D02*
D03*
Y235968D02*
D03*
Y245969D02*
D03*
Y255968D02*
D03*
Y265968D02*
D03*
M02*
