M48
;Layer_Color=9474304
;FILE_FORMAT=2:4
INCH,TZ
;TYPE=PLATED
T01F00S00C0.0280
T02F00S00C0.0354
T03F00S00C0.0400
T04F00S00C0.1181
%
T01
X9803Y709
X22023Y1425
X22033Y2468
X22043Y3541
X25000Y5197
X27293Y4791
Y3291
Y2191
X27126Y7835
Y8937
Y10039
X27614Y13394
Y14494
X27441Y16024
X22414Y14944
Y13894
Y12894
X25039Y7884
X33893Y6491
X17441Y5652
X16378Y7126
X14016Y6929
X12283Y6732
Y7732
Y5236
Y4236
X12244Y2520
Y1520
X14016Y2283
X13976Y3583
X15945Y2913
X10551Y4606
X5748Y3937
X7047Y827
X7008Y11378
X9843Y11220
X12126Y12583
Y13583
X12087Y15260
Y16260
X10394Y15591
X13937Y14961
X15820Y13752
X18780Y14016
X17362Y16299
X13976Y10157
Y8937
X5472Y14685
X4469Y15526
X4016Y14173
X2677Y15866
X3307Y8681
X4331Y5984
Y4984
Y3268
X4469Y16526
X3976Y18543
X2047Y16693
X3504Y22254
X2805Y24429
X2694Y26134
X4055Y27110
Y28110
X4843Y30039
X6417Y30079
X6220Y26053
X5463Y25472
X7087Y23031
X9567Y23268
X10079Y21890
X12165Y23961
Y24961
X12126Y26717
Y27717
X12087Y29433
Y30433
X13937Y28189
X13957Y25863
X15759Y24587
X15364Y22667
X14311Y21634
X14728Y20048
X13937Y17677
X15591Y17667
X17205Y17717
X17421Y21663
X19173Y20945
X20118Y22458
X18150Y24528
X17264Y25492
X17461Y26791
X10394Y27087
X12087Y18780
Y17780
X7165Y19882
X4882Y18543
X21260Y19803
X22008Y20551
X22370Y23994
Y24894
X22380Y25774
X21378Y27244
X22087Y31102
X20945Y31772
X25079Y30157
X27047Y30354
Y31457
X27737Y27357
X27950Y25694
Y24594
X26965Y21744
Y20644
X27015Y19494
X33914Y17794
X34400Y28894
X27047Y32598
X10894Y32134
T02
X994Y12597
Y13597
Y14597
Y15597
Y16597
Y17597
Y18597
Y19597
Y20597
Y21597
Y22597
Y23597
Y24597
Y25597
Y26597
T03
X4331Y1075
Y2075
Y12020
Y13020
X4252Y23577
Y24577
X15630Y32047
X17598
T04
X37344Y9231
X37441Y20394
X37520Y31772
M30
