G04*
G04 #@! TF.GenerationSoftware,Altium Limited,Altium Designer,23.10.1 (27)*
G04*
G04 Layer_Physical_Order=4*
G04 Layer_Color=16711680*
%FSLAX25Y25*%
%MOIN*%
G70*
G04*
G04 #@! TF.SameCoordinates,D58E8A5F-C196-4DC0-9E6E-83BCDBF650AB*
G04*
G04*
G04 #@! TF.FilePolarity,Positive*
G04*
G01*
G75*
%ADD47C,0.02000*%
%ADD48C,0.04000*%
%ADD49C,0.07000*%
%ADD50C,0.06500*%
%ADD51C,0.06000*%
%ADD52R,0.05906X0.05906*%
%ADD53C,0.05906*%
%ADD54C,0.20000*%
%ADD55C,0.05000*%
%ADD56R,0.09843X0.06693*%
G36*
X326000Y339000D02*
X353000D01*
X356000Y336000D01*
Y331347D01*
X352126D01*
Y327000D01*
Y322654D01*
X356000D01*
Y318000D01*
X352000Y314000D01*
X324000D01*
X314000Y304000D01*
X301000D01*
X297000Y308000D01*
Y339000D01*
X304000Y346000D01*
X319000D01*
X326000Y339000D01*
D02*
G37*
G36*
X425000Y324000D02*
Y277000D01*
X405000Y257000D01*
X365000D01*
X360000Y262000D01*
Y262653D01*
X363874D01*
Y267000D01*
Y271346D01*
X360000D01*
Y275000D01*
X365000Y280000D01*
X376000D01*
X385000Y289000D01*
Y310000D01*
X380000Y315000D01*
X365000D01*
X362000Y318000D01*
Y322654D01*
X365874D01*
Y327000D01*
Y331347D01*
X362000D01*
Y336000D01*
X365000Y339000D01*
X410000D01*
X425000Y324000D01*
D02*
G37*
G36*
X354000Y275000D02*
Y271346D01*
X350126D01*
Y267000D01*
Y262653D01*
X354000D01*
Y260000D01*
X351000Y257000D01*
X325000D01*
X317000Y249000D01*
X297000D01*
X294000Y252000D01*
Y268000D01*
X302000Y276000D01*
X353000D01*
X354000Y275000D01*
D02*
G37*
G36*
X327000Y227000D02*
X350000D01*
X355000Y222000D01*
Y218347D01*
X351126D01*
Y214000D01*
Y209653D01*
X355000D01*
Y207000D01*
X351000Y203000D01*
X325000D01*
X317000Y195000D01*
X299000D01*
X295000Y199000D01*
Y230000D01*
X303000Y238000D01*
X316000D01*
X327000Y227000D01*
D02*
G37*
G36*
X425000Y213000D02*
Y156000D01*
X408000Y139000D01*
X362000D01*
X358000Y143000D01*
Y147653D01*
X362874D01*
Y152000D01*
Y156346D01*
X358000D01*
Y160000D01*
X360000Y162000D01*
X382000D01*
X386000Y166000D01*
Y196000D01*
X379000Y203000D01*
X364000D01*
X361000Y206000D01*
Y209653D01*
X364874D01*
Y214000D01*
Y218347D01*
X361000D01*
Y221000D01*
X364000Y226000D01*
X412000D01*
X425000Y213000D01*
D02*
G37*
G36*
X329000Y161000D02*
X351000D01*
X353000Y160000D01*
Y156346D01*
X349126D01*
Y152000D01*
Y147653D01*
X353000D01*
Y142000D01*
X350000Y139000D01*
X327000D01*
X320000Y132000D01*
X308750Y132000D01*
X303000Y136600D01*
Y159000D01*
X307000Y163000D01*
X327000Y163000D01*
X329000Y161000D01*
D02*
G37*
G36*
X323000Y112000D02*
X352000D01*
X354000Y110000D01*
Y102047D01*
X349726D01*
Y97700D01*
Y93353D01*
X354000D01*
Y92000D01*
X349000Y87000D01*
X321000D01*
X311000Y77000D01*
X298000D01*
X295000Y80000D01*
Y115000D01*
X300000Y120000D01*
X315000D01*
X323000Y112000D01*
D02*
G37*
G36*
X425300Y97200D02*
Y53900D01*
X406300Y34900D01*
X361600D01*
X358200Y38300D01*
Y39854D01*
X362274D01*
Y44200D01*
Y48546D01*
X358200D01*
Y53200D01*
X360800Y55800D01*
X379400D01*
X383200Y59600D01*
Y83200D01*
X379800Y86600D01*
X366000D01*
X359747Y92853D01*
X359812Y93353D01*
X363474D01*
Y97700D01*
Y102047D01*
X359700D01*
Y114100D01*
X362500Y117500D01*
X405000D01*
X425300Y97200D01*
D02*
G37*
G36*
X353000Y54000D02*
Y48546D01*
X348526D01*
Y44200D01*
Y39854D01*
X353000D01*
Y38000D01*
X348000Y33000D01*
X331000D01*
X318000Y20000D01*
X290000D01*
X288000Y22000D01*
Y44000D01*
X291000Y47000D01*
X315000D01*
X324000Y56000D01*
X351000D01*
X353000Y54000D01*
D02*
G37*
%LPC*%
G36*
X307500Y338490D02*
Y335500D01*
X310490D01*
X310262Y336351D01*
X309801Y337149D01*
X309149Y337801D01*
X308351Y338262D01*
X307500Y338490D01*
D02*
G37*
G36*
X306500D02*
X305649Y338262D01*
X304851Y337801D01*
X304199Y337149D01*
X303738Y336351D01*
X303510Y335500D01*
X306500D01*
Y338490D01*
D02*
G37*
G36*
X310490Y334500D02*
X307500D01*
Y331510D01*
X308351Y331738D01*
X309149Y332199D01*
X309801Y332851D01*
X310262Y333649D01*
X310490Y334500D01*
D02*
G37*
G36*
X306500D02*
X303510D01*
X303738Y333649D01*
X304199Y332851D01*
X304851Y332199D01*
X305649Y331738D01*
X306500Y331510D01*
Y334500D01*
D02*
G37*
G36*
X350126Y331347D02*
X345205D01*
Y328000D01*
X350126D01*
Y331347D01*
D02*
G37*
G36*
X307500Y326990D02*
Y324000D01*
X310490D01*
X310262Y324851D01*
X309801Y325649D01*
X309149Y326301D01*
X308351Y326762D01*
X307500Y326990D01*
D02*
G37*
G36*
X306500D02*
X305649Y326762D01*
X304851Y326301D01*
X304199Y325649D01*
X303738Y324851D01*
X303510Y324000D01*
X306500D01*
Y326990D01*
D02*
G37*
G36*
X350126Y326000D02*
X345205D01*
Y322654D01*
X350126D01*
Y326000D01*
D02*
G37*
G36*
X310490Y323000D02*
X307500D01*
Y320010D01*
X308351Y320238D01*
X309149Y320699D01*
X309801Y321351D01*
X310262Y322149D01*
X310490Y323000D01*
D02*
G37*
G36*
X306500D02*
X303510D01*
X303738Y322149D01*
X304199Y321351D01*
X304851Y320699D01*
X305649Y320238D01*
X306500Y320010D01*
Y323000D01*
D02*
G37*
G36*
X307500Y315989D02*
Y313000D01*
X310490D01*
X310262Y313851D01*
X309801Y314649D01*
X309149Y315301D01*
X308351Y315761D01*
X307500Y315989D01*
D02*
G37*
G36*
X306500D02*
X305649Y315761D01*
X304851Y315301D01*
X304199Y314649D01*
X303738Y313851D01*
X303510Y313000D01*
X306500D01*
Y315989D01*
D02*
G37*
G36*
X310490Y312000D02*
X307500D01*
Y309011D01*
X308351Y309239D01*
X309149Y309699D01*
X309801Y310351D01*
X310262Y311149D01*
X310490Y312000D01*
D02*
G37*
G36*
X306500D02*
X303510D01*
X303738Y311149D01*
X304199Y310351D01*
X304851Y309699D01*
X305649Y309239D01*
X306500Y309011D01*
Y312000D01*
D02*
G37*
G36*
X372795Y331347D02*
X367874D01*
Y328000D01*
X372795D01*
Y331347D01*
D02*
G37*
G36*
Y326000D02*
X367874D01*
Y322654D01*
X372795D01*
Y326000D01*
D02*
G37*
G36*
X406378Y311197D02*
X406012D01*
Y300697D01*
X416512D01*
Y301063D01*
X416241Y302773D01*
X415706Y304419D01*
X414920Y305962D01*
X413902Y307363D01*
X412678Y308587D01*
X411277Y309605D01*
X409734Y310391D01*
X408088Y310926D01*
X406378Y311197D01*
D02*
G37*
G36*
X405012D02*
X404646D01*
X402936Y310926D01*
X401289Y310391D01*
X399747Y309605D01*
X398346Y308587D01*
X397122Y307363D01*
X396104Y305962D01*
X395318Y304419D01*
X394783Y302773D01*
X394512Y301063D01*
Y300697D01*
X405012D01*
Y311197D01*
D02*
G37*
G36*
X416512Y299697D02*
X406012D01*
Y289197D01*
X406378D01*
X408088Y289468D01*
X409734Y290003D01*
X411277Y290789D01*
X412678Y291807D01*
X413902Y293031D01*
X414920Y294432D01*
X415706Y295974D01*
X416241Y297621D01*
X416512Y299331D01*
Y299697D01*
D02*
G37*
G36*
X405012D02*
X394512D01*
Y299331D01*
X394783Y297621D01*
X395318Y295974D01*
X396104Y294432D01*
X397122Y293031D01*
X398346Y291807D01*
X399747Y290789D01*
X401289Y290003D01*
X402936Y289468D01*
X404646Y289197D01*
X405012D01*
Y299697D01*
D02*
G37*
G36*
X370795Y271346D02*
X365874D01*
Y268000D01*
X370795D01*
Y271346D01*
D02*
G37*
G36*
Y266000D02*
X365874D01*
Y262653D01*
X370795D01*
Y266000D01*
D02*
G37*
G36*
X348126Y271346D02*
X343205D01*
Y268000D01*
X348126D01*
Y271346D01*
D02*
G37*
G36*
X311500Y269490D02*
Y266500D01*
X314490D01*
X314262Y267351D01*
X313801Y268149D01*
X313149Y268801D01*
X312351Y269262D01*
X311500Y269490D01*
D02*
G37*
G36*
X310500D02*
X309649Y269262D01*
X308851Y268801D01*
X308199Y268149D01*
X307738Y267351D01*
X307510Y266500D01*
X310500D01*
Y269490D01*
D02*
G37*
G36*
X348126Y266000D02*
X343205D01*
Y262653D01*
X348126D01*
Y266000D01*
D02*
G37*
G36*
X314490Y265500D02*
X311500D01*
Y262510D01*
X312351Y262738D01*
X313149Y263199D01*
X313801Y263851D01*
X314262Y264649D01*
X314490Y265500D01*
D02*
G37*
G36*
X310500D02*
X307510D01*
X307738Y264649D01*
X308199Y263851D01*
X308851Y263199D01*
X309649Y262738D01*
X310500Y262510D01*
Y265500D01*
D02*
G37*
G36*
X311500Y258489D02*
Y255500D01*
X314490D01*
X314262Y256351D01*
X313801Y257149D01*
X313149Y257801D01*
X312351Y258261D01*
X311500Y258489D01*
D02*
G37*
G36*
X310500D02*
X309649Y258261D01*
X308851Y257801D01*
X308199Y257149D01*
X307738Y256351D01*
X307510Y255500D01*
X310500D01*
Y258489D01*
D02*
G37*
G36*
X314490Y254500D02*
X311500D01*
Y251511D01*
X312351Y251739D01*
X313149Y252199D01*
X313801Y252851D01*
X314262Y253649D01*
X314490Y254500D01*
D02*
G37*
G36*
X310500D02*
X307510D01*
X307738Y253649D01*
X308199Y252851D01*
X308851Y252199D01*
X309649Y251739D01*
X310500Y251511D01*
Y254500D01*
D02*
G37*
G36*
X308000Y230990D02*
Y228000D01*
X310989D01*
X310761Y228851D01*
X310301Y229649D01*
X309649Y230301D01*
X308851Y230762D01*
X308000Y230990D01*
D02*
G37*
G36*
X307000D02*
X306149Y230762D01*
X305351Y230301D01*
X304699Y229649D01*
X304239Y228851D01*
X304011Y228000D01*
X307000D01*
Y230990D01*
D02*
G37*
G36*
X310989Y227000D02*
X308000D01*
Y224010D01*
X308851Y224238D01*
X309649Y224699D01*
X310301Y225351D01*
X310761Y226149D01*
X310989Y227000D01*
D02*
G37*
G36*
X307000D02*
X304011D01*
X304239Y226149D01*
X304699Y225351D01*
X305351Y224699D01*
X306149Y224238D01*
X307000Y224010D01*
Y227000D01*
D02*
G37*
G36*
X308000Y218989D02*
Y216000D01*
X310989D01*
X310761Y216851D01*
X310301Y217649D01*
X309649Y218301D01*
X308851Y218761D01*
X308000Y218989D01*
D02*
G37*
G36*
X307000D02*
X306149Y218761D01*
X305351Y218301D01*
X304699Y217649D01*
X304239Y216851D01*
X304011Y216000D01*
X307000D01*
Y218989D01*
D02*
G37*
G36*
X349126Y218347D02*
X344205D01*
Y215000D01*
X349126D01*
Y218347D01*
D02*
G37*
G36*
X310989Y215000D02*
X308000D01*
Y212011D01*
X308851Y212239D01*
X309649Y212699D01*
X310301Y213351D01*
X310761Y214149D01*
X310989Y215000D01*
D02*
G37*
G36*
X307000D02*
X304011D01*
X304239Y214149D01*
X304699Y213351D01*
X305351Y212699D01*
X306149Y212239D01*
X307000Y212011D01*
Y215000D01*
D02*
G37*
G36*
X349126Y213000D02*
X344205D01*
Y209653D01*
X349126D01*
Y213000D01*
D02*
G37*
G36*
X308000Y207990D02*
Y205000D01*
X310989D01*
X310761Y205851D01*
X310301Y206649D01*
X309649Y207301D01*
X308851Y207762D01*
X308000Y207990D01*
D02*
G37*
G36*
X307000D02*
X306149Y207762D01*
X305351Y207301D01*
X304699Y206649D01*
X304239Y205851D01*
X304011Y205000D01*
X307000D01*
Y207990D01*
D02*
G37*
G36*
X310989Y204000D02*
X308000D01*
Y201010D01*
X308851Y201238D01*
X309649Y201699D01*
X310301Y202351D01*
X310761Y203149D01*
X310989Y204000D01*
D02*
G37*
G36*
X307000D02*
X304011D01*
X304239Y203149D01*
X304699Y202351D01*
X305351Y201699D01*
X306149Y201238D01*
X307000Y201010D01*
Y204000D01*
D02*
G37*
G36*
X371795Y218347D02*
X366874D01*
Y215000D01*
X371795D01*
Y218347D01*
D02*
G37*
G36*
Y213000D02*
X366874D01*
Y209653D01*
X371795D01*
Y213000D01*
D02*
G37*
G36*
X406366Y190000D02*
X406000D01*
Y179500D01*
X416500D01*
Y179866D01*
X416229Y181576D01*
X415694Y183222D01*
X414908Y184765D01*
X413890Y186166D01*
X412666Y187390D01*
X411265Y188408D01*
X409723Y189194D01*
X408076Y189729D01*
X406366Y190000D01*
D02*
G37*
G36*
X405000D02*
X404634D01*
X402924Y189729D01*
X401277Y189194D01*
X399735Y188408D01*
X398334Y187390D01*
X397110Y186166D01*
X396092Y184765D01*
X395306Y183222D01*
X394771Y181576D01*
X394500Y179866D01*
Y179500D01*
X405000D01*
Y190000D01*
D02*
G37*
G36*
X416500Y178500D02*
X406000D01*
Y168000D01*
X406366D01*
X408076Y168271D01*
X409723Y168806D01*
X411265Y169592D01*
X412666Y170610D01*
X413890Y171834D01*
X414908Y173235D01*
X415694Y174777D01*
X416229Y176424D01*
X416500Y178134D01*
Y178500D01*
D02*
G37*
G36*
X405000D02*
X394500D01*
Y178134D01*
X394771Y176424D01*
X395306Y174777D01*
X396092Y173235D01*
X397110Y171834D01*
X398334Y170610D01*
X399735Y169592D01*
X401277Y168806D01*
X402924Y168271D01*
X404634Y168000D01*
X405000D01*
Y178500D01*
D02*
G37*
G36*
X369795Y156346D02*
X364874D01*
Y153000D01*
X369795D01*
Y156346D01*
D02*
G37*
G36*
Y151000D02*
X364874D01*
Y147653D01*
X369795D01*
Y151000D01*
D02*
G37*
G36*
X310500Y157490D02*
Y154500D01*
X313490D01*
X313262Y155351D01*
X312801Y156149D01*
X312149Y156801D01*
X311351Y157262D01*
X310500Y157490D01*
D02*
G37*
G36*
X309500D02*
X308649Y157262D01*
X307851Y156801D01*
X307199Y156149D01*
X306738Y155351D01*
X306510Y154500D01*
X309500D01*
Y157490D01*
D02*
G37*
G36*
X347126Y156346D02*
X342205D01*
Y153000D01*
X347126D01*
Y156346D01*
D02*
G37*
G36*
X313490Y153500D02*
X310500D01*
Y150511D01*
X311351Y150739D01*
X312149Y151199D01*
X312801Y151851D01*
X313262Y152649D01*
X313490Y153500D01*
D02*
G37*
G36*
X309500D02*
X306510D01*
X306738Y152649D01*
X307199Y151851D01*
X307851Y151199D01*
X308649Y150739D01*
X309500Y150511D01*
Y153500D01*
D02*
G37*
G36*
X347126Y151000D02*
X342205D01*
Y147653D01*
X347126D01*
Y151000D01*
D02*
G37*
G36*
X310500Y146490D02*
Y143500D01*
X313490D01*
X313262Y144351D01*
X312801Y145149D01*
X312149Y145801D01*
X311351Y146262D01*
X310500Y146490D01*
D02*
G37*
G36*
X309500D02*
X308649Y146262D01*
X307851Y145801D01*
X307199Y145149D01*
X306738Y144351D01*
X306510Y143500D01*
X309500D01*
Y146490D01*
D02*
G37*
G36*
X313490Y142500D02*
X310500D01*
Y139511D01*
X311351Y139739D01*
X312149Y140199D01*
X312801Y140851D01*
X313262Y141649D01*
X313490Y142500D01*
D02*
G37*
G36*
X309500D02*
X306510D01*
X306738Y141649D01*
X307199Y140851D01*
X307851Y140199D01*
X308649Y139739D01*
X309500Y139511D01*
Y142500D01*
D02*
G37*
G36*
X307587Y110773D02*
Y107783D01*
X310576D01*
X310348Y108634D01*
X309887Y109432D01*
X309236Y110084D01*
X308438Y110545D01*
X307587Y110773D01*
D02*
G37*
G36*
X306587D02*
X305736Y110545D01*
X304938Y110084D01*
X304286Y109432D01*
X303825Y108634D01*
X303597Y107783D01*
X306587D01*
Y110773D01*
D02*
G37*
G36*
X310576Y106783D02*
X307587D01*
Y103794D01*
X308438Y104022D01*
X309236Y104483D01*
X309887Y105134D01*
X310348Y105932D01*
X310576Y106783D01*
D02*
G37*
G36*
X306587D02*
X303597D01*
X303825Y105932D01*
X304286Y105134D01*
X304938Y104483D01*
X305736Y104022D01*
X306587Y103794D01*
Y106783D01*
D02*
G37*
G36*
X347726Y102047D02*
X342805D01*
Y98700D01*
X347726D01*
Y102047D01*
D02*
G37*
G36*
X307587Y99946D02*
Y96957D01*
X310576D01*
X310348Y97808D01*
X309887Y98606D01*
X309236Y99257D01*
X308438Y99718D01*
X307587Y99946D01*
D02*
G37*
G36*
X306587D02*
X305736Y99718D01*
X304938Y99257D01*
X304286Y98606D01*
X303825Y97808D01*
X303597Y96957D01*
X306587D01*
Y99946D01*
D02*
G37*
G36*
X347726Y96700D02*
X342805D01*
Y93353D01*
X347726D01*
Y96700D01*
D02*
G37*
G36*
X310576Y95957D02*
X307587D01*
Y92967D01*
X308438Y93195D01*
X309236Y93656D01*
X309887Y94308D01*
X310348Y95106D01*
X310576Y95957D01*
D02*
G37*
G36*
X306587D02*
X303597D01*
X303825Y95106D01*
X304286Y94308D01*
X304938Y93656D01*
X305736Y93195D01*
X306587Y92967D01*
Y95957D01*
D02*
G37*
G36*
X307587Y89119D02*
Y86130D01*
X310576D01*
X310348Y86981D01*
X309887Y87779D01*
X309236Y88431D01*
X308438Y88891D01*
X307587Y89119D01*
D02*
G37*
G36*
X306587D02*
X305736Y88891D01*
X304938Y88431D01*
X304286Y87779D01*
X303825Y86981D01*
X303597Y86130D01*
X306587D01*
Y89119D01*
D02*
G37*
G36*
X310576Y85130D02*
X307587D01*
Y82140D01*
X308438Y82368D01*
X309236Y82829D01*
X309887Y83481D01*
X310348Y84279D01*
X310576Y85130D01*
D02*
G37*
G36*
X306587D02*
X303597D01*
X303825Y84279D01*
X304286Y83481D01*
X304938Y82829D01*
X305736Y82368D01*
X306587Y82140D01*
Y85130D01*
D02*
G37*
G36*
X370395Y102047D02*
X365474D01*
Y98700D01*
X370395D01*
Y102047D01*
D02*
G37*
G36*
Y96700D02*
X365474D01*
Y93353D01*
X370395D01*
Y96700D01*
D02*
G37*
G36*
X403366Y81000D02*
X403000D01*
Y70500D01*
X413500D01*
Y70866D01*
X413229Y72576D01*
X412694Y74222D01*
X411908Y75765D01*
X410890Y77166D01*
X409666Y78390D01*
X408265Y79408D01*
X406722Y80194D01*
X405076Y80729D01*
X403366Y81000D01*
D02*
G37*
G36*
X402000D02*
X401634D01*
X399924Y80729D01*
X398277Y80194D01*
X396735Y79408D01*
X395334Y78390D01*
X394110Y77166D01*
X393092Y75765D01*
X392306Y74222D01*
X391771Y72576D01*
X391500Y70866D01*
Y70500D01*
X402000D01*
Y81000D01*
D02*
G37*
G36*
X413500Y69500D02*
X403000D01*
Y59000D01*
X403366D01*
X405076Y59271D01*
X406722Y59806D01*
X408265Y60592D01*
X409666Y61610D01*
X410890Y62834D01*
X411908Y64235D01*
X412694Y65777D01*
X413229Y67424D01*
X413500Y69134D01*
Y69500D01*
D02*
G37*
G36*
X402000D02*
X391500D01*
Y69134D01*
X391771Y67424D01*
X392306Y65777D01*
X393092Y64235D01*
X394110Y62834D01*
X395334Y61610D01*
X396735Y60592D01*
X398277Y59806D01*
X399924Y59271D01*
X401634Y59000D01*
X402000D01*
Y69500D01*
D02*
G37*
G36*
X369195Y48546D02*
X364274D01*
Y45200D01*
X369195D01*
Y48546D01*
D02*
G37*
G36*
Y43200D02*
X364274D01*
Y39854D01*
X369195D01*
Y43200D01*
D02*
G37*
G36*
X346526Y48546D02*
X341605D01*
Y45200D01*
X346526D01*
Y48546D01*
D02*
G37*
G36*
X306500Y43490D02*
Y40500D01*
X309489D01*
X309261Y41351D01*
X308801Y42149D01*
X308149Y42801D01*
X307351Y43262D01*
X306500Y43490D01*
D02*
G37*
G36*
X305500D02*
X304649Y43262D01*
X303851Y42801D01*
X303199Y42149D01*
X302738Y41351D01*
X302510Y40500D01*
X305500D01*
Y43490D01*
D02*
G37*
G36*
X346526Y43200D02*
X341605D01*
Y39854D01*
X346526D01*
Y43200D01*
D02*
G37*
G36*
X309489Y39500D02*
X306500D01*
Y36511D01*
X307351Y36738D01*
X308149Y37199D01*
X308801Y37851D01*
X309261Y38649D01*
X309489Y39500D01*
D02*
G37*
G36*
X305500D02*
X302510D01*
X302738Y38649D01*
X303199Y37851D01*
X303851Y37199D01*
X304649Y36738D01*
X305500Y36511D01*
Y39500D01*
D02*
G37*
G36*
X306500Y32489D02*
Y29500D01*
X309489D01*
X309261Y30351D01*
X308801Y31149D01*
X308149Y31801D01*
X307351Y32261D01*
X306500Y32489D01*
D02*
G37*
G36*
X305500D02*
X304649Y32261D01*
X303851Y31801D01*
X303199Y31149D01*
X302738Y30351D01*
X302510Y29500D01*
X305500D01*
Y32489D01*
D02*
G37*
G36*
X309489Y28500D02*
X306500D01*
Y25510D01*
X307351Y25738D01*
X308149Y26199D01*
X308801Y26851D01*
X309261Y27649D01*
X309489Y28500D01*
D02*
G37*
G36*
X305500D02*
X302510D01*
X302738Y27649D01*
X303199Y26851D01*
X303851Y26199D01*
X304649Y25738D01*
X305500Y25510D01*
Y28500D01*
D02*
G37*
%LPD*%
D47*
X177854Y262795D02*
X186614Y271555D01*
X127295Y262795D02*
X177854D01*
X120500Y256000D02*
X127295Y262795D01*
X71260Y269193D02*
X71331Y269264D01*
X163976D01*
X138681Y215256D02*
X161319Y192618D01*
X92618Y215256D02*
X138681D01*
X161319Y186811D02*
Y192618D01*
X158760Y137894D02*
X169980Y126673D01*
X158760Y137894D02*
Y141732D01*
X169980Y126673D02*
X179134D01*
X199114Y162598D02*
X199688Y162024D01*
X201474D01*
X201786Y161713D01*
X216437D02*
X223425Y168701D01*
X201786Y161713D02*
X216437D01*
X203051Y154429D02*
X205610Y156988D01*
X232874D02*
X246949Y171063D01*
X205610Y156988D02*
X232874D01*
X194193Y154429D02*
X203051D01*
X197047Y265551D02*
X212894D01*
X199573Y245866D02*
X237706Y284000D01*
X260500D01*
X173819Y245866D02*
X199573D01*
X78500Y45000D02*
X162584D01*
X164632Y47047D02*
X165256D01*
X162584Y45000D02*
X164632Y47047D01*
X64000Y238500D02*
Y263067D01*
X63681Y263386D02*
X64000Y263067D01*
X244783Y233760D02*
X250886Y227658D01*
X188583Y233760D02*
X244783D01*
X250886Y227658D02*
X280658D01*
X297000Y244000D01*
X192870Y228500D02*
X236461D01*
X263287Y201673D01*
X133091Y155000D02*
X135236Y152854D01*
X74000Y155000D02*
X133091D01*
X135236Y152854D02*
X154528D01*
X161319Y159646D01*
X152169Y168799D02*
X179823D01*
X194193Y154429D01*
X144000Y160630D02*
X152169Y168799D01*
X179902Y295000D02*
X372828D01*
X375500Y297672D01*
X299491Y292000D02*
X308864Y282628D01*
X200555Y271555D02*
X221000Y292000D01*
X299491D01*
X172736Y302165D02*
X179902Y295000D01*
X283465Y79232D02*
X290697Y72000D01*
X283465Y79232D02*
Y85925D01*
X290697Y72000D02*
X359000D01*
X277000Y67000D02*
X366828D01*
X167913Y61319D02*
X283169D01*
X275453Y65453D02*
X277000Y67000D01*
X366828D02*
X371828Y72000D01*
X140248Y65453D02*
X275453D01*
X303328Y56000D02*
X303754Y55574D01*
X129796Y55000D02*
X140248Y65453D01*
X183953Y56000D02*
X303328D01*
X303754Y55574D02*
X305426D01*
X306000Y55000D01*
X168504Y40551D02*
X183953Y56000D01*
X134500Y180000D02*
X366000D01*
X373000Y187000D01*
X119500Y165000D02*
X134500Y180000D01*
X119500Y55000D02*
X129796D01*
X130051Y40551D02*
X168504D01*
X119500Y30000D02*
X130051Y40551D01*
X146063Y50236D02*
X156831D01*
X167913Y61319D01*
X351000Y244000D02*
X368500Y261500D01*
X297000Y244000D02*
X351000D01*
X368500Y261500D02*
X372500D01*
X405512Y300197D01*
X144035Y120965D02*
X257965D01*
X309000Y172000D01*
X364000Y196500D02*
X378500D01*
X384000Y202000D01*
X359000Y72000D02*
X368000Y81000D01*
X384000D01*
X389054D02*
X400054Y70000D01*
X402500D01*
X371828Y72000D02*
X372000D01*
X262457Y184000D02*
X351500D01*
X253740Y192717D02*
X262457Y184000D01*
X351500D02*
X364000Y196500D01*
X247146Y192717D02*
X253740D01*
X30776Y252854D02*
X37008D01*
X19000Y264630D02*
X30776Y252854D01*
X37008D02*
X37106Y252953D01*
X40130Y214630D02*
X64000Y238500D01*
X42126Y95472D02*
X42323Y95276D01*
X148031D02*
X165354Y77953D01*
X42323Y95276D02*
X148031D01*
X158071Y302165D02*
X172736D01*
X153051Y297146D02*
X158071Y302165D01*
X140748Y297146D02*
X153051D01*
X124690Y281088D02*
X140748Y297146D01*
X121088Y281088D02*
X124690D01*
X121000Y281000D02*
X121088Y281088D01*
X163260Y292000D02*
X163779Y292520D01*
X128543Y276083D02*
X144461Y292000D01*
X163260D01*
X55118Y276083D02*
X128543D01*
X40157Y261122D02*
X55118Y276083D01*
X32508Y261122D02*
X40157D01*
X19000Y274630D02*
X32508Y261122D01*
X11000Y212630D02*
Y280685D01*
X45815Y315500D02*
X75500D01*
X11000Y280685D02*
X45815Y315500D01*
X39764Y170374D02*
X91197Y221807D01*
X186177D01*
X19000Y134630D02*
X35348D01*
X39005Y138287D01*
X39469D01*
X26701Y189990D02*
X29565Y192854D01*
Y214630D01*
X29480Y165435D02*
X29565D01*
X26701Y168215D02*
Y189990D01*
X31201Y170079D02*
X101476Y240354D01*
X168307D01*
X26701Y168215D02*
X29480Y165435D01*
X29565D02*
X44114Y150886D01*
X47146D02*
X64272D01*
X68405Y146752D01*
X44114Y150886D02*
X47146D01*
X36000Y122909D02*
X47441Y134350D01*
Y150591D01*
X47146Y150886D02*
X47441Y150591D01*
X36000Y60500D02*
Y122909D01*
X186614Y271555D02*
X200555D01*
X113302Y233268D02*
X174016D01*
X178051Y237303D01*
X110841Y230807D02*
X113302Y233268D01*
X169193Y22736D02*
X180217D01*
X160630Y31299D02*
X169193Y22736D01*
X181791Y226969D02*
X188583Y233760D01*
X167520Y226969D02*
X181791D01*
X110630Y230807D02*
X110841D01*
X186177Y221807D02*
X192870Y228500D01*
X125000Y140000D02*
X144035Y120965D01*
X168307Y240354D02*
X173819Y245866D01*
X19000Y244630D02*
X32429Y231201D01*
X44094D01*
X279232Y321063D02*
X287106Y313189D01*
X255500Y311500D02*
X265063Y321063D01*
X279232D01*
X119000Y140000D02*
X125000D01*
X375500Y297672D02*
Y298000D01*
X184000Y311500D02*
X255500D01*
X165500Y330000D02*
X166497Y329003D01*
X184000Y311500D01*
X118000Y330000D02*
X165500D01*
X57500Y39000D02*
X66500D01*
X36000Y60500D02*
X57500Y39000D01*
X36828Y144630D02*
X39198Y147000D01*
X19000Y144630D02*
X36828D01*
X39198Y147000D02*
X39500D01*
X29565Y214630D02*
X40130D01*
X19000D02*
X29565D01*
X36000Y270000D02*
Y287000D01*
X57000Y308000D01*
X11000Y212630D02*
X19000Y204630D01*
X81111Y309701D02*
Y309889D01*
X82500Y307500D02*
Y308312D01*
X81111Y309701D02*
X82500Y308312D01*
X75500Y315500D02*
X81111Y309889D01*
X57000Y308000D02*
X72000D01*
D48*
X146161Y77205D02*
D03*
Y87205D02*
D03*
X146063Y50236D02*
D03*
Y60236D02*
D03*
X148000Y302630D02*
D03*
Y312630D02*
D03*
Y275500D02*
D03*
Y285500D02*
D03*
X52000Y290000D02*
D03*
Y280000D02*
D03*
X148031Y247284D02*
D03*
Y257283D02*
D03*
X144000Y186630D02*
D03*
Y196630D02*
D03*
Y160630D02*
D03*
Y170630D02*
D03*
X53740Y173917D02*
D03*
Y163917D02*
D03*
X144000Y134630D02*
D03*
Y144630D02*
D03*
X53771Y68500D02*
D03*
Y58500D02*
D03*
X146000Y24630D02*
D03*
Y34630D02*
D03*
D49*
X205807Y328543D02*
D03*
X225492D02*
D03*
D50*
X51575Y254429D02*
D03*
X53937Y138504D02*
D03*
X54000Y31130D02*
D03*
D51*
X51575Y244429D02*
D03*
X53937Y128504D02*
D03*
X54000Y21130D02*
D03*
D52*
X19000Y134630D02*
D03*
D53*
Y144630D02*
D03*
Y154630D02*
D03*
Y164630D02*
D03*
Y174630D02*
D03*
Y184630D02*
D03*
Y194630D02*
D03*
Y204630D02*
D03*
Y214630D02*
D03*
Y224630D02*
D03*
Y234630D02*
D03*
Y244630D02*
D03*
Y254630D02*
D03*
Y264630D02*
D03*
Y274630D02*
D03*
D54*
X402500Y70000D02*
D03*
X405500Y179000D02*
D03*
X405512Y300197D02*
D03*
D55*
X163976Y269264D02*
D03*
X158760Y141732D02*
D03*
X223425Y168701D02*
D03*
X211811Y168405D02*
D03*
X213189Y208760D02*
D03*
X199016Y278543D02*
D03*
X197047Y265551D02*
D03*
X212894D02*
D03*
X71260Y269193D02*
D03*
X63681Y263386D02*
D03*
X250492Y228051D02*
D03*
X263287Y201673D02*
D03*
X276870D02*
D03*
X161319Y159646D02*
D03*
X83169Y240059D02*
D03*
X283169Y61319D02*
D03*
X179134Y126673D02*
D03*
X258000Y138000D02*
D03*
X202618Y145787D02*
D03*
X183000Y145000D02*
D03*
X258000Y148000D02*
D03*
X310000Y154000D02*
D03*
X199114Y162598D02*
D03*
X258000Y158500D02*
D03*
X183500Y40500D02*
D03*
X306000Y40000D02*
D03*
Y55000D02*
D03*
X255200Y258000D02*
D03*
X311000Y255000D02*
D03*
Y266000D02*
D03*
X309000Y172000D02*
D03*
X310000Y143000D02*
D03*
X306000Y29000D02*
D03*
X372000Y72000D02*
D03*
X37106Y252953D02*
D03*
X92618Y215256D02*
D03*
X161319Y186811D02*
D03*
X42126Y95472D02*
D03*
X165354Y77953D02*
D03*
X163779Y292520D02*
D03*
X39764Y170374D02*
D03*
X39469Y138287D02*
D03*
X31201Y170079D02*
D03*
X68405Y146752D02*
D03*
X165256Y47047D02*
D03*
X283465Y85925D02*
D03*
X200500Y70000D02*
D03*
X167520Y226969D02*
D03*
X160630Y31299D02*
D03*
X180217Y22736D02*
D03*
X44094Y231201D02*
D03*
X110630Y230807D02*
D03*
X178051Y237303D02*
D03*
X246949Y171063D02*
D03*
X287106Y313189D02*
D03*
X247146Y192717D02*
D03*
X196000Y172000D02*
D03*
X253303Y21339D02*
D03*
X253402Y31772D02*
D03*
X253500Y42500D02*
D03*
X307087Y85630D02*
D03*
Y96457D02*
D03*
Y107283D02*
D03*
X255300Y266800D02*
D03*
X307500Y204500D02*
D03*
Y215500D02*
D03*
Y227500D02*
D03*
X307000Y312500D02*
D03*
Y323500D02*
D03*
Y335000D02*
D03*
X183500Y193000D02*
D03*
X119500Y55000D02*
D03*
X373000Y187000D02*
D03*
X119500Y165000D02*
D03*
X375500Y298000D02*
D03*
X121000Y281000D02*
D03*
X118000Y330000D02*
D03*
X119500Y30000D02*
D03*
X66500Y39000D02*
D03*
X74000Y155000D02*
D03*
X308864Y282628D02*
D03*
X120500Y256000D02*
D03*
X255200Y249000D02*
D03*
X274500Y313000D02*
D03*
X39500Y147000D02*
D03*
X260500Y284000D02*
D03*
X119000Y140000D02*
D03*
X78500Y45000D02*
D03*
X84500Y15500D02*
D03*
X76500Y111500D02*
D03*
X36000Y270000D02*
D03*
X82500Y307500D02*
D03*
X72000Y308000D02*
D03*
X182000Y256500D02*
D03*
D56*
X363874Y152000D02*
D03*
X348126D02*
D03*
X363274Y44200D02*
D03*
X347526D02*
D03*
X364474Y97700D02*
D03*
X348726D02*
D03*
X364874Y267000D02*
D03*
X349126D02*
D03*
X365874Y214000D02*
D03*
X350126D02*
D03*
X366874Y327000D02*
D03*
X351126D02*
D03*
M02*
