M48
;Layer_Color=9474304
;FILE_FORMAT=2:4
INCH,TZ
;TYPE=PLATED
T01F00S00C0.0280
T02F00S00C0.0354
T03F00S00C0.0400
T04F00S00C0.1181
%
T01
X8450Y1550
X37200Y7200
X30709Y8563
Y9646
Y10728
X31000Y14300
Y15400
X30900Y17200
X24695Y17106
X25800Y15850
Y14800
Y13800
X22343Y16870
X28346Y8593
X28317Y6132
X30600Y5500
Y4000
Y2900
X25340Y3177
X25330Y2134
X25350Y4250
X18350Y4050
X18022Y2274
X16063Y3130
X14600Y3463
Y2463
X14606Y5024
Y6024
X14616Y7720
Y8720
X16535Y7795
X16526Y4705
X11950Y5500
Y3000
X7850Y4500
X6650Y3900
X7650Y11150
X6841Y14675
X7400Y15500
X11950Y16500
X11900Y14000
X14400Y14463
Y13463
X15876Y14173
X16132Y15965
X14400Y16063
Y17063
X19600Y17200
X19911Y16260
X21181Y16841
X20262Y14579
X18300Y14500
X17913Y12667
X20050Y7000
X5377Y6850
Y5850
X4213Y9547
X3947Y13829
X3950Y14700
X3976Y17037
X3120Y17008
X5374Y16392
Y17392
X4409Y23120
X3711Y25295
X3600Y27000
X5200Y28000
Y29000
X7200Y30800
X8250Y30750
X7126Y26919
X6368Y26339
X8317Y24006
X9262Y21526
X11063Y23081
X12050Y25600
X12100Y28100
X14800Y28550
Y27550
X14803Y25728
Y24728
X16398Y26926
X16378Y29252
X14800Y30263
Y31263
X19902Y27854
X19705Y26555
X18200Y25650
X17805Y23730
X16752Y22697
X16132Y18681
X14400Y18663
Y19663
X18350Y19300
X21319Y20876
X24715Y19272
X26329Y20167
X27687
X30750Y20450
Y21550
Y22750
X31100Y25500
Y26600
X30886Y28263
X30700Y31250
Y32350
X28711Y31319
X27450Y31300
X26050Y28400
X25530Y26680
X25520Y25800
Y24900
X25049Y22805
X21289Y26555
X37550Y29800
X37300Y18700
X30700Y33500
X11800Y33000
T02
X1900Y13463
Y14463
Y15463
Y16463
Y17463
Y18463
Y19463
Y20463
Y21463
Y22463
Y23463
Y24463
Y25463
Y26463
Y27463
T03
X5400Y2113
Y3113
X5394Y12850
Y13850
X5157Y24443
Y25443
X20581Y32854
X22549
T04
X40250Y7000
X40550Y17900
X40551Y30020
M30
