G04*
G04 #@! TF.GenerationSoftware,Altium Limited,Altium Designer,23.10.1 (27)*
G04*
G04 Layer_Color=16711935*
%FSLAX25Y25*%
%MOIN*%
G70*
G04*
G04 #@! TF.SameCoordinates,D58E8A5F-C196-4DC0-9E6E-83BCDBF650AB*
G04*
G04*
G04 #@! TF.FilePolarity,Positive*
G04*
G01*
G75*
%ADD58C,0.00500*%
%ADD59C,0.00000*%
%ADD60C,0.00100*%
%ADD61C,0.00394*%
%ADD62R,0.02436X0.11496*%
D58*
X285721Y286561D02*
X285425Y286263D01*
Y280559D02*
X285721Y280261D01*
X296925Y286263D02*
X296629Y286561D01*
Y280261D02*
X296925Y280559D01*
X299747Y172288D02*
X300043Y172587D01*
Y178290D02*
X299747Y178588D01*
X288543Y172587D02*
X288839Y172288D01*
Y178588D02*
X288543Y178290D01*
X286638Y288129D02*
Y289011D01*
X288213D01*
X286638Y286561D02*
X288213D01*
X286638D02*
Y286695D01*
X288213Y286561D02*
Y286695D01*
Y287694D01*
X286638Y287757D02*
Y288129D01*
Y287694D02*
Y287757D01*
X288213D02*
Y288129D01*
Y287694D02*
Y287757D01*
Y288129D02*
Y289011D01*
X286638Y286695D02*
Y287694D01*
X294138Y288129D02*
Y289011D01*
X295713D01*
X294138Y286561D02*
X295713D01*
X294138D02*
Y286695D01*
X295713Y286561D02*
Y286695D01*
Y287694D01*
X294138Y287757D02*
Y288129D01*
Y287694D02*
Y287757D01*
X295713D02*
Y288129D01*
Y287694D02*
Y287757D01*
Y288129D02*
Y289011D01*
X294138Y286695D02*
Y287694D01*
X288213Y277811D02*
Y278693D01*
X286638Y277811D02*
X288213D01*
X286638Y280261D02*
X288213D01*
Y280127D02*
Y280261D01*
X286638Y280127D02*
Y280261D01*
Y279128D02*
Y280127D01*
X288213Y278693D02*
Y279064D01*
Y279128D01*
X286638Y278693D02*
Y279064D01*
Y279128D01*
Y277811D02*
Y278693D01*
X288213Y279128D02*
Y280127D01*
X291963Y277811D02*
Y278693D01*
X290388Y277811D02*
X291963D01*
X290388Y280261D02*
X291963D01*
Y280127D02*
Y280261D01*
X290388Y280127D02*
Y280261D01*
Y279128D02*
Y280127D01*
X291963Y278693D02*
Y279064D01*
Y279128D01*
X290388Y278693D02*
Y279064D01*
Y279128D01*
Y277811D02*
Y278693D01*
X291963Y279128D02*
Y280127D01*
X295713Y277811D02*
Y278693D01*
X294138Y277811D02*
X295713D01*
X294138Y280261D02*
X295713D01*
Y280127D02*
Y280261D01*
X294138Y280127D02*
Y280261D01*
Y279128D02*
Y280127D01*
X295713Y278693D02*
Y279064D01*
Y279128D01*
X294138Y278693D02*
Y279064D01*
Y279128D01*
Y277811D02*
Y278693D01*
X295713Y279128D02*
Y280127D01*
X285725Y286561D02*
X296625D01*
X285425Y280561D02*
Y286261D01*
X285725Y280261D02*
X296625D01*
X296925Y280559D02*
Y280561D01*
X285425Y286261D02*
Y286263D01*
X296925Y280561D02*
Y286261D01*
Y286263D01*
X285425Y280559D02*
Y280561D01*
X296625Y286561D02*
X296629D01*
X285721Y280261D02*
X285725D01*
X296625D02*
X296629D01*
X285721Y286561D02*
X285725D01*
X288839Y178588D02*
X288843D01*
X299743Y172288D02*
X299747D01*
X288839D02*
X288843D01*
X299743Y178588D02*
X299747D01*
X288543Y172587D02*
Y172588D01*
X300043Y178288D02*
Y178290D01*
Y172588D02*
Y178288D01*
X288543D02*
Y178290D01*
X300043Y172587D02*
Y172588D01*
X288843Y172288D02*
X299743D01*
X288543Y172588D02*
Y178288D01*
X288843Y178588D02*
X299743D01*
X298831Y171156D02*
Y172154D01*
X297256Y169838D02*
Y170720D01*
Y171092D02*
Y171156D01*
Y170720D02*
Y171092D01*
X298831D02*
Y171156D01*
Y170720D02*
Y171092D01*
X297256Y171156D02*
Y172154D01*
Y172288D01*
X298831Y172154D02*
Y172288D01*
X297256D02*
X298831D01*
X297256Y169838D02*
X298831D01*
Y170720D01*
X295081Y171156D02*
Y172154D01*
X293506Y169838D02*
Y170720D01*
Y171092D02*
Y171156D01*
Y170720D02*
Y171092D01*
X295081D02*
Y171156D01*
Y170720D02*
Y171092D01*
X293506Y171156D02*
Y172154D01*
Y172288D01*
X295081Y172154D02*
Y172288D01*
X293506D02*
X295081D01*
X293506Y169838D02*
X295081D01*
Y170720D01*
X291331Y171156D02*
Y172154D01*
X289756Y169838D02*
Y170720D01*
Y171092D02*
Y171156D01*
Y170720D02*
Y171092D01*
X291331D02*
Y171156D01*
Y170720D02*
Y171092D01*
X289756Y171156D02*
Y172154D01*
Y172288D01*
X291331Y172154D02*
Y172288D01*
X289756D02*
X291331D01*
X289756Y169838D02*
X291331D01*
Y170720D01*
X297256Y178723D02*
Y179721D01*
X298831Y180156D02*
Y181038D01*
Y179721D02*
Y179785D01*
Y180156D01*
X297256Y179721D02*
Y179785D01*
Y180156D01*
X298831Y178723D02*
Y179721D01*
Y178588D02*
Y178723D01*
X297256Y178588D02*
Y178723D01*
Y178588D02*
X298831D01*
X297256Y181038D02*
X298831D01*
X297256Y180156D02*
Y181038D01*
X289756Y178723D02*
Y179721D01*
X291331Y180156D02*
Y181038D01*
Y179721D02*
Y179785D01*
Y180156D01*
X289756Y179721D02*
Y179785D01*
Y180156D01*
X291331Y178723D02*
Y179721D01*
Y178588D02*
Y178723D01*
X289756Y178588D02*
Y178723D01*
Y178588D02*
X291331D01*
X289756Y181038D02*
X291331D01*
X289756Y180156D02*
Y181038D01*
D59*
X182948Y275496D02*
X182597Y276345D01*
X181748Y276696D01*
X180900Y276345D01*
X180548Y275496D01*
X184050Y165685D02*
X183699Y166534D01*
X182850Y166885D01*
X182002Y166534D01*
X181650Y165685D01*
X183933Y59559D02*
X183582Y60408D01*
X182733Y60759D01*
X181885Y60408D01*
X181533Y59559D01*
D60*
X178298Y287496D02*
X185198D01*
X178298Y275496D02*
Y287496D01*
Y275496D02*
X185198D01*
Y287496D01*
Y276756D02*
Y278756D01*
Y276756D02*
X187648D01*
Y278756D01*
X185198D02*
X187648D01*
X185198Y280496D02*
Y282496D01*
Y280496D02*
X187648D01*
Y282496D01*
X185198D02*
X187648D01*
X185198Y284236D02*
Y286236D01*
Y284236D02*
X187648D01*
Y286236D01*
X185198D02*
X187648D01*
X178298Y284236D02*
Y286236D01*
X175848D02*
X178298D01*
X175848Y284236D02*
Y286236D01*
Y284236D02*
X178298D01*
Y276756D02*
Y278756D01*
X175848D02*
X178298D01*
X175848Y276756D02*
Y278756D01*
Y276756D02*
X178298D01*
X176950Y166945D02*
X179400D01*
X176950D02*
Y168945D01*
X179400D01*
Y166945D02*
Y168945D01*
X176950Y174425D02*
X179400D01*
X176950D02*
Y176425D01*
X179400D01*
Y174425D02*
Y176425D01*
X186300D02*
X188750D01*
Y174425D02*
Y176425D01*
X186300Y174425D02*
X188750D01*
X186300D02*
Y176425D01*
Y172685D02*
X188750D01*
Y170685D02*
Y172685D01*
X186300Y170685D02*
X188750D01*
X186300D02*
Y172685D01*
Y168945D02*
X188750D01*
Y166945D02*
Y168945D01*
X186300Y166945D02*
X188750D01*
X186300D02*
Y168945D01*
Y165685D02*
Y177685D01*
X179400Y165685D02*
X186300D01*
X179400D02*
Y177685D01*
X186300D01*
X179283Y71559D02*
X186183D01*
X179283Y59559D02*
Y71559D01*
Y59559D02*
X186183D01*
Y71559D01*
Y60819D02*
Y62819D01*
Y60819D02*
X188633D01*
Y62819D01*
X186183D02*
X188633D01*
X186183Y64559D02*
Y66559D01*
Y64559D02*
X188633D01*
Y66559D01*
X186183D02*
X188633D01*
X186183Y68299D02*
Y70299D01*
Y68299D02*
X188633D01*
Y70299D01*
X186183D02*
X188633D01*
X179283Y68299D02*
Y70299D01*
X176833D02*
X179283D01*
X176833Y68299D02*
Y70299D01*
Y68299D02*
X179283D01*
Y60819D02*
Y62819D01*
X176833D02*
X179283D01*
X176833Y60819D02*
Y62819D01*
Y60819D02*
X179283D01*
D61*
X69244Y287331D02*
X74756D01*
X69244Y278669D02*
X74756D01*
Y287331D01*
X69244Y278669D02*
Y287331D01*
X135256Y249020D02*
Y257681D01*
X129744Y249020D02*
Y257681D01*
X135256D01*
X129744Y249020D02*
X135256D01*
X285937Y299244D02*
Y304756D01*
X294598Y299244D02*
Y304756D01*
X285937D02*
X294598D01*
X285937Y299244D02*
X294598D01*
X266787D02*
X275449D01*
X266787Y304756D02*
X275449D01*
Y299244D02*
Y304756D01*
X266787Y299244D02*
Y304756D01*
X70744Y171681D02*
X76256D01*
X70744Y163020D02*
X76256D01*
Y171681D01*
X70744Y163020D02*
Y171681D01*
X130756Y134669D02*
Y143331D01*
X125244Y134669D02*
Y143331D01*
X130756D01*
X125244Y134669D02*
X130756D01*
X289016Y189272D02*
Y194783D01*
X297677Y189272D02*
Y194783D01*
X289016D02*
X297677D01*
X289016Y189272D02*
X297677D01*
X269110Y189146D02*
X277772D01*
X269110Y194658D02*
X277772D01*
Y189146D02*
Y194658D01*
X269110Y189146D02*
Y194658D01*
X69244Y65331D02*
X74756D01*
X69244Y56669D02*
X74756D01*
Y65331D01*
X69244Y56669D02*
Y65331D01*
X132256Y25669D02*
Y34331D01*
X126744Y25669D02*
Y34331D01*
X132256D01*
X126744Y25669D02*
X132256D01*
X177169Y244244D02*
Y249756D01*
X185831Y244244D02*
Y249756D01*
X177169D02*
X185831D01*
X177169Y244244D02*
X185831D01*
X191669Y190244D02*
X200331D01*
X191669Y195756D02*
X200331D01*
Y190244D02*
Y195756D01*
X191669Y190244D02*
Y195756D01*
X178169Y133244D02*
Y138756D01*
X186831Y133244D02*
Y138756D01*
X178169D02*
X186831D01*
X178169Y133244D02*
X186831D01*
X179169Y29244D02*
X187831D01*
X179169Y34756D02*
X187831D01*
Y29244D02*
Y34756D01*
X179169Y29244D02*
Y34756D01*
X177417Y262740D02*
Y268252D01*
X186079Y262740D02*
Y268252D01*
X177417D02*
X186079D01*
X177417Y262740D02*
X186079D01*
X178520Y151429D02*
X187181D01*
X178520Y156941D02*
X187181D01*
Y151429D02*
Y156941D01*
X178520Y151429D02*
Y156941D01*
X179169Y45744D02*
Y51256D01*
X187831Y45744D02*
Y51256D01*
X179169D02*
X187831D01*
X179169Y45744D02*
X187831D01*
X66831Y245965D02*
X72146D01*
X66831Y254626D02*
X72146D01*
X66831Y245965D02*
Y254626D01*
X72146Y245965D02*
Y254626D01*
X271708Y254807D02*
X297692D01*
X271708D02*
Y268193D01*
X297692Y254807D02*
Y268193D01*
X271708D02*
X297692D01*
X269063Y154819D02*
X295047D01*
Y141433D02*
Y154819D01*
X269063Y141433D02*
Y154819D01*
Y141433D02*
X295047D01*
X266008Y28307D02*
X291992D01*
X266008D02*
Y41693D01*
X291992Y28307D02*
Y41693D01*
X266008D02*
X291992D01*
X266787Y286658D02*
X275449D01*
X266787Y281343D02*
X275449D01*
X266787D02*
Y286658D01*
X275449Y281343D02*
Y286658D01*
X71342Y130799D02*
X76657D01*
X71342Y139461D02*
X76657D01*
X71342Y130799D02*
Y139461D01*
X76657Y130799D02*
Y139461D01*
X270165Y169370D02*
X278827D01*
X270165Y174685D02*
X278827D01*
Y169370D02*
Y174685D01*
X270165Y169370D02*
Y174685D01*
X69342Y23724D02*
X74657D01*
X69342Y32386D02*
X74657D01*
X69342Y23724D02*
Y32386D01*
X74657Y23724D02*
Y32386D01*
X161319Y277461D02*
Y286122D01*
X166634Y277461D02*
Y286122D01*
X161319Y277461D02*
X166634D01*
X161319Y286122D02*
X166634D01*
X220949Y225130D02*
Y230445D01*
X212287Y225130D02*
Y230445D01*
Y225130D02*
X220949D01*
X212287Y230445D02*
X220949D01*
X232287D02*
X240949D01*
X232287Y225130D02*
X240949D01*
X232287D02*
Y230445D01*
X240949Y225130D02*
Y230445D01*
X219949Y190130D02*
Y195445D01*
X211287Y190130D02*
Y195445D01*
Y190130D02*
X219949D01*
X211287Y195445D02*
X219949D01*
X232287D02*
X240949D01*
X232287Y190130D02*
X240949D01*
X232287D02*
Y195445D01*
X240949Y190130D02*
Y195445D01*
X219949Y153437D02*
Y158752D01*
X211287Y153437D02*
Y158752D01*
Y153437D02*
X219949D01*
X211287Y158752D02*
X219949D01*
X230232Y158945D02*
X238894D01*
X230232Y153630D02*
X238894D01*
X230232D02*
Y158945D01*
X238894Y153630D02*
Y158945D01*
X220949Y215130D02*
Y220445D01*
X212287Y215130D02*
Y220445D01*
Y215130D02*
X220949D01*
X212287Y220445D02*
X220949D01*
X211221Y182677D02*
X219882D01*
X211221Y177362D02*
X219882D01*
X211221D02*
Y182677D01*
X219882Y177362D02*
Y182677D01*
X219949Y143130D02*
Y148445D01*
X211287Y143130D02*
Y148445D01*
Y143130D02*
X219949D01*
X211287Y148445D02*
X219949D01*
X158858Y167717D02*
Y176378D01*
X164173Y167717D02*
Y176378D01*
X158858Y167717D02*
X164173D01*
X158858Y176378D02*
X164173D01*
X162843Y70386D02*
X168157D01*
X162843Y61724D02*
X168157D01*
Y70386D01*
X162843Y61724D02*
Y70386D01*
X346945Y157748D02*
X365055D01*
X346945Y146252D02*
X365055D01*
Y157748D01*
X346945Y146252D02*
Y157748D01*
X346345Y49948D02*
X364455D01*
X346345Y38452D02*
X364455D01*
Y49948D01*
X346345Y38452D02*
Y49948D01*
X365655Y91952D02*
Y103448D01*
X347545Y91952D02*
Y103448D01*
X365655D01*
X347545Y91952D02*
X365655D01*
X324358Y342528D02*
X361563D01*
X324358Y301976D02*
X361563D01*
X324358D02*
Y342528D01*
X361563Y301976D02*
Y342528D01*
X339547Y246976D02*
Y287528D01*
X376752Y246976D02*
Y287528D01*
X339547D02*
X376752D01*
X339547Y246976D02*
X376752D01*
X324071Y230528D02*
X361276D01*
X324071Y189976D02*
X361276D01*
X324071D02*
Y230528D01*
X361276Y189976D02*
Y230528D01*
X338547Y133976D02*
Y174528D01*
X375752Y133976D02*
Y174528D01*
X338547D02*
X375752D01*
X338547Y133976D02*
X375752D01*
X323071Y115527D02*
X360276D01*
X323071Y74976D02*
X360276D01*
X323071D02*
Y115527D01*
X360276Y74976D02*
Y115527D01*
X335992Y19724D02*
Y60276D01*
X373197Y19724D02*
Y60276D01*
X335992D02*
X373197D01*
X335992Y19724D02*
X373197D01*
X347945Y272748D02*
X366055D01*
X347945Y261252D02*
X366055D01*
Y272748D01*
X347945Y261252D02*
Y272748D01*
X367055Y208252D02*
Y219748D01*
X348945Y208252D02*
Y219748D01*
X367055D01*
X348945Y208252D02*
X367055D01*
X368055Y321252D02*
Y332748D01*
X349945Y321252D02*
Y332748D01*
X368055D01*
X349945Y321252D02*
X368055D01*
X114654Y312531D02*
X121346D01*
X114654Y301311D02*
X121346D01*
Y312531D01*
X114654Y301311D02*
Y312531D01*
X110653Y183020D02*
Y194240D01*
X117347Y183020D02*
Y194240D01*
X110653Y183020D02*
X117347D01*
X110653Y194240D02*
X117347D01*
X112654Y84240D02*
X119346D01*
X112654Y73020D02*
X119346D01*
Y84240D01*
X112654Y73020D02*
Y84240D01*
X255346Y289591D02*
Y300811D01*
X248654Y289591D02*
Y300811D01*
X255346D01*
X248654Y289591D02*
X255346D01*
X254921Y179626D02*
X261614D01*
X254921Y190847D02*
X261614D01*
X254921Y179626D02*
Y190847D01*
X261614Y179626D02*
Y190847D01*
D62*
X363837Y152000D02*
D03*
X363237Y44200D02*
D03*
X348763Y97700D02*
D03*
X364837Y267000D02*
D03*
X350163Y214000D02*
D03*
X351163Y327000D02*
D03*
M02*
