G04*
G04 #@! TF.GenerationSoftware,Altium Limited,Altium Designer,23.10.1 (27)*
G04*
G04 Layer_Color=255*
%FSLAX25Y25*%
%MOIN*%
G70*
G04*
G04 #@! TF.SameCoordinates,92CF8CD3-C0A9-45A0-95EF-EEFF48AC6B84*
G04*
G04*
G04 #@! TF.FilePolarity,Positive*
G04*
G01*
G75*
%ADD48C,0.20000*%
%ADD49C,0.04000*%
%ADD50C,0.06500*%
%ADD51C,0.06000*%
%ADD52C,0.07000*%
%ADD53R,0.05906X0.05906*%
%ADD54C,0.05906*%
%ADD56R,0.09843X0.06693*%
D48*
X373441Y92307D02*
D03*
X375197Y317717D02*
D03*
X374410Y203937D02*
D03*
D49*
X122835Y42362D02*
D03*
Y52362D02*
D03*
Y67323D02*
D03*
Y77323D02*
D03*
X43307Y59842D02*
D03*
Y49843D02*
D03*
X122441Y15197D02*
D03*
Y25197D02*
D03*
X120866Y294331D02*
D03*
Y304331D02*
D03*
X121260Y267165D02*
D03*
Y277165D02*
D03*
X40551Y281102D02*
D03*
Y271102D02*
D03*
X121653Y239606D02*
D03*
Y249606D02*
D03*
X120866Y177795D02*
D03*
Y187795D02*
D03*
Y152598D02*
D03*
Y162598D02*
D03*
X44685Y165256D02*
D03*
Y155256D02*
D03*
X121260Y125827D02*
D03*
Y135827D02*
D03*
D50*
X43307Y20748D02*
D03*
X42520Y245768D02*
D03*
X43307Y130197D02*
D03*
D51*
Y10748D02*
D03*
X42520Y235768D02*
D03*
X43307Y120197D02*
D03*
D52*
X156299Y320472D02*
D03*
X175984D02*
D03*
D53*
X9945Y125969D02*
D03*
D54*
Y135968D02*
D03*
Y145968D02*
D03*
Y155968D02*
D03*
Y165969D02*
D03*
Y175969D02*
D03*
Y185968D02*
D03*
Y195968D02*
D03*
Y205968D02*
D03*
Y215968D02*
D03*
Y225969D02*
D03*
Y235968D02*
D03*
Y245969D02*
D03*
Y255968D02*
D03*
Y265968D02*
D03*
D56*
X330016Y142945D02*
D03*
X314268D02*
D03*
X330203Y37113D02*
D03*
X314455D02*
D03*
X331403Y90613D02*
D03*
X315655D02*
D03*
X333378Y257945D02*
D03*
X317630D02*
D03*
X332016Y204945D02*
D03*
X316268D02*
D03*
X335378Y317945D02*
D03*
X319630D02*
D03*
M02*
