M48
;Layer_Color=9474304
;FILE_FORMAT=4:4
METRIC,LZ
;TYPE=PLATED
T01F00S00C0.7112
T02F00S00C0.9000
T03F00S00C1.1430
T04F00S00C3.0480
%
T01
X0021463Y0003937
X0094488Y0018288
X0104Y00281
X0078Y002725
Y00245
Y002175
X0072Y0021825
X0071925Y0015575
X0077724Y001397
X0066875Y001085
X006685Y0008125
X0066825Y0005475
X0066802Y0035052
Y0037592
Y0040259
X0062725Y004345
X0078486Y0043053
X0053878Y0043888
X0049784Y0043688
X0051465Y003703
X0046482Y003683
X00455Y0032175
X00394Y003595
X0036576Y0036736
Y0034196
Y00408
Y004334
X0030353Y004191
X0030226Y003556
X0041025Y0038825
X0037075Y00214
Y001886
X00371Y00153
Y001276
X0037084Y0008796
Y0006256
X00408Y000795
X0041975Y001195
X0046609Y0010287
X0045775Y0005775
X0050927Y001778
X0030353Y001397
Y000762
X0019939Y001143
X0016891Y0009906
X0019431Y0028321
X0018796Y003937
X001651Y0037338
X0010033
X0010287Y0035179
X0011176Y0042926
X0009144
X0014224Y0041656
X00136577Y0017399
Y0014859
X0014224Y0044196
X00112Y0058725
X0009144Y006858
X0013208Y007112
Y007366
X0016256Y0067183
X0018542Y0068961
X0018288Y0078232
X0020955Y0078105
X0030734Y0071374
X0030607Y0065024
X0037592Y0065659
Y0063119
Y0069977
Y0072517
Y0076868
Y0079408
X004165Y0068393
X0046228Y0065151
X0049403Y0067437
X0049441Y0070485
X0052832Y0067564
X0045225Y0060275
X004255Y005765
X0046609Y0049022
X0036576Y0049944
Y0047404
X00281Y0058625
X0054132Y0053413
X006275Y005785
X0065024Y0063373
Y0065659
Y0068199
X0066167Y0072136
X0069723Y0079502
X0072925Y007955
X0077978Y0079375
Y0082169
X00784513Y00717874
X0078105Y0057785
Y0054737
Y0051943
X0070216Y0050902
X0066914
X0062775Y004895
X0094742Y0047498
X01059Y00584
X0095377Y0075692
X009725Y008875
X0077978Y008509
X0029972Y008382
T02
X0004826Y0034196
Y0036736
Y0039276
Y0041816
Y0044356
Y0046896
Y0049436
Y0051976
Y0054516
Y0057056
Y0059596
Y0062136
T03
X0013716Y0005367
Y0007907
X0014224Y0032385
Y0034925
X0013208Y0062898
Y0065438
T04
X0102235Y001778
X0102997Y0045466
X0103Y007625
X0061Y0084
X0052
M30
