G04*
G04 #@! TF.GenerationSoftware,Altium Limited,Altium Designer,23.10.1 (27)*
G04*
G04 Layer_Color=16711935*
%FSLAX25Y25*%
%MOIN*%
G70*
G04*
G04 #@! TF.SameCoordinates,92CF8CD3-C0A9-45A0-95EF-EEFF48AC6B84*
G04*
G04*
G04 #@! TF.FilePolarity,Positive*
G04*
G01*
G75*
%ADD58C,0.00000*%
%ADD59C,0.00500*%
%ADD60C,0.00394*%
%ADD61C,0.00100*%
%ADD62R,0.02436X0.11496*%
D58*
X160624Y51284D02*
X160273Y52132D01*
X159424Y52483D01*
X158576Y52132D01*
X158224Y51284D01*
X158539Y264866D02*
X158187Y265715D01*
X157339Y266066D01*
X156490Y265715D01*
X156139Y264866D01*
X159074Y156992D02*
X158723Y157841D01*
X157874Y158192D01*
X157026Y157841D01*
X156674Y156992D01*
D59*
X232178Y286167D02*
X231882Y285869D01*
Y280165D02*
X232178Y279867D01*
X243382Y285869D02*
X243086Y286167D01*
Y279867D02*
X243382Y280165D01*
X242661Y168745D02*
X242957Y169043D01*
Y174747D02*
X242661Y175045D01*
X231457Y169043D02*
X231753Y168745D01*
Y175045D02*
X231457Y174747D01*
X233094Y287735D02*
Y288617D01*
X234669D01*
X233094Y286167D02*
X234669D01*
X233094D02*
Y286301D01*
X234669Y286167D02*
Y286301D01*
Y287300D01*
X233094Y287364D02*
Y287735D01*
Y287300D02*
Y287364D01*
X234669D02*
Y287735D01*
Y287300D02*
Y287364D01*
Y287735D02*
Y288617D01*
X233094Y286301D02*
Y287300D01*
X240594Y287735D02*
Y288617D01*
X242169D01*
X240594Y286167D02*
X242169D01*
X240594D02*
Y286301D01*
X242169Y286167D02*
Y286301D01*
Y287300D01*
X240594Y287364D02*
Y287735D01*
Y287300D02*
Y287364D01*
X242169D02*
Y287735D01*
Y287300D02*
Y287364D01*
Y287735D02*
Y288617D01*
X240594Y286301D02*
Y287300D01*
X234669Y277417D02*
Y278299D01*
X233094Y277417D02*
X234669D01*
X233094Y279867D02*
X234669D01*
Y279733D02*
Y279867D01*
X233094Y279733D02*
Y279867D01*
Y278734D02*
Y279733D01*
X234669Y278299D02*
Y278671D01*
Y278734D01*
X233094Y278299D02*
Y278671D01*
Y278734D01*
Y277417D02*
Y278299D01*
X234669Y278734D02*
Y279733D01*
X238419Y277417D02*
Y278299D01*
X236844Y277417D02*
X238419D01*
X236844Y279867D02*
X238419D01*
Y279733D02*
Y279867D01*
X236844Y279733D02*
Y279867D01*
Y278734D02*
Y279733D01*
X238419Y278299D02*
Y278671D01*
Y278734D01*
X236844Y278299D02*
Y278671D01*
Y278734D01*
Y277417D02*
Y278299D01*
X238419Y278734D02*
Y279733D01*
X242169Y277417D02*
Y278299D01*
X240594Y277417D02*
X242169D01*
X240594Y279867D02*
X242169D01*
Y279733D02*
Y279867D01*
X240594Y279733D02*
Y279867D01*
Y278734D02*
Y279733D01*
X242169Y278299D02*
Y278671D01*
Y278734D01*
X240594Y278299D02*
Y278671D01*
Y278734D01*
Y277417D02*
Y278299D01*
X242169Y278734D02*
Y279733D01*
X232182Y286167D02*
X243082D01*
X231882Y280167D02*
Y285867D01*
X232182Y279867D02*
X243082D01*
X243382Y280165D02*
Y280167D01*
X231882Y285867D02*
Y285869D01*
X243382Y280167D02*
Y285867D01*
Y285869D01*
X231882Y280165D02*
Y280167D01*
X243082Y286167D02*
X243086D01*
X232178Y279867D02*
X232182D01*
X243082D02*
X243086D01*
X232178Y286167D02*
X232182D01*
X231753Y175045D02*
X231757D01*
X242657Y168745D02*
X242661D01*
X231753D02*
X231757D01*
X242657Y175045D02*
X242661D01*
X231457Y169043D02*
Y169045D01*
X242957Y174745D02*
Y174747D01*
Y169045D02*
Y174745D01*
X231457D02*
Y174747D01*
X242957Y169043D02*
Y169045D01*
X231757Y168745D02*
X242657D01*
X231457Y169045D02*
Y174745D01*
X231757Y175045D02*
X242657D01*
X241744Y167612D02*
Y168611D01*
X240169Y166295D02*
Y167177D01*
Y167549D02*
Y167612D01*
Y167177D02*
Y167549D01*
X241744D02*
Y167612D01*
Y167177D02*
Y167549D01*
X240169Y167612D02*
Y168611D01*
Y168745D01*
X241744Y168611D02*
Y168745D01*
X240169D02*
X241744D01*
X240169Y166295D02*
X241744D01*
Y167177D01*
X237994Y167612D02*
Y168611D01*
X236419Y166295D02*
Y167177D01*
Y167549D02*
Y167612D01*
Y167177D02*
Y167549D01*
X237994D02*
Y167612D01*
Y167177D02*
Y167549D01*
X236419Y167612D02*
Y168611D01*
Y168745D01*
X237994Y168611D02*
Y168745D01*
X236419D02*
X237994D01*
X236419Y166295D02*
X237994D01*
Y167177D01*
X234244Y167612D02*
Y168611D01*
X232669Y166295D02*
Y167177D01*
Y167549D02*
Y167612D01*
Y167177D02*
Y167549D01*
X234244D02*
Y167612D01*
Y167177D02*
Y167549D01*
X232669Y167612D02*
Y168611D01*
Y168745D01*
X234244Y168611D02*
Y168745D01*
X232669D02*
X234244D01*
X232669Y166295D02*
X234244D01*
Y167177D01*
X240169Y175179D02*
Y176178D01*
X241744Y176613D02*
Y177495D01*
Y176178D02*
Y176242D01*
Y176613D01*
X240169Y176178D02*
Y176242D01*
Y176613D01*
X241744Y175179D02*
Y176178D01*
Y175045D02*
Y175179D01*
X240169Y175045D02*
Y175179D01*
Y175045D02*
X241744D01*
X240169Y177495D02*
X241744D01*
X240169Y176613D02*
Y177495D01*
X232669Y175179D02*
Y176178D01*
X234244Y176613D02*
Y177495D01*
Y176178D02*
Y176242D01*
Y176613D01*
X232669Y176178D02*
Y176242D01*
Y176613D01*
X234244Y175179D02*
Y176178D01*
Y175045D02*
Y175179D01*
X232669Y175045D02*
Y175179D01*
Y175045D02*
X234244D01*
X232669Y177495D02*
X234244D01*
X232669Y176613D02*
Y177495D01*
D60*
X292862Y333472D02*
X330067D01*
X292862Y292921D02*
X330067D01*
X292862D02*
Y333472D01*
X330067Y292921D02*
Y333472D01*
X308051Y237921D02*
Y278472D01*
X345256Y237921D02*
Y278472D01*
X308051D02*
X345256D01*
X308051Y237921D02*
X345256D01*
X290213Y221472D02*
X327417D01*
X290213Y180921D02*
X327417D01*
X290213D02*
Y221472D01*
X327417Y180921D02*
Y221472D01*
X304689Y124921D02*
Y165472D01*
X341894Y124921D02*
Y165472D01*
X304689D02*
X341894D01*
X304689Y124921D02*
X341894D01*
X290000Y108441D02*
X327205D01*
X290000Y67890D02*
X327205D01*
X290000D02*
Y108441D01*
X327205Y67890D02*
Y108441D01*
X302921Y12638D02*
Y53189D01*
X340126Y12638D02*
Y53189D01*
X302921D02*
X340126D01*
X302921Y12638D02*
X340126D01*
X155315Y190945D02*
X163976D01*
X155315Y185630D02*
X163976D01*
X155315D02*
Y190945D01*
X163976Y185630D02*
Y190945D01*
X184646Y197736D02*
Y203051D01*
X175984Y197736D02*
Y203051D01*
Y197736D02*
X184646D01*
X175984Y203051D02*
X184646D01*
X155449Y197724D02*
X164110D01*
X155449Y203236D02*
X164110D01*
Y197724D02*
Y203236D01*
X155449Y197724D02*
Y203236D01*
X175984Y190847D02*
X184646D01*
X175984Y185531D02*
X184646D01*
X175984D02*
Y190847D01*
X184646Y185531D02*
Y190847D01*
X137106Y158661D02*
Y167323D01*
X142421Y158661D02*
Y167323D01*
X137106Y158661D02*
X142421D01*
X137106Y167323D02*
X142421D01*
X56693Y279921D02*
X62205D01*
X56693Y271260D02*
X62205D01*
Y279921D01*
X56693Y271260D02*
Y279921D01*
X155118Y16535D02*
X163779D01*
X155118Y22047D02*
X163779D01*
Y16535D02*
Y22047D01*
X155118Y16535D02*
Y22047D01*
X137500Y61811D02*
X142815D01*
X137500Y53150D02*
X142815D01*
Y61811D01*
X137500Y53150D02*
Y61811D01*
X155118Y36220D02*
Y41732D01*
X163779Y36220D02*
Y41732D01*
X155118D02*
X163779D01*
X155118Y36220D02*
X163779D01*
X56693Y58661D02*
X62205D01*
X56693Y50000D02*
X62205D01*
Y58661D01*
X56693Y50000D02*
Y58661D01*
X93898Y76870D02*
X100591D01*
X93898Y65650D02*
X100591D01*
Y76870D01*
X93898Y65650D02*
Y76870D01*
X56398Y12992D02*
X61713D01*
X56398Y21654D02*
X61713D01*
X56398Y12992D02*
Y21654D01*
X61713Y12992D02*
Y21654D01*
X109843Y17717D02*
Y26378D01*
X104331Y17717D02*
Y26378D01*
X109843D01*
X104331Y17717D02*
X109843D01*
X107433Y241779D02*
Y250441D01*
X101921Y241779D02*
Y250441D01*
X107433D01*
X101921Y241779D02*
X107433D01*
X232394Y298850D02*
Y304362D01*
X241055Y298850D02*
Y304362D01*
X232394D02*
X241055D01*
X232394Y298850D02*
X241055D01*
X213244D02*
X221905D01*
X213244Y304362D02*
X221905D01*
Y298850D02*
Y304362D01*
X213244Y298850D02*
Y304362D01*
X58268Y164173D02*
X63779D01*
X58268Y155512D02*
X63779D01*
Y164173D01*
X58268Y155512D02*
Y164173D01*
X108661Y127165D02*
Y135827D01*
X103150Y127165D02*
Y135827D01*
X108661D01*
X103150Y127165D02*
X108661D01*
X232677Y185827D02*
Y191339D01*
X241339Y185827D02*
Y191339D01*
X232677D02*
X241339D01*
X232677Y185827D02*
X241339D01*
X212024Y185602D02*
X220685D01*
X212024Y191114D02*
X220685D01*
Y185602D02*
Y191114D01*
X212024Y185602D02*
Y191114D01*
X152760Y233614D02*
Y239126D01*
X161421Y233614D02*
Y239126D01*
X152760D02*
X161421D01*
X152760Y233614D02*
X161421D01*
X153937Y125591D02*
Y131102D01*
X162598Y125591D02*
Y131102D01*
X153937D02*
X162598D01*
X153937Y125591D02*
X162598D01*
X153008Y252110D02*
Y257622D01*
X161669Y252110D02*
Y257622D01*
X153008D02*
X161669D01*
X153008Y252110D02*
X161669D01*
X153717Y143949D02*
X162378D01*
X153717Y149461D02*
X162378D01*
Y143949D02*
Y149461D01*
X153717Y143949D02*
Y149461D01*
X57776Y237303D02*
X63090D01*
X57776Y245965D02*
X63090D01*
X57776Y237303D02*
Y245965D01*
X63090Y237303D02*
Y245965D01*
X240212Y245752D02*
X266196D01*
X240212D02*
Y259138D01*
X266196Y245752D02*
Y259138D01*
X240212D02*
X266196D01*
X235205Y145764D02*
X261189D01*
Y132378D02*
Y145764D01*
X235205Y132378D02*
Y145764D01*
Y132378D02*
X261189D01*
X232937Y21220D02*
X258921D01*
X232937D02*
Y34606D01*
X258921Y21220D02*
Y34606D01*
X232937D02*
X258921D01*
X213244Y286264D02*
X221905D01*
X213244Y280949D02*
X221905D01*
X213244D02*
Y286264D01*
X221905Y280949D02*
Y286264D01*
X58760Y122441D02*
X64075D01*
X58760Y131102D02*
X64075D01*
X58760Y122441D02*
Y131102D01*
X64075Y122441D02*
Y131102D01*
X212205Y166634D02*
X220866D01*
X212205Y171949D02*
X220866D01*
Y166634D02*
Y171949D01*
X212205Y166634D02*
Y171949D01*
X136909Y266831D02*
Y275492D01*
X142224Y266831D02*
Y275492D01*
X136909Y266831D02*
X142224D01*
X136909Y275492D02*
X142224D01*
X181972Y233004D02*
Y238319D01*
X173311Y233004D02*
Y238319D01*
Y233004D02*
X181972D01*
X173311Y238319D02*
X181972D01*
X193311D02*
X201972D01*
X193311Y233004D02*
X201972D01*
X193311D02*
Y238319D01*
X201972Y233004D02*
Y238319D01*
X158531Y99500D02*
Y104815D01*
X149870Y99500D02*
Y104815D01*
Y99500D02*
X158531D01*
X149870Y104815D02*
X158531D01*
X168815Y105008D02*
X177476D01*
X168815Y99693D02*
X177476D01*
X168815D02*
Y105008D01*
X177476Y99693D02*
Y105008D01*
X181972Y223004D02*
Y228319D01*
X173311Y223004D02*
Y228319D01*
Y223004D02*
X181972D01*
X173311Y228319D02*
X181972D01*
X158531Y86831D02*
Y92146D01*
X149870Y86831D02*
Y92146D01*
Y86831D02*
X158531D01*
X149870Y92146D02*
X158531D01*
X313087Y148693D02*
X331197D01*
X313087Y137197D02*
X331197D01*
Y148693D01*
X313087Y137197D02*
Y148693D01*
X313274Y42861D02*
X331384D01*
X313274Y31365D02*
X331384D01*
Y42861D01*
X313274Y31365D02*
Y42861D01*
X332584Y84865D02*
Y96361D01*
X314474Y84865D02*
Y96361D01*
X332584D01*
X314474Y84865D02*
X332584D01*
X316449Y263693D02*
X334559D01*
X316449Y252197D02*
X334559D01*
Y263693D01*
X316449Y252197D02*
Y263693D01*
X333197Y199197D02*
Y210693D01*
X315087Y199197D02*
Y210693D01*
X333197D01*
X315087Y199197D02*
X333197D01*
X336559Y312197D02*
Y323693D01*
X318449Y312197D02*
Y323693D01*
X336559D01*
X318449Y312197D02*
X336559D01*
X93504Y303642D02*
X100197D01*
X93504Y292421D02*
X100197D01*
Y303642D01*
X93504Y292421D02*
Y303642D01*
X94685Y174409D02*
Y185630D01*
X101378Y174409D02*
Y185630D01*
X94685Y174409D02*
X101378D01*
X94685Y185630D02*
X101378D01*
X198228Y289272D02*
Y300492D01*
X191535Y289272D02*
Y300492D01*
X198228D01*
X191535Y289272D02*
X198228D01*
X197835Y176083D02*
X204527D01*
X197835Y187303D02*
X204527D01*
X197835Y176083D02*
Y187303D01*
X204527Y176083D02*
Y187303D01*
D61*
X155974Y63283D02*
X162874D01*
X155974Y51284D02*
Y63283D01*
Y51284D02*
X162874D01*
Y63283D01*
Y52543D02*
Y54543D01*
Y52543D02*
X165324D01*
Y54543D01*
X162874D02*
X165324D01*
X162874Y56283D02*
Y58284D01*
Y56283D02*
X165324D01*
Y58284D01*
X162874D02*
X165324D01*
X162874Y60024D02*
Y62024D01*
Y60024D02*
X165324D01*
Y62024D01*
X162874D02*
X165324D01*
X155974Y60024D02*
Y62024D01*
X153524D02*
X155974D01*
X153524Y60024D02*
Y62024D01*
Y60024D02*
X155974D01*
Y52543D02*
Y54543D01*
X153524D02*
X155974D01*
X153524Y52543D02*
Y54543D01*
Y52543D02*
X155974D01*
X153889Y276866D02*
X160789D01*
X153889Y264866D02*
Y276866D01*
Y264866D02*
X160789D01*
Y276866D01*
Y266126D02*
Y268126D01*
Y266126D02*
X163239D01*
Y268126D01*
X160789D02*
X163239D01*
X160789Y269866D02*
Y271866D01*
Y269866D02*
X163239D01*
Y271866D01*
X160789D02*
X163239D01*
X160789Y273606D02*
Y275606D01*
Y273606D02*
X163239D01*
Y275606D01*
X160789D02*
X163239D01*
X153889Y273606D02*
Y275606D01*
X151439D02*
X153889D01*
X151439Y273606D02*
Y275606D01*
Y273606D02*
X153889D01*
Y266126D02*
Y268126D01*
X151439D02*
X153889D01*
X151439Y266126D02*
Y268126D01*
Y266126D02*
X153889D01*
X151974Y158252D02*
X154424D01*
X151974D02*
Y160252D01*
X154424D01*
Y158252D02*
Y160252D01*
X151974Y165732D02*
X154424D01*
X151974D02*
Y167732D01*
X154424D01*
Y165732D02*
Y167732D01*
X161324D02*
X163774D01*
Y165732D02*
Y167732D01*
X161324Y165732D02*
X163774D01*
X161324D02*
Y167732D01*
Y163992D02*
X163774D01*
Y161992D02*
Y163992D01*
X161324Y161992D02*
X163774D01*
X161324D02*
Y163992D01*
Y160252D02*
X163774D01*
Y158252D02*
Y160252D01*
X161324Y158252D02*
X163774D01*
X161324D02*
Y160252D01*
Y156992D02*
Y168992D01*
X154424Y156992D02*
X161324D01*
X154424D02*
Y168992D01*
X161324D01*
D62*
X329979Y142945D02*
D03*
X330166Y37113D02*
D03*
X315692Y90613D02*
D03*
X333341Y257945D02*
D03*
X316305Y204945D02*
D03*
X319667Y317945D02*
D03*
M02*
