G04*
G04 #@! TF.GenerationSoftware,Altium Limited,Altium Designer,23.10.1 (27)*
G04*
G04 Layer_Color=16711935*
%FSLAX25Y25*%
%MOIN*%
G70*
G04*
G04 #@! TF.SameCoordinates,D58E8A5F-C196-4DC0-9E6E-83BCDBF650AB*
G04*
G04*
G04 #@! TF.FilePolarity,Negative*
G04*
G01*
G75*
%ADD38C,0.04800*%
%ADD39C,0.07800*%
%ADD40C,0.07300*%
%ADD41C,0.06800*%
%ADD42R,0.06706X0.06706*%
%ADD43C,0.06706*%
%ADD44C,0.20800*%
%ADD45C,0.05800*%
%ADD57R,0.10642X0.07493*%
D38*
X146161Y77205D02*
D03*
Y87205D02*
D03*
X146063Y50236D02*
D03*
Y60236D02*
D03*
X148000Y302630D02*
D03*
Y312630D02*
D03*
Y275500D02*
D03*
Y285500D02*
D03*
X52000Y290000D02*
D03*
Y280000D02*
D03*
X148031Y247284D02*
D03*
Y257283D02*
D03*
X144000Y186630D02*
D03*
Y196630D02*
D03*
Y160630D02*
D03*
Y170630D02*
D03*
X53740Y173917D02*
D03*
Y163917D02*
D03*
X144000Y134630D02*
D03*
Y144630D02*
D03*
X53771Y68500D02*
D03*
Y58500D02*
D03*
X146000Y24630D02*
D03*
Y34630D02*
D03*
D39*
X205807Y328543D02*
D03*
X225492D02*
D03*
D40*
X51575Y254429D02*
D03*
X53937Y138504D02*
D03*
X54000Y31130D02*
D03*
D41*
X51575Y244429D02*
D03*
X53937Y128504D02*
D03*
X54000Y21130D02*
D03*
D42*
X19000Y134630D02*
D03*
D43*
Y144630D02*
D03*
Y154630D02*
D03*
Y164630D02*
D03*
Y174630D02*
D03*
Y184630D02*
D03*
Y194630D02*
D03*
Y204630D02*
D03*
Y214630D02*
D03*
Y224630D02*
D03*
Y234630D02*
D03*
Y244630D02*
D03*
Y254630D02*
D03*
Y264630D02*
D03*
Y274630D02*
D03*
D44*
X402500Y70000D02*
D03*
X405500Y179000D02*
D03*
X405512Y300197D02*
D03*
D45*
X163976Y269264D02*
D03*
X158760Y141732D02*
D03*
X223425Y168701D02*
D03*
X211811Y168405D02*
D03*
X213189Y208760D02*
D03*
X199016Y278543D02*
D03*
X197047Y265551D02*
D03*
X212894D02*
D03*
X71260Y269193D02*
D03*
X63681Y263386D02*
D03*
X250492Y228051D02*
D03*
X263287Y201673D02*
D03*
X276870D02*
D03*
X161319Y159646D02*
D03*
X83169Y240059D02*
D03*
X283169Y61319D02*
D03*
X179134Y126673D02*
D03*
X258000Y138000D02*
D03*
X202618Y145787D02*
D03*
X183000Y145000D02*
D03*
X258000Y148000D02*
D03*
X310000Y154000D02*
D03*
X199114Y162598D02*
D03*
X258000Y158500D02*
D03*
X183500Y40500D02*
D03*
X306000Y40000D02*
D03*
Y55000D02*
D03*
X255200Y258000D02*
D03*
X311000Y255000D02*
D03*
Y266000D02*
D03*
X309000Y172000D02*
D03*
X310000Y143000D02*
D03*
X306000Y29000D02*
D03*
X372000Y72000D02*
D03*
X37106Y252953D02*
D03*
X92618Y215256D02*
D03*
X161319Y186811D02*
D03*
X42126Y95472D02*
D03*
X165354Y77953D02*
D03*
X163779Y292520D02*
D03*
X39764Y170374D02*
D03*
X39469Y138287D02*
D03*
X31201Y170079D02*
D03*
X68405Y146752D02*
D03*
X165256Y47047D02*
D03*
X283465Y85925D02*
D03*
X200500Y70000D02*
D03*
X167520Y226969D02*
D03*
X160630Y31299D02*
D03*
X180217Y22736D02*
D03*
X44094Y231201D02*
D03*
X110630Y230807D02*
D03*
X178051Y237303D02*
D03*
X246949Y171063D02*
D03*
X287106Y313189D02*
D03*
X247146Y192717D02*
D03*
X196000Y172000D02*
D03*
X253303Y21339D02*
D03*
X253402Y31772D02*
D03*
X253500Y42500D02*
D03*
X307087Y85630D02*
D03*
Y96457D02*
D03*
Y107283D02*
D03*
X255300Y266800D02*
D03*
X307500Y204500D02*
D03*
Y215500D02*
D03*
Y227500D02*
D03*
X307000Y312500D02*
D03*
Y323500D02*
D03*
Y335000D02*
D03*
X183500Y193000D02*
D03*
X119500Y55000D02*
D03*
X373000Y187000D02*
D03*
X119500Y165000D02*
D03*
X375500Y298000D02*
D03*
X121000Y281000D02*
D03*
X118000Y330000D02*
D03*
X119500Y30000D02*
D03*
X66500Y39000D02*
D03*
X74000Y155000D02*
D03*
X308864Y282628D02*
D03*
X120500Y256000D02*
D03*
X255200Y249000D02*
D03*
X274500Y313000D02*
D03*
X39500Y147000D02*
D03*
X260500Y284000D02*
D03*
X119000Y140000D02*
D03*
X78500Y45000D02*
D03*
X84500Y15500D02*
D03*
X76500Y111500D02*
D03*
X36000Y270000D02*
D03*
X82500Y307500D02*
D03*
X72000Y308000D02*
D03*
X182000Y256500D02*
D03*
D57*
X363874Y152000D02*
D03*
X348126D02*
D03*
X363274Y44200D02*
D03*
X347526D02*
D03*
X364474Y97700D02*
D03*
X348726D02*
D03*
X364874Y267000D02*
D03*
X349126D02*
D03*
X365874Y214000D02*
D03*
X350126D02*
D03*
X366874Y327000D02*
D03*
X351126D02*
D03*
M02*
