G04*
G04 #@! TF.GenerationSoftware,Altium Limited,Altium Designer,23.10.1 (27)*
G04*
G04 Layer_Color=2752767*
%FSLAX25Y25*%
%MOIN*%
G70*
G04*
G04 #@! TF.SameCoordinates,92CF8CD3-C0A9-45A0-95EF-EEFF48AC6B84*
G04*
G04*
G04 #@! TF.FilePolarity,Positive*
G04*
G01*
G75*
%ADD59C,0.00500*%
D59*
X371441Y90307D02*
X372441Y92307D01*
X371441Y94307D01*
X373441Y93307D01*
X375441Y94307D01*
X374441Y92307D01*
X375441Y90307D01*
X373441Y91307D01*
X371441Y90307D01*
X122835Y40362D02*
X120835Y44362D01*
X124835D01*
X122835Y40362D01*
Y50362D02*
X120835Y54362D01*
X124835D01*
X122835Y50362D01*
Y65323D02*
X120835Y69323D01*
X124835D01*
X122835Y65323D01*
Y75323D02*
X120835Y79323D01*
X124835D01*
X122835Y75323D01*
X373197Y315717D02*
X374197Y317717D01*
X373197Y319717D01*
X375197Y318717D01*
X377197Y319717D01*
X376197Y317717D01*
X377197Y315717D01*
X375197Y316717D01*
X373197Y315717D01*
X43307Y18748D02*
X44307Y19748D01*
X45307D01*
X44307Y20748D01*
X45307Y21748D01*
X44307D01*
X43307Y22748D01*
X42307Y21748D01*
X41307D01*
X42307Y20748D01*
X41307Y19748D01*
X42307D01*
X43307Y18748D01*
Y8748D02*
X44307Y9748D01*
X45307D01*
X44307Y10748D01*
X45307Y11748D01*
X44307D01*
X43307Y12748D01*
X42307Y11748D01*
X41307D01*
X42307Y10748D01*
X41307Y9748D01*
X42307D01*
X43307Y8748D01*
Y57842D02*
X41307Y61843D01*
X45307D01*
X43307Y57842D01*
Y47842D02*
X41307Y51842D01*
X45307D01*
X43307Y47842D01*
X122441Y13197D02*
X120441Y17197D01*
X124441D01*
X122441Y13197D01*
Y23197D02*
X120441Y27197D01*
X124441D01*
X122441Y23197D01*
X156299Y318472D02*
X157299Y319472D01*
X158299D01*
X157299Y320472D01*
X158299Y321472D01*
X157299D01*
X156299Y322472D01*
X155299Y321472D01*
X154299D01*
X155299Y320472D01*
X154299Y319472D01*
X155299D01*
X156299Y318472D01*
X175984D02*
X176984Y319472D01*
X177984D01*
X176984Y320472D01*
X177984Y321472D01*
X176984D01*
X175984Y322472D01*
X174984Y321472D01*
X173984D01*
X174984Y320472D01*
X173984Y319472D01*
X174984D01*
X175984Y318472D01*
X120866Y292331D02*
X118866Y296331D01*
X122866D01*
X120866Y292331D01*
Y302331D02*
X118866Y306331D01*
X122866D01*
X120866Y302331D01*
X121260Y265165D02*
X119260Y269165D01*
X123260D01*
X121260Y265165D01*
Y275165D02*
X119260Y279165D01*
X123260D01*
X121260Y275165D01*
X40551Y279102D02*
X38551Y283102D01*
X42551D01*
X40551Y279102D01*
Y269102D02*
X38551Y273102D01*
X42551D01*
X40551Y269102D01*
X121653Y237606D02*
X119653Y241606D01*
X123653D01*
X121653Y237606D01*
Y247606D02*
X119653Y251606D01*
X123653D01*
X121653Y247606D01*
X120866Y175795D02*
X118866Y179795D01*
X122866D01*
X120866Y175795D01*
Y185795D02*
X118866Y189795D01*
X122866D01*
X120866Y185795D01*
Y150598D02*
X118866Y154598D01*
X122866D01*
X120866Y150598D01*
Y160598D02*
X118866Y164598D01*
X122866D01*
X120866Y160598D01*
X44685Y163256D02*
X42685Y167256D01*
X46685D01*
X44685Y163256D01*
Y153256D02*
X42685Y157256D01*
X46685D01*
X44685Y153256D01*
X121260Y123827D02*
X119260Y127827D01*
X123260D01*
X121260Y123827D01*
Y133827D02*
X119260Y137827D01*
X123260D01*
X121260Y133827D01*
X42520Y243768D02*
X43520Y244768D01*
X44520D01*
X43520Y245768D01*
X44520Y246768D01*
X43520D01*
X42520Y247768D01*
X41520Y246768D01*
X40520D01*
X41520Y245768D01*
X40520Y244768D01*
X41520D01*
X42520Y243768D01*
Y233768D02*
X43520Y234768D01*
X44520D01*
X43520Y235768D01*
X44520Y236768D01*
X43520D01*
X42520Y237768D01*
X41520Y236768D01*
X40520D01*
X41520Y235768D01*
X40520Y234768D01*
X41520D01*
X42520Y233768D01*
X43307Y118197D02*
X44307Y119197D01*
X45307D01*
X44307Y120197D01*
X45307Y121197D01*
X44307D01*
X43307Y122197D01*
X42307Y121197D01*
X41307D01*
X42307Y120197D01*
X41307Y119197D01*
X42307D01*
X43307Y118197D01*
Y128197D02*
X44307Y129197D01*
X45307D01*
X44307Y130197D01*
X45307Y131197D01*
X44307D01*
X43307Y132197D01*
X42307Y131197D01*
X41307D01*
X42307Y130197D01*
X41307Y129197D01*
X42307D01*
X43307Y128197D01*
X7945Y123969D02*
Y127969D01*
X11945D01*
Y123969D01*
X7945D01*
Y133968D02*
Y137969D01*
X11945D01*
Y133968D01*
X7945D01*
Y143968D02*
Y147968D01*
X11945D01*
Y143968D01*
X7945D01*
Y153969D02*
Y157968D01*
X11945D01*
Y153969D01*
X7945D01*
Y163969D02*
Y167968D01*
X11945D01*
Y163969D01*
X7945D01*
Y173969D02*
Y177969D01*
X11945D01*
Y173969D01*
X7945D01*
Y183968D02*
Y187969D01*
X11945D01*
Y183968D01*
X7945D01*
Y193968D02*
Y197968D01*
X11945D01*
Y193968D01*
X7945D01*
Y203969D02*
Y207968D01*
X11945D01*
Y203969D01*
X7945D01*
Y213968D02*
Y217969D01*
X11945D01*
Y213968D01*
X7945D01*
Y223969D02*
Y227969D01*
X11945D01*
Y223969D01*
X7945D01*
Y233968D02*
Y237968D01*
X11945D01*
Y233968D01*
X7945D01*
Y243969D02*
Y247969D01*
X11945D01*
Y243969D01*
X7945D01*
Y253969D02*
Y257968D01*
X11945D01*
Y253969D01*
X7945D01*
Y263968D02*
Y267969D01*
X11945D01*
Y263968D01*
X7945D01*
X372410Y201937D02*
X373410Y203937D01*
X372410Y205937D01*
X374410Y204937D01*
X376410Y205937D01*
X375410Y203937D01*
X376410Y201937D01*
X374410Y202937D01*
X372410Y201937D01*
X95669Y230677D02*
X93669Y234677D01*
X97669D01*
X95669Y230677D01*
X98425Y110205D02*
X96425Y114205D01*
X100425D01*
X98425Y110205D01*
X159449Y27134D02*
X157449Y31134D01*
X161449D01*
X159449Y27134D01*
X213779Y270441D02*
X211779Y274441D01*
X215779D01*
X213779Y270441D01*
X220866Y309024D02*
X218866Y313024D01*
X222866D01*
X220866Y309024D01*
X209449Y315717D02*
X207449Y319717D01*
X211449D01*
X209449Y315717D01*
X250787Y299575D02*
X248787Y303575D01*
X252787D01*
X250787Y299575D01*
X270472Y312567D02*
X268472Y316567D01*
X272472D01*
X270472Y312567D01*
Y301543D02*
X268472Y305543D01*
X272472D01*
X270472Y301543D01*
X250394Y76839D02*
X248394Y80839D01*
X252394D01*
X250394Y76839D01*
X70866Y228315D02*
X68866Y232315D01*
X72866D01*
X70866Y228315D01*
X70079Y111779D02*
X68079Y115779D01*
X72079D01*
X70079Y111779D01*
X70472Y6268D02*
X68472Y10268D01*
X72472D01*
X70472Y6268D01*
X139370Y279890D02*
X137370Y283890D01*
X141370D01*
X139370Y279890D01*
X71653Y196819D02*
X69653Y200819D01*
X73654D01*
X71653Y196819D01*
X155905Y174673D02*
X153905Y178673D01*
X157905D01*
X155905Y174673D01*
X139370Y174772D02*
X137370Y178772D01*
X141370D01*
X139370Y174772D01*
X172047Y175165D02*
X170047Y179165D01*
X174047D01*
X172047Y175165D01*
X274410Y158236D02*
X272410Y162236D01*
X276410D01*
X274410Y158236D01*
X250000Y49968D02*
X248000Y53969D01*
X252000D01*
X250000Y49968D01*
X174409Y54524D02*
X172409Y58524D01*
X176409D01*
X174409Y54524D01*
X139567Y256634D02*
X137567Y260634D01*
X141567D01*
X139567Y256634D01*
X174606Y265913D02*
X172606Y269913D01*
X176606D01*
X174606Y265913D01*
X220079Y203512D02*
X218079Y207512D01*
X222079D01*
X220079Y203512D01*
X212598Y196031D02*
X210598Y200031D01*
X214598D01*
X212598Y196031D01*
X201181Y222579D02*
X199181Y226579D01*
X203181D01*
X201181Y222579D01*
X187795Y138157D02*
X185795Y142157D01*
X189795D01*
X187795Y138157D01*
X139764Y99575D02*
X137764Y103575D01*
X141764D01*
X139764Y99575D01*
Y87370D02*
X137764Y91370D01*
X141764D01*
X139764Y87370D01*
X163779Y69260D02*
X161779Y73260D01*
X165779D01*
X163779Y69260D01*
X173622Y160992D02*
X171622Y164992D01*
X175622D01*
X173622Y160992D01*
X191732Y207449D02*
X189732Y211449D01*
X193732D01*
X191732Y207449D01*
X181496Y243276D02*
X179496Y247276D01*
X183496D01*
X181496Y243276D01*
X174213Y214634D02*
X172213Y218634D01*
X176213D01*
X174213Y214634D01*
X147280Y198480D02*
X145280Y202480D01*
X149279D01*
X147280Y198480D01*
X139764Y33827D02*
X137764Y37827D01*
X141764D01*
X139764Y33827D01*
X140157Y20835D02*
X138157Y24835D01*
X142157D01*
X140157Y20835D01*
Y67291D02*
X138157Y71291D01*
X142157D01*
X140157Y67291D01*
X98032Y5087D02*
X96031Y9087D01*
X100031D01*
X98032Y5087D01*
X105512Y44063D02*
X103512Y48063D01*
X107512D01*
X105512Y44063D01*
X43307Y30677D02*
X41307Y34677D01*
X45307D01*
X43307Y30677D01*
X54724Y144850D02*
X52724Y148850D01*
X56724D01*
X54724Y144850D01*
X57480Y37370D02*
X55480Y41370D01*
X59480D01*
X57480Y37370D01*
X139370Y147606D02*
X137370Y151606D01*
X141370D01*
X139370Y147606D01*
X172638Y252921D02*
X170638Y256921D01*
X174638D01*
X172638Y252921D01*
X143110Y214339D02*
X141110Y218339D01*
X145110D01*
X143110Y214339D01*
X103937Y268866D02*
X101937Y272866D01*
X105937D01*
X103937Y268866D01*
X48819Y183433D02*
X46819Y187433D01*
X50819D01*
X48819Y183433D01*
X100787Y216898D02*
X98787Y220898D01*
X102787D01*
X100787Y216898D01*
X64173Y298787D02*
X62173Y302787D01*
X66173D01*
X64173Y298787D01*
X48425Y298394D02*
X46425Y302394D01*
X50425D01*
X48425Y298394D01*
X103937Y153905D02*
X101937Y157905D01*
X105937D01*
X103937Y153905D01*
X40157Y139732D02*
X38157Y143732D01*
X42158D01*
X40157Y139732D01*
X26772Y156661D02*
X24772Y160661D01*
X28772D01*
X26772Y156661D01*
X20472Y164929D02*
X18472Y168929D01*
X22472D01*
X20472Y164929D01*
X39764Y183433D02*
X37764Y187433D01*
X41764D01*
X39764Y183433D01*
X33071Y84811D02*
X31071Y88811D01*
X35071D01*
X33071Y84811D01*
X62205Y258531D02*
X60205Y262531D01*
X64205D01*
X62205Y258531D01*
X54626Y252724D02*
X52626Y256724D01*
X56626D01*
X54626Y252724D01*
X224142Y126945D02*
X222142Y130945D01*
X226142D01*
X224142Y126945D01*
X158197Y135520D02*
X156197Y139520D01*
X160197D01*
X158197Y135520D01*
X224142Y136945D02*
X222142Y140945D01*
X226142D01*
X224142Y136945D01*
X276142Y142945D02*
X274142Y146945D01*
X278142D01*
X276142Y142945D01*
X224142Y147445D02*
X222142Y151445D01*
X226142D01*
X224142Y147445D01*
X272929Y30913D02*
X270929Y34913D01*
X274929D01*
X272929Y30913D01*
Y45913D02*
X270929Y49913D01*
X274929D01*
X272929Y45913D01*
X223704Y246945D02*
X221704Y250945D01*
X225704D01*
X223704Y246945D01*
X279504Y243945D02*
X277504Y247945D01*
X281504D01*
X279504Y243945D01*
Y254945D02*
X277504Y258945D01*
X281504D01*
X279504Y254945D01*
X276142Y131945D02*
X274142Y135945D01*
X278142D01*
X276142Y131945D01*
X272929Y19913D02*
X270929Y23913D01*
X274929D01*
X272929Y19913D01*
X338929Y62913D02*
X336929Y66913D01*
X340929D01*
X338929Y62913D01*
X28051Y242291D02*
X26051Y246291D01*
X30051D01*
X28051Y242291D01*
X35039Y220539D02*
X33039Y224539D01*
X37039D01*
X35039Y220539D01*
X153642Y224673D02*
X151642Y228673D01*
X155642D01*
X153642Y224673D01*
X220232Y12252D02*
X218232Y16252D01*
X222232D01*
X220232Y12252D01*
X220331Y22685D02*
X218331Y26685D01*
X222331D01*
X220331Y22685D01*
X220429Y33413D02*
X218429Y37413D01*
X222429D01*
X220429Y33413D01*
X271260Y76346D02*
X269260Y80347D01*
X273260D01*
X271260Y76346D01*
Y87370D02*
X269260Y91370D01*
X273260D01*
X271260Y87370D01*
Y98394D02*
X269260Y102394D01*
X273260D01*
X271260Y98394D01*
X223804Y255745D02*
X221804Y259745D01*
X225804D01*
X223804Y255745D01*
X270152Y192945D02*
X268152Y196945D01*
X272152D01*
X270152Y192945D01*
X269652Y204445D02*
X267652Y208445D01*
X271652D01*
X269652Y204445D01*
Y215445D02*
X267652Y219445D01*
X271652D01*
X269652Y215445D01*
X270472Y323984D02*
X268472Y327984D01*
X272472D01*
X270472Y323984D01*
X339142Y175945D02*
X337142Y179945D01*
X341142D01*
X339142Y175945D01*
X344004Y286945D02*
X342004Y290945D01*
X346004D01*
X344004Y286945D01*
X108945Y319339D02*
X106945Y323339D01*
X110945D01*
X108945Y319339D01*
X277367Y271573D02*
X275367Y275573D01*
X279367D01*
X277367Y271573D01*
X223704Y237945D02*
X221704Y241945D01*
X225704D01*
X223704Y237945D01*
X26945Y259339D02*
X24945Y263339D01*
X28945D01*
X26945Y259339D01*
X157590Y243870D02*
X155590Y247870D01*
X159590D01*
X157590Y243870D01*
M02*
